<svg width="26" height="26" fill="none" xmlns="http://www.w3.org/2000/svg"><g clip-path="url(#clip0)"><path d="M22.23 3.736C19.76 1.35 16.51 0 13.049 0 3.115 0-3.123 10.763 1.837 19.325L0 26l6.863-1.79c2.99 1.616 5.44 1.473 6.192 1.568 11.52 0 17.253-13.936 9.159-22l.016-.042z" fill="#ECEFF1"/><path d="M13.073 23.564l-.007-.002h-.017c-3.447 0-5.65-1.632-5.866-1.726L3.12 22.892l1.089-3.949-.259-.406a10.69 10.69 0 01-1.642-5.698c0-9.526 11.64-14.29 18.376-7.557 6.72 6.663 2.002 18.282-7.611 18.282z" fill="#4CAF50"/><path d="M18.966 15.5l-.01.08c-.326-.162-1.914-.939-2.21-1.046-.664-.246-.477-.039-1.752 1.421-.19.212-.378.228-.7.082-.325-.163-1.368-.504-2.603-1.61-.962-.86-1.607-1.917-1.798-2.242-.318-.548.347-.626.951-1.77.108-.227.053-.406-.027-.567-.081-.163-.728-1.755-.999-2.39-.26-.633-.527-.553-.728-.553-.624-.054-1.08-.045-1.482.373-1.748 1.922-1.307 3.904.189 6.012 2.94 3.848 4.506 4.557 7.37 5.54.774.247 1.48.212 2.037.132.622-.099 1.915-.781 2.184-1.545.277-.764.277-1.398.195-1.544-.08-.146-.292-.227-.617-.374z" fill="#FAFAFA"/></g><defs><clipPath id="clip0"><path fill="#fff" d="M0 0h26v26H0z"/></clipPath></defs></svg>