<svg width="226" height="96" viewBox="0 0 226 96" fill="none" xmlns="http://www.w3.org/2000/svg">
<path d="M10 5C10 7.76142 7.76142 10 5 10C2.23858 10 0 7.76142 0 5C0 2.23858 2.23858 0 5 0C7.76142 0 10 2.23858 10 5Z" fill="#63B167"/>
<path d="M10 5C10 7.76142 7.76142 10 5 10C2.23858 10 0 7.76142 0 5C0 2.23858 2.23858 0 5 0C7.76142 0 10 2.23858 10 5Z" fill="#63B167"/>
<path d="M37 5C37 7.76142 34.7614 10 32 10C29.2386 10 27 7.76142 27 5C27 2.23858 29.2386 0 32 0C34.7614 0 37 2.23858 37 5Z" fill="#63B167"/>
<path d="M37 5C37 7.76142 34.7614 10 32 10C29.2386 10 27 7.76142 27 5C27 2.23858 29.2386 0 32 0C34.7614 0 37 2.23858 37 5Z" fill="#63B167"/>
<path d="M91 5C91 7.76142 88.7614 10 86 10C83.2386 10 81 7.76142 81 5C81 2.23858 83.2386 0 86 0C88.7614 0 91 2.23858 91 5Z" fill="#63B167"/>
<path d="M91 5C91 7.76142 88.7614 10 86 10C83.2386 10 81 7.76142 81 5C81 2.23858 83.2386 0 86 0C88.7614 0 91 2.23858 91 5Z" fill="#63B167"/>
<path d="M226 7C226 9.76142 223.761 12 221 12C218.239 12 216 9.76142 216 7C216 4.23858 218.239 2 221 2C223.761 2 226 4.23858 226 7Z" fill="#63B167"/>
<path d="M226 7C226 9.76142 223.761 12 221 12C218.239 12 216 9.76142 216 7C216 4.23858 218.239 2 221 2C223.761 2 226 4.23858 226 7Z" fill="#63B167"/>
<path d="M172 5C172 7.76142 169.761 10 167 10C164.239 10 162 7.76142 162 5C162 2.23858 164.239 0 167 0C169.761 0 172 2.23858 172 5Z" fill="#63B167"/>
<path d="M172 5C172 7.76142 169.761 10 167 10C164.239 10 162 7.76142 162 5C162 2.23858 164.239 0 167 0C169.761 0 172 2.23858 172 5Z" fill="#63B167"/>
<path d="M145 5C145 7.76142 142.761 10 140 10C137.239 10 135 7.76142 135 5C135 2.23858 137.239 0 140 0C142.761 0 145 2.23858 145 5Z" fill="#63B167"/>
<path d="M145 5C145 7.76142 142.761 10 140 10C137.239 10 135 7.76142 135 5C135 2.23858 137.239 0 140 0C142.761 0 145 2.23858 145 5Z" fill="#63B167"/>
<path d="M199 6C199 8.76142 196.761 11 194 11C191.239 11 189 8.76142 189 6C189 3.23858 191.239 1 194 1C196.761 1 199 3.23858 199 6Z" fill="#63B167"/>
<path d="M199 6C199 8.76142 196.761 11 194 11C191.239 11 189 8.76142 189 6C189 3.23858 191.239 1 194 1C196.761 1 199 3.23858 199 6Z" fill="#63B167"/>
<path d="M64 5C64 7.76142 61.7614 10 59 10C56.2386 10 54 7.76142 54 5C54 2.23858 56.2386 0 59 0C61.7614 0 64 2.23858 64 5Z" fill="#63B167"/>
<path d="M64 5C64 7.76142 61.7614 10 59 10C56.2386 10 54 7.76142 54 5C54 2.23858 56.2386 0 59 0C61.7614 0 64 2.23858 64 5Z" fill="#63B167"/>
<path d="M118 5C118 7.76142 115.761 10 113 10C110.239 10 108 7.76142 108 5C108 2.23858 110.239 0 113 0C115.761 0 118 2.23858 118 5Z" fill="#63B167"/>
<path d="M118 5C118 7.76142 115.761 10 113 10C110.239 10 108 7.76142 108 5C108 2.23858 110.239 0 113 0C115.761 0 118 2.23858 118 5Z" fill="#63B167"/>
<path d="M10 25C10 27.7614 7.76142 30 5 30C2.23858 30 0 27.7614 0 25C0 22.2386 2.23858 20 5 20C7.76142 20 10 22.2386 10 25Z" fill="#63B167"/>
<path d="M10 25C10 27.7614 7.76142 30 5 30C2.23858 30 0 27.7614 0 25C0 22.2386 2.23858 20 5 20C7.76142 20 10 22.2386 10 25Z" fill="#63B167"/>
<path d="M37 25C37 27.7614 34.7614 30 32 30C29.2386 30 27 27.7614 27 25C27 22.2386 29.2386 20 32 20C34.7614 20 37 22.2386 37 25Z" fill="#63B167"/>
<path d="M37 25C37 27.7614 34.7614 30 32 30C29.2386 30 27 27.7614 27 25C27 22.2386 29.2386 20 32 20C34.7614 20 37 22.2386 37 25Z" fill="#63B167"/>
<path d="M91 25C91 27.7614 88.7614 30 86 30C83.2386 30 81 27.7614 81 25C81 22.2386 83.2386 20 86 20C88.7614 20 91 22.2386 91 25Z" fill="#63B167"/>
<path d="M91 25C91 27.7614 88.7614 30 86 30C83.2386 30 81 27.7614 81 25C81 22.2386 83.2386 20 86 20C88.7614 20 91 22.2386 91 25Z" fill="#63B167"/>
<path d="M226 27C226 29.7614 223.761 32 221 32C218.239 32 216 29.7614 216 27C216 24.2386 218.239 22 221 22C223.761 22 226 24.2386 226 27Z" fill="#63B167"/>
<path d="M226 27C226 29.7614 223.761 32 221 32C218.239 32 216 29.7614 216 27C216 24.2386 218.239 22 221 22C223.761 22 226 24.2386 226 27Z" fill="#63B167"/>
<path d="M172 25C172 27.7614 169.761 30 167 30C164.239 30 162 27.7614 162 25C162 22.2386 164.239 20 167 20C169.761 20 172 22.2386 172 25Z" fill="#63B167"/>
<path d="M172 25C172 27.7614 169.761 30 167 30C164.239 30 162 27.7614 162 25C162 22.2386 164.239 20 167 20C169.761 20 172 22.2386 172 25Z" fill="#63B167"/>
<path d="M145 25C145 27.7614 142.761 30 140 30C137.239 30 135 27.7614 135 25C135 22.2386 137.239 20 140 20C142.761 20 145 22.2386 145 25Z" fill="#63B167"/>
<path d="M145 25C145 27.7614 142.761 30 140 30C137.239 30 135 27.7614 135 25C135 22.2386 137.239 20 140 20C142.761 20 145 22.2386 145 25Z" fill="#63B167"/>
<path d="M199 26C199 28.7614 196.761 31 194 31C191.239 31 189 28.7614 189 26C189 23.2386 191.239 21 194 21C196.761 21 199 23.2386 199 26Z" fill="#63B167"/>
<path d="M199 26C199 28.7614 196.761 31 194 31C191.239 31 189 28.7614 189 26C189 23.2386 191.239 21 194 21C196.761 21 199 23.2386 199 26Z" fill="#63B167"/>
<path d="M64 25C64 27.7614 61.7614 30 59 30C56.2386 30 54 27.7614 54 25C54 22.2386 56.2386 20 59 20C61.7614 20 64 22.2386 64 25Z" fill="#63B167"/>
<path d="M64 25C64 27.7614 61.7614 30 59 30C56.2386 30 54 27.7614 54 25C54 22.2386 56.2386 20 59 20C61.7614 20 64 22.2386 64 25Z" fill="#63B167"/>
<path d="M118 25C118 27.7614 115.761 30 113 30C110.239 30 108 27.7614 108 25C108 22.2386 110.239 20 113 20C115.761 20 118 22.2386 118 25Z" fill="#63B167"/>
<path d="M118 25C118 27.7614 115.761 30 113 30C110.239 30 108 27.7614 108 25C108 22.2386 110.239 20 113 20C115.761 20 118 22.2386 118 25Z" fill="#63B167"/>
<path d="M10 45C10 47.7614 7.76142 50 5 50C2.23858 50 0 47.7614 0 45C0 42.2386 2.23858 40 5 40C7.76142 40 10 42.2386 10 45Z" fill="#63B167"/>
<path d="M10 45C10 47.7614 7.76142 50 5 50C2.23858 50 0 47.7614 0 45C0 42.2386 2.23858 40 5 40C7.76142 40 10 42.2386 10 45Z" fill="#63B167"/>
<path d="M10 67C10 69.7614 7.76142 72 5 72C2.23858 72 0 69.7614 0 67C0 64.2386 2.23858 62 5 62C7.76142 62 10 64.2386 10 67Z" fill="#63B167"/>
<path d="M10 67C10 69.7614 7.76142 72 5 72C2.23858 72 0 69.7614 0 67C0 64.2386 2.23858 62 5 62C7.76142 62 10 64.2386 10 67Z" fill="#63B167"/>
<path d="M10 89C10 91.7614 7.76142 94 5 94C2.23858 94 0 91.7614 0 89C0 86.2386 2.23858 84 5 84C7.76142 84 10 86.2386 10 89Z" fill="#63B167"/>
<path d="M10 89C10 91.7614 7.76142 94 5 94C2.23858 94 0 91.7614 0 89C0 86.2386 2.23858 84 5 84C7.76142 84 10 86.2386 10 89Z" fill="#63B167"/>
<path d="M37 45C37 47.7614 34.7614 50 32 50C29.2386 50 27 47.7614 27 45C27 42.2386 29.2386 40 32 40C34.7614 40 37 42.2386 37 45Z" fill="#63B167"/>
<path d="M37 45C37 47.7614 34.7614 50 32 50C29.2386 50 27 47.7614 27 45C27 42.2386 29.2386 40 32 40C34.7614 40 37 42.2386 37 45Z" fill="#63B167"/>
<path d="M37 67C37 69.7614 34.7614 72 32 72C29.2386 72 27 69.7614 27 67C27 64.2386 29.2386 62 32 62C34.7614 62 37 64.2386 37 67Z" fill="#63B167"/>
<path d="M37 67C37 69.7614 34.7614 72 32 72C29.2386 72 27 69.7614 27 67C27 64.2386 29.2386 62 32 62C34.7614 62 37 64.2386 37 67Z" fill="#63B167"/>
<path d="M37 89C37 91.7614 34.7614 94 32 94C29.2386 94 27 91.7614 27 89C27 86.2386 29.2386 84 32 84C34.7614 84 37 86.2386 37 89Z" fill="#63B167"/>
<path d="M37 89C37 91.7614 34.7614 94 32 94C29.2386 94 27 91.7614 27 89C27 86.2386 29.2386 84 32 84C34.7614 84 37 86.2386 37 89Z" fill="#63B167"/>
<path d="M91 45C91 47.7614 88.7614 50 86 50C83.2386 50 81 47.7614 81 45C81 42.2386 83.2386 40 86 40C88.7614 40 91 42.2386 91 45Z" fill="#63B167"/>
<path d="M91 45C91 47.7614 88.7614 50 86 50C83.2386 50 81 47.7614 81 45C81 42.2386 83.2386 40 86 40C88.7614 40 91 42.2386 91 45Z" fill="#63B167"/>
<path d="M91 67C91 69.7614 88.7614 72 86 72C83.2386 72 81 69.7614 81 67C81 64.2386 83.2386 62 86 62C88.7614 62 91 64.2386 91 67Z" fill="#63B167"/>
<path d="M91 67C91 69.7614 88.7614 72 86 72C83.2386 72 81 69.7614 81 67C81 64.2386 83.2386 62 86 62C88.7614 62 91 64.2386 91 67Z" fill="#63B167"/>
<path d="M91 89C91 91.7614 88.7614 94 86 94C83.2386 94 81 91.7614 81 89C81 86.2386 83.2386 84 86 84C88.7614 84 91 86.2386 91 89Z" fill="#63B167"/>
<path d="M91 89C91 91.7614 88.7614 94 86 94C83.2386 94 81 91.7614 81 89C81 86.2386 83.2386 84 86 84C88.7614 84 91 86.2386 91 89Z" fill="#63B167"/>
<path d="M226 47C226 49.7614 223.761 52 221 52C218.239 52 216 49.7614 216 47C216 44.2386 218.239 42 221 42C223.761 42 226 44.2386 226 47Z" fill="#63B167"/>
<path d="M226 47C226 49.7614 223.761 52 221 52C218.239 52 216 49.7614 216 47C216 44.2386 218.239 42 221 42C223.761 42 226 44.2386 226 47Z" fill="#63B167"/>
<path d="M226 69C226 71.7614 223.761 74 221 74C218.239 74 216 71.7614 216 69C216 66.2386 218.239 64 221 64C223.761 64 226 66.2386 226 69Z" fill="#63B167"/>
<path d="M226 69C226 71.7614 223.761 74 221 74C218.239 74 216 71.7614 216 69C216 66.2386 218.239 64 221 64C223.761 64 226 66.2386 226 69Z" fill="#63B167"/>
<path d="M226 91C226 93.7614 223.761 96 221 96C218.239 96 216 93.7614 216 91C216 88.2386 218.239 86 221 86C223.761 86 226 88.2386 226 91Z" fill="#63B167"/>
<path d="M226 91C226 93.7614 223.761 96 221 96C218.239 96 216 93.7614 216 91C216 88.2386 218.239 86 221 86C223.761 86 226 88.2386 226 91Z" fill="#63B167"/>
<path d="M172 45C172 47.7614 169.761 50 167 50C164.239 50 162 47.7614 162 45C162 42.2386 164.239 40 167 40C169.761 40 172 42.2386 172 45Z" fill="#63B167"/>
<path d="M172 45C172 47.7614 169.761 50 167 50C164.239 50 162 47.7614 162 45C162 42.2386 164.239 40 167 40C169.761 40 172 42.2386 172 45Z" fill="#63B167"/>
<path d="M172 67C172 69.7614 169.761 72 167 72C164.239 72 162 69.7614 162 67C162 64.2386 164.239 62 167 62C169.761 62 172 64.2386 172 67Z" fill="#63B167"/>
<path d="M172 67C172 69.7614 169.761 72 167 72C164.239 72 162 69.7614 162 67C162 64.2386 164.239 62 167 62C169.761 62 172 64.2386 172 67Z" fill="#63B167"/>
<path d="M172 89C172 91.7614 169.761 94 167 94C164.239 94 162 91.7614 162 89C162 86.2386 164.239 84 167 84C169.761 84 172 86.2386 172 89Z" fill="#63B167"/>
<path d="M172 89C172 91.7614 169.761 94 167 94C164.239 94 162 91.7614 162 89C162 86.2386 164.239 84 167 84C169.761 84 172 86.2386 172 89Z" fill="#63B167"/>
<path d="M145 45C145 47.7614 142.761 50 140 50C137.239 50 135 47.7614 135 45C135 42.2386 137.239 40 140 40C142.761 40 145 42.2386 145 45Z" fill="#63B167"/>
<path d="M145 45C145 47.7614 142.761 50 140 50C137.239 50 135 47.7614 135 45C135 42.2386 137.239 40 140 40C142.761 40 145 42.2386 145 45Z" fill="#63B167"/>
<path d="M145 67C145 69.7614 142.761 72 140 72C137.239 72 135 69.7614 135 67C135 64.2386 137.239 62 140 62C142.761 62 145 64.2386 145 67Z" fill="#63B167"/>
<path d="M145 67C145 69.7614 142.761 72 140 72C137.239 72 135 69.7614 135 67C135 64.2386 137.239 62 140 62C142.761 62 145 64.2386 145 67Z" fill="#63B167"/>
<path d="M145 89C145 91.7614 142.761 94 140 94C137.239 94 135 91.7614 135 89C135 86.2386 137.239 84 140 84C142.761 84 145 86.2386 145 89Z" fill="#63B167"/>
<path d="M145 89C145 91.7614 142.761 94 140 94C137.239 94 135 91.7614 135 89C135 86.2386 137.239 84 140 84C142.761 84 145 86.2386 145 89Z" fill="#63B167"/>
<path d="M199 46C199 48.7614 196.761 51 194 51C191.239 51 189 48.7614 189 46C189 43.2386 191.239 41 194 41C196.761 41 199 43.2386 199 46Z" fill="#63B167"/>
<path d="M199 46C199 48.7614 196.761 51 194 51C191.239 51 189 48.7614 189 46C189 43.2386 191.239 41 194 41C196.761 41 199 43.2386 199 46Z" fill="#63B167"/>
<path d="M199 68C199 70.7614 196.761 73 194 73C191.239 73 189 70.7614 189 68C189 65.2386 191.239 63 194 63C196.761 63 199 65.2386 199 68Z" fill="#63B167"/>
<path d="M199 68C199 70.7614 196.761 73 194 73C191.239 73 189 70.7614 189 68C189 65.2386 191.239 63 194 63C196.761 63 199 65.2386 199 68Z" fill="#63B167"/>
<path d="M199 90C199 92.7614 196.761 95 194 95C191.239 95 189 92.7614 189 90C189 87.2386 191.239 85 194 85C196.761 85 199 87.2386 199 90Z" fill="#63B167"/>
<path d="M199 90C199 92.7614 196.761 95 194 95C191.239 95 189 92.7614 189 90C189 87.2386 191.239 85 194 85C196.761 85 199 87.2386 199 90Z" fill="#63B167"/>
<path d="M64 45C64 47.7614 61.7614 50 59 50C56.2386 50 54 47.7614 54 45C54 42.2386 56.2386 40 59 40C61.7614 40 64 42.2386 64 45Z" fill="#63B167"/>
<path d="M64 45C64 47.7614 61.7614 50 59 50C56.2386 50 54 47.7614 54 45C54 42.2386 56.2386 40 59 40C61.7614 40 64 42.2386 64 45Z" fill="#63B167"/>
<path d="M64 67C64 69.7614 61.7614 72 59 72C56.2386 72 54 69.7614 54 67C54 64.2386 56.2386 62 59 62C61.7614 62 64 64.2386 64 67Z" fill="#63B167"/>
<path d="M64 67C64 69.7614 61.7614 72 59 72C56.2386 72 54 69.7614 54 67C54 64.2386 56.2386 62 59 62C61.7614 62 64 64.2386 64 67Z" fill="#63B167"/>
<path d="M64 89C64 91.7614 61.7614 94 59 94C56.2386 94 54 91.7614 54 89C54 86.2386 56.2386 84 59 84C61.7614 84 64 86.2386 64 89Z" fill="#63B167"/>
<path d="M64 89C64 91.7614 61.7614 94 59 94C56.2386 94 54 91.7614 54 89C54 86.2386 56.2386 84 59 84C61.7614 84 64 86.2386 64 89Z" fill="#63B167"/>
<path d="M118 45C118 47.7614 115.761 50 113 50C110.239 50 108 47.7614 108 45C108 42.2386 110.239 40 113 40C115.761 40 118 42.2386 118 45Z" fill="#63B167"/>
<path d="M118 45C118 47.7614 115.761 50 113 50C110.239 50 108 47.7614 108 45C108 42.2386 110.239 40 113 40C115.761 40 118 42.2386 118 45Z" fill="#63B167"/>
<path d="M118 67C118 69.7614 115.761 72 113 72C110.239 72 108 69.7614 108 67C108 64.2386 110.239 62 113 62C115.761 62 118 64.2386 118 67Z" fill="#63B167"/>
<path d="M118 67C118 69.7614 115.761 72 113 72C110.239 72 108 69.7614 108 67C108 64.2386 110.239 62 113 62C115.761 62 118 64.2386 118 67Z" fill="#63B167"/>
<path d="M118 89C118 91.7614 115.761 94 113 94C110.239 94 108 91.7614 108 89C108 86.2386 110.239 84 113 84C115.761 84 118 86.2386 118 89Z" fill="#63B167"/>
<path d="M118 89C118 91.7614 115.761 94 113 94C110.239 94 108 91.7614 108 89C108 86.2386 110.239 84 113 84C115.761 84 118 86.2386 118 89Z" fill="#63B167"/>
</svg>
