<svg width="226" height="96" fill="none" xmlns="http://www.w3.org/2000/svg"><path d="M10 5A5 5 0 110 5a5 5 0 0110 0z" fill="#63B167"/><path d="M10 5A5 5 0 110 5a5 5 0 0110 0zm27 0a5 5 0 11-10 0 5 5 0 0110 0z" fill="#63B167"/><path d="M37 5a5 5 0 11-10 0 5 5 0 0110 0zm54 0a5 5 0 11-10 0 5 5 0 0110 0z" fill="#63B167"/><path d="M91 5a5 5 0 11-10 0 5 5 0 0110 0zm135 2a5 5 0 11-10 0 5 5 0 0110 0z" fill="#63B167"/><path d="M226 7a5 5 0 11-10 0 5 5 0 0110 0zm-54-2a5 5 0 11-10 0 5 5 0 0110 0z" fill="#63B167"/><path d="M172 5a5 5 0 11-10 0 5 5 0 0110 0zm-27 0a5 5 0 11-10 0 5 5 0 0110 0z" fill="#63B167"/><path d="M145 5a5 5 0 11-10 0 5 5 0 0110 0zm54 1a5 5 0 11-10 0 5 5 0 0110 0z" fill="#63B167"/><path d="M199 6a5 5 0 11-10 0 5 5 0 0110 0zM64 5a5 5 0 11-10 0 5 5 0 0110 0z" fill="#63B167"/><path d="M64 5a5 5 0 11-10 0 5 5 0 0110 0zm54 0a5 5 0 11-10 0 5 5 0 0110 0z" fill="#63B167"/><path d="M118 5a5 5 0 11-10 0 5 5 0 0110 0zM10 25a5 5 0 11-10 0 5 5 0 0110 0z" fill="#63B167"/><path d="M10 25a5 5 0 11-10 0 5 5 0 0110 0zm27 0a5 5 0 11-10 0 5 5 0 0110 0z" fill="#63B167"/><path d="M37 25a5 5 0 11-10 0 5 5 0 0110 0zm54 0a5 5 0 11-10 0 5 5 0 0110 0z" fill="#63B167"/><path d="M91 25a5 5 0 11-10 0 5 5 0 0110 0zm135 2a5 5 0 11-10 0 5 5 0 0110 0z" fill="#63B167"/><path d="M226 27a5 5 0 11-10 0 5 5 0 0110 0zm-54-2a5 5 0 11-10 0 5 5 0 0110 0z" fill="#63B167"/><path d="M172 25a5 5 0 11-10 0 5 5 0 0110 0zm-27 0a5 5 0 11-10 0 5 5 0 0110 0z" fill="#63B167"/><path d="M145 25a5 5 0 11-10 0 5 5 0 0110 0zm54 1a5 5 0 11-10 0 5 5 0 0110 0z" fill="#63B167"/><path d="M199 26a5 5 0 11-10 0 5 5 0 0110 0zM64 25a5 5 0 11-10 0 5 5 0 0110 0z" fill="#63B167"/><path d="M64 25a5 5 0 11-10 0 5 5 0 0110 0zm54 0a5 5 0 11-10 0 5 5 0 0110 0z" fill="#63B167"/><path d="M118 25a5 5 0 11-10 0 5 5 0 0110 0zM10 45a5 5 0 11-10 0 5 5 0 0110 0z" fill="#63B167"/><path d="M10 45a5 5 0 11-10 0 5 5 0 0110 0zm0 22a5 5 0 11-10 0 5 5 0 0110 0z" fill="#63B167"/><path d="M10 67a5 5 0 11-10 0 5 5 0 0110 0zm0 22a5 5 0 11-10 0 5 5 0 0110 0z" fill="#63B167"/><path d="M10 89a5 5 0 11-10 0 5 5 0 0110 0zm27-44a5 5 0 11-10 0 5 5 0 0110 0z" fill="#63B167"/><path d="M37 45a5 5 0 11-10 0 5 5 0 0110 0zm0 22a5 5 0 11-10 0 5 5 0 0110 0z" fill="#63B167"/><path d="M37 67a5 5 0 11-10 0 5 5 0 0110 0zm0 22a5 5 0 11-10 0 5 5 0 0110 0z" fill="#63B167"/><path d="M37 89a5 5 0 11-10 0 5 5 0 0110 0zm54-44a5 5 0 11-10 0 5 5 0 0110 0z" fill="#63B167"/><path d="M91 45a5 5 0 11-10 0 5 5 0 0110 0zm0 22a5 5 0 11-10 0 5 5 0 0110 0z" fill="#63B167"/><path d="M91 67a5 5 0 11-10 0 5 5 0 0110 0zm0 22a5 5 0 11-10 0 5 5 0 0110 0z" fill="#63B167"/><path d="M91 89a5 5 0 11-10 0 5 5 0 0110 0zm135-42a5 5 0 11-10 0 5 5 0 0110 0z" fill="#63B167"/><path d="M226 47a5 5 0 11-10 0 5 5 0 0110 0zm0 22a5 5 0 11-10 0 5 5 0 0110 0z" fill="#63B167"/><path d="M226 69a5 5 0 11-10 0 5 5 0 0110 0zm0 22a5 5 0 11-10 0 5 5 0 0110 0z" fill="#63B167"/><path d="M226 91a5 5 0 11-10 0 5 5 0 0110 0zm-54-46a5 5 0 11-10 0 5 5 0 0110 0z" fill="#63B167"/><path d="M172 45a5 5 0 11-10 0 5 5 0 0110 0zm0 22a5 5 0 11-10 0 5 5 0 0110 0z" fill="#63B167"/><path d="M172 67a5 5 0 11-10 0 5 5 0 0110 0zm0 22a5 5 0 11-10 0 5 5 0 0110 0z" fill="#63B167"/><path d="M172 89a5 5 0 11-10 0 5 5 0 0110 0zm-27-44a5 5 0 11-10 0 5 5 0 0110 0z" fill="#63B167"/><path d="M145 45a5 5 0 11-10 0 5 5 0 0110 0zm0 22a5 5 0 11-10 0 5 5 0 0110 0z" fill="#63B167"/><path d="M145 67a5 5 0 11-10 0 5 5 0 0110 0zm0 22a5 5 0 11-10 0 5 5 0 0110 0z" fill="#63B167"/><path d="M145 89a5 5 0 11-10 0 5 5 0 0110 0zm54-43a5 5 0 11-10 0 5 5 0 0110 0z" fill="#63B167"/><path d="M199 46a5 5 0 11-10 0 5 5 0 0110 0zm0 22a5 5 0 11-10 0 5 5 0 0110 0z" fill="#63B167"/><path d="M199 68a5 5 0 11-10 0 5 5 0 0110 0zm0 22a5 5 0 11-10 0 5 5 0 0110 0z" fill="#63B167"/><path d="M199 90a5 5 0 11-10 0 5 5 0 0110 0zM64 45a5 5 0 11-10 0 5 5 0 0110 0z" fill="#63B167"/><path d="M64 45a5 5 0 11-10 0 5 5 0 0110 0zm0 22a5 5 0 11-10 0 5 5 0 0110 0z" fill="#63B167"/><path d="M64 67a5 5 0 11-10 0 5 5 0 0110 0zm0 22a5 5 0 11-10 0 5 5 0 0110 0z" fill="#63B167"/><path d="M64 89a5 5 0 11-10 0 5 5 0 0110 0zm54-44a5 5 0 11-10 0 5 5 0 0110 0z" fill="#63B167"/><path d="M118 45a5 5 0 11-10 0 5 5 0 0110 0zm0 22a5 5 0 11-10 0 5 5 0 0110 0z" fill="#63B167"/><path d="M118 67a5 5 0 11-10 0 5 5 0 0110 0zm0 22a5 5 0 11-10 0 5 5 0 0110 0z" fill="#63B167"/><path d="M118 89a5 5 0 11-10 0 5 5 0 0110 0z" fill="#63B167"/></svg>