<svg width="149" height="61" viewBox="0 0 149 61" fill="none" xmlns="http://www.w3.org/2000/svg">
<path d="M72.5259 25.71L71.3839 26.94V29.987H69.1859V19.323H71.3839V24.157L72.3509 22.831L75.0679 19.323H77.7709L73.9839 24.062L77.8799 29.987H75.2659L72.5259 25.71ZM87.2329 24.897C87.2329 25.947 87.0479 26.867 86.6769 27.657C86.3059 28.449 85.7729 29.059 85.0799 29.489C84.3919 29.919 83.5999 30.133 82.7069 30.133C81.8229 30.133 81.0349 29.921 80.3409 29.496C79.6479 29.071 79.1109 28.466 78.7299 27.68C78.3499 26.889 78.1559 25.98 78.1509 24.955V24.428C78.1509 23.378 78.3389 22.455 78.7149 21.659C79.0959 20.859 79.6309 20.246 80.3189 19.821C81.0129 19.391 81.8039 19.176 82.6919 19.176C83.5819 19.176 84.3699 19.391 85.0579 19.821C85.7509 20.246 86.2859 20.858 86.6619 21.659C87.0429 22.455 87.2329 23.376 87.2329 24.42V24.897ZM85.0069 24.413C85.0069 23.295 84.8069 22.445 84.4069 21.864C84.0059 21.284 83.4349 20.993 82.6919 20.993C81.9549 20.993 81.3859 21.281 80.9859 21.857C80.5859 22.428 80.3829 23.268 80.3779 24.377V24.897C80.3779 25.985 80.5779 26.83 80.9779 27.431C81.3779 28.031 81.9549 28.331 82.7069 28.331C83.4439 28.331 84.0109 28.043 84.4069 27.467C84.8019 26.887 85.0019 26.042 85.0069 24.933V24.413ZM91.7009 19.323L94.4399 27.057L97.1649 19.323H100.051V29.987H97.8459V27.072L98.0659 22.04L95.1879 29.987H93.6789L90.8079 22.047L91.0269 27.072V29.987H88.8299V19.323H91.7009ZM104.167 26.23V29.987H101.97V19.323H106.13C106.931 19.323 107.634 19.469 108.239 19.763C108.822 20.0313 109.312 20.4672 109.646 21.015C109.973 21.552 110.136 22.165 110.136 22.853C110.136 23.898 109.777 24.723 109.06 25.329C108.347 25.929 107.358 26.229 106.093 26.229L104.167 26.23ZM104.167 24.45H106.13C106.711 24.45 107.153 24.313 107.456 24.04C107.763 23.766 107.917 23.376 107.917 22.868C107.917 22.345 107.763 21.923 107.456 21.601C107.148 21.278 106.723 21.112 106.181 21.103H104.167V24.45ZM119.724 19.323V26.347C119.724 27.514 119.357 28.437 118.625 29.115C117.897 29.794 116.901 30.133 115.637 30.133C114.392 30.133 113.403 29.803 112.67 29.145C111.938 28.485 111.564 27.58 111.55 26.427V19.323H113.747V26.361C113.747 27.06 113.913 27.57 114.245 27.892C114.582 28.21 115.046 28.368 115.637 28.368C116.872 28.368 117.5 27.718 117.519 26.42V19.323H119.724ZM129.553 21.103H126.286V29.987H124.089V21.103H120.866V19.323H129.553V21.103ZM137.229 25.365H133.01V28.222H137.961V29.987H130.812V19.323H137.946V21.103H133.01V23.644H137.229V25.365ZM143.198 26.083H141.447V29.987H139.25V19.323H143.212C144.472 19.323 145.444 19.603 146.127 20.165C146.811 20.727 147.153 21.52 147.153 22.545C147.153 23.273 146.994 23.881 146.677 24.369C146.364 24.853 145.888 25.239 145.249 25.526L147.556 29.884V29.987H145.197L143.198 26.083ZM141.447 24.303H143.22C143.771 24.303 144.199 24.164 144.501 23.886C144.804 23.603 144.956 23.214 144.956 22.721C144.956 22.218 144.812 21.823 144.523 21.535C144.24 21.247 143.803 21.103 143.212 21.103H141.447V24.303Z" fill="white"/>
<path d="M43.1489 25.673H40.6439V29.987H39.2309V19.323H42.7609C43.9609 19.323 44.8849 19.596 45.5289 20.143C46.1789 20.69 46.5029 21.486 46.5029 22.531C46.5029 23.195 46.3229 23.773 45.9609 24.267C45.6049 24.76 45.1069 25.128 44.4669 25.373L46.9719 29.899V29.987H45.4629L43.1489 25.673ZM40.6439 24.523H42.8039C43.5029 24.523 44.0569 24.343 44.4669 23.981C44.8819 23.62 45.0899 23.136 45.0899 22.531C45.0899 21.871 44.8919 21.366 44.4969 21.015C44.1059 20.663 43.5399 20.485 42.7969 20.48H40.6439V24.523ZM49.5359 28.837H55.6359V29.987H47.8729V28.932L53.7179 20.48H47.9679V19.323H55.4019V20.356L49.5359 28.837ZM63.3419 25.277H58.8669V29.987H57.4599V19.323H64.0669V20.48H58.8669V24.127H63.3419V25.277Z" fill="white"/>
<path d="M42.2379 39.671C42.1769 40.197 41.9819 40.604 41.6539 40.891C41.3279 41.176 40.8939 41.318 40.3519 41.318C39.7639 41.318 39.2919 41.108 38.9369 40.686C38.5829 40.264 38.4069 39.7 38.4069 38.994V38.515C38.4069 38.053 38.4889 37.646 38.6529 37.295C38.8189 36.945 39.0529 36.675 39.3569 36.489C39.6735 36.2956 40.0389 36.197 40.4099 36.205C40.9379 36.205 41.3619 36.353 41.6809 36.649C42.0009 36.943 42.1859 37.351 42.2379 37.873H41.5779C41.5219 37.477 41.3979 37.189 41.2059 37.012C41.0159 36.834 40.7509 36.745 40.4099 36.745C39.9899 36.745 39.6609 36.9 39.4219 37.21C39.1849 37.52 39.0659 37.96 39.0659 38.533V39.015C39.0659 39.555 39.1789 39.985 39.4049 40.303C39.6299 40.623 39.9459 40.782 40.3519 40.782C40.7159 40.782 40.9949 40.7 41.1889 40.536C41.3849 40.369 41.5149 40.081 41.5789 39.671H42.2389H42.2379ZM42.8709 39.367C42.8709 39.004 42.9409 38.679 43.0829 38.389C43.2135 38.114 43.4195 37.8817 43.6769 37.719C43.9395 37.5598 44.2418 37.4779 44.5489 37.483C45.0519 37.483 45.4589 37.658 45.7689 38.006C46.0809 38.355 46.2369 38.819 46.2369 39.397V39.442C46.2369 39.802 46.1669 40.125 46.0289 40.412C45.9008 40.6873 45.695 40.9191 45.4369 41.079C45.1819 41.239 44.8879 41.319 44.5559 41.319C44.0539 41.319 43.6479 41.144 43.3359 40.795C43.0259 40.447 42.8709 39.985 42.8709 39.411V39.367V39.367ZM43.5059 39.442C43.5059 39.852 43.6009 40.182 43.7899 40.43C43.878 40.5493 43.9937 40.6454 44.1271 40.7102C44.2605 40.775 44.4076 40.8065 44.5559 40.802C44.7044 40.8065 44.8518 40.7747 44.9851 40.7091C45.1185 40.6436 45.2337 40.5464 45.3209 40.426C45.5109 40.173 45.6049 39.82 45.6049 39.366C45.6049 38.961 45.5079 38.633 45.3149 38.382C45.2279 38.2609 45.1126 38.163 44.9791 38.0968C44.8456 38.0305 44.6979 37.998 44.5489 38.002C44.4022 37.9986 44.257 38.0307 44.1255 38.0957C43.994 38.1606 43.8802 38.2565 43.7939 38.375C43.6019 38.624 43.5059 38.979 43.5059 39.442V39.442ZM47.6249 37.552L47.6419 37.962C47.9129 37.642 48.2789 37.483 48.7389 37.483C49.2569 37.483 49.6089 37.682 49.7949 38.078C49.9179 37.9 50.0779 37.757 50.2739 37.648C50.4892 37.5338 50.7302 37.477 50.9739 37.483C51.7859 37.483 52.1979 37.913 52.2119 38.772V41.25H51.5799V38.81C51.5799 38.545 51.5199 38.348 51.3979 38.218C51.2779 38.086 51.0749 38.02 50.7899 38.02C50.5549 38.02 50.3599 38.09 50.2059 38.232C50.0471 38.3786 49.9505 38.5804 49.9359 38.796V41.25H49.2999V38.827C49.2999 38.289 49.0369 38.02 48.5099 38.02C48.0959 38.02 47.8119 38.197 47.6599 38.55V41.25H47.0269V37.552H47.6249V37.552ZM56.2929 39.442C56.2929 40.005 56.1639 40.458 55.9069 40.802C55.7883 40.9673 55.6309 41.1009 55.4484 41.1909C55.266 41.2809 55.0642 41.3246 54.8609 41.318C54.4109 41.318 54.0589 41.176 53.8009 40.891V42.671H53.1689V37.551H53.7469L53.7769 37.961C54.0349 37.643 54.3929 37.483 54.8509 37.483C55.2949 37.483 55.6459 37.651 55.9029 37.986C56.1629 38.321 56.2929 38.786 56.2929 39.384V39.442ZM55.6609 39.37C55.6609 38.953 55.5709 38.624 55.3939 38.382C55.3116 38.2658 55.2017 38.1719 55.0741 38.1087C54.9465 38.0455 54.8052 38.015 54.6629 38.02C54.2799 38.02 53.9929 38.19 53.8009 38.53V40.296C53.9909 40.633 54.2799 40.802 54.6689 40.802C54.9719 40.802 55.2129 40.682 55.3909 40.443C55.5709 40.202 55.6609 39.844 55.6609 39.37V39.37ZM59.3829 40.884C59.1369 41.174 58.7759 41.318 58.2989 41.318C57.9049 41.318 57.6039 41.204 57.3969 40.977C57.1919 40.747 57.0879 40.407 57.0859 39.957V37.553H57.7179V39.942C57.7179 40.502 57.9459 40.782 58.4019 40.782C58.8849 40.782 59.2059 40.602 59.3659 40.242V37.552H59.9979V41.251H59.3959L59.3829 40.885V40.884ZM61.8199 36.656V37.552H62.5099V38.04H61.8199V40.334C61.8199 40.482 61.8499 40.594 61.9119 40.669C61.9739 40.742 62.0779 40.779 62.2269 40.779C62.2989 40.779 62.3999 40.765 62.5269 40.737V41.25C62.369 41.2943 62.2058 41.3171 62.0419 41.318C61.7589 41.318 61.5459 41.233 61.4019 41.062C61.2589 40.891 61.1869 40.648 61.1869 40.334V38.04H60.5139V37.552H61.1879V36.656H61.8199V36.656ZM64.7869 41.318C64.2849 41.318 63.8769 41.154 63.5629 40.826C63.2489 40.496 63.0909 40.055 63.0909 39.503V39.387C63.0909 39.02 63.1609 38.693 63.2999 38.407C63.4409 38.117 63.6369 37.891 63.8879 37.729C64.1409 37.565 64.4139 37.483 64.7079 37.483C65.1879 37.483 65.5629 37.642 65.8289 37.958C66.0959 38.275 66.2289 38.728 66.2289 39.318V39.582H63.7239C63.7329 39.946 63.8389 40.242 64.0409 40.467C64.2469 40.691 64.5059 40.802 64.8209 40.802C65.0439 40.802 65.2329 40.757 65.3879 40.665C65.5429 40.575 65.6779 40.453 65.7949 40.303L66.1809 40.603C65.8709 41.08 65.4059 41.318 64.7869 41.318V41.318ZM64.7079 38.003C64.5868 38.0007 64.4667 38.0245 64.3558 38.0728C64.2448 38.1211 64.1456 38.1928 64.0649 38.283C63.8919 38.468 63.7849 38.727 63.7449 39.063H65.5969V39.015C65.5789 38.693 65.4919 38.445 65.3369 38.269C65.1819 38.092 64.9719 38.003 64.7079 38.003ZM68.7509 38.119C68.6484 38.1025 68.5447 38.0945 68.4409 38.095C68.0259 38.095 67.7439 38.272 67.5959 38.625V41.25H66.9639V37.552H67.5789L67.5889 37.979C67.7969 37.649 68.0909 37.483 68.4709 37.483C68.5666 37.4778 68.6623 37.4942 68.7509 37.531V38.119ZM71.4889 40.269C71.4923 40.1918 71.4763 40.1149 71.4422 40.0455C71.4081 39.9761 71.3571 39.9165 71.2939 39.872C71.1669 39.777 70.9419 39.695 70.6209 39.626C70.3576 39.576 70.1016 39.4934 69.8589 39.38C69.6938 39.3026 69.5505 39.1854 69.4419 39.039C69.3507 38.8988 69.3043 38.7342 69.3089 38.567C69.3089 38.264 69.4359 38.007 69.6909 37.797C69.9489 37.588 70.2769 37.483 70.6759 37.483C71.0959 37.483 71.4349 37.591 71.6939 37.808C71.9559 38.024 72.0869 38.301 72.0869 38.638H71.4519C71.4512 38.5515 71.4308 38.4664 71.3924 38.3889C71.3539 38.3115 71.2983 38.2438 71.2299 38.191C71.0746 38.0624 70.8774 37.9954 70.6759 38.003C70.4459 38.003 70.2659 38.053 70.1359 38.153C70.0741 38.1979 70.0241 38.2572 69.9902 38.3256C69.9562 38.394 69.9393 38.4696 69.9409 38.546C69.9409 38.699 70.0009 38.814 70.1219 38.892C70.2419 38.969 70.4599 39.043 70.7749 39.114C71.0919 39.184 71.3479 39.269 71.5439 39.367C71.7168 39.4459 71.8663 39.5682 71.9779 39.722C72.0771 39.8702 72.1275 40.0457 72.1219 40.224C72.1219 40.554 71.9889 40.82 71.7249 41.021C71.4609 41.219 71.1179 41.318 70.6959 41.318C70.4256 41.3234 70.1573 41.2698 69.9099 41.161C69.6948 41.0663 69.5095 40.9149 69.3739 40.723C69.2492 40.5436 69.1822 40.3305 69.1819 40.112H69.8139C69.8259 40.324 69.9099 40.492 70.0669 40.618C70.2269 40.741 70.4369 40.802 70.6969 40.802C70.9359 40.802 71.1269 40.754 71.2699 40.659C71.3374 40.6189 71.3932 40.5617 71.4318 40.4933C71.4704 40.4249 71.4904 40.3476 71.4899 40.269H71.4889ZM76.9649 41.249C76.9158 41.1245 76.8858 40.9934 76.8759 40.86C76.7423 41.0059 76.5795 41.1221 76.3981 41.201C76.2167 41.2799 76.0207 41.3197 75.8229 41.318C75.4589 41.318 75.1589 41.216 74.9239 41.011C74.8115 40.9137 74.722 40.7928 74.6619 40.657C74.6017 40.5211 74.5723 40.3736 74.5759 40.225C74.5759 39.839 74.7219 39.541 75.0129 39.329C75.3069 39.115 75.7199 39.008 76.2499 39.008H76.8659V38.718C76.8659 38.496 76.7999 38.321 76.6679 38.191C76.5349 38.059 76.3399 37.993 76.0829 37.993C75.8803 37.9858 75.681 38.0456 75.5159 38.163C75.3629 38.277 75.2859 38.415 75.2859 38.577H74.6509C74.6545 38.3825 74.7231 38.1949 74.8459 38.044C74.9779 37.871 75.1559 37.734 75.3789 37.634C75.6039 37.534 75.8519 37.484 76.1209 37.484C76.5469 37.484 76.8809 37.59 77.1219 37.804C77.3639 38.017 77.4889 38.309 77.4979 38.683V40.385C77.4979 40.725 77.5409 40.995 77.6279 41.195V41.25H76.9649V41.249ZM75.9149 40.768C76.1139 40.768 76.3019 40.717 76.4789 40.614C76.6457 40.5233 76.7807 40.3837 76.8659 40.214V39.456H76.3699C75.5949 39.456 75.2079 39.682 75.2079 40.136C75.2079 40.334 75.2739 40.489 75.4059 40.601C75.55 40.7167 75.7312 40.776 75.9159 40.768H75.9149ZM79.0869 37.552L79.1069 38.017C79.2359 37.8465 79.4037 37.7091 79.5964 37.6163C79.7891 37.5234 80.0011 37.4777 80.2149 37.483C80.9969 37.483 81.3909 37.924 81.3979 38.806V41.25H80.7659V38.803C80.7629 38.536 80.7019 38.339 80.5809 38.211C80.4629 38.084 80.2769 38.02 80.0239 38.02C79.831 38.0162 79.642 38.0736 79.4839 38.184C79.3289 38.294 79.2079 38.437 79.1219 38.614V41.25H78.4889V37.552H79.0869V37.552ZM82.1969 39.37C82.1969 38.803 82.3319 38.347 82.6009 38.003C82.8699 37.657 83.2219 37.483 83.6569 37.483C84.0899 37.483 84.4329 37.631 84.6859 37.928V36H85.3179V41.25H84.7379L84.7069 40.853C84.4539 41.163 84.1019 41.318 83.6499 41.318C83.2219 41.318 82.8719 41.143 82.6009 40.792C82.3319 40.441 82.1979 39.983 82.1979 39.418V39.37H82.1969ZM82.8299 39.442C82.8299 39.862 82.9169 40.189 83.0899 40.426C83.1704 40.5405 83.2783 40.633 83.4037 40.6951C83.5291 40.7573 83.668 40.7872 83.8079 40.782C84.2079 40.782 84.5009 40.602 84.6859 40.242V38.542C84.4959 38.194 84.2059 38.02 83.8139 38.02C83.5039 38.02 83.2629 38.14 83.0899 38.379C82.9169 38.619 82.8299 38.972 82.8299 39.442V39.442ZM88.7939 39.302V41.25H88.1379V36.273H89.9739C90.5179 36.273 90.9439 36.413 91.2519 36.69C91.5619 36.968 91.7169 37.336 91.7169 37.794C91.7169 38.277 91.5649 38.65 91.2619 38.912C90.9609 39.172 90.5299 39.302 89.9669 39.302H88.7939V39.302ZM88.7939 38.765H89.9739C90.3249 38.765 90.5929 38.683 90.7799 38.519C90.9669 38.353 91.0609 38.113 91.0609 37.801C91.0609 37.505 90.9669 37.268 90.7799 37.091C90.5929 36.913 90.3369 36.821 90.0109 36.813H88.7939V38.765ZM93.9419 41.318C93.4409 41.318 93.0329 41.154 92.7179 40.826C92.4039 40.496 92.2469 40.055 92.2469 39.503V39.387C92.2469 39.02 92.3159 38.693 92.4549 38.407C92.5959 38.117 92.7919 37.891 93.0429 37.729C93.2959 37.565 93.5689 37.483 93.8629 37.483C94.3439 37.483 94.7179 37.642 94.9839 37.958C95.2509 38.275 95.3839 38.728 95.3839 39.318V39.582H92.8789C92.8879 39.946 92.9939 40.242 93.1969 40.467C93.4019 40.691 93.6619 40.802 93.9759 40.802C94.1989 40.802 94.3889 40.757 94.5429 40.665C94.7008 40.5719 94.839 40.449 94.9499 40.303L95.3359 40.603C95.0269 41.08 94.5619 41.318 93.9419 41.318V41.318ZM93.8629 38.003C93.742 38.0007 93.6221 38.0246 93.5113 38.0729C93.4005 38.1212 93.3014 38.1929 93.2209 38.283C93.0479 38.468 92.9399 38.727 92.8989 39.063H94.7519V39.015C94.7339 38.693 94.6469 38.445 94.4919 38.269C94.3369 38.092 94.1279 38.003 93.8629 38.003V38.003ZM97.9069 38.119C97.804 38.1025 97.7 38.0945 97.5959 38.095C97.1809 38.095 96.8999 38.272 96.7509 38.625V41.25H96.1189V37.552H96.7339L96.7449 37.979C96.9519 37.649 97.2459 37.483 97.6259 37.483C97.7499 37.483 97.8429 37.499 97.9069 37.531V38.119V38.119ZM99.1779 41.249H98.5459V37.553H99.1779V41.251V41.249ZM98.4949 36.571C98.4949 36.468 98.5249 36.381 98.5869 36.311C98.6509 36.241 98.7439 36.205 98.8669 36.205C98.9899 36.205 99.0839 36.24 99.1469 36.311C99.2109 36.381 99.2429 36.468 99.2429 36.571C99.2458 36.6656 99.2113 36.7576 99.1469 36.827C99.0839 36.895 98.9899 36.93 98.8669 36.93C98.7439 36.93 98.6509 36.895 98.5869 36.827C98.5245 36.7566 98.4916 36.665 98.4949 36.571ZM103.317 39.441C103.317 40.005 103.189 40.458 102.931 40.802C102.812 40.9674 102.655 41.101 102.472 41.191C102.29 41.281 102.088 41.3246 101.885 41.318C101.436 41.318 101.083 41.176 100.826 40.891V42.671H100.193V37.551H100.771L100.802 37.961C101.059 37.643 101.417 37.483 101.875 37.483C102.319 37.483 102.67 37.651 102.928 37.986C103.188 38.321 103.317 38.786 103.317 39.384V39.442V39.441ZM102.685 39.37C102.685 38.953 102.596 38.624 102.418 38.382C102.336 38.2657 102.226 38.1717 102.098 38.1084C101.971 38.0452 101.829 38.0148 101.687 38.02C101.304 38.02 101.017 38.19 100.826 38.53V40.296C100.907 40.4546 101.032 40.5866 101.186 40.6763C101.34 40.766 101.516 40.8096 101.694 40.802C101.997 40.802 102.237 40.682 102.415 40.443C102.595 40.202 102.685 39.844 102.685 39.37V39.37ZM104.756 38C104.885 37.8344 105.052 37.7014 105.241 37.6116C105.431 37.5219 105.64 37.4778 105.85 37.483C106.632 37.483 107.026 37.924 107.033 38.806V41.25H106.4V38.803C106.398 38.536 106.337 38.339 106.216 38.211C106.097 38.084 105.912 38.02 105.659 38.02C105.466 38.0163 105.277 38.0737 105.119 38.184C104.964 38.294 104.843 38.437 104.756 38.614V41.25H104.124V36H104.756V38ZM109.514 41.318C109.013 41.318 108.605 41.154 108.291 40.826C107.976 40.496 107.819 40.055 107.819 39.503V39.387C107.819 39.02 107.888 38.693 108.027 38.407C108.169 38.117 108.365 37.891 108.615 37.729C108.858 37.5678 109.144 37.4822 109.436 37.483C109.916 37.483 110.29 37.642 110.557 37.958C110.823 38.275 110.957 38.728 110.957 39.318V39.582H108.451C108.46 39.946 108.566 40.242 108.769 40.467C108.974 40.691 109.234 40.802 109.548 40.802C109.772 40.802 109.961 40.757 110.116 40.665C110.271 40.575 110.406 40.453 110.522 40.303L110.909 40.603C110.599 41.08 110.134 41.318 109.514 41.318V41.318ZM109.436 38.003C109.315 38.0006 109.195 38.0244 109.084 38.0727C108.973 38.121 108.874 38.1928 108.793 38.283C108.62 38.468 108.513 38.727 108.472 39.063H110.324V39.015C110.306 38.693 110.219 38.445 110.064 38.269C109.91 38.092 109.7 38.003 109.436 38.003ZM113.479 38.119C113.376 38.1025 113.272 38.0945 113.168 38.095C112.753 38.095 112.472 38.272 112.324 38.625V41.25H111.691V37.552H112.307L112.317 37.979C112.524 37.649 112.818 37.483 113.199 37.483C113.322 37.483 113.415 37.499 113.479 37.531V38.119V38.119ZM116.21 41.249C116.161 41.1245 116.131 40.9934 116.121 40.86C115.987 41.0059 115.824 41.1221 115.643 41.201C115.462 41.2799 115.266 41.3197 115.068 41.318C114.704 41.318 114.404 41.216 114.169 41.011C114.057 40.9137 113.967 40.7927 113.907 40.6569C113.847 40.521 113.817 40.3735 113.821 40.225C113.821 39.839 113.967 39.541 114.258 39.329C114.552 39.115 114.965 39.008 115.496 39.008H116.111V38.718C116.111 38.496 116.045 38.321 115.913 38.191C115.78 38.059 115.586 37.993 115.328 37.993C115.125 37.9857 114.926 38.0454 114.761 38.163C114.608 38.277 114.532 38.415 114.532 38.577H113.896C113.899 38.3825 113.968 38.1949 114.091 38.044C114.223 37.871 114.401 37.734 114.624 37.634C114.85 37.534 115.097 37.484 115.366 37.484C115.792 37.484 116.126 37.59 116.367 37.804C116.609 38.017 116.734 38.309 116.743 38.683V40.385C116.743 40.725 116.786 40.995 116.873 41.195V41.25H116.21V41.249ZM115.161 40.768C115.359 40.768 115.547 40.717 115.725 40.614C115.891 40.5228 116.026 40.3833 116.111 40.214V39.456H115.615C114.84 39.456 114.453 39.682 114.453 40.136C114.453 40.334 114.519 40.489 114.651 40.601C114.795 40.7164 114.976 40.7757 115.161 40.768ZM118.421 41.25H117.789V36H118.421V41.25ZM121.59 40.269C121.593 40.1918 121.577 40.1149 121.543 40.0455C121.509 39.9761 121.458 39.9165 121.395 39.872C121.267 39.777 121.043 39.695 120.722 39.626C120.458 39.5759 120.202 39.4933 119.959 39.38C119.794 39.3021 119.651 39.185 119.542 39.039C119.451 38.8986 119.405 38.7341 119.409 38.567C119.409 38.264 119.537 38.007 119.792 37.797C120.049 37.588 120.378 37.483 120.776 37.483C121.196 37.483 121.535 37.591 121.795 37.808C122.057 38.024 122.188 38.301 122.188 38.638H121.552C121.551 38.5515 121.531 38.4664 121.492 38.3889C121.454 38.3115 121.398 38.2438 121.33 38.191C121.175 38.0624 120.977 37.9954 120.776 38.003C120.546 38.003 120.366 38.053 120.236 38.153C120.174 38.1979 120.124 38.2572 120.09 38.3256C120.057 38.3941 120.04 38.4697 120.042 38.546C120.042 38.699 120.102 38.814 120.223 38.892C120.343 38.969 120.561 39.043 120.875 39.114C121.192 39.184 121.449 39.269 121.645 39.367C121.84 39.465 121.985 39.583 122.079 39.722C122.177 39.8704 122.227 40.0459 122.222 40.224C122.222 40.554 122.09 40.82 121.826 41.021C121.561 41.219 121.218 41.318 120.797 41.318C120.527 41.3234 120.258 41.2698 120.011 41.161C119.795 41.0664 119.61 40.915 119.474 40.723C119.35 40.5434 119.283 40.3303 119.283 40.112H119.915C119.926 40.324 120.011 40.492 120.168 40.618C120.327 40.741 120.537 40.802 120.797 40.802C121.036 40.802 121.228 40.754 121.371 40.659C121.438 40.6187 121.494 40.5615 121.532 40.4931C121.571 40.4247 121.591 40.3475 121.59 40.269V40.269ZM126.348 39.032C125.785 38.87 125.375 38.672 125.117 38.437C124.994 38.3272 124.896 38.1922 124.83 38.0412C124.764 37.8902 124.731 37.7268 124.734 37.562C124.734 37.17 124.89 36.846 125.203 36.592C125.517 36.334 125.925 36.205 126.426 36.205C126.768 36.205 127.072 36.271 127.339 36.403C127.608 36.535 127.815 36.718 127.961 36.95C128.109 37.183 128.183 37.437 128.183 37.712H127.523C127.523 37.412 127.428 37.176 127.236 37.005C127.045 36.832 126.775 36.745 126.426 36.745C126.103 36.745 125.85 36.817 125.667 36.96C125.487 37.102 125.397 37.299 125.397 37.552C125.397 37.755 125.483 37.926 125.654 38.068C125.827 38.207 126.12 38.334 126.532 38.451C126.947 38.567 127.271 38.695 127.503 38.837C127.738 38.976 127.911 39.139 128.022 39.326C128.136 39.512 128.193 39.732 128.193 39.986C128.193 40.389 128.036 40.712 127.722 40.956C127.407 41.198 126.987 41.318 126.46 41.318C126.131 41.3204 125.805 41.254 125.503 41.123C125.229 41.0086 124.992 40.8219 124.816 40.583C124.657 40.3557 124.573 40.0843 124.577 39.807H125.237C125.237 40.108 125.347 40.347 125.568 40.522C125.792 40.695 126.089 40.782 126.46 40.782C126.807 40.782 127.072 40.711 127.257 40.57C127.346 40.5033 127.418 40.4158 127.467 40.3151C127.515 40.2144 127.538 40.1036 127.534 39.992C127.534 39.748 127.448 39.56 127.277 39.428C127.106 39.294 126.797 39.161 126.348 39.032V39.032ZM131.222 40.884C130.976 41.174 130.614 41.318 130.138 41.318C129.744 41.318 129.443 41.204 129.236 40.977C129.031 40.747 128.927 40.407 128.925 39.957V37.553H129.557V39.942C129.557 40.502 129.785 40.782 130.241 40.782C130.724 40.782 131.045 40.602 131.205 40.242V37.552H131.837V41.251H131.235L131.222 40.885V40.884ZM135.925 39.442C135.925 40.005 135.796 40.458 135.539 40.802C135.42 40.9672 135.263 41.1007 135.08 41.1907C134.898 41.2806 134.696 41.3244 134.493 41.318C134.044 41.318 133.691 41.176 133.433 40.891V42.671H132.801V37.551H133.378L133.409 37.961C133.667 37.643 134.024 37.483 134.482 37.483C134.927 37.483 135.278 37.651 135.535 37.986C135.795 38.321 135.925 38.786 135.925 39.384V39.442ZM135.292 39.37C135.292 38.953 135.204 38.624 135.026 38.382C134.943 38.2657 134.833 38.1718 134.706 38.1086C134.578 38.0454 134.436 38.0149 134.294 38.02C133.912 38.02 133.625 38.19 133.433 38.53V40.296C133.514 40.4544 133.639 40.5863 133.793 40.676C133.947 40.7657 134.123 40.8094 134.301 40.802C134.441 40.8064 134.581 40.776 134.707 40.7133C134.832 40.6507 134.941 40.5578 135.022 40.443C135.202 40.202 135.292 39.844 135.292 39.37V39.37ZM139.855 39.442C139.855 40.005 139.727 40.458 139.469 40.802C139.35 40.9674 139.193 41.101 139.01 41.191C138.828 41.281 138.626 41.3246 138.423 41.318C137.974 41.318 137.621 41.176 137.364 40.891V42.671H136.731V37.551H137.309L137.34 37.961C137.597 37.643 137.955 37.483 138.413 37.483C138.857 37.483 139.208 37.651 139.466 37.986C139.726 38.321 139.855 38.786 139.855 39.384V39.442V39.442ZM139.223 39.37C139.223 38.953 139.134 38.624 138.957 38.382C138.874 38.2657 138.764 38.1718 138.637 38.1086C138.509 38.0454 138.367 38.0149 138.225 38.02C137.842 38.02 137.555 38.19 137.364 38.53V40.296C137.445 40.4546 137.57 40.5866 137.724 40.6763C137.878 40.766 138.054 40.8096 138.232 40.802C138.535 40.802 138.775 40.682 138.953 40.443C139.133 40.202 139.223 39.844 139.223 39.37V39.37ZM140.495 39.367C140.495 39.004 140.565 38.679 140.707 38.389C140.85 38.099 141.048 37.876 141.301 37.719C141.563 37.5598 141.866 37.4779 142.173 37.483C142.676 37.483 143.083 37.658 143.393 38.006C143.705 38.355 143.861 38.819 143.861 39.397V39.442C143.861 39.802 143.792 40.125 143.653 40.412C143.525 40.687 143.319 40.9188 143.062 41.079C142.806 41.239 142.512 41.319 142.18 41.319C141.678 41.319 141.272 41.144 140.959 40.795C140.65 40.447 140.495 39.985 140.495 39.411V39.367V39.367ZM141.13 39.442C141.13 39.852 141.225 40.182 141.414 40.43C141.502 40.5493 141.618 40.6454 141.751 40.7102C141.885 40.775 142.032 40.8065 142.18 40.802C142.328 40.8067 142.476 40.7749 142.609 40.7094C142.743 40.6438 142.858 40.5465 142.945 40.426C143.134 40.173 143.229 39.82 143.229 39.366C143.229 38.961 143.132 38.633 142.938 38.382C142.851 38.2609 142.736 38.1629 142.603 38.0967C142.469 38.0304 142.322 37.9979 142.173 38.002C142.026 37.9986 141.881 38.0307 141.749 38.0957C141.617 38.1606 141.503 38.2565 141.417 38.375C141.226 38.624 141.13 38.979 141.13 39.442V39.442ZM146.442 38.119C146.339 38.1025 146.235 38.0945 146.131 38.095C145.716 38.095 145.435 38.272 145.287 38.625V41.25H144.654V37.552H145.27L145.28 37.979C145.487 37.649 145.781 37.483 146.162 37.483C146.285 37.483 146.378 37.499 146.442 37.531V38.119ZM148.055 36.656V37.552H148.746V38.04H148.055V40.334C148.055 40.482 148.086 40.594 148.147 40.669C148.209 40.742 148.314 40.779 148.462 40.779C148.535 40.779 148.635 40.765 148.763 40.737V41.25C148.605 41.2943 148.441 41.3172 148.277 41.318C147.995 41.318 147.782 41.233 147.638 41.062C147.495 40.891 147.423 40.648 147.423 40.334V38.04H146.75V37.552H147.423V36.656H148.055V36.656Z" fill="white"/>
<path fill-rule="evenodd" clip-rule="evenodd" d="M31.0343 20.3824C29.3757 14.4116 18.7611 3.79696 12.9562 0.314026C12.2928 -0.0176815 11.9611 -0.183535 11.4635 0.314026C9.97081 2.13842 6.81959 5.95306 5.32691 7.94331C4.82934 8.60672 5.65861 9.43599 5.99032 9.60185C10.9659 11.4262 21.4147 17.8945 23.0733 21.3775C23.7367 22.5385 23.9025 23.8653 23.2391 25.0263C21.083 29.3385 13.2879 32.4897 9.14155 35.4751C3.50251 39.7873 -0.146274 44.0995 3.50251 51.397C3.66837 51.5629 3.83422 51.8946 3.83422 52.2263C4.33178 52.8897 4.33178 52.3922 4.33178 51.8946C4.16593 49.9043 4.66349 47.7482 5.82447 46.2556C7.1513 44.4312 8.97569 43.1043 10.8001 41.9434C15.2781 39.1238 20.2538 37.1336 24.7318 34.1482C29.7074 31.1629 33.1904 26.3531 31.0343 20.3824Z" fill="#FEFEFE"/>
<path fill-rule="evenodd" clip-rule="evenodd" d="M30.5367 30.4995C25.2294 37.9629 8.14643 41.28 5.65862 48.9092C4.82935 51.0653 5.32691 54.5483 6.48789 56.5385L8.64399 60.0214C9.14155 60.6849 9.14155 60.8507 9.80497 60.3532C10.4684 59.6897 10.9659 59.1922 11.6294 58.5288C11.9611 58.1971 11.7952 58.0312 11.6294 57.6995C11.2977 56.8702 10.8001 56.2068 10.3025 55.3775C11.7952 55.3775 13.6196 54.0507 14.6147 52.8897C15.2781 52.0605 16.7708 49.5727 16.9367 48.4117C14.283 49.0751 11.1318 50.5678 9.63911 52.8897C9.47326 53.2214 9.30741 53.719 9.14155 54.2166C8.47814 52.3922 8.80984 50.2361 10.1367 48.7434C11.2977 47.4166 13.9513 46.2556 15.6099 45.9239C21.9123 44.7629 28.7123 38.958 30.5367 30.4995Z" fill="#FEFEFE"/>
<path fill-rule="evenodd" clip-rule="evenodd" d="M3.50251 38.958C3.66836 35.3092 3.50251 27.1824 5.16105 24.0312C5.82446 22.8702 6.65373 22.2068 7.98056 21.8751C10.4684 21.5434 14.1172 23.5336 16.4391 25.1921C17.9318 26.1873 17.4342 26.3531 19.4245 25.8556C20.4196 25.6897 21.9123 25.358 22.4099 24.3629C25.0635 20.3824 7.483 10.0994 3.83421 10.9287C2.34153 11.2604 1.18055 12.7531 0.68299 14.2458C-0.809695 18.2263 0.351283 37.2995 2.17568 40.9483C2.34153 41.4458 3.50251 39.4556 3.50251 38.958Z" fill="#FEFEFE"/>
</svg>
