<svg width="172" height="85" viewBox="0 0 172 85" fill="none" xmlns="http://www.w3.org/2000/svg">
<path fill-rule="evenodd" clip-rule="evenodd" d="M10.7547 85C11.6183 82.7031 13.3455 81.7843 15.0727 80.8655C15.0727 80.8655 14.6409 79.9467 13.7773 77.6498C13.7773 76.731 14.2091 76.2716 14.6409 76.2716C17.2318 75.8122 18.959 74.8935 20.2545 73.5153C21.9817 71.6777 22.8453 69.3808 22.8453 67.5432C20.6863 67.0838 18.959 67.5432 17.2318 68.462C15.5046 69.3808 13.7773 70.759 12.9137 72.5965C12.4819 72.5965 12.0501 72.1371 12.0501 72.1371C12.0501 69.8402 12.9137 68.0026 14.6409 67.0838C19.3908 63.8681 23.1246 62.7117 27.8745 59.0366C37.0058 51.0077 37.4864 48.174 39.8894 39.2006C30.7581 54.3138 4.32535 57.1475 6.43656 75.8122C6.86837 76.731 9.89104 84.5406 10.7547 85Z" fill="url(#paint0_linear)"/>
<path fill-rule="evenodd" clip-rule="evenodd" d="M14.2091 0.013092L5.14112 11.9572C12.9137 15.1729 31.0497 24.3607 29.7543 34.9266C29.7543 36.3048 28.4588 38.1424 26.2998 39.5205C17.6636 45.952 4.22779 50.8708 3.36417 62.8149C3.36417 65.5713 3.99112 69.4914 5.28655 71.7884C7.01379 45.1438 78.5487 47.7895 14.2091 0.013092Z" fill="url(#paint1_linear)"/>
<path fill-rule="evenodd" clip-rule="evenodd" d="M2.6466 54.6886C2.6466 55.6074 3.07841 56.0668 3.51022 56.0668C4.80565 52.3917 5.66927 48.7166 6.10108 45.5008C4.80565 40.4476 5.23746 37.2318 7.39651 34.9349C9.12375 32.1786 12.1464 31.7192 16.0327 33.5567C19.919 34.9349 25.1007 38.61 28.5552 34.9349C32.4415 28.5035 9.12374 11.9655 4.80565 15.6406C-2.1033 23.9096 -0.376064 45.0414 2.6466 54.6886Z" fill="url(#paint2_linear)"/>
<path d="M54.1489 33.686H51.644V38H50.2305V27.3359H53.7607C54.9619 27.3359 55.8848 27.6094 56.5293 28.1562C57.1787 28.7031 57.5034 29.499 57.5034 30.5439C57.5034 31.208 57.3228 31.7866 56.9614 32.2798C56.605 32.7729 56.1069 33.1416 55.4673 33.3857L57.9722 37.9121V38H56.4634L54.1489 33.686ZM51.644 32.5361H53.8047C54.5029 32.5361 55.0571 32.3555 55.4673 31.9941C55.8823 31.6328 56.0898 31.1494 56.0898 30.5439C56.0898 29.8848 55.8921 29.3794 55.4966 29.0278C55.106 28.6763 54.5396 28.498 53.7974 28.4932H51.644V32.5361ZM60.5356 36.8501H66.6367V38H58.873V36.9453L64.7178 28.4932H58.9683V27.3359H66.4023V28.3687L60.5356 36.8501ZM74.3418 33.2905H69.8667V38H68.4604V27.3359H75.0669V28.4932H69.8667V32.1406H74.3418V33.2905Z" fill="#59A530"/>
<path d="M83.5264 33.7227L82.3838 34.9531V38H80.1865V27.3359H82.3838V32.1699L83.3506 30.8442L86.0679 27.3359H88.7705L84.9839 32.0747L88.8804 38H86.2656L83.5264 33.7227ZM98.2334 32.9097C98.2334 33.9595 98.0479 34.8799 97.6768 35.6709C97.3057 36.4619 96.7734 37.0723 96.0801 37.502C95.3916 37.9316 94.6006 38.1465 93.707 38.1465C92.8232 38.1465 92.0347 37.9341 91.3413 37.5093C90.6479 37.0845 90.1108 36.479 89.73 35.6929C89.3491 34.9019 89.1562 33.9937 89.1514 32.9683V32.4409C89.1514 31.3911 89.3394 30.4683 89.7153 29.6724C90.0962 28.8716 90.6309 28.2588 91.3193 27.834C92.0127 27.4043 92.8037 27.1895 93.6924 27.1895C94.5811 27.1895 95.3696 27.4043 96.0581 27.834C96.7515 28.2588 97.2861 28.8716 97.6621 29.6724C98.043 30.4683 98.2334 31.3887 98.2334 32.4336V32.9097ZM96.0068 32.4263C96.0068 31.3081 95.8066 30.4585 95.4062 29.8774C95.0059 29.2964 94.4346 29.0059 93.6924 29.0059C92.9551 29.0059 92.3862 29.2939 91.9858 29.8701C91.5854 30.4414 91.3828 31.2812 91.3779 32.3896V32.9097C91.3779 33.9985 91.5781 34.8433 91.9785 35.4438C92.3789 36.0444 92.9551 36.3447 93.707 36.3447C94.4443 36.3447 95.0107 36.0566 95.4062 35.4805C95.8018 34.8994 96.002 34.0547 96.0068 32.9463V32.4263ZM102.701 27.3359L105.44 35.0703L108.165 27.3359H111.051V38H108.846V35.085L109.066 30.0532L106.188 38H104.679L101.808 30.0605L102.027 35.085V38H99.8301V27.3359H102.701ZM115.167 34.2427V38H112.97V27.3359H117.13C117.931 27.3359 118.634 27.4824 119.239 27.7754C119.85 28.0684 120.318 28.4858 120.646 29.0278C120.973 29.5649 121.136 30.1777 121.136 30.8662C121.136 31.9111 120.777 32.7363 120.06 33.3418C119.347 33.9424 118.358 34.2427 117.093 34.2427H115.167ZM115.167 32.4629H117.13C117.711 32.4629 118.153 32.3262 118.456 32.0527C118.763 31.7793 118.917 31.3887 118.917 30.8809C118.917 30.3584 118.763 29.936 118.456 29.6138C118.148 29.2915 117.723 29.1255 117.181 29.1157H115.167V32.4629ZM130.724 27.3359V34.3599C130.724 35.5269 130.357 36.4497 129.625 37.1284C128.897 37.8071 127.901 38.1465 126.637 38.1465C125.392 38.1465 124.403 37.8169 123.67 37.1577C122.938 36.4985 122.564 35.5928 122.55 34.4404V27.3359H124.747V34.3745C124.747 35.0728 124.913 35.583 125.245 35.9053C125.582 36.2227 126.046 36.3813 126.637 36.3813C127.872 36.3813 128.5 35.7319 128.519 34.4331V27.3359H130.724ZM140.553 29.1157H137.286V38H135.089V29.1157H131.866V27.3359H140.553V29.1157ZM148.229 33.3784H144.01V36.2349H148.961V38H141.812V27.3359H148.946V29.1157H144.01V31.6572H148.229V33.3784ZM154.198 34.0962H152.447V38H150.25V27.3359H154.212C155.472 27.3359 156.444 27.6167 157.127 28.1782C157.811 28.7397 158.153 29.5332 158.153 30.5586C158.153 31.2861 157.994 31.894 157.677 32.3823C157.364 32.8657 156.888 33.2515 156.249 33.5396L158.556 37.8975V38H156.197L154.198 34.0962ZM152.447 32.3164H154.22C154.771 32.3164 155.199 32.1772 155.501 31.8989C155.804 31.6157 155.956 31.2275 155.956 30.7344C155.956 30.2314 155.812 29.8359 155.523 29.5479C155.24 29.2598 154.803 29.1157 154.212 29.1157H152.447V32.3164Z" fill="#267512"/>
<path d="M53.2383 47.4209C53.1768 47.9473 52.9819 48.354 52.6538 48.6411C52.328 48.9259 51.8939 49.0684 51.3516 49.0684C50.7637 49.0684 50.292 48.8576 49.9365 48.436C49.5833 48.0145 49.4067 47.4505 49.4067 46.7441V46.2656C49.4067 45.8031 49.4888 45.3963 49.6528 45.0454C49.8192 44.6945 50.0539 44.4256 50.3569 44.2388C50.66 44.0496 51.0109 43.9551 51.4097 43.9551C51.9383 43.9551 52.3621 44.1032 52.6812 44.3994C53.0002 44.6934 53.1859 45.1012 53.2383 45.623H52.5786C52.5216 45.2266 52.3975 44.9395 52.2061 44.7617C52.0169 44.584 51.7515 44.4951 51.4097 44.4951C50.9904 44.4951 50.6611 44.6501 50.4219 44.96C50.1849 45.2699 50.0664 45.7108 50.0664 46.2827V46.7646C50.0664 47.3047 50.1792 47.7342 50.4048 48.0532C50.6304 48.3722 50.946 48.5317 51.3516 48.5317C51.7161 48.5317 51.9953 48.4497 52.189 48.2856C52.3849 48.1193 52.5148 47.8311 52.5786 47.4209H53.2383ZM53.8706 47.1167C53.8706 46.7544 53.9412 46.4285 54.0825 46.1392C54.2261 45.8498 54.4243 45.6265 54.6772 45.4692C54.9325 45.312 55.223 45.2334 55.5488 45.2334C56.0524 45.2334 56.4591 45.4077 56.769 45.7563C57.0812 46.105 57.2373 46.5687 57.2373 47.1475V47.1919C57.2373 47.5519 57.1678 47.8755 57.0288 48.1626C56.8921 48.4474 56.695 48.6696 56.4375 48.8291C56.1823 48.9886 55.8883 49.0684 55.5557 49.0684C55.0544 49.0684 54.6476 48.894 54.3354 48.5454C54.0256 48.1968 53.8706 47.7354 53.8706 47.1611V47.1167ZM54.5063 47.1919C54.5063 47.6021 54.6009 47.9313 54.79 48.1797C54.9814 48.4281 55.2367 48.5522 55.5557 48.5522C55.877 48.5522 56.1322 48.4269 56.3213 48.1763C56.5104 47.9233 56.605 47.5701 56.605 47.1167C56.605 46.7111 56.5081 46.383 56.3145 46.1323C56.123 45.8794 55.8678 45.7529 55.5488 45.7529C55.2367 45.7529 54.9849 45.8771 54.7935 46.1255C54.6021 46.3739 54.5063 46.7293 54.5063 47.1919ZM58.625 45.3018L58.6421 45.7119C58.9132 45.3929 59.279 45.2334 59.7393 45.2334C60.2565 45.2334 60.6086 45.4316 60.7954 45.8281C60.9185 45.6504 61.078 45.5068 61.2739 45.3975C61.4722 45.2881 61.7057 45.2334 61.9746 45.2334C62.7858 45.2334 63.1982 45.6629 63.2119 46.522V49H62.5796V46.5596C62.5796 46.2952 62.5192 46.0981 62.3984 45.9683C62.2777 45.8361 62.0749 45.77 61.79 45.77C61.5553 45.77 61.3605 45.8407 61.2056 45.9819C61.0506 46.1209 60.9606 46.3089 60.9355 46.5459V49H60.2998V46.5767C60.2998 46.0389 60.0366 45.77 59.5103 45.77C59.0955 45.77 58.8118 45.9466 58.6592 46.2998V49H58.0269V45.3018H58.625ZM67.293 47.1919C67.293 47.7547 67.1642 48.2082 66.9067 48.5522C66.6493 48.8963 66.3006 49.0684 65.8608 49.0684C65.4119 49.0684 65.0588 48.9259 64.8013 48.6411V50.4219H64.1689V45.3018H64.7466L64.7773 45.7119C65.0348 45.3929 65.3926 45.2334 65.8506 45.2334C66.2949 45.2334 66.6458 45.4009 66.9033 45.7358C67.1631 46.0708 67.293 46.5368 67.293 47.1338V47.1919ZM66.6606 47.1201C66.6606 46.7031 66.5718 46.3739 66.394 46.1323C66.2163 45.8908 65.9725 45.77 65.6626 45.77C65.2798 45.77 64.9927 45.9398 64.8013 46.2793V48.0464C64.9904 48.3836 65.2798 48.5522 65.6694 48.5522C65.9725 48.5522 66.2129 48.4326 66.3906 48.1934C66.5706 47.9518 66.6606 47.5941 66.6606 47.1201ZM70.3828 48.6343C70.1367 48.9237 69.7756 49.0684 69.2993 49.0684C68.9051 49.0684 68.6043 48.9544 68.397 48.7266C68.1919 48.4964 68.0882 48.1569 68.0859 47.708V45.3018H68.7183V47.6909C68.7183 48.2515 68.9461 48.5317 69.4019 48.5317C69.8849 48.5317 70.2062 48.3517 70.3657 47.9917V45.3018H70.998V49H70.3965L70.3828 48.6343ZM72.8198 44.4062V45.3018H73.5103V45.7905H72.8198V48.084C72.8198 48.2321 72.8506 48.3438 72.9121 48.4189C72.9736 48.4919 73.0785 48.5283 73.2266 48.5283C73.2995 48.5283 73.3997 48.5146 73.5273 48.4873V49C73.361 49.0456 73.1992 49.0684 73.042 49.0684C72.7594 49.0684 72.5464 48.9829 72.4028 48.812C72.2593 48.6411 72.1875 48.3984 72.1875 48.084V45.7905H71.5142V45.3018H72.1875V44.4062H72.8198ZM75.7866 49.0684C75.2853 49.0684 74.8774 48.9043 74.563 48.5762C74.2485 48.2458 74.0913 47.8049 74.0913 47.2534V47.1372C74.0913 46.7703 74.1608 46.4434 74.2998 46.1562C74.4411 45.8669 74.637 45.6413 74.8877 45.4795C75.1406 45.3154 75.4141 45.2334 75.708 45.2334C76.1888 45.2334 76.5625 45.3918 76.8291 45.7085C77.0957 46.0252 77.229 46.4787 77.229 47.0688V47.332H74.7236C74.7327 47.6966 74.8387 47.9917 75.0415 48.2173C75.2466 48.4406 75.5063 48.5522 75.8208 48.5522C76.0441 48.5522 76.2332 48.5067 76.3882 48.4155C76.5431 48.3244 76.6787 48.2036 76.7949 48.0532L77.1812 48.354C76.8713 48.8302 76.4064 49.0684 75.7866 49.0684ZM75.708 45.7529C75.4528 45.7529 75.2386 45.8464 75.0654 46.0332C74.8923 46.2178 74.7852 46.4775 74.7441 46.8125H76.5967V46.7646C76.5785 46.4434 76.4919 46.195 76.3369 46.0195C76.182 45.8418 75.9723 45.7529 75.708 45.7529ZM79.7515 45.8691C79.6558 45.8532 79.5521 45.8452 79.4404 45.8452C79.0257 45.8452 78.7443 46.0218 78.5962 46.375V49H77.9639V45.3018H78.5791L78.5894 45.729C78.7967 45.3986 79.0907 45.2334 79.4712 45.2334C79.5942 45.2334 79.6877 45.2493 79.7515 45.2812V45.8691ZM82.4893 48.019C82.4893 47.8481 82.4243 47.716 82.2944 47.6226C82.1668 47.5269 81.9424 47.4448 81.6211 47.3765C81.3021 47.3081 81.048 47.2261 80.8589 47.1304C80.672 47.0347 80.533 46.9207 80.4419 46.7886C80.353 46.6564 80.3086 46.4992 80.3086 46.3169C80.3086 46.0138 80.4362 45.7575 80.6914 45.5479C80.9489 45.3382 81.277 45.2334 81.6758 45.2334C82.0951 45.2334 82.4346 45.3416 82.6943 45.5581C82.9564 45.7746 83.0874 46.0514 83.0874 46.3887H82.4517C82.4517 46.2155 82.3776 46.0662 82.2295 45.9409C82.0837 45.8156 81.8991 45.7529 81.6758 45.7529C81.4456 45.7529 81.2656 45.8031 81.1357 45.9033C81.0059 46.0036 80.9409 46.1346 80.9409 46.2964C80.9409 46.4491 81.0013 46.5641 81.1221 46.6416C81.2428 46.7191 81.4604 46.7931 81.7749 46.8638C82.0916 46.9344 82.348 47.0187 82.5439 47.1167C82.7399 47.2147 82.8846 47.3332 82.978 47.4722C83.0737 47.6089 83.1216 47.7764 83.1216 47.9746C83.1216 48.305 82.9894 48.5705 82.7251 48.771C82.4608 48.9692 82.1178 49.0684 81.6963 49.0684C81.4001 49.0684 81.138 49.016 80.9102 48.9111C80.6823 48.8063 80.5034 48.6605 80.3735 48.4736C80.2459 48.2845 80.1821 48.0806 80.1821 47.8618H80.8145C80.8258 48.0737 80.9102 48.2424 81.0674 48.3677C81.2269 48.4907 81.4365 48.5522 81.6963 48.5522C81.9355 48.5522 82.127 48.5044 82.2705 48.4087C82.4163 48.3107 82.4893 48.1808 82.4893 48.019ZM87.9648 49C87.9284 48.9271 87.8988 48.7972 87.876 48.6104C87.582 48.9157 87.2311 49.0684 86.8232 49.0684C86.4587 49.0684 86.159 48.9658 85.9243 48.7607C85.6919 48.5534 85.5757 48.2913 85.5757 47.9746C85.5757 47.5895 85.7215 47.291 86.0132 47.0791C86.3071 46.8649 86.7196 46.7578 87.2505 46.7578H87.8657V46.4673C87.8657 46.2463 87.7996 46.0708 87.6675 45.9409C87.5353 45.8088 87.3405 45.7427 87.083 45.7427C86.8574 45.7427 86.6683 45.7996 86.5156 45.9136C86.363 46.0275 86.2866 46.1654 86.2866 46.3271H85.6509C85.6509 46.1426 85.7158 45.9648 85.8457 45.7939C85.9779 45.6208 86.1556 45.484 86.3789 45.3838C86.6045 45.2835 86.8517 45.2334 87.1206 45.2334C87.5467 45.2334 87.8805 45.3405 88.1221 45.5547C88.3636 45.7666 88.4889 46.0594 88.498 46.4331V48.1353C88.498 48.4748 88.5413 48.7448 88.6279 48.9453V49H87.9648ZM86.9155 48.5181C87.1138 48.5181 87.3018 48.4668 87.4795 48.3643C87.6572 48.2617 87.786 48.1284 87.8657 47.9644V47.2056H87.3701C86.5954 47.2056 86.208 47.4323 86.208 47.8857C86.208 48.084 86.2741 48.2389 86.4062 48.3506C86.5384 48.4622 86.7082 48.5181 86.9155 48.5181ZM90.0874 45.3018L90.1079 45.7666C90.3905 45.4111 90.7596 45.2334 91.2153 45.2334C91.9969 45.2334 92.3911 45.6743 92.3979 46.5562V49H91.7656V46.5527C91.7633 46.2861 91.7018 46.089 91.5811 45.9614C91.4626 45.8338 91.2769 45.77 91.0239 45.77C90.8188 45.77 90.6388 45.8247 90.4839 45.9341C90.3289 46.0435 90.2082 46.187 90.1216 46.3647V49H89.4893V45.3018H90.0874ZM93.1978 47.1201C93.1978 46.5527 93.3322 46.097 93.6011 45.7529C93.87 45.4066 94.222 45.2334 94.6572 45.2334C95.0902 45.2334 95.4331 45.3815 95.686 45.6777V43.75H96.3184V49H95.7373L95.7065 48.6035C95.4536 48.9134 95.1016 49.0684 94.6504 49.0684C94.222 49.0684 93.8722 48.8929 93.6011 48.542C93.3322 48.1911 93.1978 47.7331 93.1978 47.168V47.1201ZM93.8301 47.1919C93.8301 47.6112 93.9167 47.9393 94.0898 48.1763C94.263 48.4132 94.5023 48.5317 94.8076 48.5317C95.2087 48.5317 95.5015 48.3517 95.686 47.9917V46.293C95.4969 45.9443 95.2064 45.77 94.8145 45.77C94.5046 45.77 94.263 45.8896 94.0898 46.1289C93.9167 46.3682 93.8301 46.7225 93.8301 47.1919ZM99.7944 47.0518V49H99.1382V44.0234H100.974C101.518 44.0234 101.944 44.1624 102.252 44.4404C102.562 44.7184 102.717 45.0864 102.717 45.5444C102.717 46.0275 102.565 46.4001 102.262 46.6621C101.961 46.9219 101.53 47.0518 100.967 47.0518H99.7944ZM99.7944 46.5151H100.974C101.325 46.5151 101.593 46.4331 101.78 46.269C101.967 46.1027 102.061 45.8634 102.061 45.5513C102.061 45.255 101.967 45.0181 101.78 44.8403C101.593 44.6626 101.337 44.5703 101.011 44.5635H99.7944V46.5151ZM104.942 49.0684C104.441 49.0684 104.033 48.9043 103.718 48.5762C103.404 48.2458 103.247 47.8049 103.247 47.2534V47.1372C103.247 46.7703 103.316 46.4434 103.455 46.1562C103.596 45.8669 103.792 45.6413 104.043 45.4795C104.296 45.3154 104.569 45.2334 104.863 45.2334C105.344 45.2334 105.718 45.3918 105.984 45.7085C106.251 46.0252 106.384 46.4787 106.384 47.0688V47.332H103.879C103.888 47.6966 103.994 47.9917 104.197 48.2173C104.402 48.4406 104.662 48.5522 104.976 48.5522C105.199 48.5522 105.389 48.5067 105.543 48.4155C105.698 48.3244 105.834 48.2036 105.95 48.0532L106.336 48.354C106.027 48.8302 105.562 49.0684 104.942 49.0684ZM104.863 45.7529C104.608 45.7529 104.394 45.8464 104.221 46.0332C104.048 46.2178 103.94 46.4775 103.899 46.8125H105.752V46.7646C105.734 46.4434 105.647 46.195 105.492 46.0195C105.337 45.8418 105.128 45.7529 104.863 45.7529ZM108.907 45.8691C108.811 45.8532 108.707 45.8452 108.596 45.8452C108.181 45.8452 107.9 46.0218 107.751 46.375V49H107.119V45.3018H107.734L107.745 45.729C107.952 45.3986 108.246 45.2334 108.626 45.2334C108.75 45.2334 108.843 45.2493 108.907 45.2812V45.8691ZM110.178 49H109.546V45.3018H110.178V49ZM109.495 44.3208C109.495 44.2183 109.525 44.1317 109.587 44.061C109.651 43.9904 109.744 43.9551 109.867 43.9551C109.99 43.9551 110.084 43.9904 110.147 44.061C110.211 44.1317 110.243 44.2183 110.243 44.3208C110.243 44.4233 110.211 44.5088 110.147 44.5771C110.084 44.6455 109.99 44.6797 109.867 44.6797C109.744 44.6797 109.651 44.6455 109.587 44.5771C109.525 44.5088 109.495 44.4233 109.495 44.3208ZM114.317 47.1919C114.317 47.7547 114.189 48.2082 113.931 48.5522C113.674 48.8963 113.325 49.0684 112.885 49.0684C112.436 49.0684 112.083 48.9259 111.826 48.6411V50.4219H111.193V45.3018H111.771L111.802 45.7119C112.059 45.3929 112.417 45.2334 112.875 45.2334C113.319 45.2334 113.67 45.4009 113.928 45.7358C114.188 46.0708 114.317 46.5368 114.317 47.1338V47.1919ZM113.685 47.1201C113.685 46.7031 113.596 46.3739 113.418 46.1323C113.241 45.8908 112.997 45.77 112.687 45.77C112.304 45.77 112.017 45.9398 111.826 46.2793V48.0464C112.015 48.3836 112.304 48.5522 112.694 48.5522C112.997 48.5522 113.237 48.4326 113.415 48.1934C113.595 47.9518 113.685 47.5941 113.685 47.1201ZM115.756 45.7495C116.037 45.4054 116.401 45.2334 116.85 45.2334C117.632 45.2334 118.026 45.6743 118.033 46.5562V49H117.4V46.5527C117.398 46.2861 117.337 46.089 117.216 45.9614C117.097 45.8338 116.912 45.77 116.659 45.77C116.454 45.77 116.274 45.8247 116.119 45.9341C115.964 46.0435 115.843 46.187 115.756 46.3647V49H115.124V43.75H115.756V45.7495ZM120.514 49.0684C120.013 49.0684 119.605 48.9043 119.291 48.5762C118.976 48.2458 118.819 47.8049 118.819 47.2534V47.1372C118.819 46.7703 118.888 46.4434 119.027 46.1562C119.169 45.8669 119.365 45.6413 119.615 45.4795C119.868 45.3154 120.142 45.2334 120.436 45.2334C120.916 45.2334 121.29 45.3918 121.557 45.7085C121.823 46.0252 121.957 46.4787 121.957 47.0688V47.332H119.451C119.46 47.6966 119.566 47.9917 119.769 48.2173C119.974 48.4406 120.234 48.5522 120.548 48.5522C120.772 48.5522 120.961 48.5067 121.116 48.4155C121.271 48.3244 121.406 48.2036 121.522 48.0532L121.909 48.354C121.599 48.8302 121.134 49.0684 120.514 49.0684ZM120.436 45.7529C120.18 45.7529 119.966 45.8464 119.793 46.0332C119.62 46.2178 119.513 46.4775 119.472 46.8125H121.324V46.7646C121.306 46.4434 121.219 46.195 121.064 46.0195C120.91 45.8418 120.7 45.7529 120.436 45.7529ZM124.479 45.8691C124.383 45.8532 124.28 45.8452 124.168 45.8452C123.753 45.8452 123.472 46.0218 123.324 46.375V49H122.691V45.3018H123.307L123.317 45.729C123.524 45.3986 123.818 45.2334 124.199 45.2334C124.322 45.2334 124.415 45.2493 124.479 45.2812V45.8691ZM127.21 49C127.174 48.9271 127.144 48.7972 127.121 48.6104C126.827 48.9157 126.476 49.0684 126.068 49.0684C125.704 49.0684 125.404 48.9658 125.169 48.7607C124.937 48.5534 124.821 48.2913 124.821 47.9746C124.821 47.5895 124.967 47.291 125.258 47.0791C125.552 46.8649 125.965 46.7578 126.496 46.7578H127.111V46.4673C127.111 46.2463 127.045 46.0708 126.913 45.9409C126.78 45.8088 126.586 45.7427 126.328 45.7427C126.103 45.7427 125.913 45.7996 125.761 45.9136C125.608 46.0275 125.532 46.1654 125.532 46.3271H124.896C124.896 46.1426 124.961 45.9648 125.091 45.7939C125.223 45.6208 125.401 45.484 125.624 45.3838C125.85 45.2835 126.097 45.2334 126.366 45.2334C126.792 45.2334 127.126 45.3405 127.367 45.5547C127.609 45.7666 127.734 46.0594 127.743 46.4331V48.1353C127.743 48.4748 127.786 48.7448 127.873 48.9453V49H127.21ZM126.161 48.5181C126.359 48.5181 126.547 48.4668 126.725 48.3643C126.902 48.2617 127.031 48.1284 127.111 47.9644V47.2056H126.615C125.84 47.2056 125.453 47.4323 125.453 47.8857C125.453 48.084 125.519 48.2389 125.651 48.3506C125.784 48.4622 125.953 48.5181 126.161 48.5181ZM129.421 49H128.789V43.75H129.421V49ZM132.59 48.019C132.59 47.8481 132.525 47.716 132.395 47.6226C132.267 47.5269 132.043 47.4448 131.722 47.3765C131.403 47.3081 131.149 47.2261 130.959 47.1304C130.773 47.0347 130.634 46.9207 130.542 46.7886C130.454 46.6564 130.409 46.4992 130.409 46.3169C130.409 46.0138 130.537 45.7575 130.792 45.5479C131.049 45.3382 131.378 45.2334 131.776 45.2334C132.196 45.2334 132.535 45.3416 132.795 45.5581C133.057 45.7746 133.188 46.0514 133.188 46.3887H132.552C132.552 46.2155 132.478 46.0662 132.33 45.9409C132.184 45.8156 132 45.7529 131.776 45.7529C131.546 45.7529 131.366 45.8031 131.236 45.9033C131.106 46.0036 131.042 46.1346 131.042 46.2964C131.042 46.4491 131.102 46.5641 131.223 46.6416C131.343 46.7191 131.561 46.7931 131.875 46.8638C132.192 46.9344 132.449 47.0187 132.645 47.1167C132.84 47.2147 132.985 47.3332 133.079 47.4722C133.174 47.6089 133.222 47.7764 133.222 47.9746C133.222 48.305 133.09 48.5705 132.826 48.771C132.561 48.9692 132.218 49.0684 131.797 49.0684C131.501 49.0684 131.239 49.016 131.011 48.9111C130.783 48.8063 130.604 48.6605 130.474 48.4736C130.347 48.2845 130.283 48.0806 130.283 47.8618H130.915C130.926 48.0737 131.011 48.2424 131.168 48.3677C131.327 48.4907 131.537 48.5522 131.797 48.5522C132.036 48.5522 132.228 48.5044 132.371 48.4087C132.517 48.3107 132.59 48.1808 132.59 48.019ZM137.348 46.7817C136.785 46.62 136.375 46.4217 136.117 46.187C135.862 45.95 135.734 45.6584 135.734 45.312C135.734 44.9201 135.89 44.5965 136.203 44.3413C136.517 44.0838 136.925 43.9551 137.426 43.9551C137.768 43.9551 138.072 44.0212 138.339 44.1533C138.608 44.2855 138.815 44.4678 138.961 44.7002C139.109 44.9326 139.183 45.1867 139.183 45.4624H138.523C138.523 45.1616 138.428 44.9258 138.236 44.7549C138.045 44.5817 137.775 44.4951 137.426 44.4951C137.103 44.4951 136.85 44.5669 136.667 44.7104C136.487 44.8517 136.397 45.0488 136.397 45.3018C136.397 45.5046 136.483 45.6766 136.654 45.8179C136.827 45.9569 137.12 46.0845 137.532 46.2007C137.947 46.3169 138.271 46.4456 138.503 46.5869C138.738 46.7259 138.911 46.8888 139.022 47.0757C139.136 47.2625 139.193 47.4824 139.193 47.7354C139.193 48.1387 139.036 48.4622 138.722 48.7061C138.407 48.9476 137.987 49.0684 137.46 49.0684C137.119 49.0684 136.8 49.0034 136.503 48.8735C136.207 48.7414 135.978 48.5614 135.816 48.3335C135.657 48.1056 135.577 47.847 135.577 47.5576H136.237C136.237 47.8584 136.347 48.0965 136.568 48.272C136.792 48.4451 137.089 48.5317 137.46 48.5317C137.807 48.5317 138.072 48.4611 138.257 48.3198C138.441 48.1785 138.534 47.986 138.534 47.7422C138.534 47.4984 138.448 47.3104 138.277 47.1782C138.106 47.0438 137.797 46.9116 137.348 46.7817ZM142.222 48.6343C141.976 48.9237 141.614 49.0684 141.138 49.0684C140.744 49.0684 140.443 48.9544 140.236 48.7266C140.031 48.4964 139.927 48.1569 139.925 47.708V45.3018H140.557V47.6909C140.557 48.2515 140.785 48.5317 141.241 48.5317C141.724 48.5317 142.045 48.3517 142.205 47.9917V45.3018H142.837V49H142.235L142.222 48.6343ZM146.925 47.1919C146.925 47.7547 146.796 48.2082 146.539 48.5522C146.281 48.8963 145.932 49.0684 145.493 49.0684C145.044 49.0684 144.691 48.9259 144.433 48.6411V50.4219H143.801V45.3018H144.378L144.409 45.7119C144.667 45.3929 145.024 45.2334 145.482 45.2334C145.927 45.2334 146.278 45.4009 146.535 45.7358C146.795 46.0708 146.925 46.5368 146.925 47.1338V47.1919ZM146.292 47.1201C146.292 46.7031 146.204 46.3739 146.026 46.1323C145.848 45.8908 145.604 45.77 145.294 45.77C144.912 45.77 144.625 45.9398 144.433 46.2793V48.0464C144.622 48.3836 144.912 48.5522 145.301 48.5522C145.604 48.5522 145.845 48.4326 146.022 48.1934C146.202 47.9518 146.292 47.5941 146.292 47.1201ZM150.855 47.1919C150.855 47.7547 150.727 48.2082 150.469 48.5522C150.212 48.8963 149.863 49.0684 149.423 49.0684C148.974 49.0684 148.621 48.9259 148.364 48.6411V50.4219H147.731V45.3018H148.309L148.34 45.7119C148.597 45.3929 148.955 45.2334 149.413 45.2334C149.857 45.2334 150.208 45.4009 150.466 45.7358C150.726 46.0708 150.855 46.5368 150.855 47.1338V47.1919ZM150.223 47.1201C150.223 46.7031 150.134 46.3739 149.957 46.1323C149.779 45.8908 149.535 45.77 149.225 45.77C148.842 45.77 148.555 45.9398 148.364 46.2793V48.0464C148.553 48.3836 148.842 48.5522 149.232 48.5522C149.535 48.5522 149.775 48.4326 149.953 48.1934C150.133 47.9518 150.223 47.5941 150.223 47.1201ZM151.495 47.1167C151.495 46.7544 151.565 46.4285 151.707 46.1392C151.85 45.8498 152.048 45.6265 152.301 45.4692C152.556 45.312 152.847 45.2334 153.173 45.2334C153.676 45.2334 154.083 45.4077 154.393 45.7563C154.705 46.105 154.861 46.5687 154.861 47.1475V47.1919C154.861 47.5519 154.792 47.8755 154.653 48.1626C154.516 48.4474 154.319 48.6696 154.062 48.8291C153.806 48.9886 153.512 49.0684 153.18 49.0684C152.678 49.0684 152.272 48.894 151.959 48.5454C151.65 48.1968 151.495 47.7354 151.495 47.1611V47.1167ZM152.13 47.1919C152.13 47.6021 152.225 47.9313 152.414 48.1797C152.605 48.4281 152.861 48.5522 153.18 48.5522C153.501 48.5522 153.756 48.4269 153.945 48.1763C154.134 47.9233 154.229 47.5701 154.229 47.1167C154.229 46.7111 154.132 46.383 153.938 46.1323C153.747 45.8794 153.492 45.7529 153.173 45.7529C152.861 45.7529 152.609 45.8771 152.417 46.1255C152.226 46.3739 152.13 46.7293 152.13 47.1919ZM157.442 45.8691C157.346 45.8532 157.243 45.8452 157.131 45.8452C156.716 45.8452 156.435 46.0218 156.287 46.375V49H155.654V45.3018H156.27L156.28 45.729C156.487 45.3986 156.781 45.2334 157.162 45.2334C157.285 45.2334 157.378 45.2493 157.442 45.2812V45.8691ZM159.055 44.4062V45.3018H159.746V45.7905H159.055V48.084C159.055 48.2321 159.086 48.3438 159.147 48.4189C159.209 48.4919 159.314 48.5283 159.462 48.5283C159.535 48.5283 159.635 48.5146 159.763 48.4873V49C159.596 49.0456 159.435 49.0684 159.277 49.0684C158.995 49.0684 158.782 48.9829 158.638 48.812C158.495 48.6411 158.423 48.3984 158.423 48.084V45.7905H157.75V45.3018H158.423V44.4062H159.055Z" fill="#4A4A4A"/>
<defs>
<linearGradient id="paint0_linear" x1="18.0986" y1="43.1065" x2="29.8792" y2="83.3204" gradientUnits="userSpaceOnUse">
<stop stop-color="#1C6C0C"/>
<stop offset="0.309804" stop-color="#298516"/>
<stop offset="0.45098" stop-color="#529D25"/>
<stop offset="1" stop-color="#89CF3E"/>
</linearGradient>
<linearGradient id="paint1_linear" x1="35.4333" y1="9.16448" x2="5.86514" y2="62.1456" gradientUnits="userSpaceOnUse">
<stop stop-color="#1C6C0C"/>
<stop offset="0.6" stop-color="#3A881E"/>
<stop offset="0.721569" stop-color="#5BA62D"/>
<stop offset="1" stop-color="#59A530"/>
</linearGradient>
<linearGradient id="paint2_linear" x1="26.0818" y1="22.5075" x2="1.61846" y2="47.0881" gradientUnits="userSpaceOnUse">
<stop stop-color="#1C6C0C"/>
<stop offset="0.74902" stop-color="#43911E"/>
<stop offset="1" stop-color="#6AB731"/>
</linearGradient>
</defs>
</svg>
