<svg width="172" height="85" viewBox="0 0 172 85" fill="none" xmlns="http://www.w3.org/2000/svg">
<path fill-rule="evenodd" clip-rule="evenodd" d="M10.7547 84.9869C11.6183 82.69 13.3455 81.7712 15.0727 80.8524C15.0727 80.8524 14.6409 79.9336 13.7773 77.6367C13.7773 76.7179 14.2091 76.2585 14.6409 76.2585C17.2318 75.7991 18.959 74.8804 20.2545 73.5022C21.9817 71.6646 22.8453 69.3677 22.8453 67.5301C20.6863 67.0707 18.959 67.5301 17.2318 68.4489C15.5046 69.3677 13.7773 70.7459 12.9137 72.5834C12.4819 72.5834 12.0501 72.124 12.0501 72.124C12.0501 69.8271 12.9137 67.9895 14.6409 67.0707C19.3908 63.855 23.1246 62.6986 27.8745 59.0235C37.0058 50.9946 37.4864 48.1609 39.8894 39.1875C30.7581 54.3007 4.32535 57.1344 6.43656 75.7991C6.86837 76.7179 9.89104 84.5275 10.7547 84.9869Z" fill="url(#paint0_linear)"/>
<path fill-rule="evenodd" clip-rule="evenodd" d="M14.2091 0L5.14112 11.9441C12.9137 15.1598 31.0497 24.3476 29.7543 34.9136C29.7543 36.2917 28.4588 38.1293 26.2998 39.5074C17.6636 45.9389 4.22779 50.8577 3.36417 62.8018C3.36417 65.5582 3.99112 69.4783 5.28655 71.7753C7.01379 45.1307 78.5487 47.7764 14.2091 0Z" fill="url(#paint1_linear)"/>
<path fill-rule="evenodd" clip-rule="evenodd" d="M2.6466 54.6755C2.6466 55.5943 3.07841 56.0537 3.51022 56.0537C4.80565 52.3786 5.66927 48.7035 6.10108 45.4877C4.80565 40.4345 5.23746 37.2187 7.39651 34.9218C9.12375 32.1655 12.1464 31.7061 16.0327 33.5436C19.919 34.9218 25.1007 38.5969 28.5552 34.9218C32.4415 28.4904 9.12374 11.9524 4.80565 15.6275C-2.1033 23.8965 -0.376064 45.0284 2.6466 54.6755Z" fill="url(#paint2_linear)"/>
<path d="M54.1489 33.6729H51.644V37.9869H50.2305V27.3228H53.7607C54.9619 27.3228 55.8848 27.5963 56.5293 28.1432C57.1787 28.69 57.5034 29.4859 57.5034 30.5309C57.5034 31.1949 57.3228 31.7735 56.9614 32.2667C56.605 32.7599 56.1069 33.1285 55.4673 33.3727L57.9722 37.899V37.9869H56.4634L54.1489 33.6729ZM51.644 32.523H53.8047C54.5029 32.523 55.0571 32.3424 55.4673 31.981C55.8823 31.6197 56.0898 31.1363 56.0898 30.5309C56.0898 29.8717 55.8921 29.3663 55.4966 29.0147C55.106 28.6632 54.5396 28.485 53.7974 28.4801H51.644V32.523ZM60.5356 36.837H66.6367V37.9869H58.873V36.9322L64.7178 28.4801H58.9683V27.3228H66.4023V28.3556L60.5356 36.837ZM74.3418 33.2774H69.8667V37.9869H68.4604V27.3228H75.0669V28.4801H69.8667V32.1275H74.3418V33.2774Z" fill="#59A530"/>
<path d="M83.5264 33.7096L82.3838 34.94V37.9869H80.1865V27.3228H82.3838V32.1568L83.3506 30.8311L86.0679 27.3228H88.7705L84.9839 32.0616L88.8804 37.9869H86.2656L83.5264 33.7096ZM98.2334 32.8966C98.2334 33.9464 98.0479 34.8668 97.6768 35.6578C97.3057 36.4488 96.7734 37.0592 96.0801 37.4889C95.3916 37.9185 94.6006 38.1334 93.707 38.1334C92.8232 38.1334 92.0347 37.921 91.3413 37.4962C90.6479 37.0714 90.1108 36.4659 89.73 35.6798C89.3491 34.8888 89.1562 33.9806 89.1514 32.9552V32.4278C89.1514 31.378 89.3394 30.4552 89.7153 29.6593C90.0962 28.8585 90.6309 28.2457 91.3193 27.8209C92.0127 27.3912 92.8037 27.1764 93.6924 27.1764C94.5811 27.1764 95.3696 27.3912 96.0581 27.8209C96.7515 28.2457 97.2861 28.8585 97.6621 29.6593C98.043 30.4552 98.2334 31.3756 98.2334 32.4205V32.8966ZM96.0068 32.4132C96.0068 31.295 95.8066 30.4454 95.4062 29.8643C95.0059 29.2833 94.4346 28.9928 93.6924 28.9928C92.9551 28.9928 92.3862 29.2809 91.9858 29.857C91.5854 30.4283 91.3828 31.2682 91.3779 32.3766V32.8966C91.3779 33.9854 91.5781 34.8302 91.9785 35.4308C92.3789 36.0313 92.9551 36.3316 93.707 36.3316C94.4443 36.3316 95.0107 36.0435 95.4062 35.4674C95.8018 34.8863 96.002 34.0416 96.0068 32.9332V32.4132ZM102.701 27.3228L105.44 35.0572L108.165 27.3228H111.051V37.9869H108.846V35.0719L109.066 30.0401L106.188 37.9869H104.679L101.808 30.0475L102.027 35.0719V37.9869H99.8301V27.3228H102.701ZM115.167 34.2296V37.9869H112.97V27.3228H117.13C117.931 27.3228 118.634 27.4693 119.239 27.7623C119.85 28.0553 120.318 28.4727 120.646 29.0147C120.973 29.5518 121.136 30.1646 121.136 30.8531C121.136 31.898 120.777 32.7232 120.06 33.3287C119.347 33.9293 118.358 34.2296 117.093 34.2296H115.167ZM115.167 32.4498H117.13C117.711 32.4498 118.153 32.3131 118.456 32.0396C118.763 31.7662 118.917 31.3756 118.917 30.8678C118.917 30.3453 118.763 29.9229 118.456 29.6007C118.148 29.2784 117.723 29.1124 117.181 29.1026H115.167V32.4498ZM130.724 27.3228V34.3468C130.724 35.5138 130.357 36.4366 129.625 37.1153C128.897 37.794 127.901 38.1334 126.637 38.1334C125.392 38.1334 124.403 37.8038 123.67 37.1446C122.938 36.4854 122.564 35.5797 122.55 34.4273V27.3228H124.747V34.3614C124.747 35.0597 124.913 35.5699 125.245 35.8922C125.582 36.2096 126.046 36.3683 126.637 36.3683C127.872 36.3683 128.5 35.7188 128.519 34.42V27.3228H130.724ZM140.553 29.1026H137.286V37.9869H135.089V29.1026H131.866V27.3228H140.553V29.1026ZM148.229 33.3653H144.01V36.2218H148.961V37.9869H141.812V27.3228H148.946V29.1026H144.01V31.6441H148.229V33.3653ZM154.198 34.0831H152.447V37.9869H150.25V27.3228H154.212C155.472 27.3228 156.444 27.6036 157.127 28.1651C157.811 28.7267 158.153 29.5201 158.153 30.5455C158.153 31.273 157.994 31.881 157.677 32.3692C157.364 32.8526 156.888 33.2384 156.249 33.5265L158.556 37.8844V37.9869H156.197L154.198 34.0831ZM152.447 32.3033H154.22C154.771 32.3033 155.199 32.1642 155.501 31.8858C155.804 31.6026 155.956 31.2144 155.956 30.7213C155.956 30.2184 155.812 29.8228 155.523 29.5348C155.24 29.2467 154.803 29.1026 154.212 29.1026H152.447V32.3033Z" fill="#267512"/>
<path d="M53.2383 47.4078C53.1768 47.9342 52.9819 48.3409 52.6538 48.628C52.328 48.9129 51.8939 49.0553 51.3516 49.0553C50.7637 49.0553 50.292 48.8445 49.9365 48.4229C49.5833 48.0014 49.4067 47.4374 49.4067 46.731V46.2525C49.4067 45.79 49.4888 45.3832 49.6528 45.0323C49.8192 44.6814 50.0539 44.4125 50.3569 44.2257C50.66 44.0365 51.0109 43.942 51.4097 43.942C51.9383 43.942 52.3621 44.0901 52.6812 44.3863C53.0002 44.6803 53.1859 45.0881 53.2383 45.61H52.5786C52.5216 45.2135 52.3975 44.9264 52.2061 44.7486C52.0169 44.5709 51.7515 44.482 51.4097 44.482C50.9904 44.482 50.6611 44.637 50.4219 44.9469C50.1849 45.2568 50.0664 45.6977 50.0664 46.2696V46.7516C50.0664 47.2916 50.1792 47.7211 50.4048 48.0401C50.6304 48.3591 50.946 48.5186 51.3516 48.5186C51.7161 48.5186 51.9953 48.4366 52.189 48.2726C52.3849 48.1062 52.5148 47.818 52.5786 47.4078H53.2383ZM53.8706 47.1036C53.8706 46.7413 53.9412 46.4155 54.0825 46.1261C54.2261 45.8367 54.4243 45.6134 54.6772 45.4561C54.9325 45.2989 55.223 45.2203 55.5488 45.2203C56.0524 45.2203 56.4591 45.3946 56.769 45.7433C57.0812 46.0919 57.2373 46.5556 57.2373 47.1344V47.1788C57.2373 47.5388 57.1678 47.8624 57.0288 48.1495C56.8921 48.4343 56.695 48.6565 56.4375 48.816C56.1823 48.9755 55.8883 49.0553 55.5557 49.0553C55.0544 49.0553 54.6476 48.881 54.3354 48.5323C54.0256 48.1837 53.8706 47.7223 53.8706 47.148V47.1036ZM54.5063 47.1788C54.5063 47.589 54.6009 47.9182 54.79 48.1666C54.9814 48.415 55.2367 48.5392 55.5557 48.5392C55.877 48.5392 56.1322 48.4138 56.3213 48.1632C56.5104 47.9102 56.605 47.5571 56.605 47.1036C56.605 46.698 56.5081 46.3699 56.3145 46.1192C56.123 45.8663 55.8678 45.7398 55.5488 45.7398C55.2367 45.7398 54.9849 45.864 54.7935 46.1124C54.6021 46.3608 54.5063 46.7162 54.5063 47.1788ZM58.625 45.2887L58.6421 45.6988C58.9132 45.3798 59.279 45.2203 59.7393 45.2203C60.2565 45.2203 60.6086 45.4185 60.7954 45.815C60.9185 45.6373 61.078 45.4937 61.2739 45.3844C61.4722 45.275 61.7057 45.2203 61.9746 45.2203C62.7858 45.2203 63.1982 45.6498 63.2119 46.5089V48.9869H62.5796V46.5465C62.5796 46.2822 62.5192 46.0851 62.3984 45.9552C62.2777 45.823 62.0749 45.7569 61.79 45.7569C61.5553 45.7569 61.3605 45.8276 61.2056 45.9688C61.0506 46.1078 60.9606 46.2958 60.9355 46.5328V48.9869H60.2998V46.5636C60.2998 46.0258 60.0366 45.7569 59.5103 45.7569C59.0955 45.7569 58.8118 45.9335 58.6592 46.2867V48.9869H58.0269V45.2887H58.625ZM67.293 47.1788C67.293 47.7416 67.1642 48.1951 66.9067 48.5392C66.6493 48.8832 66.3006 49.0553 65.8608 49.0553C65.4119 49.0553 65.0588 48.9129 64.8013 48.628V50.4088H64.1689V45.2887H64.7466L64.7773 45.6988C65.0348 45.3798 65.3926 45.2203 65.8506 45.2203C66.2949 45.2203 66.6458 45.3878 66.9033 45.7227C67.1631 46.0577 67.293 46.5237 67.293 47.1207V47.1788ZM66.6606 47.107C66.6606 46.69 66.5718 46.3608 66.394 46.1192C66.2163 45.8777 65.9725 45.7569 65.6626 45.7569C65.2798 45.7569 64.9927 45.9267 64.8013 46.2662V48.0333C64.9904 48.3705 65.2798 48.5392 65.6694 48.5392C65.9725 48.5392 66.2129 48.4195 66.3906 48.1803C66.5706 47.9387 66.6606 47.581 66.6606 47.107ZM70.3828 48.6212C70.1367 48.9106 69.7756 49.0553 69.2993 49.0553C68.9051 49.0553 68.6043 48.9413 68.397 48.7135C68.1919 48.4833 68.0882 48.1438 68.0859 47.6949V45.2887H68.7183V47.6778C68.7183 48.2384 68.9461 48.5186 69.4019 48.5186C69.8849 48.5186 70.2062 48.3386 70.3657 47.9786V45.2887H70.998V48.9869H70.3965L70.3828 48.6212ZM72.8198 44.3932V45.2887H73.5103V45.7774H72.8198V48.0709C72.8198 48.219 72.8506 48.3307 72.9121 48.4059C72.9736 48.4788 73.0785 48.5152 73.2266 48.5152C73.2995 48.5152 73.3997 48.5016 73.5273 48.4742V48.9869C73.361 49.0325 73.1992 49.0553 73.042 49.0553C72.7594 49.0553 72.5464 48.9698 72.4028 48.7989C72.2593 48.628 72.1875 48.3853 72.1875 48.0709V45.7774H71.5142V45.2887H72.1875V44.3932H72.8198ZM75.7866 49.0553C75.2853 49.0553 74.8774 48.8912 74.563 48.5631C74.2485 48.2327 74.0913 47.7918 74.0913 47.2403V47.1241C74.0913 46.7573 74.1608 46.4303 74.2998 46.1432C74.4411 45.8538 74.637 45.6282 74.8877 45.4664C75.1406 45.3023 75.4141 45.2203 75.708 45.2203C76.1888 45.2203 76.5625 45.3787 76.8291 45.6954C77.0957 46.0121 77.229 46.4656 77.229 47.0558V47.3189H74.7236C74.7327 47.6835 74.8387 47.9786 75.0415 48.2042C75.2466 48.4275 75.5063 48.5392 75.8208 48.5392C76.0441 48.5392 76.2332 48.4936 76.3882 48.4024C76.5431 48.3113 76.6787 48.1905 76.7949 48.0401L77.1812 48.3409C76.8713 48.8171 76.4064 49.0553 75.7866 49.0553ZM75.708 45.7398C75.4528 45.7398 75.2386 45.8333 75.0654 46.0201C74.8923 46.2047 74.7852 46.4644 74.7441 46.7994H76.5967V46.7516C76.5785 46.4303 76.4919 46.1819 76.3369 46.0064C76.182 45.8287 75.9723 45.7398 75.708 45.7398ZM79.7515 45.856C79.6558 45.8401 79.5521 45.8321 79.4404 45.8321C79.0257 45.8321 78.7443 46.0087 78.5962 46.3619V48.9869H77.9639V45.2887H78.5791L78.5894 45.7159C78.7967 45.3855 79.0907 45.2203 79.4712 45.2203C79.5942 45.2203 79.6877 45.2363 79.7515 45.2682V45.856ZM82.4893 48.006C82.4893 47.8351 82.4243 47.7029 82.2944 47.6095C82.1668 47.5138 81.9424 47.4317 81.6211 47.3634C81.3021 47.295 81.048 47.213 80.8589 47.1173C80.672 47.0216 80.533 46.9076 80.4419 46.7755C80.353 46.6433 80.3086 46.4861 80.3086 46.3038C80.3086 46.0007 80.4362 45.7444 80.6914 45.5348C80.9489 45.3251 81.277 45.2203 81.6758 45.2203C82.0951 45.2203 82.4346 45.3285 82.6943 45.545C82.9564 45.7615 83.0874 46.0383 83.0874 46.3756H82.4517C82.4517 46.2024 82.3776 46.0532 82.2295 45.9278C82.0837 45.8025 81.8991 45.7398 81.6758 45.7398C81.4456 45.7398 81.2656 45.79 81.1357 45.8902C81.0059 45.9905 80.9409 46.1215 80.9409 46.2833C80.9409 46.436 81.0013 46.551 81.1221 46.6285C81.2428 46.706 81.4604 46.78 81.7749 46.8507C82.0916 46.9213 82.348 47.0056 82.5439 47.1036C82.7399 47.2016 82.8846 47.3201 82.978 47.4591C83.0737 47.5958 83.1216 47.7633 83.1216 47.9615C83.1216 48.2919 82.9894 48.5574 82.7251 48.7579C82.4608 48.9561 82.1178 49.0553 81.6963 49.0553C81.4001 49.0553 81.138 49.0029 80.9102 48.898C80.6823 48.7932 80.5034 48.6474 80.3735 48.4605C80.2459 48.2714 80.1821 48.0675 80.1821 47.8487H80.8145C80.8258 48.0606 80.9102 48.2293 81.0674 48.3546C81.2269 48.4776 81.4365 48.5392 81.6963 48.5392C81.9355 48.5392 82.127 48.4913 82.2705 48.3956C82.4163 48.2976 82.4893 48.1677 82.4893 48.006ZM87.9648 48.9869C87.9284 48.914 87.8988 48.7841 87.876 48.5973C87.582 48.9026 87.2311 49.0553 86.8232 49.0553C86.4587 49.0553 86.159 48.9527 85.9243 48.7477C85.6919 48.5403 85.5757 48.2782 85.5757 47.9615C85.5757 47.5764 85.7215 47.2779 86.0132 47.066C86.3071 46.8518 86.7196 46.7447 87.2505 46.7447H87.8657V46.4542C87.8657 46.2332 87.7996 46.0577 87.6675 45.9278C87.5353 45.7957 87.3405 45.7296 87.083 45.7296C86.8574 45.7296 86.6683 45.7865 86.5156 45.9005C86.363 46.0144 86.2866 46.1523 86.2866 46.3141H85.6509C85.6509 46.1295 85.7158 45.9518 85.8457 45.7809C85.9779 45.6077 86.1556 45.471 86.3789 45.3707C86.6045 45.2704 86.8517 45.2203 87.1206 45.2203C87.5467 45.2203 87.8805 45.3274 88.1221 45.5416C88.3636 45.7535 88.4889 46.0463 88.498 46.42V48.1222C88.498 48.4617 88.5413 48.7317 88.6279 48.9322V48.9869H87.9648ZM86.9155 48.505C87.1138 48.505 87.3018 48.4537 87.4795 48.3512C87.6572 48.2486 87.786 48.1153 87.8657 47.9513V47.1925H87.3701C86.5954 47.1925 86.208 47.4192 86.208 47.8727C86.208 48.0709 86.2741 48.2258 86.4062 48.3375C86.5384 48.4491 86.7082 48.505 86.9155 48.505ZM90.0874 45.2887L90.1079 45.7535C90.3905 45.398 90.7596 45.2203 91.2153 45.2203C91.9969 45.2203 92.3911 45.6612 92.3979 46.5431V48.9869H91.7656V46.5396C91.7633 46.273 91.7018 46.0759 91.5811 45.9483C91.4626 45.8207 91.2769 45.7569 91.0239 45.7569C90.8188 45.7569 90.6388 45.8116 90.4839 45.921C90.3289 46.0304 90.2082 46.1739 90.1216 46.3517V48.9869H89.4893V45.2887H90.0874ZM93.1978 47.107C93.1978 46.5396 93.3322 46.0839 93.6011 45.7398C93.87 45.3935 94.222 45.2203 94.6572 45.2203C95.0902 45.2203 95.4331 45.3684 95.686 45.6646V43.7369H96.3184V48.9869H95.7373L95.7065 48.5904C95.4536 48.9003 95.1016 49.0553 94.6504 49.0553C94.222 49.0553 93.8722 48.8798 93.6011 48.5289C93.3322 48.178 93.1978 47.72 93.1978 47.1549V47.107ZM93.8301 47.1788C93.8301 47.5981 93.9167 47.9262 94.0898 48.1632C94.263 48.4002 94.5023 48.5186 94.8076 48.5186C95.2087 48.5186 95.5015 48.3386 95.686 47.9786V46.2799C95.4969 45.9312 95.2064 45.7569 94.8145 45.7569C94.5046 45.7569 94.263 45.8766 94.0898 46.1158C93.9167 46.3551 93.8301 46.7094 93.8301 47.1788ZM99.7944 47.0387V48.9869H99.1382V44.0103H100.974C101.518 44.0103 101.944 44.1493 102.252 44.4273C102.562 44.7053 102.717 45.0733 102.717 45.5313C102.717 46.0144 102.565 46.387 102.262 46.649C101.961 46.9088 101.53 47.0387 100.967 47.0387H99.7944ZM99.7944 46.502H100.974C101.325 46.502 101.593 46.42 101.78 46.256C101.967 46.0896 102.061 45.8504 102.061 45.5382C102.061 45.242 101.967 45.005 101.78 44.8272C101.593 44.6495 101.337 44.5572 101.011 44.5504H99.7944V46.502ZM104.942 49.0553C104.441 49.0553 104.033 48.8912 103.718 48.5631C103.404 48.2327 103.247 47.7918 103.247 47.2403V47.1241C103.247 46.7573 103.316 46.4303 103.455 46.1432C103.596 45.8538 103.792 45.6282 104.043 45.4664C104.296 45.3023 104.569 45.2203 104.863 45.2203C105.344 45.2203 105.718 45.3787 105.984 45.6954C106.251 46.0121 106.384 46.4656 106.384 47.0558V47.3189H103.879C103.888 47.6835 103.994 47.9786 104.197 48.2042C104.402 48.4275 104.662 48.5392 104.976 48.5392C105.199 48.5392 105.389 48.4936 105.543 48.4024C105.698 48.3113 105.834 48.1905 105.95 48.0401L106.336 48.3409C106.027 48.8171 105.562 49.0553 104.942 49.0553ZM104.863 45.7398C104.608 45.7398 104.394 45.8333 104.221 46.0201C104.048 46.2047 103.94 46.4644 103.899 46.7994H105.752V46.7516C105.734 46.4303 105.647 46.1819 105.492 46.0064C105.337 45.8287 105.128 45.7398 104.863 45.7398ZM108.907 45.856C108.811 45.8401 108.707 45.8321 108.596 45.8321C108.181 45.8321 107.9 46.0087 107.751 46.3619V48.9869H107.119V45.2887H107.734L107.745 45.7159C107.952 45.3855 108.246 45.2203 108.626 45.2203C108.75 45.2203 108.843 45.2363 108.907 45.2682V45.856ZM110.178 48.9869H109.546V45.2887H110.178V48.9869ZM109.495 44.3077C109.495 44.2052 109.525 44.1186 109.587 44.0479C109.651 43.9773 109.744 43.942 109.867 43.942C109.99 43.942 110.084 43.9773 110.147 44.0479C110.211 44.1186 110.243 44.2052 110.243 44.3077C110.243 44.4102 110.211 44.4957 110.147 44.5641C110.084 44.6324 109.99 44.6666 109.867 44.6666C109.744 44.6666 109.651 44.6324 109.587 44.5641C109.525 44.4957 109.495 44.4102 109.495 44.3077ZM114.317 47.1788C114.317 47.7416 114.189 48.1951 113.931 48.5392C113.674 48.8832 113.325 49.0553 112.885 49.0553C112.436 49.0553 112.083 48.9129 111.826 48.628V50.4088H111.193V45.2887H111.771L111.802 45.6988C112.059 45.3798 112.417 45.2203 112.875 45.2203C113.319 45.2203 113.67 45.3878 113.928 45.7227C114.188 46.0577 114.317 46.5237 114.317 47.1207V47.1788ZM113.685 47.107C113.685 46.69 113.596 46.3608 113.418 46.1192C113.241 45.8777 112.997 45.7569 112.687 45.7569C112.304 45.7569 112.017 45.9267 111.826 46.2662V48.0333C112.015 48.3705 112.304 48.5392 112.694 48.5392C112.997 48.5392 113.237 48.4195 113.415 48.1803C113.595 47.9387 113.685 47.581 113.685 47.107ZM115.756 45.7364C116.037 45.3923 116.401 45.2203 116.85 45.2203C117.632 45.2203 118.026 45.6612 118.033 46.5431V48.9869H117.4V46.5396C117.398 46.273 117.337 46.0759 117.216 45.9483C117.097 45.8207 116.912 45.7569 116.659 45.7569C116.454 45.7569 116.274 45.8116 116.119 45.921C115.964 46.0304 115.843 46.1739 115.756 46.3517V48.9869H115.124V43.7369H115.756V45.7364ZM120.514 49.0553C120.013 49.0553 119.605 48.8912 119.291 48.5631C118.976 48.2327 118.819 47.7918 118.819 47.2403V47.1241C118.819 46.7573 118.888 46.4303 119.027 46.1432C119.169 45.8538 119.365 45.6282 119.615 45.4664C119.868 45.3023 120.142 45.2203 120.436 45.2203C120.916 45.2203 121.29 45.3787 121.557 45.6954C121.823 46.0121 121.957 46.4656 121.957 47.0558V47.3189H119.451C119.46 47.6835 119.566 47.9786 119.769 48.2042C119.974 48.4275 120.234 48.5392 120.548 48.5392C120.772 48.5392 120.961 48.4936 121.116 48.4024C121.271 48.3113 121.406 48.1905 121.522 48.0401L121.909 48.3409C121.599 48.8171 121.134 49.0553 120.514 49.0553ZM120.436 45.7398C120.18 45.7398 119.966 45.8333 119.793 46.0201C119.62 46.2047 119.513 46.4644 119.472 46.7994H121.324V46.7516C121.306 46.4303 121.219 46.1819 121.064 46.0064C120.91 45.8287 120.7 45.7398 120.436 45.7398ZM124.479 45.856C124.383 45.8401 124.28 45.8321 124.168 45.8321C123.753 45.8321 123.472 46.0087 123.324 46.3619V48.9869H122.691V45.2887H123.307L123.317 45.7159C123.524 45.3855 123.818 45.2203 124.199 45.2203C124.322 45.2203 124.415 45.2363 124.479 45.2682V45.856ZM127.21 48.9869C127.174 48.914 127.144 48.7841 127.121 48.5973C126.827 48.9026 126.476 49.0553 126.068 49.0553C125.704 49.0553 125.404 48.9527 125.169 48.7477C124.937 48.5403 124.821 48.2782 124.821 47.9615C124.821 47.5764 124.967 47.2779 125.258 47.066C125.552 46.8518 125.965 46.7447 126.496 46.7447H127.111V46.4542C127.111 46.2332 127.045 46.0577 126.913 45.9278C126.78 45.7957 126.586 45.7296 126.328 45.7296C126.103 45.7296 125.913 45.7865 125.761 45.9005C125.608 46.0144 125.532 46.1523 125.532 46.3141H124.896C124.896 46.1295 124.961 45.9518 125.091 45.7809C125.223 45.6077 125.401 45.471 125.624 45.3707C125.85 45.2704 126.097 45.2203 126.366 45.2203C126.792 45.2203 127.126 45.3274 127.367 45.5416C127.609 45.7535 127.734 46.0463 127.743 46.42V48.1222C127.743 48.4617 127.786 48.7317 127.873 48.9322V48.9869H127.21ZM126.161 48.505C126.359 48.505 126.547 48.4537 126.725 48.3512C126.902 48.2486 127.031 48.1153 127.111 47.9513V47.1925H126.615C125.84 47.1925 125.453 47.4192 125.453 47.8727C125.453 48.0709 125.519 48.2258 125.651 48.3375C125.784 48.4491 125.953 48.505 126.161 48.505ZM129.421 48.9869H128.789V43.7369H129.421V48.9869ZM132.59 48.006C132.59 47.8351 132.525 47.7029 132.395 47.6095C132.267 47.5138 132.043 47.4317 131.722 47.3634C131.403 47.295 131.149 47.213 130.959 47.1173C130.773 47.0216 130.634 46.9076 130.542 46.7755C130.454 46.6433 130.409 46.4861 130.409 46.3038C130.409 46.0007 130.537 45.7444 130.792 45.5348C131.049 45.3251 131.378 45.2203 131.776 45.2203C132.196 45.2203 132.535 45.3285 132.795 45.545C133.057 45.7615 133.188 46.0383 133.188 46.3756H132.552C132.552 46.2024 132.478 46.0532 132.33 45.9278C132.184 45.8025 132 45.7398 131.776 45.7398C131.546 45.7398 131.366 45.79 131.236 45.8902C131.106 45.9905 131.042 46.1215 131.042 46.2833C131.042 46.436 131.102 46.551 131.223 46.6285C131.343 46.706 131.561 46.78 131.875 46.8507C132.192 46.9213 132.449 47.0056 132.645 47.1036C132.84 47.2016 132.985 47.3201 133.079 47.4591C133.174 47.5958 133.222 47.7633 133.222 47.9615C133.222 48.2919 133.09 48.5574 132.826 48.7579C132.561 48.9561 132.218 49.0553 131.797 49.0553C131.501 49.0553 131.239 49.0029 131.011 48.898C130.783 48.7932 130.604 48.6474 130.474 48.4605C130.347 48.2714 130.283 48.0675 130.283 47.8487H130.915C130.926 48.0606 131.011 48.2293 131.168 48.3546C131.327 48.4776 131.537 48.5392 131.797 48.5392C132.036 48.5392 132.228 48.4913 132.371 48.3956C132.517 48.2976 132.59 48.1677 132.59 48.006ZM137.348 46.7686C136.785 46.6069 136.375 46.4086 136.117 46.1739C135.862 45.9369 135.734 45.6453 135.734 45.2989C135.734 44.907 135.89 44.5834 136.203 44.3282C136.517 44.0707 136.925 43.942 137.426 43.942C137.768 43.942 138.072 44.0081 138.339 44.1402C138.608 44.2724 138.815 44.4547 138.961 44.6871C139.109 44.9195 139.183 45.1736 139.183 45.4493H138.523C138.523 45.1485 138.428 44.9127 138.236 44.7418C138.045 44.5686 137.775 44.482 137.426 44.482C137.103 44.482 136.85 44.5538 136.667 44.6974C136.487 44.8386 136.397 45.0357 136.397 45.2887C136.397 45.4915 136.483 45.6635 136.654 45.8048C136.827 45.9438 137.12 46.0714 137.532 46.1876C137.947 46.3038 138.271 46.4325 138.503 46.5738C138.738 46.7128 138.911 46.8757 139.022 47.0626C139.136 47.2494 139.193 47.4693 139.193 47.7223C139.193 48.1256 139.036 48.4491 138.722 48.693C138.407 48.9345 137.987 49.0553 137.46 49.0553C137.119 49.0553 136.8 48.9903 136.503 48.8604C136.207 48.7283 135.978 48.5483 135.816 48.3204C135.657 48.0925 135.577 47.8339 135.577 47.5445H136.237C136.237 47.8453 136.347 48.0834 136.568 48.2589C136.792 48.4321 137.089 48.5186 137.46 48.5186C137.807 48.5186 138.072 48.448 138.257 48.3067C138.441 48.1655 138.534 47.9729 138.534 47.7291C138.534 47.4853 138.448 47.2973 138.277 47.1651C138.106 47.0307 137.797 46.8985 137.348 46.7686ZM142.222 48.6212C141.976 48.9106 141.614 49.0553 141.138 49.0553C140.744 49.0553 140.443 48.9413 140.236 48.7135C140.031 48.4833 139.927 48.1438 139.925 47.6949V45.2887H140.557V47.6778C140.557 48.2384 140.785 48.5186 141.241 48.5186C141.724 48.5186 142.045 48.3386 142.205 47.9786V45.2887H142.837V48.9869H142.235L142.222 48.6212ZM146.925 47.1788C146.925 47.7416 146.796 48.1951 146.539 48.5392C146.281 48.8832 145.932 49.0553 145.493 49.0553C145.044 49.0553 144.691 48.9129 144.433 48.628V50.4088H143.801V45.2887H144.378L144.409 45.6988C144.667 45.3798 145.024 45.2203 145.482 45.2203C145.927 45.2203 146.278 45.3878 146.535 45.7227C146.795 46.0577 146.925 46.5237 146.925 47.1207V47.1788ZM146.292 47.107C146.292 46.69 146.204 46.3608 146.026 46.1192C145.848 45.8777 145.604 45.7569 145.294 45.7569C144.912 45.7569 144.625 45.9267 144.433 46.2662V48.0333C144.622 48.3705 144.912 48.5392 145.301 48.5392C145.604 48.5392 145.845 48.4195 146.022 48.1803C146.202 47.9387 146.292 47.581 146.292 47.107ZM150.855 47.1788C150.855 47.7416 150.727 48.1951 150.469 48.5392C150.212 48.8832 149.863 49.0553 149.423 49.0553C148.974 49.0553 148.621 48.9129 148.364 48.628V50.4088H147.731V45.2887H148.309L148.34 45.6988C148.597 45.3798 148.955 45.2203 149.413 45.2203C149.857 45.2203 150.208 45.3878 150.466 45.7227C150.726 46.0577 150.855 46.5237 150.855 47.1207V47.1788ZM150.223 47.107C150.223 46.69 150.134 46.3608 149.957 46.1192C149.779 45.8777 149.535 45.7569 149.225 45.7569C148.842 45.7569 148.555 45.9267 148.364 46.2662V48.0333C148.553 48.3705 148.842 48.5392 149.232 48.5392C149.535 48.5392 149.775 48.4195 149.953 48.1803C150.133 47.9387 150.223 47.581 150.223 47.107ZM151.495 47.1036C151.495 46.7413 151.565 46.4155 151.707 46.1261C151.85 45.8367 152.048 45.6134 152.301 45.4561C152.556 45.2989 152.847 45.2203 153.173 45.2203C153.676 45.2203 154.083 45.3946 154.393 45.7433C154.705 46.0919 154.861 46.5556 154.861 47.1344V47.1788C154.861 47.5388 154.792 47.8624 154.653 48.1495C154.516 48.4343 154.319 48.6565 154.062 48.816C153.806 48.9755 153.512 49.0553 153.18 49.0553C152.678 49.0553 152.272 48.881 151.959 48.5323C151.65 48.1837 151.495 47.7223 151.495 47.148V47.1036ZM152.13 47.1788C152.13 47.589 152.225 47.9182 152.414 48.1666C152.605 48.415 152.861 48.5392 153.18 48.5392C153.501 48.5392 153.756 48.4138 153.945 48.1632C154.134 47.9102 154.229 47.5571 154.229 47.1036C154.229 46.698 154.132 46.3699 153.938 46.1192C153.747 45.8663 153.492 45.7398 153.173 45.7398C152.861 45.7398 152.609 45.864 152.417 46.1124C152.226 46.3608 152.13 46.7162 152.13 47.1788ZM157.442 45.856C157.346 45.8401 157.243 45.8321 157.131 45.8321C156.716 45.8321 156.435 46.0087 156.287 46.3619V48.9869H155.654V45.2887H156.27L156.28 45.7159C156.487 45.3855 156.781 45.2203 157.162 45.2203C157.285 45.2203 157.378 45.2363 157.442 45.2682V45.856ZM159.055 44.3932V45.2887H159.746V45.7774H159.055V48.0709C159.055 48.219 159.086 48.3307 159.147 48.4059C159.209 48.4788 159.314 48.5152 159.462 48.5152C159.535 48.5152 159.635 48.5016 159.763 48.4742V48.9869C159.596 49.0325 159.435 49.0553 159.277 49.0553C158.995 49.0553 158.782 48.9698 158.638 48.7989C158.495 48.628 158.423 48.3853 158.423 48.0709V45.7774H157.75V45.2887H158.423V44.3932H159.055Z" fill="white"/>
<defs>
<linearGradient id="paint0_linear" x1="18.0986" y1="43.0935" x2="29.8792" y2="83.3073" gradientUnits="userSpaceOnUse">
<stop stop-color="#1C6C0C"/>
<stop offset="0.309804" stop-color="#298516"/>
<stop offset="0.45098" stop-color="#529D25"/>
<stop offset="1" stop-color="#89CF3E"/>
</linearGradient>
<linearGradient id="paint1_linear" x1="35.4333" y1="9.15139" x2="5.86514" y2="62.1325" gradientUnits="userSpaceOnUse">
<stop stop-color="#1C6C0C"/>
<stop offset="0.6" stop-color="#3A881E"/>
<stop offset="0.721569" stop-color="#5BA62D"/>
<stop offset="1" stop-color="#59A530"/>
</linearGradient>
<linearGradient id="paint2_linear" x1="26.0818" y1="22.4944" x2="1.61846" y2="47.0751" gradientUnits="userSpaceOnUse">
<stop stop-color="#1C6C0C"/>
<stop offset="0.74902" stop-color="#43911E"/>
<stop offset="1" stop-color="#6AB731"/>
</linearGradient>
</defs>
</svg>
