<svg width="30" height="34" viewBox="0 0 30 34" fill="none" xmlns="http://www.w3.org/2000/svg">
<path fill-rule="evenodd" clip-rule="evenodd" d="M17.2335 0.0151646C17.1926 0.0240087 17.1591 0.0450856 17.1591 0.0620298C17.1591 0.0789741 17.1391 0.0927774 17.1147 0.0927774C17.0902 0.0927774 17.0432 0.122533 17.0103 0.158901C16.9775 0.195269 16.9305 0.225025 16.906 0.225025C16.8816 0.225025 16.8616 0.244532 16.8616 0.268419C16.8616 0.292223 16.8355 0.34132 16.8037 0.377523C16.722 0.47051 16.6632 0.579283 16.6632 0.637886C16.6632 0.66541 16.6496 0.687892 16.6329 0.687892C16.5901 0.687892 16.5674 1.4965 16.5445 3.83704C16.5302 5.30664 16.5348 5.87861 16.5609 5.87861C16.5823 5.87861 16.5971 5.94614 16.5971 6.04392C16.5971 6.13484 16.612 6.20923 16.6301 6.20923C16.6483 6.20923 16.6632 6.23899 16.6632 6.27535C16.6632 6.31172 16.6781 6.34148 16.6963 6.34148C16.7144 6.34148 16.7293 6.36479 16.7293 6.39322C16.7293 6.45091 17.0685 6.80434 17.1239 6.80434C17.1433 6.80434 17.1591 6.81922 17.1591 6.83741C17.1591 6.85559 17.1963 6.87047 17.2418 6.87047C17.2872 6.87047 17.3244 6.88535 17.3244 6.90353C17.3244 6.94758 18.0411 6.94758 18.0683 6.90353C18.0796 6.88535 18.1177 6.87047 18.153 6.87047C18.1883 6.87047 18.2171 6.85559 18.2171 6.83741C18.2171 6.81922 18.2393 6.80434 18.2665 6.80434C18.2936 6.80434 18.3343 6.77459 18.357 6.73822C18.3798 6.70185 18.4245 6.6721 18.4565 6.6721C18.4885 6.6721 18.5147 6.65201 18.5147 6.62738C18.5147 6.60283 18.5593 6.53605 18.6139 6.47893C18.6684 6.42182 18.713 6.34611 18.713 6.31065C18.713 6.27519 18.7279 6.237 18.7461 6.22576C18.7643 6.21452 18.7792 6.15501 18.7792 6.09351C18.7792 6.03202 18.794 5.97251 18.8122 5.96127C18.8338 5.94796 18.8453 5.07438 18.8453 3.44856C18.8453 1.82274 18.8338 0.949163 18.8122 0.935856C18.794 0.924615 18.7792 0.849316 18.7792 0.768563C18.7792 0.687809 18.7643 0.621768 18.7461 0.621768C18.7279 0.621768 18.713 0.592012 18.713 0.555644C18.713 0.519276 18.7006 0.48952 18.6856 0.48952C18.6705 0.48952 18.637 0.448606 18.6112 0.3986C18.5544 0.288587 18.4314 0.158901 18.3839 0.158901C18.3649 0.158901 18.3494 0.144023 18.3494 0.125839C18.3494 0.107655 18.3283 0.0927774 18.3025 0.0927774C18.2768 0.0927774 18.2496 0.0745934 18.2422 0.0522766C18.2284 0.0110319 17.3945 -0.0197157 17.2335 0.0151646ZM10.5798 2.30792C10.5798 2.32611 10.5352 2.34099 10.4806 2.34099C10.4261 2.34099 10.3814 2.35223 10.3814 2.36595C10.3814 2.37975 10.3372 2.4105 10.2832 2.43447C10.1635 2.48745 9.95163 2.69392 9.95163 2.75757C9.95163 2.78302 9.93676 2.80385 9.91857 2.80385C9.90039 2.80385 9.88551 2.83361 9.88551 2.86998C9.88551 2.90635 9.87063 2.9361 9.85245 2.9361C9.83426 2.9361 9.81939 2.98073 9.81939 3.03529C9.81939 3.08984 9.80451 3.13447 9.78632 3.13447C9.7669 3.13447 9.75326 3.25019 9.75326 3.4155C9.75326 3.58081 9.7669 3.69652 9.78632 3.69652C9.80451 3.69652 9.81939 3.74116 9.81939 3.79571C9.81939 3.85026 9.83426 3.8949 9.85245 3.8949C9.87063 3.8949 9.88551 3.92465 9.88551 3.96102C9.88551 3.99739 9.90039 4.02714 9.91857 4.02714C9.93676 4.02714 9.95163 4.04946 9.95163 4.07674C9.95163 4.10401 9.96651 4.12633 9.9847 4.12633C10.0029 4.12633 10.0178 4.14278 10.0178 4.16286C10.0178 4.22039 13.512 7.69702 13.5698 7.69702C13.5983 7.69702 13.6215 7.71189 13.6215 7.73008C13.6215 7.74826 13.6513 7.76314 13.6876 7.76314C13.724 7.76314 13.7538 7.77802 13.7538 7.7962C13.7538 7.81439 13.7835 7.82926 13.8199 7.82926C13.8562 7.82926 13.886 7.84414 13.886 7.86232C13.886 7.88224 14.0238 7.89539 14.2331 7.89539C14.4425 7.89539 14.5803 7.88224 14.5803 7.86232C14.5803 7.84414 14.6249 7.82926 14.6795 7.82926C14.734 7.82926 14.7787 7.81439 14.7787 7.7962C14.7787 7.77802 14.8007 7.76314 14.8277 7.76314C14.9365 7.76314 15.3077 7.33243 15.3077 7.20621C15.3077 7.16918 15.3225 7.12967 15.3407 7.11843C15.3592 7.10703 15.3738 6.95279 15.3738 6.7693C15.3738 6.57225 15.3606 6.44066 15.3407 6.44066C15.3225 6.44066 15.3077 6.42132 15.3077 6.39768C15.3077 6.33685 15.2299 6.17675 15.2002 6.17642C15.1866 6.17625 15.1754 6.15377 15.1754 6.12633C15.1754 6.07153 11.7147 2.59581 11.5551 2.49034C11.3939 2.3838 11.3034 2.34099 11.2392 2.34099C11.206 2.34099 11.1696 2.32611 11.1584 2.30792C11.1472 2.28974 11.0123 2.27486 10.8589 2.27486C10.6949 2.27486 10.5798 2.2885 10.5798 2.30792ZM24.2178 2.30792C24.2066 2.32611 24.1683 2.34099 24.1328 2.34099C24.0558 2.34099 23.9417 2.40141 23.8671 2.4815C23.8375 2.51332 23.7964 2.53936 23.7756 2.53936C23.7272 2.53936 20.2669 6.00094 20.2669 6.04938C20.2669 6.06938 20.2409 6.10996 20.2091 6.13955C20.129 6.21411 20.0686 6.32825 20.0686 6.4052C20.0686 6.44075 20.0537 6.47901 20.0355 6.49026C20.0173 6.5015 20.0025 6.6354 20.0025 6.78781C20.0025 6.94023 20.0173 7.07413 20.0355 7.08537C20.0537 7.09661 20.0686 7.14215 20.0686 7.18654C20.0686 7.23093 20.0835 7.26721 20.1016 7.26721C20.1198 7.26721 20.1347 7.29697 20.1347 7.33333C20.1347 7.3697 20.1496 7.39946 20.1678 7.39946C20.1859 7.39946 20.2008 7.41483 20.2008 7.43359C20.2008 7.47286 20.417 7.69668 20.456 7.69776C20.4702 7.69817 20.519 7.7276 20.5645 7.76314C20.61 7.79868 20.6806 7.82811 20.7215 7.82852C20.7625 7.82893 20.7959 7.84414 20.7959 7.86232C20.7959 7.88224 20.9337 7.89539 21.1431 7.89539C21.3525 7.89539 21.4902 7.88224 21.4902 7.86232C21.4902 7.84414 21.5237 7.82893 21.5646 7.82852C21.6055 7.82811 21.6762 7.79868 21.7217 7.76314C21.7671 7.7276 21.8171 7.69817 21.8327 7.69776C21.887 7.69635 25.4246 4.1341 25.4246 4.08079C25.4246 4.05128 25.4358 4.02706 25.4494 4.0269C25.4791 4.02657 25.5569 3.86646 25.5569 3.80563C25.5569 3.78199 25.5717 3.76265 25.5899 3.76265C25.6098 3.76265 25.623 3.62486 25.623 3.4155C25.623 3.20613 25.6098 3.06835 25.5899 3.06835C25.5717 3.06835 25.5569 3.04901 25.5569 3.02537C25.5569 2.96453 25.4791 2.80443 25.4494 2.8041C25.4358 2.80394 25.4246 2.7798 25.4246 2.75046C25.4246 2.68599 25.2158 2.48877 25.0874 2.43191C25.0365 2.40942 24.9948 2.37975 24.9948 2.36595C24.9948 2.35223 24.9502 2.34099 24.8956 2.34099C24.8411 2.34099 24.7964 2.32611 24.7964 2.30792C24.7964 2.2885 24.6814 2.27486 24.5174 2.27486C24.3639 2.27486 24.2291 2.28974 24.2178 2.30792ZM0.843078 6.57291C0.831837 6.59109 0.796709 6.60597 0.765052 6.60597C0.692729 6.60597 0.529569 6.68028 0.529238 6.71342C0.529073 6.72706 0.509566 6.73822 0.485845 6.73822C0.430549 6.73822 0.198371 6.9499 0.198371 7.00032C0.198371 7.02131 0.168616 7.07049 0.132247 7.10951C0.0958794 7.14852 0.0661237 7.21489 0.0661237 7.25688C0.0661237 7.29895 0.0512459 7.33333 0.0330619 7.33333C0.0131421 7.33333 0 7.47046 0 7.6785C0 7.87299 0.0144646 8.03268 0.0330619 8.04417C0.0512459 8.05541 0.0661237 8.10095 0.0661237 8.14533C0.0661237 8.18972 0.0810016 8.22601 0.0991856 8.22601C0.11737 8.22601 0.132247 8.24865 0.132247 8.27634C0.132247 8.38545 0.564284 8.755 0.691903 8.755C0.727444 8.755 0.765714 8.76987 0.776955 8.78806C0.790179 8.80947 1.47035 8.82112 2.70926 8.82112H4.62114L4.6433 8.92857C4.65553 8.98767 4.67363 9.0919 4.68363 9.16025C4.69363 9.22853 4.71504 9.29267 4.73132 9.30267C4.74761 9.31275 4.76091 9.37127 4.76091 9.43277C4.76091 9.49426 4.77579 9.55377 4.79398 9.56501C4.81216 9.57625 4.82704 9.63577 4.82704 9.69726C4.82704 9.75876 4.84192 9.81827 4.8601 9.82951C4.87828 9.84075 4.89316 9.89282 4.89316 9.94522C4.89316 9.99763 4.90639 10.0487 4.92259 10.0587C4.9387 10.0687 4.96152 10.1328 4.97309 10.2011C5.0245 10.5031 5.03425 10.5403 5.06211 10.5403C5.07831 10.5403 5.09153 10.5999 5.09153 10.6726C5.09153 10.7453 5.10641 10.8048 5.12459 10.8048C5.14278 10.8048 5.15766 10.8643 5.15766 10.9371C5.15766 11.0098 5.17253 11.0693 5.19072 11.0693C5.2089 11.0693 5.22378 11.1288 5.22378 11.2016C5.22378 11.2743 5.23866 11.3338 5.25684 11.3338C5.27503 11.3338 5.2899 11.3859 5.2899 11.4495C5.2899 11.5132 5.30478 11.5653 5.32297 11.5653C5.34115 11.5653 5.35603 11.6248 5.35603 11.6975C5.35603 11.7702 5.37091 11.8298 5.38909 11.8298C5.40727 11.8298 5.42215 11.8809 5.42215 11.9435C5.42215 12.0061 5.43703 12.0665 5.45521 12.0777C5.4734 12.089 5.48828 12.1419 5.48828 12.1954C5.48828 12.2489 5.50315 12.2926 5.52134 12.2926C5.53952 12.2926 5.5544 12.3521 5.5544 12.4249C5.5544 12.4976 5.56928 12.5571 5.58746 12.5571C5.60565 12.5571 5.62052 12.6166 5.62052 12.6894C5.62052 12.7621 5.6354 12.8216 5.65359 12.8216C5.67177 12.8216 5.68665 12.8737 5.68665 12.9373C5.68665 13.001 5.70153 13.053 5.71971 13.053C5.73789 13.053 5.75277 13.1126 5.75277 13.1853C5.75277 13.258 5.76765 13.3175 5.78583 13.3175C5.80402 13.3175 5.81889 13.3687 5.81889 13.4313C5.81889 13.4938 5.83377 13.5543 5.85196 13.5655C5.87014 13.5767 5.88502 13.6297 5.88502 13.6832C5.88502 13.7367 5.89841 13.7804 5.91477 13.7804C5.93114 13.7804 5.95197 13.8436 5.96114 13.9209C5.97668 14.0518 6.04545 14.3709 6.11612 14.64C6.18225 14.8919 6.22126 15.0582 6.2382 15.1607C6.24796 15.2198 6.2692 15.2682 6.2854 15.2682C6.3016 15.2682 6.31482 15.3194 6.31482 15.3819C6.31482 15.4445 6.3297 15.5049 6.34789 15.5162C6.36607 15.5274 6.38095 15.5878 6.38095 15.6504C6.38095 15.713 6.39583 15.7641 6.41401 15.7641C6.43219 15.7641 6.44707 15.8236 6.44707 15.8964C6.44707 15.9691 6.46195 16.0286 6.48013 16.0286C6.49832 16.0286 6.5132 16.0881 6.5132 16.1609C6.5132 16.2336 6.52807 16.2931 6.54626 16.2931C6.56444 16.2931 6.57932 16.3443 6.57932 16.4068C6.57932 16.4694 6.5942 16.5298 6.61238 16.5411C6.63056 16.5523 6.64544 16.6044 6.64544 16.6568C6.64544 16.7092 6.66032 16.7613 6.6785 16.7725C6.69669 16.7837 6.71157 16.8442 6.71157 16.9067C6.71157 16.9693 6.72644 17.0205 6.74463 17.0205C6.76281 17.0205 6.77769 17.0725 6.77769 17.1362C6.77769 17.1998 6.79257 17.2519 6.81075 17.2519C6.82894 17.2519 6.84381 17.3114 6.84381 17.3842C6.84381 17.4569 6.85869 17.5164 6.87688 17.5164C6.89506 17.5164 6.90994 17.5759 6.90994 17.6486C6.90994 17.7214 6.92482 17.7809 6.943 17.7809C6.96118 17.7809 6.97606 17.8404 6.97606 17.9131C6.97606 17.9859 6.99094 18.0454 7.00912 18.0454C7.02731 18.0454 7.04219 18.0975 7.04219 18.1611C7.04219 18.2248 7.05706 18.2768 7.07525 18.2768C7.09343 18.2768 7.10831 18.3289 7.10831 18.3925C7.10831 18.4562 7.12319 18.5083 7.14137 18.5083C7.15955 18.5083 7.17443 18.5603 7.17443 18.624C7.17443 18.6876 7.18931 18.7397 7.20749 18.7397C7.22568 18.7397 7.24056 18.7992 7.24056 18.8719C7.24056 18.9447 7.25543 19.0042 7.27362 19.0042C7.2918 19.0042 7.30668 19.0637 7.30668 19.1364C7.30668 19.2092 7.32156 19.2687 7.33974 19.2687C7.35793 19.2687 7.37314 19.317 7.37363 19.3761C7.37404 19.4352 7.38991 19.5431 7.40884 19.6158C7.48381 19.9034 7.51059 20.017 7.52762 20.12C7.53737 20.1791 7.55861 20.2275 7.57481 20.2275C7.59101 20.2275 7.60424 20.287 7.60424 20.3597C7.60424 20.4325 7.61912 20.492 7.6373 20.492C7.65548 20.492 7.67036 20.5515 7.67036 20.6242C7.67036 20.697 7.68524 20.7565 7.70342 20.7565C7.72161 20.7565 7.73649 20.8076 7.73649 20.8702C7.73649 20.9328 7.75136 20.9932 7.76955 21.0044C7.78773 21.0157 7.80261 21.0761 7.80261 21.1387C7.80261 21.2012 7.81749 21.2524 7.83567 21.2524C7.85386 21.2524 7.86873 21.3036 7.86873 21.3661C7.86873 21.4287 7.88361 21.4891 7.9018 21.5004C7.91998 21.5116 7.93486 21.5637 7.93486 21.6161C7.93486 21.6685 7.94973 21.7206 7.96792 21.7318C7.9861 21.743 8.00098 21.8035 8.00098 21.866C8.00098 21.9286 8.01586 21.9798 8.03404 21.9798C8.05223 21.9798 8.06711 22.0393 8.06711 22.112C8.06711 22.1847 8.08198 22.2443 8.10017 22.2443C8.11835 22.2443 8.13323 22.2954 8.13323 22.358C8.13323 22.4206 8.14811 22.481 8.16629 22.4922C8.18447 22.5035 8.19935 22.5639 8.19935 22.6264C8.19935 22.689 8.21423 22.7402 8.23241 22.7402C8.2506 22.7402 8.26548 22.7997 8.26548 22.8724C8.26548 22.9452 8.28035 23.0047 8.29854 23.0047C8.31672 23.0047 8.3316 23.0558 8.3316 23.1184C8.3316 23.181 8.34648 23.2414 8.36466 23.2526C8.38285 23.2639 8.39772 23.3169 8.39772 23.3703C8.39772 23.4238 8.4126 23.4675 8.43079 23.4675C8.44897 23.4675 8.46385 23.5271 8.46385 23.5998C8.46385 23.6725 8.47873 23.732 8.49691 23.732C8.51509 23.732 8.52997 23.7832 8.52997 23.8458C8.52997 23.9083 8.54485 23.9688 8.56303 23.98C8.58122 23.9912 8.59609 24.0517 8.59609 24.1142C8.59609 24.1768 8.61097 24.228 8.62916 24.228C8.64734 24.228 8.66222 24.2875 8.66222 24.3602C8.66222 24.4329 8.6771 24.4925 8.69528 24.4925C8.71346 24.4925 8.72834 24.5442 8.72834 24.6075C8.72834 24.9253 9.06268 25.5835 9.22419 25.5835C9.24394 25.5835 9.29205 25.6133 9.33106 25.6496C9.37007 25.686 9.42157 25.7158 9.44537 25.7158C9.46926 25.7158 9.48877 25.7306 9.48877 25.7488C9.48877 25.7708 12.2439 25.7819 17.6881 25.7819C23.1323 25.7819 25.8875 25.7708 25.8875 25.7488C25.8875 25.7306 25.9172 25.7158 25.9536 25.7158C25.99 25.7158 26.0197 25.7034 26.0197 25.6883C26.0197 25.6732 26.0605 25.6397 26.1104 25.6139C26.3655 25.4819 26.5963 25.0849 26.6345 24.7124C26.6469 24.5915 26.6699 24.4925 26.6855 24.4925C26.7012 24.4925 26.714 24.4329 26.714 24.3602C26.714 24.2875 26.7289 24.228 26.7471 24.228C26.7653 24.228 26.7801 24.1759 26.7801 24.1122C26.7801 24.0486 26.795 23.9965 26.8132 23.9965C26.8314 23.9965 26.8463 23.9454 26.8463 23.8828C26.8463 23.8202 26.8611 23.7598 26.8793 23.7486C26.8975 23.7373 26.9124 23.6853 26.9124 23.6329C26.9124 23.5804 26.9273 23.5284 26.9455 23.5171C26.9636 23.5059 26.9785 23.4455 26.9785 23.3829C26.9785 23.3203 26.9934 23.2692 27.0116 23.2692C27.0298 23.2692 27.0446 23.2097 27.0446 23.1369C27.0446 23.0642 27.0595 23.0047 27.0777 23.0047C27.0959 23.0047 27.1108 22.9452 27.1108 22.8724C27.1108 22.7997 27.1256 22.7402 27.1438 22.7402C27.162 22.7402 27.1769 22.6881 27.1769 22.6245C27.1769 22.5608 27.1918 22.5087 27.2099 22.5087C27.2281 22.5087 27.243 22.4492 27.243 22.3765C27.243 22.3038 27.2579 22.2443 27.2761 22.2443C27.2943 22.2443 27.3091 22.2005 27.3091 22.147C27.3091 22.0936 27.324 22.0406 27.3422 22.0293C27.3604 22.0181 27.3753 21.9577 27.3753 21.8951C27.3753 21.8325 27.3901 21.7814 27.4083 21.7814C27.4265 21.7814 27.4414 21.7219 27.4414 21.6491C27.4414 21.5764 27.4563 21.5169 27.4744 21.5169C27.4926 21.5169 27.5075 21.4574 27.5075 21.3846C27.5075 21.3119 27.5224 21.2524 27.5406 21.2524C27.5587 21.2524 27.5736 21.2003 27.5736 21.1367C27.5736 21.073 27.5885 21.021 27.6067 21.021C27.6249 21.021 27.6398 20.9615 27.6398 20.8887C27.6398 20.816 27.6546 20.7565 27.6728 20.7565C27.691 20.7565 27.7059 20.7053 27.7059 20.6427C27.7059 20.5802 27.7191 20.5207 27.7353 20.5107C27.7514 20.5007 27.7727 20.4441 27.7825 20.3849C27.8121 20.2061 27.8416 20.0823 27.8712 20.0126C27.8984 19.9485 27.921 19.8558 27.96 19.6489C27.9703 19.5943 27.9902 19.5348 28.0043 19.5166C28.0185 19.4985 28.0406 19.3829 28.0537 19.2599C28.0667 19.1369 28.0905 19.0282 28.1065 19.0183C28.1225 19.0084 28.1357 18.9565 28.1357 18.903C28.1357 18.8495 28.1506 18.8058 28.1687 18.8058C28.1869 18.8058 28.2018 18.7463 28.2018 18.6736C28.2018 18.6008 28.2167 18.5413 28.2349 18.5413C28.253 18.5413 28.2679 18.4892 28.2679 18.4256C28.2679 18.362 28.2828 18.3099 28.301 18.3099C28.3192 18.3099 28.3341 18.2504 28.3341 18.1776C28.3341 18.1049 28.3489 18.0454 28.3671 18.0454C28.3853 18.0454 28.4002 17.9859 28.4002 17.9131C28.4002 17.8404 28.4151 17.7809 28.4332 17.7809C28.4514 17.7809 28.4663 17.7214 28.4663 17.6486C28.4663 17.5759 28.4812 17.5164 28.4994 17.5164C28.5175 17.5164 28.5324 17.4727 28.5324 17.4192C28.5324 17.3657 28.5473 17.3127 28.5655 17.3015C28.5837 17.2903 28.5985 17.2298 28.5985 17.1673C28.5985 17.1047 28.6134 17.0535 28.6316 17.0535C28.6498 17.0535 28.6647 17.0024 28.6647 16.9398C28.6647 16.8772 28.6795 16.8168 28.6977 16.8056C28.7159 16.7943 28.7308 16.7339 28.7308 16.6713C28.7308 16.6088 28.7457 16.5576 28.7639 16.5576C28.782 16.5576 28.7969 16.4981 28.7969 16.4254C28.7969 16.3526 28.8118 16.2931 28.83 16.2931C28.8482 16.2931 28.863 16.2336 28.863 16.1609C28.863 16.0881 28.8779 16.0286 28.8961 16.0286C28.9143 16.0286 28.9292 15.9775 28.9292 15.9149C28.9292 15.8523 28.944 15.7919 28.9622 15.7807C28.9804 15.7694 28.9953 15.7173 28.9953 15.6649C28.9953 15.6125 29.0102 15.5605 29.0283 15.5492C29.0465 15.538 29.0614 15.4859 29.0614 15.4335C29.0614 15.3811 29.0763 15.329 29.0945 15.3178C29.1127 15.3065 29.1275 15.247 29.1275 15.1855C29.1275 15.124 29.1424 15.0645 29.1606 15.0533C29.1788 15.042 29.1937 14.9825 29.1937 14.921C29.1937 14.8595 29.2085 14.8 29.2267 14.7888C29.2449 14.7776 29.2598 14.7171 29.2598 14.6546C29.2598 14.592 29.2747 14.5408 29.2928 14.5408C29.311 14.5408 29.3259 14.4897 29.3259 14.4271C29.3259 14.3645 29.3396 14.3048 29.3564 14.2944C29.3731 14.2841 29.3972 14.179 29.4098 14.0611C29.4224 13.9431 29.4459 13.8465 29.462 13.8465C29.4781 13.8465 29.4912 13.787 29.4912 13.7143C29.4912 13.6415 29.5061 13.582 29.5243 13.582C29.5425 13.582 29.5573 13.5225 29.5573 13.4498C29.5573 13.3771 29.5722 13.3175 29.5904 13.3175C29.6086 13.3175 29.6235 13.2664 29.6235 13.2038C29.6235 13.1412 29.6383 13.0808 29.6565 13.0696C29.6747 13.0583 29.6896 12.9979 29.6896 12.9353C29.6896 12.8728 29.7045 12.8216 29.7226 12.8216C29.7408 12.8216 29.7557 12.7704 29.7557 12.7079C29.7557 12.6453 29.7706 12.5849 29.7888 12.5736C29.807 12.5624 29.8218 12.5103 29.8218 12.4579C29.8218 12.4055 29.8367 12.3535 29.8549 12.3422C29.899 12.315 29.899 11.5983 29.8549 11.5983C29.8367 11.5983 29.8218 11.557 29.8218 11.5064C29.8218 11.4524 29.7946 11.3949 29.7557 11.3669C29.7193 11.3407 29.6896 11.2997 29.6896 11.2758C29.6896 11.2129 29.4896 11.0227 29.3659 10.9679C29.3076 10.942 29.2598 10.9097 29.2598 10.8959C29.2598 10.8822 29.2226 10.871 29.1771 10.871C29.1317 10.871 29.0945 10.8561 29.0945 10.8379C29.0945 10.8159 25.4687 10.8048 18.2832 10.8048C7.49406 10.8048 7.47199 10.8047 7.47199 10.7387C7.47199 10.7023 7.45885 10.6726 7.44281 10.6726C7.4267 10.6726 7.40297 10.5722 7.38991 10.4494C7.37694 10.3267 7.35479 10.2114 7.34065 10.1932C7.32652 10.175 7.3066 10.1155 7.29635 10.0609C7.2861 10.0064 7.26081 9.89481 7.24023 9.81298C7.21956 9.73115 7.19468 9.61568 7.18493 9.55642C7.17509 9.49715 7.15385 9.44053 7.13773 9.43053C7.12153 9.42053 7.10831 9.36945 7.10831 9.31705C7.10831 9.26465 7.09343 9.21257 7.07525 9.20133C7.05706 9.19009 7.04219 9.12967 7.04219 9.0671C7.04219 9.00453 7.02731 8.95337 7.00912 8.95337C6.99094 8.95337 6.97606 8.89386 6.97606 8.82112C6.97606 8.74838 6.96118 8.68887 6.943 8.68887C6.92482 8.68887 6.90994 8.62936 6.90994 8.55662C6.90994 8.48389 6.89506 8.42438 6.87688 8.42438C6.85869 8.42438 6.84381 8.37321 6.84381 8.31064C6.84381 8.24807 6.82894 8.18765 6.81075 8.17641C6.79257 8.16517 6.77769 8.10475 6.77769 8.04218C6.77769 7.97961 6.76281 7.92845 6.74463 7.92845C6.72644 7.92845 6.71157 7.87729 6.71157 7.81472C6.71157 7.75215 6.69669 7.69173 6.6785 7.68048C6.66032 7.66924 6.64544 7.61626 6.64544 7.56278C6.64544 7.50931 6.63056 7.46558 6.61238 7.46558C6.5942 7.46558 6.57932 7.42095 6.57932 7.3664C6.57932 7.31184 6.56444 7.26721 6.54626 7.26721C6.52807 7.26721 6.5132 7.23745 6.5132 7.20109C6.5132 7.16472 6.49832 7.13496 6.48013 7.13496C6.46195 7.13496 6.44707 7.11223 6.44707 7.08446C6.44707 7.01892 6.16638 6.73822 6.10083 6.73822C6.07306 6.73822 6.05025 6.72706 6.05008 6.71342C6.04967 6.67375 5.88006 6.60597 5.7812 6.60597C5.73136 6.60597 5.68136 6.59109 5.67012 6.57291C5.65681 6.55134 4.81629 6.53985 3.2566 6.53985C1.6969 6.53985 0.856386 6.55134 0.843078 6.57291ZM27.3091 13.1172C27.3091 13.1343 27.2943 13.1575 27.2761 13.1688C27.2579 13.18 27.243 13.2404 27.243 13.303C27.243 13.3656 27.2281 13.4167 27.2099 13.4167C27.1918 13.4167 27.1769 13.4679 27.1769 13.5305C27.1769 13.593 27.162 13.6534 27.1438 13.6647C27.1256 13.6759 27.1108 13.7364 27.1108 13.7989C27.1108 13.8615 27.0959 13.9127 27.0777 13.9127C27.0595 13.9127 27.0446 13.9722 27.0446 14.0449C27.0446 14.1176 27.0298 14.1771 27.0116 14.1771C26.9934 14.1771 26.9785 14.2367 26.9785 14.3094C26.9785 14.3821 26.9636 14.4416 26.9455 14.4416C26.9273 14.4416 26.9124 14.4928 26.9124 14.5554C26.9124 14.6179 26.8975 14.6784 26.8793 14.6896C26.8611 14.7008 26.8463 14.7529 26.8463 14.8053C26.8463 14.8577 26.833 14.9088 26.8168 14.9188C26.8007 14.9288 26.7796 14.9854 26.7699 15.0447C26.7602 15.104 26.7285 15.2566 26.6994 15.3839C26.6703 15.5112 26.6373 15.6789 26.6262 15.7566C26.6152 15.8343 26.5932 15.9059 26.5774 15.9156C26.5616 15.9254 26.5487 15.9846 26.5487 16.0471C26.5487 16.1097 26.5338 16.1609 26.5156 16.1609C26.4975 16.1609 26.4826 16.2129 26.4826 16.2766C26.4826 16.3402 26.4677 16.3923 26.4495 16.3923C26.4313 16.3923 26.4165 16.4444 26.4165 16.508C26.4165 16.5717 26.4016 16.6237 26.3834 16.6237C26.3652 16.6237 26.3503 16.6832 26.3503 16.756C26.3503 16.8287 26.3355 16.8882 26.3173 16.8882C26.2991 16.8882 26.2842 16.9477 26.2842 17.0205C26.2842 17.0932 26.2693 17.1527 26.2511 17.1527C26.233 17.1527 26.2181 17.2048 26.2181 17.2684C26.2181 17.3321 26.2032 17.3842 26.185 17.3842C26.1668 17.3842 26.152 17.4437 26.152 17.5164C26.152 17.5891 26.1371 17.6486 26.1189 17.6486C26.1007 17.6486 26.0858 17.6998 26.0858 17.7624C26.0858 17.825 26.071 17.8854 26.0528 17.8966C26.0346 17.9079 26.0197 17.9599 26.0197 18.0123C26.0197 18.0647 26.0048 18.1168 25.9867 18.128C25.9685 18.1393 25.9536 18.1997 25.9536 18.2623C25.9536 18.3248 25.9387 18.376 25.9205 18.376C25.9023 18.376 25.8875 18.4355 25.8875 18.5083C25.8875 18.581 25.8726 18.6405 25.8544 18.6405C25.8362 18.6405 25.8213 18.6917 25.8213 18.7542C25.8213 18.8168 25.8065 18.8772 25.7883 18.8885C25.7701 18.8997 25.7552 18.9601 25.7552 19.0227C25.7552 19.0853 25.7403 19.1364 25.7222 19.1364C25.704 19.1364 25.6891 19.1959 25.6891 19.2687C25.6891 19.3414 25.6759 19.4009 25.6597 19.4009C25.6318 19.4009 25.6221 19.4382 25.5707 19.7401C25.5591 19.8085 25.5363 19.8726 25.5202 19.8826C25.504 19.8926 25.4907 19.9511 25.4907 20.0126C25.4907 20.0741 25.4775 20.1326 25.4613 20.1426C25.4452 20.1526 25.4239 20.2092 25.4141 20.2685C25.4044 20.3277 25.3796 20.4432 25.3591 20.525C25.3386 20.6069 25.3072 20.7556 25.289 20.8557C25.271 20.9557 25.2421 21.0634 25.2247 21.0949C25.2074 21.1265 25.1932 21.1972 25.1932 21.252C25.1932 21.3068 25.1783 21.3516 25.1601 21.3516C25.1419 21.3516 25.127 21.4027 25.127 21.4653C25.127 21.5279 25.1122 21.5883 25.094 21.5995C25.0758 21.6108 25.0609 21.6712 25.0609 21.7338C25.0609 21.7963 25.046 21.8475 25.0279 21.8475C25.0097 21.8475 24.9948 21.907 24.9948 21.9798C24.9948 22.0525 24.9799 22.112 24.9617 22.112C24.9436 22.112 24.9287 22.1715 24.9287 22.2443C24.9287 22.317 24.9138 22.3765 24.8956 22.3765C24.8774 22.3765 24.8626 22.4277 24.8626 22.4902C24.8626 22.5528 24.8477 22.6132 24.8295 22.6245C24.8113 22.6357 24.7964 22.6887 24.7964 22.7422C24.7964 22.7956 24.7815 22.8394 24.7634 22.8394C24.7452 22.8394 24.7303 22.8905 24.7303 22.9531C24.7303 23.0157 24.7154 23.0761 24.6972 23.0873C24.6791 23.0986 24.6642 23.159 24.6642 23.2216C24.6642 23.2841 24.6493 23.3353 24.6311 23.3353C24.6129 23.3353 24.5981 23.3799 24.5981 23.4345V23.5337H17.6881H10.7782V23.4345C10.7782 23.3799 10.7633 23.3353 10.7451 23.3353C10.7269 23.3353 10.7121 23.2758 10.7121 23.203C10.7121 23.1303 10.6972 23.0708 10.679 23.0708C10.6608 23.0708 10.6459 23.0187 10.6459 22.9551C10.6459 22.8914 10.6311 22.8394 10.6129 22.8394C10.5947 22.8394 10.5798 22.7799 10.5798 22.7071C10.5798 22.6344 10.5649 22.5749 10.5467 22.5749C10.5286 22.5749 10.5137 22.5154 10.5137 22.4426C10.5137 22.3699 10.4988 22.3104 10.4806 22.3104C10.4624 22.3104 10.4476 22.2583 10.4476 22.1947C10.4476 22.131 10.4327 22.0789 10.4145 22.0789C10.3963 22.0789 10.3814 22.0269 10.3814 21.9632C10.3814 21.8996 10.3666 21.8475 10.3484 21.8475C10.3302 21.8475 10.3153 21.788 10.3153 21.7153C10.3153 21.6425 10.3004 21.583 10.2823 21.583C10.2641 21.583 10.2492 21.5309 10.2492 21.4673C10.2492 21.4037 10.2343 21.3516 10.2161 21.3516C10.1979 21.3516 10.1831 21.2921 10.1831 21.2193C10.1831 21.1466 10.1703 21.0871 10.1547 21.0871C10.1391 21.0871 10.1169 20.9972 10.1055 20.8872C10.094 20.7772 10.0696 20.6592 10.0511 20.6249C10.0328 20.5905 10.0178 20.5251 10.0178 20.4796C10.0178 20.4339 10.0029 20.3875 9.9847 20.3763C9.96651 20.365 9.95163 20.3055 9.95163 20.244C9.95163 20.1825 9.93676 20.123 9.91857 20.1118C9.90039 20.1005 9.88551 20.0401 9.88551 19.9775C9.88551 19.915 9.87063 19.8638 9.85245 19.8638C9.83426 19.8638 9.81939 19.8043 9.81939 19.7315C9.81939 19.6588 9.80451 19.5993 9.78632 19.5993C9.76814 19.5993 9.75326 19.5481 9.75326 19.4856C9.75326 19.423 9.73838 19.3626 9.7202 19.3513C9.70202 19.3401 9.68714 19.288 9.68714 19.2356C9.68714 19.1832 9.67226 19.1311 9.65408 19.1199C9.63589 19.1087 9.62101 19.0482 9.62101 18.9857C9.62101 18.9231 9.60614 18.8719 9.58795 18.8719C9.56977 18.8719 9.55489 18.8199 9.55489 18.7562C9.55489 18.6926 9.54001 18.6405 9.52183 18.6405C9.50364 18.6405 9.48877 18.581 9.48877 18.5083C9.48877 18.4355 9.47389 18.376 9.45571 18.376C9.43752 18.376 9.42264 18.3165 9.42264 18.2438C9.42264 18.171 9.40777 18.1115 9.38958 18.1115C9.3714 18.1115 9.35652 18.052 9.35652 17.9793C9.35652 17.9065 9.34164 17.847 9.32346 17.847C9.30527 17.847 9.2904 17.7959 9.2904 17.7333C9.2904 17.6707 9.27552 17.6103 9.25733 17.5991C9.23915 17.5878 9.22427 17.5357 9.22427 17.4833C9.22427 17.4309 9.20939 17.3789 9.19121 17.3676C9.17302 17.3564 9.15815 17.3034 9.15815 17.2499C9.15815 17.1964 9.14327 17.1527 9.12509 17.1527C9.1069 17.1527 9.09202 17.0932 9.09202 17.0205C9.09202 16.9477 9.07715 16.8882 9.05896 16.8882C9.04078 16.8882 9.0259 16.8287 9.0259 16.756C9.0259 16.6832 9.01102 16.6237 8.99284 16.6237C8.97465 16.6237 8.95978 16.5642 8.95978 16.4915C8.95978 16.4187 8.9449 16.3592 8.92671 16.3592C8.90853 16.3592 8.89365 16.3081 8.89365 16.2455C8.89365 16.1829 8.87877 16.1225 8.86059 16.1113C8.84241 16.1 8.82753 16.0396 8.82753 15.977C8.82753 15.9145 8.81381 15.8633 8.79711 15.8633C8.78033 15.8633 8.75628 15.7664 8.74363 15.6479C8.73091 15.5295 8.70743 15.4245 8.6914 15.4146C8.67536 15.4047 8.66222 15.3462 8.66222 15.2847C8.66222 15.2232 8.64734 15.1637 8.62916 15.1525C8.61097 15.1412 8.59609 15.0817 8.59609 15.0202C8.59609 14.9587 8.58122 14.8992 8.56303 14.888C8.54485 14.8767 8.52997 14.8247 8.52997 14.7723C8.52997 14.7199 8.51509 14.6678 8.49691 14.6565C8.47873 14.6453 8.46385 14.5858 8.46385 14.5243C8.46385 14.4628 8.44897 14.4033 8.43079 14.3921C8.4126 14.3808 8.39772 14.3287 8.39772 14.2763C8.39772 14.2239 8.38285 14.1719 8.36466 14.1606C8.34648 14.1494 8.3316 14.089 8.3316 14.0264C8.3316 13.9638 8.31672 13.9127 8.29854 13.9127C8.28035 13.9127 8.26548 13.8531 8.26548 13.7804C8.26548 13.7077 8.2506 13.6482 8.23241 13.6482C8.21423 13.6482 8.19935 13.597 8.19935 13.5344C8.19935 13.4719 8.18447 13.4114 8.16629 13.4002C8.14811 13.389 8.13323 13.3285 8.13323 13.266C8.13323 13.2034 8.11835 13.1522 8.10017 13.1522C8.08198 13.1522 8.06711 13.1374 8.06711 13.1192C8.06711 13.0972 11.2962 13.0861 17.6881 13.0861C23.6778 13.0861 27.3091 13.0978 27.3091 13.1172ZM13.9521 14.8384C13.9521 14.8566 13.9328 14.8714 13.9091 14.8714C13.8483 14.8714 13.6882 14.9492 13.6879 14.9789C13.6877 14.9925 13.6681 15.0037 13.6442 15.0037C13.5975 15.0037 13.4231 15.1715 13.4231 15.2165C13.4231 15.2316 13.3969 15.2679 13.3649 15.2974C13.2999 15.3571 13.2248 15.55 13.2248 15.6571C13.2248 15.6956 13.2099 15.7363 13.1917 15.7476C13.1735 15.7588 13.1586 15.8407 13.1586 15.9294C13.1586 16.0182 13.1735 16.1 13.1917 16.1113C13.2099 16.1225 13.2248 16.2639 13.2248 16.4254C13.2248 16.5869 13.2396 16.7282 13.2578 16.7394C13.276 16.7507 13.2909 16.892 13.2909 17.0535C13.2909 17.215 13.3058 17.3564 13.3239 17.3676C13.3421 17.3789 13.357 17.5202 13.357 17.6817C13.357 17.8432 13.3719 17.9846 13.3901 17.9958C13.4083 18.007 13.4231 18.1493 13.4231 18.3119C13.4231 18.4868 13.4366 18.6074 13.4562 18.6074C13.476 18.6074 13.4893 18.7397 13.4893 18.9381C13.4893 19.1364 13.5025 19.2687 13.5223 19.2687C13.5421 19.2687 13.5554 19.3954 13.5554 19.5828C13.5554 19.7701 13.5687 19.8969 13.5884 19.8969C13.608 19.8969 13.6215 20.0175 13.6215 20.1924C13.6215 20.355 13.6364 20.4973 13.6546 20.5085C13.6728 20.5197 13.6876 20.6397 13.6876 20.775C13.6876 20.9169 13.7016 21.021 13.7207 21.021C13.7389 21.021 13.7538 21.0509 13.7538 21.0875C13.7538 21.219 14.1831 21.7153 14.2969 21.7153C14.3255 21.7153 14.3489 21.7301 14.3489 21.7483C14.3489 21.7665 14.4009 21.7814 14.4646 21.7814C14.5282 21.7814 14.5803 21.7963 14.5803 21.8144C14.5803 21.8334 14.6795 21.8475 14.8117 21.8475C14.944 21.8475 15.0432 21.8334 15.0432 21.8144C15.0432 21.7963 15.0952 21.7814 15.1589 21.7814C15.2225 21.7814 15.2746 21.7665 15.2746 21.7483C15.2746 21.7301 15.3025 21.7153 15.3368 21.7153C15.3911 21.7153 15.4734 21.644 15.739 21.367C15.7746 21.3299 15.8036 21.2816 15.8036 21.2595C15.8036 21.2374 15.8185 21.2193 15.8367 21.2193C15.8548 21.2193 15.8697 21.1747 15.8697 21.1201C15.8697 21.0656 15.8846 21.021 15.9028 21.021C15.9229 21.021 15.9358 20.8666 15.9358 20.6242C15.9358 20.3818 15.9229 20.2275 15.9028 20.2275C15.883 20.2275 15.8697 20.1008 15.8697 19.9134C15.8697 19.726 15.8564 19.5993 15.8367 19.5993C15.8169 19.5993 15.8036 19.4726 15.8036 19.2852C15.8036 19.0978 15.7903 18.9711 15.7705 18.9711C15.7509 18.9711 15.7375 18.8499 15.7375 18.6736C15.7375 18.4973 15.724 18.376 15.7044 18.376C15.6851 18.376 15.6699 18.2553 15.668 18.0867C15.6648 17.8064 15.6378 17.456 15.5717 16.8386C15.5541 16.675 15.5251 16.3997 15.5071 16.227C15.4891 16.0542 15.4652 15.8274 15.454 15.7228C15.4429 15.6182 15.4203 15.5327 15.4038 15.5327C15.3873 15.5327 15.3738 15.5029 15.3738 15.4666C15.3738 15.4302 15.3589 15.4004 15.3407 15.4004C15.3225 15.4004 15.3077 15.3778 15.3077 15.3501C15.3077 15.3225 15.2262 15.2184 15.1266 15.1187C15.0269 15.0191 14.9227 14.9376 14.8951 14.9376C14.8674 14.9376 14.8448 14.9227 14.8448 14.9045C14.8448 14.8863 14.815 14.8714 14.7787 14.8714C14.7423 14.8714 14.7125 14.8566 14.7125 14.8384C14.7125 14.8183 14.5638 14.8053 14.3323 14.8053C14.1009 14.8053 13.9521 14.8183 13.9521 14.8384ZM20.6637 14.8384C20.6637 14.8566 20.6339 14.8714 20.5976 14.8714C20.5612 14.8714 20.5314 14.8863 20.5314 14.9045C20.5314 14.9227 20.5088 14.9376 20.4811 14.9376C20.4156 14.9376 20.0686 15.2846 20.0686 15.3501C20.0686 15.3778 20.0537 15.4004 20.0355 15.4004C20.0173 15.4004 20.0025 15.4293 20.0025 15.4646C20.0025 15.4999 19.9876 15.538 19.9694 15.5492C19.9512 15.5605 19.9363 15.6497 19.9363 15.7476C19.9363 15.8455 19.9215 15.9347 19.9033 15.946C19.8851 15.9572 19.8702 16.0836 19.8702 16.2268C19.8702 16.37 19.8566 16.5229 19.84 16.5665C19.8234 16.6102 19.799 16.9012 19.7859 17.2134C19.7727 17.5255 19.749 17.7809 19.7334 17.7809C19.7177 17.7809 19.7049 17.9148 19.7049 18.0785C19.7049 18.2548 19.6914 18.376 19.6718 18.376C19.6521 18.376 19.6388 18.5027 19.6388 18.6901C19.6388 18.8775 19.6255 19.0042 19.6057 19.0042C19.5859 19.0042 19.5726 19.1364 19.5726 19.3348C19.5726 19.5332 19.5594 19.6654 19.5396 19.6654C19.52 19.6654 19.5065 19.7867 19.5065 19.963C19.5065 20.1393 19.4931 20.2605 19.4735 20.2605C19.4534 20.2605 19.4404 20.4093 19.4404 20.6408C19.4404 20.8722 19.4534 21.021 19.4735 21.021C19.4916 21.021 19.5065 21.0509 19.5065 21.0875C19.5065 21.1723 19.5631 21.2702 19.6884 21.4026C19.7429 21.4602 19.8095 21.5392 19.8361 21.5782C19.8629 21.6172 19.9038 21.6491 19.9271 21.6491C19.9504 21.6491 19.9694 21.664 19.9694 21.6822C19.9694 21.7004 19.9982 21.7153 20.0335 21.7153C20.0688 21.7153 20.1069 21.7301 20.1182 21.7483C20.1294 21.7665 20.1824 21.7814 20.2359 21.7814C20.2893 21.7814 20.3331 21.7963 20.3331 21.8144C20.3331 21.8333 20.4316 21.8475 20.5625 21.8475C20.6887 21.8475 20.8012 21.8326 20.8125 21.8144C20.8237 21.7963 20.8767 21.7814 20.9302 21.7814C20.9836 21.7814 21.0274 21.7665 21.0274 21.7483C21.0274 21.7301 21.0538 21.7153 21.0862 21.7153C21.1185 21.7153 21.1665 21.6855 21.1927 21.6491C21.2189 21.6128 21.2668 21.583 21.2991 21.583C21.3315 21.583 21.358 21.5619 21.358 21.5362C21.358 21.5105 21.4026 21.4473 21.4572 21.3958C21.5117 21.3443 21.5564 21.2836 21.5564 21.2607C21.5564 21.238 21.5712 21.2193 21.5894 21.2193C21.6076 21.2193 21.6225 21.1747 21.6225 21.1201C21.6225 21.0656 21.6374 21.021 21.6555 21.021C21.6745 21.021 21.6886 20.9218 21.6886 20.7895C21.6886 20.6573 21.7027 20.5581 21.7217 20.5581C21.7415 20.5581 21.7547 20.4258 21.7547 20.2275C21.7547 20.0291 21.768 19.8969 21.7878 19.8969C21.8072 19.8969 21.8209 19.7818 21.8209 19.6178C21.8209 19.4643 21.8357 19.3295 21.8539 19.3183C21.8722 19.307 21.887 19.1582 21.887 18.9857C21.887 18.7996 21.9004 18.6736 21.92 18.6736C21.9398 18.6736 21.9531 18.5469 21.9531 18.3595C21.9531 18.1721 21.9664 18.0454 21.9862 18.0454C22.0058 18.0454 22.0192 17.9248 22.0192 17.7498C22.0192 17.5872 22.0341 17.445 22.0523 17.4337C22.0705 17.4225 22.0854 17.2812 22.0854 17.1197C22.0854 16.9582 22.1002 16.8168 22.1184 16.8056C22.1367 16.7942 22.1515 16.6455 22.1515 16.473C22.1515 16.2869 22.1649 16.1609 22.1845 16.1609C22.2032 16.1609 22.2176 16.0672 22.2176 15.946C22.2176 15.8247 22.2032 15.7311 22.1845 15.7311C22.1664 15.7311 22.1515 15.6715 22.1515 15.5988C22.1515 15.5261 22.1366 15.4666 22.1184 15.4666C22.1002 15.4666 22.0854 15.4401 22.0854 15.4077C22.0854 15.3754 22.0556 15.3275 22.0192 15.3013C21.9829 15.2751 21.9531 15.2339 21.9531 15.2098C21.9531 15.1571 21.8055 15.0037 21.7548 15.0037C21.7351 15.0037 21.687 14.9739 21.6479 14.9376C21.6089 14.9012 21.5426 14.8714 21.5006 14.8714C21.4585 14.8714 21.4241 14.8566 21.4241 14.8384C21.4241 14.8183 21.2753 14.8053 21.0439 14.8053C20.8125 14.8053 20.6637 14.8183 20.6637 14.8384ZM11.6213 26.4101C11.61 26.4282 11.5347 26.4431 11.454 26.4431C11.3732 26.4431 11.3072 26.458 11.3072 26.4762C11.3072 26.4944 11.2477 26.5092 11.1749 26.5092C11.1022 26.5092 11.0427 26.5241 11.0427 26.5423C11.0427 26.5605 11.0129 26.5754 10.9766 26.5754C10.9402 26.5754 10.9104 26.5902 10.9104 26.6084C10.9104 26.6266 10.876 26.6415 10.834 26.6415C10.792 26.6415 10.7256 26.6712 10.6866 26.7076C10.6476 26.744 10.5927 26.7737 10.5647 26.7737C10.5367 26.7737 10.5137 26.7886 10.5137 26.8068C10.5137 26.825 10.4937 26.8399 10.4691 26.8399C10.3942 26.8399 10.2148 26.9421 10.1733 27.0085C10.1517 27.043 10.116 27.0713 10.0939 27.0713C10.0446 27.0713 9.48877 27.6223 9.48877 27.6711C9.48877 27.6903 9.44413 27.7477 9.38958 27.7987C9.33503 27.8496 9.2904 27.9151 9.2904 27.9441C9.2904 27.9732 9.27552 27.997 9.25733 27.997C9.23915 27.997 9.22427 28.0268 9.22427 28.0631C9.22427 28.0995 9.20939 28.1293 9.19121 28.1293C9.17302 28.1293 9.15815 28.1578 9.15815 28.1927C9.15815 28.2275 9.14699 28.2609 9.13335 28.2671C9.09277 28.2851 8.95978 28.5604 8.95978 28.6264C8.95978 28.6599 8.9449 28.6966 8.92671 28.7079C8.90853 28.7191 8.89365 28.7786 8.89365 28.8401C8.89365 28.9016 8.88084 28.9598 8.8653 28.9695C8.79397 29.0135 8.75438 29.8673 8.80604 30.2452C8.85018 30.5682 8.96242 30.9319 9.08144 31.1379C9.10765 31.1834 9.1374 31.2466 9.14749 31.2784C9.15757 31.3102 9.17898 31.3363 9.19509 31.3363C9.21113 31.3363 9.22427 31.366 9.22427 31.4024C9.22427 31.4388 9.23915 31.4685 9.25733 31.4685C9.27552 31.4685 9.2904 31.4983 9.2904 31.5346C9.2904 31.571 9.30279 31.6008 9.31784 31.6008C9.33296 31.6008 9.36644 31.6417 9.39223 31.6917C9.4181 31.7417 9.49497 31.8372 9.56316 31.904C9.63135 31.9707 9.68714 32.0338 9.68714 32.0441C9.68714 32.0755 9.79913 32.1959 9.82823 32.1959C9.84319 32.1959 9.89179 32.2294 9.93626 32.2703C10.1403 32.4581 10.182 32.4934 10.1998 32.4934C10.2103 32.4934 10.2508 32.5232 10.2899 32.5596C10.3289 32.5959 10.3804 32.6257 10.4042 32.6257C10.4281 32.6257 10.4476 32.6406 10.4476 32.6588C10.4476 32.6769 10.4773 32.6918 10.5137 32.6918C10.5501 32.6918 10.5798 32.7067 10.5798 32.7249C10.5798 32.7431 10.6096 32.7579 10.6459 32.7579C10.6823 32.7579 10.7121 32.7728 10.7121 32.791C10.7121 32.8092 10.7418 32.8241 10.7782 32.8241C10.8145 32.8241 10.8443 32.8353 10.8443 32.8491C10.8443 32.8789 11.0807 32.9563 11.1716 32.9563C11.2067 32.9563 11.2417 32.9749 11.2493 32.9976C11.2599 33.0294 11.4732 33.039 12.1668 33.039C12.8603 33.039 13.0737 33.0294 13.0842 32.9976C13.0919 32.9749 13.1414 32.9563 13.1944 32.9563C13.2475 32.9563 13.2909 32.9414 13.2909 32.9232C13.2909 32.9051 13.3355 32.8902 13.3901 32.8902C13.4446 32.8902 13.4893 32.8753 13.4893 32.8571C13.4893 32.8389 13.519 32.8241 13.5554 32.8241C13.5917 32.8241 13.6215 32.8092 13.6215 32.791C13.6215 32.7728 13.6513 32.7579 13.6876 32.7579C13.724 32.7579 13.7538 32.7448 13.7538 32.7288C13.7538 32.7126 13.7798 32.6912 13.8116 32.6812C13.8977 32.6539 14.0603 32.551 14.1212 32.4852C14.1507 32.4534 14.1848 32.4273 14.1971 32.4273C14.2465 32.4273 14.8448 31.8534 14.8448 31.8059C14.8448 31.7894 14.8894 31.7292 14.944 31.6721C14.9985 31.615 15.0432 31.5459 15.0432 31.5184C15.0432 31.491 15.058 31.4685 15.0762 31.4685C15.0944 31.4685 15.1093 31.4388 15.1093 31.4024C15.1093 31.366 15.1242 31.3363 15.1424 31.3363C15.1605 31.3363 15.1754 31.3065 15.1754 31.2702C15.1754 31.2338 15.1903 31.204 15.2085 31.204C15.2267 31.204 15.2415 31.1743 15.2415 31.1379C15.2415 31.1015 15.2564 31.0718 15.2746 31.0718C15.2928 31.0718 15.3077 31.042 15.3077 31.0057C15.3077 30.9693 15.3225 30.9395 15.3407 30.9395C15.3589 30.9395 15.3738 30.9032 15.3738 30.8589C15.3738 30.8145 15.3887 30.7689 15.4068 30.7577C15.425 30.7465 15.4399 30.6869 15.4399 30.6254C15.4399 30.5639 15.4527 30.5057 15.4685 30.496C15.5435 30.4496 15.572 29.6184 15.5117 29.2368C15.4439 28.8084 15.4327 28.7569 15.4032 28.7387C15.387 28.7287 15.3738 28.6841 15.3738 28.6397C15.3738 28.5954 15.3589 28.5591 15.3407 28.5591C15.3225 28.5591 15.3077 28.5323 15.3077 28.4996C15.3077 28.4257 15.2338 28.2621 15.2002 28.2618C15.1866 28.2616 15.1754 28.2318 15.1754 28.1954C15.1754 28.159 15.1605 28.1293 15.1424 28.1293C15.1242 28.1293 15.1093 28.1098 15.1093 28.0859C15.1093 28.0621 15.0795 28.0106 15.0432 27.9716C15.0068 27.9326 14.977 27.8836 14.977 27.8629C14.977 27.8421 14.9324 27.7835 14.8779 27.7325C14.8233 27.6815 14.7787 27.6252 14.7787 27.6074C14.7787 27.5657 14.3638 27.1374 14.3235 27.1374C14.3067 27.1374 14.2646 27.1058 14.23 27.067C14.1474 26.9747 13.9339 26.8399 13.8701 26.8399C13.8425 26.8399 13.8199 26.825 13.8199 26.8068C13.8199 26.7886 13.7901 26.7737 13.7538 26.7737C13.7174 26.7737 13.6876 26.7589 13.6876 26.7407C13.6876 26.7225 13.6579 26.7076 13.6215 26.7076C13.5851 26.7076 13.5554 26.6927 13.5554 26.6745C13.5554 26.6564 13.5256 26.6415 13.4893 26.6415C13.4529 26.6415 13.4231 26.6266 13.4231 26.6084C13.4231 26.5902 13.3868 26.5754 13.3425 26.5754C13.2981 26.5754 13.2525 26.5605 13.2413 26.5423C13.2301 26.5241 13.1771 26.5092 13.1236 26.5092C13.0701 26.5092 13.0264 26.4944 13.0264 26.4762C13.0264 26.458 12.9603 26.4431 12.8796 26.4431C12.7988 26.4431 12.7235 26.4282 12.7123 26.4101C12.7001 26.3903 12.4812 26.377 12.1668 26.377C11.8524 26.377 11.6335 26.3903 11.6213 26.4101ZM22.6639 26.4101C22.6527 26.4282 22.5774 26.4431 22.4966 26.4431C22.4159 26.4431 22.3498 26.458 22.3498 26.4762C22.3498 26.4944 22.3052 26.5092 22.2507 26.5092C22.1961 26.5092 22.1515 26.5241 22.1515 26.5423C22.1515 26.5605 22.1068 26.5754 22.0523 26.5754C21.9977 26.5754 21.9531 26.5902 21.9531 26.6084C21.9531 26.6266 21.9233 26.6415 21.887 26.6415C21.8506 26.6415 21.8209 26.6564 21.8209 26.6745C21.8209 26.6927 21.7911 26.7076 21.7547 26.7076C21.7184 26.7076 21.6886 26.7225 21.6886 26.7407C21.6886 26.7589 21.6589 26.7737 21.6225 26.7737C21.5861 26.7737 21.5564 26.7886 21.5564 26.8068C21.5564 26.825 21.5337 26.8399 21.5061 26.8399C21.4367 26.8399 21.2195 26.9829 21.1606 27.0676C21.1338 27.106 21.0949 27.1374 21.0741 27.1374C21.0275 27.1374 20.6637 27.4831 20.6637 27.5273C20.6637 27.5449 20.6042 27.6205 20.5314 27.6955C20.4587 27.7705 20.3992 27.8541 20.3992 27.8813C20.3992 27.9086 20.3843 27.9309 20.3661 27.9309C20.3479 27.9309 20.3331 27.9607 20.3331 27.997C20.3331 28.0334 20.3192 28.0631 20.3022 28.0631C20.2853 28.0631 20.262 28.0928 20.2505 28.1291C20.239 28.1653 20.2119 28.2142 20.1904 28.2378C20.1223 28.3123 20.0686 28.4237 20.0686 28.4906C20.0686 28.5261 20.0537 28.5644 20.0355 28.5756C20.0173 28.5868 20.0025 28.6315 20.0025 28.6748C20.0025 28.7181 19.9876 28.7627 19.9694 28.774C19.9512 28.7852 19.9363 28.8447 19.9363 28.9062C19.9363 28.9677 19.9235 29.0259 19.9079 29.0356C19.8831 29.051 19.8332 29.5133 19.8308 29.7493C19.8285 29.9793 19.9255 30.6653 19.9687 30.7246C19.982 30.7428 20.0131 30.8284 20.0379 30.9147C20.0627 31.0011 20.0946 31.0718 20.1088 31.0718C20.123 31.0718 20.1347 31.1015 20.1347 31.1379C20.1347 31.1743 20.1496 31.204 20.1678 31.204C20.1859 31.204 20.2008 31.2338 20.2008 31.2702C20.2008 31.3065 20.2157 31.3363 20.2339 31.3363C20.2521 31.3363 20.2669 31.366 20.2669 31.4024C20.2669 31.4388 20.2818 31.4685 20.3 31.4685C20.3182 31.4685 20.3331 31.4886 20.3331 31.5132C20.3331 31.5378 20.3777 31.6046 20.4323 31.6617C20.4868 31.7188 20.5314 31.7795 20.5314 31.7966C20.5314 31.8496 21.129 32.4273 21.184 32.4273C21.199 32.4273 21.2326 32.4571 21.2588 32.4934C21.285 32.5298 21.3329 32.5596 21.3653 32.5596C21.3977 32.5596 21.4241 32.5744 21.4241 32.5926C21.4241 32.6108 21.4464 32.6257 21.4737 32.6257C21.501 32.6257 21.5233 32.6406 21.5233 32.6588C21.5233 32.6769 21.5456 32.6918 21.5729 32.6918C21.6002 32.6918 21.6225 32.7067 21.6225 32.7249C21.6225 32.7431 21.6522 32.7579 21.6886 32.7579C21.725 32.7579 21.7547 32.7728 21.7547 32.791C21.7547 32.8092 21.7845 32.8241 21.8209 32.8241C21.8572 32.8241 21.887 32.8389 21.887 32.8571C21.887 32.8753 21.9316 32.8902 21.9862 32.8902C22.0407 32.8902 22.0854 32.9051 22.0854 32.9232C22.0854 32.9414 22.1287 32.9563 22.1818 32.9563C22.2348 32.9563 22.2844 32.9749 22.292 32.9976C22.3026 33.0294 22.5144 33.039 23.2023 33.039C23.8754 33.039 24.1091 33.0286 24.1401 32.9976C24.1629 32.9749 24.2222 32.9563 24.2721 32.9563C24.3219 32.9563 24.3719 32.9414 24.3832 32.9232C24.3944 32.9051 24.4325 32.8902 24.4678 32.8902C24.5031 32.8902 24.5319 32.8753 24.5319 32.8571C24.5319 32.8389 24.5617 32.8241 24.5981 32.8241C24.6344 32.8241 24.6642 32.8092 24.6642 32.791C24.6642 32.7728 24.6939 32.7579 24.7303 32.7579C24.7667 32.7579 24.7964 32.7431 24.7964 32.7249C24.7964 32.7067 24.8262 32.6918 24.8626 32.6918C24.8989 32.6918 24.9287 32.6806 24.9287 32.6669C24.9287 32.653 24.9703 32.6234 25.0212 32.6009C25.0721 32.5783 25.1673 32.5115 25.2328 32.4523C25.2982 32.3931 25.3851 32.3223 25.4258 32.2951C25.5629 32.2033 25.6891 32.0911 25.6891 32.0608C25.6891 32.0444 25.7635 31.9549 25.8544 31.862C25.9453 31.7692 26.0197 31.6724 26.0197 31.647C26.0197 31.6216 26.0346 31.6008 26.0528 31.6008C26.071 31.6008 26.0858 31.5723 26.0858 31.5374C26.0858 31.5026 26.097 31.4691 26.1106 31.463C26.1417 31.4492 26.2491 31.2731 26.2736 31.1958C26.2836 31.1639 26.305 31.1379 26.3212 31.1379C26.3372 31.1379 26.3503 31.108 26.3503 31.0714C26.3503 31.0348 26.3652 30.9752 26.3834 30.9391C26.4016 30.903 26.4313 30.8438 26.4495 30.8077C26.4677 30.7716 26.4826 30.7076 26.4826 30.6655C26.4826 30.6235 26.4961 30.5749 26.5124 30.5577C26.5811 30.4854 26.6438 29.4227 26.5863 29.306C26.5676 29.268 26.5447 29.1699 26.5354 29.0881C26.5056 28.8227 26.476 28.6913 26.4459 28.6913C26.4297 28.6913 26.4165 28.655 26.4165 28.6107C26.4165 28.5663 26.4016 28.5207 26.3834 28.5095C26.3652 28.4982 26.3503 28.4629 26.3503 28.4311C26.3503 28.3992 26.3206 28.3412 26.2842 28.3022C26.2478 28.2632 26.2181 28.2083 26.2181 28.1803C26.2181 28.1522 26.2032 28.1293 26.185 28.1293C26.1668 28.1293 26.152 28.0995 26.152 28.0631C26.152 28.0268 26.1371 27.997 26.1189 27.997C26.1007 27.997 26.0858 27.9745 26.0858 27.9471C26.0858 27.9197 26.0412 27.8506 25.9867 27.7934C25.9321 27.7363 25.8875 27.6767 25.8875 27.661C25.8875 27.6235 25.3691 27.1069 25.2458 27.0217C25.0431 26.8814 24.9763 26.8446 24.9204 26.8423C24.8886 26.8409 24.8626 26.825 24.8626 26.8068C24.8626 26.7886 24.843 26.7737 24.8192 26.7737C24.7954 26.7737 24.7439 26.744 24.7048 26.7076C24.6658 26.6712 24.6044 26.6415 24.5683 26.6415C24.5323 26.6415 24.4936 26.6266 24.4823 26.6084C24.4711 26.5902 24.433 26.5754 24.3977 26.5754C24.3624 26.5754 24.3336 26.5605 24.3336 26.5423C24.3336 26.5241 24.274 26.5092 24.2013 26.5092C24.1286 26.5092 24.0691 26.4944 24.0691 26.4762C24.0691 26.458 24.0021 26.4431 23.9203 26.4431C23.8385 26.4431 23.7715 26.4282 23.7715 26.4101C23.7715 26.3894 23.5683 26.377 23.228 26.377C22.9012 26.377 22.6762 26.3902 22.6639 26.4101ZM12.3982 28.6583C12.3982 28.6764 12.4428 28.6913 12.4974 28.6913C12.552 28.6913 12.5966 28.7062 12.5966 28.7244C12.5966 28.7426 12.6204 28.7574 12.6495 28.7574C12.6785 28.7574 12.744 28.8021 12.795 28.8566C12.846 28.9112 12.9003 28.9559 12.9156 28.9561C12.9828 28.9566 13.2248 29.4379 13.2248 29.5711C13.2248 29.6306 13.2396 29.6885 13.2579 29.6998C13.2801 29.7134 13.2801 29.7408 13.2579 29.7822C13.2396 29.8163 13.2248 29.8775 13.2248 29.9183C13.2248 30.014 13.1539 30.2161 13.1008 30.2724C13.078 30.2964 13.0595 30.3279 13.0595 30.3423C13.0595 30.3567 13.0151 30.4189 12.9608 30.4805C12.9065 30.542 12.8619 30.6035 12.8616 30.6172C12.8613 30.6308 12.8313 30.642 12.795 30.642C12.7586 30.642 12.7288 30.6569 12.7288 30.675C12.7288 30.6932 12.6991 30.7081 12.6627 30.7081C12.6263 30.7081 12.5966 30.723 12.5966 30.7412C12.5966 30.7593 12.5668 30.7742 12.5305 30.7742C12.4941 30.7742 12.4643 30.7891 12.4643 30.8073C12.4643 30.8269 12.3431 30.8403 12.1668 30.8403C11.9905 30.8403 11.8692 30.8269 11.8692 30.8073C11.8692 30.7891 11.8279 30.7742 11.7773 30.7742C11.7233 30.7742 11.6658 30.7469 11.6378 30.7081C11.6116 30.6717 11.5769 30.642 11.5608 30.642C11.5107 30.642 11.241 30.3505 11.241 30.2964C11.241 30.2683 11.2262 30.2452 11.208 30.2452C11.1898 30.2452 11.1749 30.2155 11.1749 30.1791C11.1749 30.1427 11.16 30.113 11.1419 30.113C11.1237 30.113 11.1088 30.0618 11.1088 29.9993C11.1088 29.9367 11.0939 29.8763 11.0757 29.865C11.0576 29.8538 11.0427 29.7859 11.0427 29.7143C11.0427 29.6426 11.0576 29.584 11.0757 29.584C11.0939 29.584 11.1088 29.5319 11.1088 29.4683C11.1088 29.4046 11.1237 29.3526 11.1419 29.3526C11.16 29.3526 11.1749 29.3228 11.1749 29.2864C11.1749 29.2501 11.1873 29.2203 11.2024 29.2203C11.2175 29.2203 11.251 29.1794 11.2768 29.1294C11.3297 29.0268 11.4555 28.8897 11.4968 28.8897C11.5117 28.8897 11.5455 28.8599 11.5717 28.8236C11.5979 28.7872 11.6458 28.7574 11.6781 28.7574C11.7105 28.7574 11.737 28.7426 11.737 28.7244C11.737 28.7062 11.7816 28.6913 11.8362 28.6913C11.8907 28.6913 11.9353 28.6764 11.9353 28.6583C11.9353 28.6393 12.0345 28.6252 12.1668 28.6252C12.299 28.6252 12.3982 28.6393 12.3982 28.6583ZM23.4409 28.6583C23.4409 28.6764 23.4855 28.6913 23.5401 28.6913C23.5946 28.6913 23.6393 28.7062 23.6393 28.7244C23.6393 28.7426 23.6657 28.7574 23.6981 28.7574C23.7304 28.7574 23.7784 28.7872 23.8046 28.8236C23.8308 28.8599 23.8676 28.8896 23.8862 28.8894C23.9316 28.8892 24.1352 29.1257 24.1352 29.1787C24.1352 29.2016 24.1463 29.2204 24.16 29.2206C24.1931 29.2209 24.2674 29.3841 24.2674 29.4564C24.2674 29.488 24.2823 29.5232 24.3005 29.5344C24.3187 29.5456 24.3336 29.6349 24.3336 29.7328C24.3336 29.8306 24.3187 29.9199 24.3005 29.9311C24.2823 29.9424 24.2674 29.9775 24.2674 30.0092C24.2674 30.0815 24.1931 30.2447 24.16 30.245C24.1463 30.2452 24.1352 30.2675 24.1352 30.2947C24.1352 30.322 24.0831 30.3995 24.0195 30.4669C23.9558 30.5344 23.9038 30.6014 23.9038 30.6158C23.9038 30.6302 23.8842 30.642 23.8604 30.642C23.8366 30.642 23.7851 30.6717 23.7461 30.7081C23.707 30.7445 23.6373 30.7742 23.5911 30.7742C23.5449 30.7742 23.507 30.7891 23.507 30.8073C23.507 30.8269 23.3858 30.8403 23.2095 30.8403C23.0332 30.8403 22.9119 30.8269 22.9119 30.8073C22.9119 30.7891 22.8821 30.7742 22.8458 30.7742C22.8094 30.7742 22.7796 30.7593 22.7796 30.7412C22.7796 30.723 22.7575 30.7081 22.7305 30.7081C22.6802 30.7081 22.6095 30.6572 22.454 30.5088C22.3713 30.43 22.3279 30.3667 22.2507 30.2122C22.2325 30.1758 22.2027 30.1165 22.1845 30.0803C22.0103 29.7342 22.4104 28.7574 22.7265 28.7574C22.7558 28.7574 22.7796 28.7426 22.7796 28.7244C22.7796 28.7062 22.8243 28.6913 22.8788 28.6913C22.9334 28.6913 22.978 28.6764 22.978 28.6583C22.978 28.6393 23.0772 28.6252 23.2095 28.6252C23.3417 28.6252 23.4409 28.6393 23.4409 28.6583Z" fill="#2F8E4A"/>
</svg>
