<svg width="110" height="110" viewBox="0 0 110 110" fill="none" xmlns="http://www.w3.org/2000/svg">
<path d="M109.982 48.6527C109.889 47.7619 109.43 46.9496 108.717 46.4088L100.003 39.8086L103.174 29.3481C103.433 28.4907 103.327 27.5643 102.879 26.7885C102.431 26.0129 101.682 25.4573 100.81 25.2536L90.165 22.7681L88.8061 11.9221C88.6948 11.0335 88.2206 10.2304 87.496 9.7043C86.7717 9.1775 85.8612 8.97426 84.9819 9.14334L74.2466 11.2024L68.5929 1.84703C68.1297 1.08068 67.3698 0.539922 66.4939 0.353868C65.6178 0.167598 64.7038 0.352149 63.9689 0.864121L54.9998 7.11156L46.0303 0.864336C45.2951 0.352578 44.3809 0.167813 43.5052 0.354082C42.6291 0.540137 41.8694 1.08068 41.4062 1.84746L35.7534 11.203L25.0181 9.14398C24.1385 8.97555 23.2283 9.17836 22.5038 9.70494C21.7793 10.2313 21.305 11.034 21.1939 11.9228L19.835 22.7687L9.18993 25.2543C8.31766 25.4579 7.56893 26.0135 7.12098 26.7891C6.67325 27.5649 6.56669 28.4911 6.82622 29.3481L9.99602 39.8091L1.28325 46.4088C0.569322 46.9496 0.111275 47.7617 0.0178177 48.6525C-0.0758541 49.5432 0.203228 50.4329 0.789322 51.1103L7.93954 59.3777L2.66405 68.9509C2.23178 69.7353 2.1437 70.6636 2.42042 71.5155C2.69735 72.3669 3.31417 73.0662 4.12499 73.4467L14.0198 78.0908L13.0941 88.9825C13.018 89.875 13.3149 90.759 13.9146 91.4246C14.5135 92.0902 15.362 92.4778 16.2572 92.4958L27.1863 92.7137L30.7703 103.04C31.0638 103.886 31.6946 104.573 32.5127 104.937C33.3313 105.302 34.2635 105.311 35.0889 104.963L45.1621 100.717L52.6365 108.693C53.249 109.346 54.1045 109.717 55 109.717C55.8957 109.717 56.7512 109.346 57.3637 108.693L64.8383 100.717L74.9106 104.963C75.7358 105.31 76.6685 105.301 77.4866 104.937C78.3047 104.573 78.9357 103.886 79.2292 103.04L82.8137 92.7137L93.7423 92.4958C94.6376 92.478 95.4858 92.0902 96.085 91.4246C96.6842 90.759 96.9813 89.8752 96.9055 88.9825L95.9797 78.0908L105.875 73.4467C106.686 73.0662 107.303 72.3669 107.58 71.5153C107.856 70.6638 107.768 69.7353 107.336 68.9507L102.06 59.3775L109.211 51.1101C109.797 50.4331 110.076 49.5432 109.982 48.6527ZM54.9998 85.9972C37.9077 85.9972 24.0025 72.0919 24.0025 55C24.0025 37.9081 37.9079 24.0028 54.9998 24.0028C72.0917 24.0028 85.997 37.9083 85.997 55C85.997 72.0917 72.0917 85.9972 54.9998 85.9972Z" fill="#388E3C"/>
<path d="M54.9998 30.4814C41.4803 30.4814 30.4814 41.4803 30.4814 54.9998C30.4814 68.5192 41.4805 79.5182 54.9998 79.5182C68.5197 79.5182 79.5182 68.5192 79.5182 54.9998C79.5182 41.4803 68.5195 30.4814 54.9998 30.4814ZM67.6996 50.3512L53.8209 64.2299C53.1882 64.8624 52.3593 65.1789 51.5303 65.1789C50.7014 65.1789 49.8723 64.8624 49.24 64.2299L42.3002 57.2904C41.0354 56.0257 41.0354 53.9745 42.3002 52.7093C43.5649 51.4445 45.6163 51.4441 46.8813 52.7093L51.5303 57.3581L63.1185 45.7701C64.3835 44.5053 66.4346 44.5049 67.6998 45.7701C68.9646 47.0351 68.9646 49.0862 67.6996 50.3512Z" fill="#388E3C"/>
</svg>
