<svg width="110" height="110" viewBox="0 0 110 110" fill="none" xmlns="http://www.w3.org/2000/svg">
<g clip-path="url(#clip0)">
<path d="M23 53.5C23 70.897 37.3269 85 55 85C72.6731 85 87 70.897 87 53.5C87 36.103 72.6731 22 55 22C37.3269 22 23 36.103 23 53.5Z" fill="#388E3C" stroke="white" stroke-width="0.112016"/>
<path fill-rule="evenodd" clip-rule="evenodd" d="M35 62.5C49.1936 66.0484 63.3871 66.0484 74.0323 62.5C63.3871 73.1452 45.6452 73.1452 35 62.5Z" fill="white"/>
<path fill-rule="evenodd" clip-rule="evenodd" d="M18.5 42.5C14.9516 53.1452 15.4516 60.9032 19 68C4.80646 68 -4.64916e-05 56.7742 3.54834 46.1291C7.09673 39.0323 8.80651 40.5 12.5 39.0323C23.1452 5.14984e-05 85.1613 5.14984e-05 95.8064 39.0323C113.548 46.1291 113.548 67.4194 95.8064 70.9678C88.7096 85.1614 81.1452 87.9032 70.5 95C70.5 95 67.6291 99.1451 63.5 99.5C59.9516 99.5 56.5 99 56.5 93C56.5 89.5 60 88 63.5 88.5L67.4193 88.7097C78.0645 85.1613 88.7096 79.1936 92.258 65C94.4465 58.4516 94.6753 53.3563 92.258 46.1291C78 3.5 26.5 13.5 18.5 42.5Z" fill="#388E3C"/>
</g>
<defs>
<clipPath id="clip0">
<rect width="110" height="110" fill="white"/>
</clipPath>
</defs>
</svg>
