<svg width="110" height="110" viewBox="0 0 110 110" fill="none" xmlns="http://www.w3.org/2000/svg">
<path fill-rule="evenodd" clip-rule="evenodd" d="M6.74846 26.1111H63.4151C70.0818 22.7778 90.0818 26.1111 90.0818 36.1111V49.6914C93.4151 49.6914 101.094 51.1111 104.427 54.4445C107.082 62.0737 106.37 69.3827 103.415 79.4445H6.74846V26.1111Z" fill="#388E3C"/>
<path d="M80 90C87.3638 90 93.3333 84.0305 93.3333 76.6667C93.3333 69.3029 87.3638 63.3333 80 63.3333C72.6362 63.3333 66.6667 69.3029 66.6667 76.6667C66.6667 84.0305 72.6362 90 80 90Z" fill="#388E3C" stroke="#F4FCF5" stroke-width="0.336358"/>
<path d="M80 83.3333C83.6819 83.3333 86.6667 80.3485 86.6667 76.6666C86.6667 72.9847 83.6819 69.9999 80 69.9999C76.3181 69.9999 73.3333 72.9847 73.3333 76.6666C73.3333 80.3485 76.3181 83.3333 80 83.3333Z" fill="white" stroke="#F4FCF5" stroke-width="0.336358"/>
<path fill-rule="evenodd" clip-rule="evenodd" d="M68.1595 29.9056C74.9266 29.5512 85.0307 32.4579 85.0307 37.5626V49.5679H68.1595V29.9056Z" fill="white"/>
<path d="M63.8435 20.3704H6.74847V56.5157H63.8435V20.3704Z" fill="#388E3C" stroke="white"/>
<path d="M30 90C37.3638 90 43.3333 84.0305 43.3333 76.6667C43.3333 69.3029 37.3638 63.3333 30 63.3333C22.6362 63.3333 16.6667 69.3029 16.6667 76.6667C16.6667 84.0305 22.6362 90 30 90Z" fill="#388E3C" stroke="white" stroke-width="0.336358"/>
<path d="M30 83.3333C33.6819 83.3333 36.6667 80.3485 36.6667 76.6666C36.6667 72.9847 33.6819 69.9999 30 69.9999C26.3181 69.9999 23.3333 72.9847 23.3333 76.6666C23.3333 80.3485 26.3181 83.3333 30 83.3333Z" fill="white" stroke="white" stroke-width="0.336358"/>
<path d="M21.5312 40.1895H16.082L15.0664 46H12.2051L14.6758 31.7812H23.6797L23.2598 34.1543H17.127L16.4824 37.8262H21.9512L21.5312 40.1895ZM29.0215 40.7949H26.6973L25.7891 46H22.9277L25.3984 31.7812L30.1055 31.791C31.681 31.791 32.8919 32.1621 33.7383 32.9043C34.5911 33.6465 34.9688 34.6784 34.8711 36C34.7344 37.9531 33.6927 39.3105 31.7461 40.0723L33.748 45.8438V46H30.7012L29.0215 40.7949ZM27.1074 38.4219L29.2363 38.4414C29.9915 38.4284 30.6133 38.2266 31.1016 37.8359C31.5964 37.4388 31.8926 36.9017 31.9902 36.2246C32.0814 35.5931 31.9805 35.0983 31.6875 34.7402C31.3945 34.3822 30.929 34.1901 30.291 34.1641L27.8496 34.1543L27.1074 38.4219ZM44.793 39.8379H39.3438L38.6797 43.6465H45.0859L44.6758 46H35.4082L37.8789 31.7812H47.127L46.707 34.1543H40.3301L39.7344 37.543H45.2031L44.793 39.8379ZM55.8086 39.8379H50.3594L49.6953 43.6465H56.1016L55.6914 46H46.4238L48.8945 31.7812H58.1426L57.7227 34.1543H51.3457L50.75 37.543H56.2188L55.8086 39.8379Z" fill="white"/>
</svg>
