<svg width="54" height="52" xmlns="http://www.w3.org/2000/svg" xmlns:xlink="http://www.w3.org/1999/xlink"><defs><path id="path-1" d="M0 .493h46.654v36.864H0z"/></defs><g id="2.-Search-Result" stroke="none" stroke-width="1" fill="none" fill-rule="evenodd"><g id="103b-ocbc-search" transform="translate(-706 -162)"><g id="brand/iconography/content/56/no-result" transform="translate(704 160)"><g id="Group" transform="translate(2 4)"><g id="brand/iconography/content/56/search/article" transform="translate(0 4.514)"><g id="Group-14"><path d="M24.191 13.399h-6.146c-1.08 0-1.96.88-1.96 1.96 0 1.082.88 1.962 1.96 1.962h6.146c1.082 0 1.962-.88 1.962-1.962 0-1.08-.88-1.96-1.962-1.96m0-6.172h-6.146c-1.08 0-1.96.88-1.96 1.96 0 1.083.88 1.962 1.96 1.962h6.146c1.082 0 1.962-.88 1.962-1.961s-.88-1.96-1.962-1.96" id="Fill-3" fill="#EB2629"/><path d="M24.191 19.492h-6.146c-1.08 0-1.96.88-1.96 1.96 0 1.082.88 1.962 1.96 1.962h6.146c1.082 0 1.962-.88 1.962-1.962 0-1.08-.88-1.96-1.962-1.96" id="Fill-5" fill="#EB2629"/><g id="Group-9" transform="translate(0 .536)"><mask id="mask-2" fill="#fff"><use xlink:href="#path-1"/></mask><path d="M28.989 33.435H13.11c.44-.919.671-1.929.67-2.969V4.415h28.936v16.673a9.706 9.706 0 013.937 4.529V2.454c0-1.082-.88-1.961-1.962-1.961H11.816c-1.082 0-1.963.88-1.963 1.961l.001 27.977a2.975 2.975 0 01-2.864 2.865c-1.611.035-3.012-1.23-3.067-2.83V12.28c0-1.082-.88-1.962-1.96-1.962C.88 10.318 0 11.198 0 12.28v18.187a6.906 6.906 0 006.891 6.89h25.425a9.695 9.695 0 01-3.327-3.922" id="Fill-7" fill="#313131" mask="url(#mask-2)"/></g><path d="M45.39 29.832a7.732 7.732 0 11-15.464 0 7.732 7.732 0 0115.464 0z" id="Stroke-10" stroke="#EB2629" stroke-width="4.114" stroke-linecap="round" stroke-linejoin="round"/><path id="Stroke-12" stroke="#EB2629" stroke-width="4.114" stroke-linecap="round" stroke-linejoin="round" d="M42.108 36.148l4.545 6.56"/></g></g><g id="brand/iconography/system/56/circle-close" transform="translate(36)" fill="red" fill-rule="nonzero" stroke="#FFF" stroke-width="2.057"><g id="brand/icon/system/56/chevron/right" transform="translate(0 .023)"><path d="M11.478.536L8.2 3.808 4.85.471c-.704-.55-1.52-.778-2.345-.665-.708.097-1.44.45-2.204 1.268a3.114 3.114 0 00-.545 2.052c.062.703.363 1.387.897 1.921l3.156 3.157-3.376 3.395c-.502.68-.714 1.445-.671 2.171a3.03 3.03 0 00.891 1.981c.562.562 1.291.87 2.066.889.725.018 1.5-.217 2.204-.77L8.2 12.592l3.352 3.34c.704.55 1.52.778 2.345.665.708-.097 1.44-.45 2.204-1.268a3.114 3.114 0 00.545-2.052 3.093 3.093 0 00-.897-1.921L12.592 8.2l3.377-3.395c.502-.68.714-1.445.672-2.171a3.03 3.03 0 00-.892-1.981A3.1 3.1 0 0013.78-.25c-.711-.052-1.453.116-2.302.785z" id="Combined-Shape"/></g></g></g></g></g></g></svg>