<svg width="54" height="52" viewBox="0 0 54 52" fill="none" xmlns="http://www.w3.org/2000/svg">
<g clip-path="url(#clip0)">
<path fill-rule="evenodd" clip-rule="evenodd" d="M24.191 19.913H18.045C16.965 19.913 16.085 20.793 16.085 21.873C16.085 22.955 16.965 23.835 18.045 23.835H24.191C25.273 23.835 26.153 22.955 26.153 21.873C26.153 20.793 25.273 19.913 24.191 19.913V19.913ZM24.191 13.741H18.045C16.965 13.741 16.085 14.621 16.085 15.701C16.085 16.784 16.965 17.663 18.045 17.663H24.191C25.273 17.663 26.153 16.783 26.153 15.702C26.153 14.621 25.273 13.742 24.191 13.742" fill="#388E3C"/>
<path fill-rule="evenodd" clip-rule="evenodd" d="M24.191 26.006H18.045C16.965 26.006 16.085 26.886 16.085 27.966C16.085 29.048 16.965 29.928 18.045 29.928H24.191C25.273 29.928 26.153 29.048 26.153 27.966C26.153 26.886 25.273 26.006 24.191 26.006Z" fill="#388E3C"/>
<path fill-rule="evenodd" clip-rule="evenodd" d="M28.989 40.485H13.11C13.55 39.566 13.781 38.556 13.78 37.516V11.465H42.716V28.138C44.4738 29.1939 45.852 30.7794 46.653 32.667V9.50403C46.653 8.42203 45.773 7.54303 44.691 7.54303H11.816C10.734 7.54303 9.853 8.42303 9.853 9.50403L9.854 37.481C9.82672 38.232 9.51625 38.9448 8.98497 39.4763C8.45369 40.0078 7.74097 40.3185 6.99 40.346C5.379 40.381 3.978 39.116 3.923 37.516V19.33C3.923 18.248 3.043 17.368 1.963 17.368C0.88 17.368 0 18.248 0 19.33V37.517C0.00422674 39.3432 0.73163 41.0934 2.02306 42.3847C3.31448 43.6759 5.06478 44.4031 6.891 44.407H32.316C30.8741 43.4231 29.7247 42.068 28.989 40.485" fill="#313131"/>
<path fill-rule="evenodd" clip-rule="evenodd" d="M45.39 36.346C45.39 38.3967 44.5754 40.3633 43.1253 41.8134C41.6753 43.2634 39.7086 44.078 37.658 44.078C35.6073 44.078 33.6407 43.2634 32.1906 41.8134C30.7406 40.3633 29.926 38.3967 29.926 36.346C29.926 34.2954 30.7406 32.3287 32.1906 30.8787C33.6407 29.4286 35.6073 28.614 37.658 28.614C39.7086 28.614 41.6753 29.4286 43.1253 30.8787C44.5754 32.3287 45.39 34.2954 45.39 36.346Z" stroke="#388E3C" stroke-width="4.114" stroke-linecap="round" stroke-linejoin="round"/>
<path d="M42.108 42.662L46.653 49.222" stroke="#388E3C" stroke-width="4.114" stroke-linecap="round" stroke-linejoin="round"/>
<path d="M47.478 2.55902L44.2 5.83102L40.85 2.49402C40.146 1.94402 39.33 1.71602 38.505 1.82902C37.797 1.92602 37.065 2.27902 36.301 3.09702C35.8845 3.69606 35.6916 4.4223 35.756 5.14902C35.818 5.85202 36.119 6.53602 36.653 7.07002L39.809 10.227L36.433 13.622C35.931 14.302 35.719 15.067 35.762 15.793C35.8039 16.5408 36.1213 17.2465 36.653 17.774C37.215 18.336 37.944 18.644 38.719 18.663C39.444 18.681 40.219 18.446 40.923 17.893L44.2 14.615L47.552 17.955C48.256 18.505 49.072 18.733 49.897 18.62C50.605 18.523 51.337 18.17 52.101 17.352C52.5174 16.753 52.7103 16.0267 52.646 15.3C52.5826 14.574 52.2649 13.8937 51.749 13.379L48.592 10.223L51.969 6.82802C52.471 6.14802 52.683 5.38302 52.641 4.65702C52.5987 3.90913 52.2809 3.20339 51.749 2.67602C51.2226 2.14804 50.5235 1.82745 49.78 1.77302C49.069 1.72102 48.327 1.88902 47.478 2.55802V2.55902Z" fill="#388E3C" stroke="white" stroke-width="2.057"/>
</g>
<defs>
<clipPath id="clip0">
<rect width="54" height="52" fill="white"/>
</clipPath>
</defs>
</svg>
