<svg width="172" height="85" fill="none" xmlns="http://www.w3.org/2000/svg"><path fill-rule="evenodd" clip-rule="evenodd" d="M10.755 85c.863-2.297 2.59-3.216 4.318-4.135 0 0-.432-.918-1.296-3.215 0-.919.432-1.378.864-1.378 2.59-.46 4.318-1.379 5.614-2.757 1.727-1.837 2.59-4.134 2.59-5.972-2.159-.46-3.886 0-5.613.919-1.727.919-3.455 2.297-4.318 4.135-.432 0-.864-.46-.864-.46 0-2.297.864-4.134 2.59-5.053 4.75-3.216 8.485-4.372 13.235-8.047 9.13-8.03 9.611-10.863 12.014-19.836C30.76 54.314 4.325 57.148 6.437 75.812c.431.919 3.454 8.729 4.318 9.188z" fill="url(#paint0_linear)"/><path fill-rule="evenodd" clip-rule="evenodd" d="M14.21.013L5.14 11.957c7.773 3.216 25.909 12.404 24.613 22.97 0 1.378-1.295 3.215-3.454 4.593-8.636 6.432-22.072 11.35-22.936 23.295 0 2.756.627 6.676 1.923 8.973C7.014 45.144 78.549 47.79 14.209.013z" fill="url(#paint1_linear)"/><path fill-rule="evenodd" clip-rule="evenodd" d="M2.647 54.689c0 .918.431 1.378.863 1.378 1.296-3.675 2.16-7.35 2.591-10.566-1.295-5.053-.864-8.27 1.296-10.566 1.727-2.756 4.75-3.216 8.636-1.378 3.886 1.378 9.068 5.053 12.522 1.378 3.886-6.432-19.431-22.97-23.75-19.294-6.908 8.269-5.181 29.4-2.158 39.048z" fill="url(#paint2_linear)"/><path d="M54.149 33.686h-2.505V38h-1.413V27.336h3.53c1.2 0 2.124.273 2.768.82.65.547.974 1.343.974 2.388 0 .664-.18 1.243-.542 1.736-.356.493-.854.862-1.494 1.106l2.505 4.526V38h-1.509l-2.314-4.314zm-2.505-1.15h2.16c.699 0 1.253-.18 1.663-.542.415-.361.623-.845.623-1.45 0-.66-.198-1.165-.593-1.516-.391-.352-.957-.53-1.7-.535h-2.153v4.043zm8.892 4.314h6.1V38h-7.763v-1.055l5.845-8.452h-5.75v-1.157h7.434v1.033l-5.866 8.481zm13.806-3.56h-4.475V38H68.46V27.336h6.607v1.157h-5.2v3.648h4.475v1.15z" fill="#59A530"/><path d="M83.526 33.723l-1.142 1.23V38h-2.198V27.336h2.198v4.834l.967-1.326 2.717-3.508h2.703l-3.787 4.739L88.88 38h-2.614l-2.74-4.277zm14.707-.813c0 1.05-.185 1.97-.556 2.76-.371.792-.904 1.402-1.597 1.832-.688.43-1.48.645-2.373.645-.884 0-1.672-.213-2.366-.638-.693-.425-1.23-1.03-1.611-1.816-.38-.791-.574-1.7-.579-2.725v-.527c0-1.05.188-1.973.564-2.769.381-.8.916-1.413 1.604-1.838.694-.43 1.485-.645 2.373-.645.89 0 1.678.215 2.366.645.693.425 1.228 1.038 1.604 1.838.381.796.571 1.717.571 2.762v.476zm-2.226-.484c0-1.118-.2-1.968-.6-2.549-.401-.58-.972-.871-1.715-.871-.737 0-1.306.288-1.706.864-.4.571-.603 1.411-.608 2.52v.52c0 1.089.2 1.933.6 2.534.4.6.977.9 1.729.9.737 0 1.304-.287 1.7-.864.395-.58.595-1.425.6-2.534v-.52zm6.694-5.09l2.739 7.734 2.725-7.734h2.886V38h-2.205v-2.915l.22-5.032L106.188 38h-1.509l-2.871-7.94.219 5.025V38H99.83V27.336h2.871zm12.466 6.907V38h-2.197V27.336h4.16c.801 0 1.504.146 2.109.44a3.23 3.23 0 011.407 1.252c.327.537.49 1.15.49 1.838 0 1.045-.359 1.87-1.076 2.476-.713.6-1.702.9-2.967.9h-1.926zm0-1.78h1.963c.581 0 1.023-.137 1.326-.41.307-.274.461-.664.461-1.172 0-.523-.154-.945-.461-1.267-.308-.323-.733-.489-1.275-.498h-2.014v3.347zm15.557-5.127v7.024c0 1.167-.367 2.09-1.099 2.768-.728.68-1.724 1.019-2.988 1.019-1.245 0-2.234-.33-2.967-.99-.732-.658-1.106-1.564-1.12-2.717v-7.104h2.197v7.038c0 .699.166 1.209.498 1.531.337.318.801.476 1.392.476 1.235 0 1.863-.65 1.882-1.948v-7.097h2.205zm9.829 1.78h-3.267V38h-2.197v-8.884h-3.223v-1.78h8.687v1.78zm7.676 4.262h-4.219v2.857h4.951V38h-7.149V27.336h7.134v1.78h-4.936v2.541h4.219v1.721zm5.969.718h-1.751V38h-2.197V27.336h3.962c1.26 0 2.232.28 2.915.842.684.562 1.026 1.355 1.026 2.38 0 .728-.159 1.336-.476 1.824-.313.484-.789.87-1.428 1.158l2.307 4.358V38h-2.359l-1.999-3.904zm-1.751-1.78h1.773c.551 0 .979-.139 1.281-.417.303-.283.455-.672.455-1.165 0-.503-.144-.898-.433-1.186-.283-.288-.72-.432-1.311-.432h-1.765v3.2z" fill="#267512"/><path d="M53.238 47.42c-.061.527-.256.934-.584 1.221-.326.285-.76.427-1.302.427-.588 0-1.06-.21-1.415-.632-.354-.422-.53-.986-.53-1.692v-.478c0-.463.082-.87.246-1.22.166-.352.4-.62.704-.807a1.94 1.94 0 011.053-.284c.528 0 .952.148 1.271.444.32.294.505.702.557 1.224h-.66c-.056-.396-.18-.683-.372-.861-.19-.178-.455-.267-.796-.267-.42 0-.749.155-.988.465-.237.31-.356.75-.356 1.323v.482c0 .54.113.97.339 1.288.225.32.541.479.947.479.364 0 .643-.082.837-.246.196-.167.326-.455.39-.865h.66zm.633-.303c0-.363.07-.688.212-.978a1.61 1.61 0 01.594-.67 1.63 1.63 0 01.872-.236c.503 0 .91.175 1.22.523.312.349.468.813.468 1.392v.044c0 .36-.07.684-.208.97a1.557 1.557 0 01-.592.667c-.255.16-.549.24-.881.24-.502 0-.908-.175-1.22-.524-.31-.348-.465-.81-.465-1.384v-.044zm.635.075c0 .41.095.74.284.988a.918.918 0 00.766.372.91.91 0 00.765-.376c.19-.253.284-.606.284-1.06 0-.405-.097-.733-.29-.984a.913.913 0 00-.766-.38.908.908 0 00-.755.373c-.192.249-.288.604-.288 1.067zm4.119-1.89l.017.41c.271-.32.637-.479 1.097-.479.518 0 .87.199 1.056.595.123-.178.283-.321.479-.43a1.42 1.42 0 01.7-.165c.812 0 1.224.43 1.238 1.289V49h-.632v-2.44c0-.265-.06-.462-.182-.592-.12-.132-.323-.198-.608-.198-.235 0-.43.07-.584.212a.846.846 0 00-.27.564V49H60.3v-2.423c0-.538-.263-.807-.79-.807-.414 0-.698.177-.85.53V49h-.633v-3.698h.598zm8.668 1.89c0 .563-.129 1.016-.386 1.36a1.238 1.238 0 01-1.046.516c-.45 0-.802-.142-1.06-.427v1.78h-.632v-5.12h.578l.03.41c.258-.318.616-.478 1.074-.478.444 0 .795.168 1.052.503.26.335.39.8.39 1.398v.058zm-.632-.072c0-.417-.09-.746-.267-.988a.859.859 0 00-.731-.362c-.383 0-.67.17-.862.51v1.766c.19.338.479.506.868.506.303 0 .544-.12.722-.359.18-.241.27-.599.27-1.073zm3.722 1.514c-.246.29-.607.434-1.084.434-.394 0-.695-.114-.902-.341-.205-.23-.309-.57-.311-1.019v-2.406h.632v2.389c0 .56.228.84.684.84.483 0 .804-.18.964-.54v-2.69h.632V49h-.602l-.013-.366zm2.437-4.228v.896h.69v.489h-.69v2.293c0 .148.03.26.092.335.062.073.166.11.315.11.072 0 .173-.014.3-.042V49a1.832 1.832 0 01-.485.068c-.283 0-.496-.085-.64-.256-.143-.17-.215-.414-.215-.728V45.79h-.673v-.488h.674v-.896h.632zm2.967 4.662c-.502 0-.91-.164-1.224-.492-.314-.33-.472-.771-.472-1.323v-.116c0-.367.07-.694.209-.98a1.63 1.63 0 01.588-.677c.253-.165.526-.247.82-.247.48 0 .855.159 1.121.476.267.316.4.77.4 1.36v.263h-2.505c.009.365.115.66.317.885.206.224.465.335.78.335.223 0 .412-.045.567-.136.155-.092.29-.212.407-.363l.386.301c-.31.476-.775.714-1.394.714zm-.079-3.315a.841.841 0 00-.643.28c-.173.185-.28.444-.32.78h1.852v-.048c-.018-.322-.105-.57-.26-.745-.155-.178-.365-.267-.629-.267zm4.043.116a1.9 1.9 0 00-.31-.024c-.415 0-.697.177-.845.53V49h-.632v-3.698h.615l.01.427c.208-.33.502-.496.882-.496a.64.64 0 01.28.048v.588zm2.738 2.15a.46.46 0 00-.195-.396c-.127-.096-.352-.178-.673-.246a3.22 3.22 0 01-.762-.247 1.102 1.102 0 01-.417-.341.825.825 0 01-.133-.472c0-.303.127-.56.382-.77.258-.209.586-.314.985-.314.42 0 .759.109 1.018.325.262.217.393.493.393.83h-.635a.57.57 0 00-.222-.447.82.82 0 00-.554-.188c-.23 0-.41.05-.54.15a.474.474 0 00-.195.393c0 .153.06.268.181.346.12.077.338.151.653.222.317.07.573.155.769.253a1.1 1.1 0 01.434.355.854.854 0 01.144.503c0 .33-.133.596-.397.796-.264.198-.607.297-1.029.297a1.86 1.86 0 01-.786-.157 1.296 1.296 0 01-.536-.437 1.073 1.073 0 01-.192-.612h.632c.012.212.096.38.253.506.16.123.37.184.63.184.239 0 .43-.048.573-.143a.45.45 0 00.22-.39zm5.476.981a1.331 1.331 0 01-.089-.39 1.411 1.411 0 01-1.053.458c-.364 0-.664-.102-.899-.307a1.008 1.008 0 01-.348-.786c0-.386.146-.684.437-.896.294-.214.707-.321 1.237-.321h.616v-.29c0-.222-.066-.397-.198-.527-.133-.132-.328-.198-.585-.198a.922.922 0 00-.567.17c-.153.115-.23.252-.23.414h-.635a.87.87 0 01.195-.533c.132-.173.31-.31.533-.41.225-.1.473-.15.742-.15.426 0 .76.106 1.001.32.242.213.367.505.376.88v1.701c0 .34.043.61.13.81V49h-.663zm-1.05-.482c.199 0 .387-.051.564-.154a.93.93 0 00.387-.4v-.758h-.496c-.775 0-1.162.226-1.162.68 0 .198.066.353.198.465a.762.762 0 00.51.167zm3.172-3.216l.02.465a1.348 1.348 0 011.108-.534c.782 0 1.176.441 1.183 1.323V49h-.632v-2.447c-.003-.267-.064-.464-.185-.592-.118-.127-.304-.191-.557-.191a.912.912 0 00-.54.164c-.155.11-.276.253-.362.43V49h-.633v-3.698h.598zm3.11 1.818c0-.567.135-1.023.404-1.367.269-.346.621-.52 1.056-.52.433 0 .776.149 1.029.445V43.75h.632V49h-.58l-.031-.397c-.253.31-.605.465-1.057.465-.428 0-.778-.175-1.049-.526-.269-.35-.403-.809-.403-1.374v-.048zm.633.072c0 .42.087.747.26.984a.84.84 0 00.718.356c.4 0 .693-.18.878-.54v-1.699c-.19-.349-.48-.523-.872-.523-.31 0-.551.12-.724.359-.173.24-.26.593-.26 1.063zm5.964-.14V49h-.656v-4.977h1.836c.544 0 .97.14 1.278.417.31.278.465.646.465 1.104 0 .484-.152.856-.455 1.118-.301.26-.732.39-1.295.39h-1.173zm0-.537h1.18c.351 0 .619-.082.806-.246.187-.166.281-.406.281-.718 0-.296-.094-.533-.281-.71-.187-.178-.443-.27-.769-.278h-1.217v1.952zm5.148 2.553c-.501 0-.909-.164-1.224-.492-.314-.33-.471-.771-.471-1.323v-.116c0-.367.069-.694.208-.98a1.63 1.63 0 01.588-.677c.253-.165.526-.247.82-.247.481 0 .855.159 1.121.476.267.316.4.77.4 1.36v.263h-2.505c.009.365.115.66.318.885.205.224.465.335.779.335a1.1 1.1 0 00.567-.136 1.43 1.43 0 00.407-.363l.386.301c-.309.476-.774.714-1.394.714zm-.079-3.315a.84.84 0 00-.642.28c-.173.185-.281.444-.322.78h1.853v-.048c-.018-.322-.105-.57-.26-.745-.155-.178-.364-.267-.629-.267zm4.044.116a1.909 1.909 0 00-.311-.024c-.415 0-.696.177-.845.53V49h-.632v-3.698h.615l.011.427c.207-.33.501-.496.881-.496.124 0 .217.016.281.048v.588zM110.178 49h-.632v-3.698h.632V49zm-.683-4.68c0-.102.03-.188.092-.259.064-.07.157-.106.28-.106.123 0 .217.035.28.106.064.07.096.157.096.26a.36.36 0 01-.096.256c-.063.069-.157.103-.28.103-.123 0-.216-.035-.28-.103a.366.366 0 01-.092-.256zm4.822 2.872c0 .563-.128 1.016-.386 1.36a1.237 1.237 0 01-1.046.516c-.449 0-.802-.142-1.059-.427v1.78h-.633v-5.12h.578l.031.41c.257-.318.615-.478 1.073-.478.444 0 .795.168 1.053.503.26.335.389.8.389 1.398v.058zm-.632-.072c0-.417-.089-.746-.267-.988a.857.857 0 00-.731-.362c-.383 0-.67.17-.861.51v1.766a.93.93 0 00.868.506c.303 0 .543-.12.721-.359.18-.241.27-.599.27-1.073zm2.071-1.37a1.346 1.346 0 011.094-.517c.782 0 1.176.441 1.183 1.323V49h-.633v-2.447c-.002-.267-.063-.464-.184-.592-.119-.127-.304-.191-.557-.191a.913.913 0 00-.54.164 1.12 1.12 0 00-.363.43V49h-.632v-5.25h.632v2zm4.758 3.318c-.501 0-.909-.164-1.223-.492-.315-.33-.472-.771-.472-1.323v-.116c0-.367.069-.694.208-.98.142-.29.338-.516.588-.677a1.48 1.48 0 01.821-.247c.48 0 .854.159 1.121.476.266.316.4.77.4 1.36v.263h-2.506c.009.365.115.66.318.885.205.224.465.335.779.335.224 0 .413-.045.568-.136.155-.092.29-.212.406-.363l.387.301c-.31.476-.775.714-1.395.714zm-.078-3.315a.84.84 0 00-.643.28c-.173.185-.28.444-.321.78h1.852v-.048c-.018-.322-.105-.57-.26-.745-.154-.178-.364-.267-.628-.267zm4.043.116a1.9 1.9 0 00-.311-.024c-.415 0-.696.177-.844.53V49h-.633v-3.698h.616l.01.427c.207-.33.501-.496.882-.496.123 0 .216.016.28.048v.588zM127.21 49a1.35 1.35 0 01-.089-.39 1.411 1.411 0 01-1.053.458c-.364 0-.664-.102-.899-.307a1.009 1.009 0 01-.348-.786c0-.386.146-.684.437-.896.294-.214.707-.321 1.238-.321h.615v-.29c0-.222-.066-.397-.198-.527-.133-.132-.327-.198-.585-.198a.92.92 0 00-.567.17c-.153.115-.229.252-.229.414h-.636a.87.87 0 01.195-.533c.132-.173.31-.31.533-.41.226-.1.473-.15.742-.15.426 0 .76.106 1.001.32.242.213.367.505.376.88v1.701c0 .34.043.61.13.81V49h-.663zm-1.049-.482c.198 0 .386-.051.564-.154a.936.936 0 00.386-.4v-.758h-.496c-.775 0-1.162.226-1.162.68 0 .198.066.353.198.465a.765.765 0 00.51.167zm3.26.482h-.632v-5.25h.632V49zm3.169-.981a.46.46 0 00-.195-.396c-.128-.096-.352-.178-.673-.246a3.242 3.242 0 01-.763-.247 1.116 1.116 0 01-.417-.341.832.832 0 01-.133-.472c0-.303.128-.56.383-.77.257-.209.586-.314.984-.314.42 0 .759.109 1.019.325.262.217.393.493.393.83h-.636a.57.57 0 00-.222-.447.82.82 0 00-.554-.188c-.23 0-.41.05-.54.15a.472.472 0 00-.194.393c0 .153.06.268.181.346.12.077.338.151.652.222.317.07.574.155.77.253.195.098.34.216.434.355a.859.859 0 01.143.503.95.95 0 01-.396.796c-.265.198-.608.297-1.029.297a1.86 1.86 0 01-.786-.157 1.297 1.297 0 01-.537-.437 1.077 1.077 0 01-.191-.612h.632c.011.212.096.38.253.506.159.123.369.184.629.184.239 0 .431-.048.574-.143a.45.45 0 00.219-.39zm4.758-1.237c-.563-.162-.973-.36-1.231-.595a1.148 1.148 0 01-.383-.875c0-.392.156-.715.469-.97.314-.258.722-.387 1.223-.387.342 0 .646.066.913.198.269.133.476.315.622.547.148.233.222.487.222.762h-.66c0-.3-.095-.536-.287-.707-.191-.173-.461-.26-.81-.26-.323 0-.576.072-.759.215-.18.142-.27.339-.27.592 0 .203.086.375.257.516.173.139.466.267.878.383.415.116.739.245.971.386.235.139.408.302.519.489.114.187.171.406.171.66 0 .403-.157.726-.471.97-.315.242-.735.362-1.262.362-.341 0-.66-.065-.957-.194a1.637 1.637 0 01-.687-.54 1.324 1.324 0 01-.239-.776h.66c0 .3.11.538.331.714.224.173.521.26.892.26.347 0 .612-.07.797-.212a.69.69 0 00.277-.578c0-.244-.086-.432-.257-.564-.171-.134-.48-.266-.929-.396zm4.874 1.852c-.246.29-.608.434-1.084.434-.394 0-.695-.114-.902-.341-.205-.23-.309-.57-.311-1.019v-2.406h.632v2.389c0 .56.228.84.684.84.483 0 .804-.18.964-.54v-2.69h.632V49h-.602l-.013-.366zm4.703-1.442c0 .563-.129 1.016-.386 1.36a1.24 1.24 0 01-1.046.516c-.449 0-.802-.142-1.06-.427v1.78h-.632v-5.12h.577l.031.41c.258-.318.615-.478 1.073-.478.445 0 .796.168 1.053.503.26.335.39.8.39 1.398v.058zm-.633-.072c0-.417-.088-.746-.266-.988a.86.86 0 00-.732-.362c-.382 0-.669.17-.861.51v1.766a.932.932 0 00.868.506.85.85 0 00.721-.359c.18-.241.27-.599.27-1.073zm4.563.072c0 .563-.128 1.016-.386 1.36a1.237 1.237 0 01-1.046.516c-.449 0-.802-.142-1.059-.427v1.78h-.633v-5.12h.578l.031.41c.257-.318.615-.478 1.073-.478.444 0 .795.168 1.053.503.26.335.389.8.389 1.398v.058zm-.632-.072c0-.417-.089-.746-.266-.988a.86.86 0 00-.732-.362c-.383 0-.67.17-.861.51v1.766a.93.93 0 00.868.506c.303 0 .543-.12.721-.359.18-.241.27-.599.27-1.073zm1.272-.003c0-.363.07-.688.212-.978.143-.29.341-.513.594-.67a1.63 1.63 0 01.872-.236c.503 0 .91.175 1.22.523.312.349.468.813.468 1.392v.044c0 .36-.069.684-.208.97a1.562 1.562 0 01-.591.667c-.256.16-.55.24-.882.24-.502 0-.908-.175-1.221-.524-.309-.348-.464-.81-.464-1.384v-.044zm.635.075c0 .41.095.74.284.988a.918.918 0 00.766.372.908.908 0 00.765-.376c.189-.253.284-.606.284-1.06 0-.405-.097-.733-.291-.984a.91.91 0 00-.765-.38.91.91 0 00-.756.373c-.191.249-.287.604-.287 1.067zm5.312-1.323a1.9 1.9 0 00-.311-.024c-.415 0-.696.177-.844.53V49h-.633v-3.698h.616l.01.427c.207-.33.501-.496.882-.496.123 0 .216.016.28.048v.588zm1.613-1.463v.896h.691v.489h-.691v2.293c0 .148.031.26.092.335.062.073.167.11.315.11.073 0 .173-.014.301-.042V49a1.836 1.836 0 01-.486.068c-.282 0-.495-.085-.639-.256-.143-.17-.215-.414-.215-.728V45.79h-.673v-.488h.673v-.896h.632z" fill="#4A4A4A"/><defs><linearGradient id="paint0_linear" x1="18.099" y1="43.106" x2="29.879" y2="83.32" gradientUnits="userSpaceOnUse"><stop stop-color="#1C6C0C"/><stop offset=".31" stop-color="#298516"/><stop offset=".451" stop-color="#529D25"/><stop offset="1" stop-color="#89CF3E"/></linearGradient><linearGradient id="paint1_linear" x1="35.433" y1="9.164" x2="5.865" y2="62.146" gradientUnits="userSpaceOnUse"><stop stop-color="#1C6C0C"/><stop offset=".6" stop-color="#3A881E"/><stop offset=".722" stop-color="#5BA62D"/><stop offset="1" stop-color="#59A530"/></linearGradient><linearGradient id="paint2_linear" x1="26.082" y1="22.508" x2="1.618" y2="47.088" gradientUnits="userSpaceOnUse"><stop stop-color="#1C6C0C"/><stop offset=".749" stop-color="#43911E"/><stop offset="1" stop-color="#6AB731"/></linearGradient></defs></svg>