<svg width="12" height="24" fill="none" xmlns="http://www.w3.org/2000/svg"><path fill-rule="evenodd" clip-rule="evenodd" d="M3.148 23.987c.252-.648.758-.908 1.264-1.167 0 0-.127-.26-.38-.907 0-.26.127-.39.253-.39.758-.13 1.264-.389 1.643-.778.506-.518.758-1.166.758-1.685-.632-.13-1.137 0-1.643.26-.505.259-1.01.648-1.263 1.166-.127 0-.253-.13-.253-.13 0-.648.253-1.166.758-1.426 1.39-.907 2.483-1.234 3.873-2.27 2.673-2.267 2.814-3.067 3.517-5.6-2.672 4.266-10.41 5.066-9.791 10.334.126.26 1.01 2.464 1.264 2.593z" fill="url(#paint0_linear)"/><path fill-rule="evenodd" clip-rule="evenodd" d="M4.159 0L1.504 3.371c2.275.908 7.583 3.501 7.204 6.483 0 .39-.379.908-1.01 1.297-2.528 1.815-6.46 3.203-6.714 6.574 0 .778.184 1.885.563 2.533C2.053 12.738 22.99 13.485 4.16 0z" fill="url(#paint1_linear)"/><path fill-rule="evenodd" clip-rule="evenodd" d="M.775 15.432c0 .259.126.389.252.389.38-1.037.632-2.075.759-2.982-.38-1.427-.253-2.335.379-2.982.505-.778 1.39-.908 2.528-.39 1.137.39 2.654 1.427 3.665.39C9.495 8.04 2.67 3.373 1.406 4.41-.616 6.745-.11 12.709.775 15.43z" fill="url(#paint2_linear)"/><defs><linearGradient id="paint0_linear" x1="5.297" y1="12.163" x2="8.521" y2="23.576" gradientUnits="userSpaceOnUse"><stop stop-color="#1C6C0C"/><stop offset=".31" stop-color="#298516"/><stop offset=".451" stop-color="#529D25"/><stop offset="1" stop-color="#89CF3E"/></linearGradient><linearGradient id="paint1_linear" x1="10.371" y1="2.583" x2="2.187" y2="17.79" gradientUnits="userSpaceOnUse"><stop stop-color="#1C6C0C"/><stop offset=".6" stop-color="#3A881E"/><stop offset=".722" stop-color="#5BA62D"/><stop offset="1" stop-color="#59A530"/></linearGradient><linearGradient id="paint2_linear" x1="7.634" y1="6.349" x2=".735" y2="13.537" gradientUnits="userSpaceOnUse"><stop stop-color="#1C6C0C"/><stop offset=".749" stop-color="#43911E"/><stop offset="1" stop-color="#6AB731"/></linearGradient></defs></svg>