<svg id="svg" version="1.1" xmlns="http://www.w3.org/2000/svg" width="400" height="161.29"><g id="svgg" stroke="none" fill-rule="evenodd"><path id="path0" d="M177.375 4.109c-.163.067-.208 2.235-.208 10.051 0 11.148.094 10.382-1.262 10.254-3.548-.334-6.398-.608-7.738-.744-.871-.089-2.821-.278-4.334-.42-4.73-.446-6.205-.591-7.666-.752-3.565-.394-5.053-.397-5.459-.009l-.375.358.042 35.452.042 35.451.75.114c.843.129 4.724.593 6.75.807 1.845.195 6.388.703 10.416 1.166.779.09 2.167.24 3.084.333.916.094 1.854.206 2.083.25.407.079 2.065.269 5.083.582.825.086 2.475.272 3.667.413 1.192.141 2.842.328 3.667.415.825.087 2.512.278 3.75.425 1.237.147 2.887.331 3.666.408.779.078 1.717.184 2.084.236.366.053 1.716.21 3 .351 1.283.14 2.97.329 3.75.419 4.558.526 5.9.679 7.25.828 3.301.363 8.265.923 10.333 1.167.733.086 2.421.275 3.75.419 1.329.144 2.679.3 3 .347.321.047 1.258.154 2.083.238.825.084 2.513.274 3.75.421 1.238.147 2.85.332 3.584.409.733.078 2.383.264 3.666.413 2.222.259 4.081.465 6.667.742.783.083 1.208.065 1.291-.056.069-.099.106-21.443.084-47.43-.045-51.486.028-47.174-.837-49-.734-1.548-2.311-2.963-4.137-3.713l-.901-.371-32.083-.029c-17.646-.017-32.177.008-32.292.055m.375 29.52a71.486 71.486 0 011.952 1.827c.707.683 1.356 1.217 1.443 1.185.131-.048 3.019-2.667 3.816-3.46.451-.45 1.191-.286 1.881.416 1.094 1.113.998 1.378-1.3 3.569l-1.959 1.867 1.959 1.88c1.658 1.592 1.958 1.958 1.958 2.387 0 .678-1.146 1.867-1.798 1.866-.466-.001-.605-.111-3.091-2.442-1.543-1.446-1.468-1.434-2.531-.43-3.038 2.865-3.047 2.873-3.544 2.873-.597 0-1.868-1.272-1.871-1.872-.002-.267.563-.918 1.917-2.212 1.056-1.008 1.919-1.917 1.919-2.019-.001-.103-.864-1.009-1.918-2.014-2.247-2.144-2.277-2.237-1.093-3.421.952-.952 1.174-.952 2.26 0m40.143-.314c.333.264 1.112.971 1.731 1.57.619.599 1.336 1.253 1.592 1.454.543.424.331.551 2.452-1.466 2.405-2.287 2.522-2.332 3.567-1.369 1.382 1.273 1.294 1.446-2.484 4.902l-.666.609 1.944 1.868c1.07 1.027 1.966 1.979 1.993 2.117.097.509-.202 1.144-.776 1.648-.983.863-1.246.762-3.456-1.327-2.312-2.185-1.969-2.192-4.373.096-2.22 2.113-2.487 2.186-3.564.983-.993-1.11-.954-1.214 1.232-3.311 1.055-1.011 1.917-1.925 1.916-2.031-.001-.174-.555-.737-2.862-2.909-1.226-1.154-.964-2.521.606-3.157.493-.2.489-.202 1.148.323m-9.788 26.516c4.283.783 6.179 1.417 9.895 3.31 2.49 1.268 6.116 3.78 8.542 5.917.898.791.458 3.609-.564 3.609-.199 0-.781-.342-1.294-.759-1.358-1.104-1.358-1.104-2.267-1.765-3.313-2.412-7.557-4.639-10.75-5.643-2.109-.662-3.041-.883-5.632-1.336-1.428-.25-6.945-.23-8.199.029l-1.003.207.002.925c.005 3.376-.837 13.383-1.361 16.175-1.107 5.889-5.777 9.35-10.472 7.762-4.726-1.599-7.22-6.005-7.648-13.512l-.104-1.833-.538-.052c-1.182-.114-1.799-2.792-.837-3.636.43-.377 2.238-1.562 2.384-1.562.053 0 .342-.188.643-.417.3-.229.627-.417.725-.417.098 0 .204-.064.234-.143.108-.277 4.23-2.434 7.139-3.735.917-.41 4.142-1.552 5.083-1.8.275-.073.913-.252 1.417-.398 4.404-1.278 10.546-1.668 14.605-.926m-16.182 4.78c-.547.214-1.079.389-1.183.389-.272 0-1.301.525-1.446.737-.067.099-.123 3.562-.125 7.696-.003 8.805.176 8.067-1.948 8.067-2.039 0-1.888.571-1.888-7.143 0-5.487-.038-6.549-.236-6.625-.251-.096-1.463.531-3.305 1.712l-1.125.72v2.127c.001 3.549.77 7.333 1.95 9.59l.473.909a4.704 4.704 0 004.187 2.543c2.382 0 3.522-.935 4.165-3.416.047-.184.149-.484.225-.667.077-.183.188-.633.246-1 .059-.367.223-1.342.365-2.167.464-2.698 1.054-13.169.769-13.645-.103-.171-.338-.135-1.124.173m-27.305 48.342c-.04.072-.164.768-.273 1.547-.11.779-.265 1.792-.345 2.25-.08.458-.266 1.733-.414 2.833-.148 1.1-.34 2.45-.425 3-.086.55-.271 1.825-.412 2.834a77.331 77.331 0 01-.412 2.666c-.142.756-.228 1.849-.186 2.368.008.11.259.237.557.281.298.044 1.404.2 2.459.347 1.054.148 2.366.337 2.916.421 3.049.466 4.898.695 5.18.64.311-.059.845-2.554.582-2.716-.154-.094-1.832-.371-5.845-.965l-1.417-.209.021-1.083c.072-3.661.347-3.953 3.146-3.334a16.05 16.05 0 001.592.238c.509.05 1.16.138 1.446.195.614.123.876-.491.878-2.058.001-.86-.008-.875-.497-.875-.274 0-.817-.071-1.208-.159-.391-.087-1.489-.272-2.441-.41-.951-.138-1.769-.291-1.818-.34-.272-.271.168-3.475.532-3.875.142-.155.667-.126 2.349.13 5.23.798 5.166.801 5.301-.217.052-.392.145-.983.207-1.315l.112-.602-1.06-.183c-.583-.101-1.885-.3-2.893-.443a628.424 628.424 0 01-2.917-.422c-.596-.088-1.645-.239-2.333-.334-.687-.096-1.488-.212-1.779-.257-.29-.046-.562-.024-.603.047m14.148 2.235c-.076.243-.19 1.006-.431 2.895-.082.642-.265 1.917-.408 2.834-.142.916-.3 2.004-.35 2.416a50.94 50.94 0 01-.243 1.667c-.084.504-.27 1.779-.415 2.833a64.831 64.831 0 01-.424 2.721c-.284 1.416-.218 2.095.213 2.183.511.105 2.921.43 3.185.43.139 0 .286-.479.423-1.375.115-.757.316-2.032.446-2.834.131-.802.238-1.643.238-1.869 0-.599.445-.763 1.598-.59 3.061.46 3.591 1.159 3.234 4.261-.339 2.948-.215 3.225 1.595 3.556 1.773.323 2.622.258 2.459-.191-.075-.206-.112-1.594-.084-3.083.06-3.074-.172-3.855-1.389-4.688-.772-.529-.741-.886.112-1.262 2.168-.956 3.03-3.497 1.986-5.855-.852-1.927-2.923-3.122-6.207-3.58-.671-.094-1.746-.247-2.387-.34-2.358-.343-3.074-.372-3.151-.129m16.177 2.502a4.4 4.4 0 00-.107.922c-.002.291-.075.891-.162 1.334a65.898 65.898 0 00-.425 2.721 234.624 234.624 0 01-.418 2.916 373.938 373.938 0 00-.839 5.75 57.486 57.486 0 01-.341 2.217c-.291 1.542-.183 1.62 2.545 1.859l1.112.098.171-.879c.094-.483.29-1.778.437-2.878.421-3.173.591-3.318 3.12-2.67 1.973.505 2.194.972 2.046 4.313-.14 3.142-.236 2.994 2.153 3.335 1.869.266 2.249.238 1.932-.144-.122-.147-.167-1.217-.136-3.194.053-3.411-.173-4.074-1.666-4.873-.562-.301-.438-.624.403-1.044 1.554-.776 2.265-1.899 2.367-3.739.163-2.942-2.159-5.082-6.135-5.656-.412-.06-1.5-.219-2.417-.355-3.23-.478-3.52-.481-3.64-.033m-10.571 1.006c1.362.225 2.434 1.055 2.491 1.929.157 2.403-.655 3.158-3.218 2.992-2.241-.145-2.271-.247-1.38-4.742.088-.442.37-.466 2.107-.179m31.711 1.637a2.3 2.3 0 01-.703.155c-1.36.043-3.954 2.152-4.733 3.845-.613 1.335-1.314 5.145-1.314 7.145 0 8.233 12.197 10.107 14.795 2.272 1.788-5.392.831-10.33-2.378-12.265-1.594-.961-4.66-1.584-5.667-1.152m-15.273.768c3.377.762 3.088 5.389-.31 4.977-2.927-.355-2.776-.215-2.428-2.233.144-.832.261-1.704.261-1.939 0-1.116.452-1.262 2.477-.805m28.112 1.252c-.096.262-.371 2.004-.589 3.73-.08.642-.263 1.917-.406 2.834-.142.916-.3 2.004-.35 2.416-.051.413-.16 1.163-.242 1.667-.083.504-.271 1.779-.418 2.833-.147 1.054-.338 2.237-.425 2.628-.32 1.436-.275 1.487 1.508 1.709.596.074 1.317.186 1.603.249.659.144.743-.176 1.382-5.275.207-1.65.422-1.75 2.645-1.226 2.233.527 2.448.931 2.293 4.319-.14 3.081-.19 2.99 1.827 3.337 2.04.351 2.494.345 2.309-.032-.078-.161-.142-1.642-.142-3.292v-3l-.492-.683c-.27-.375-.739-.844-1.042-1.043-.749-.491-.694-.71.296-1.18 2.519-1.196 3.145-4.714 1.242-6.975-1.21-1.438-2.816-2.065-6.754-2.636a1078.25 1078.25 0 01-3.455-.505c-.523-.078-.727-.046-.79.125m-9.844 1.239c2.15.898 2.529 3.26 1.391 8.658-.688 3.266-3.54 4.573-5.888 2.7-1.148-.917-1.543-2.948-1.09-5.607.087-.509.243-1.414.347-2.01.573-3.297 2.689-4.807 5.24-3.741m15.238 2.332c2.21.461 3.18 1.62 2.678 3.201-.572 1.804-1.577 2.166-4.411 1.587l-.666-.136.008-.996c.012-1.49.352-3.608.603-3.768.298-.188.368-.184 1.788.112" fill="#fafbfa"/><path id="path1" d="M174.583.117c-.183.045-.492.262-.686.482-.194.221-.477.401-.63.401a.425.425 0 00-.373.25c-.053.137-.201.25-.328.25-.128 0-.233.066-.233.148 0 .081-.243.264-.541.406-.298.142-.652.413-.787.602s-.381.344-.547.344c-.166 0-.345.113-.398.25-.052.138-.2.25-.328.25s-.232.075-.232.167c0 .091-.099.166-.22.166s-.514.263-.875.584c-.36.32-.751.583-.869.583-.117 0-.256.112-.309.25-.053.138-.2.25-.328.25s-.232.075-.232.167c0 .091-.115.166-.256.166a.412.412 0 00-.351.25c-.052.138-.2.25-.328.25s-.232.075-.232.167c0 .092-.106.167-.236.167-.129 0-.506.262-.836.583-.33.321-.749.583-.931.583-.183 0-.33.112-.33.25a.25.25 0 01-.25.25c-.138 0-.25.075-.25.167 0 .092-.123.167-.273.167-.15 0-.434.174-.631.387-.197.213-.6.493-.894.624-.295.13-.536.331-.536.446 0 .115-.112.209-.25.209-.137 0-.25.075-.25.167 0 .092-.116.167-.258.167-.142 0-.431.187-.644.416-.212.23-.509.417-.658.417-.15 0-.273.075-.273.167 0 .091-.113.166-.25.166a.25.25 0 00-.25.25.25.25 0 01-.25.25c-.138 0-.25.075-.25.167 0 .092-.15.167-.333.167-.186 0-.334.111-.334.25a.25.25 0 01-.25.25c-.137 0-.25.075-.25.166 0 .092-.144.167-.321.167-.177 0-.469.187-.649.417-.18.229-.429.419-.554.422-.287.006-.809.398-.809.607 0 .087-.263.261-.583.387-.321.126-.714.403-.873.615-.159.212-.403.388-.542.391-.327.007-.835.394-.835.638 0 .104-.144.19-.319.19-.176 0-.59.262-.92.583-.33.321-.706.583-.836.583-.129 0-.382.188-.562.417-.18.229-.441.417-.578.417-.138 0-.427.186-.643.413-.216.228-.524.416-.684.417-.276.003-.292 1.322-.297 25.295l-.005 25.291-1.112 1c-1.815 1.632-4.308 4.23-4.812 5.013a7.442 7.442 0 01-.604.808c-.16.177-.335.458-.388.625-.053.168-.166.304-.252.304-.085 0-.155.113-.155.25 0 .138-.075.25-.167.25-.091 0-.168.132-.169.292-.002.16-.189.468-.417.684-.227.216-.414.527-.414.691 0 .164-.112.341-.25.394-.137.052-.25.248-.25.434s-.075.339-.166.339c-.092 0-.167.145-.167.323 0 .178-.075.37-.167.427-.091.056-.166.24-.166.408 0 .168-.113.349-.25.402-.138.053-.25.248-.25.434 0 .187-.075.339-.167.339-.092 0-.167.155-.167.345 0 .19-.112.458-.25.595-.137.138-.25.433-.25.655 0 .223-.075.405-.166.405-.092 0-.169.206-.172.458-.003.252-.116.604-.25.782a1.36 1.36 0 00-.245.699c0 .206-.075.421-.167.478-.091.056-.166.361-.166.676 0 .316-.075.574-.167.574-.092 0-.167.367-.167.815 0 .571-.075.844-.25.912-.18.069-.25.352-.25 1.017 0 .507-.075.922-.166.922-.098 0-.167.575-.167 1.391 0 .933-.087 1.565-.263 1.918-.341.685-.293 7.201.055 7.317.144.048.208.497.208 1.472 0 .824.069 1.402.167 1.402.091 0 .166.37.166.822 0 .508.096.917.25 1.071.138.138.25.518.25.845 0 .328.075.596.167.596.092 0 .167.262.167.583 0 .321.075.583.166.583.092 0 .167.158.167.35 0 .192.103.548.23.791.311.6.561 1.2.687 1.651.058.206.175.375.261.375.085 0 .155.188.155.417 0 .229.067.416.149.416.082 0 .196.188.253.417.058.229.178.417.268.417.09 0 .164.112.164.25 0 .137.075.25.166.25.092 0 .167.124.167.276 0 .151.188.521.417.822.229.3.416.594.416.652 0 .173.461.583.655.583.098 0 .179.074.179.164 0 .225 1.617 1.836 1.843 1.836.099 0 .063.118-.081.262-.354.353-.362 2.114-.012 2.464.137.138.25.481.25.762 0 .282.075.512.166.512.092 0 .167.152.167.339 0 .186.113.381.25.434.138.053.25.166.25.251 0 .304 1.313 1.476 1.654 1.476.415 0 .545 2.406.138 2.542-.142.047-.227.583-.266 1.68-.032.886-.126 1.611-.209 1.611-.083 0-.15.707-.15 1.57 0 1.049-.065 1.591-.195 1.634-.122.041-.223.626-.268 1.556-.041.82-.14 1.562-.222 1.649-.082.087-.149.814-.149 1.615s-.075 1.503-.166 1.56c-.092.056-.167.801-.167 1.658 0 1.229-.052 1.576-.25 1.652-.187.072-.25.371-.25 1.184v1.089h.49c.27 0 .537.075.593.167.057.092.801.166 1.658.166 1.055 0 1.708.08 2.032.249.316.165.967.25 1.925.25.797.001 1.495.076 1.552.168.058.094.858.167 1.829.167 1.158 0 1.748.063 1.791.192.041.123.712.222 1.851.272.982.044 1.827.145 1.876.224.049.08.83.145 1.736.145.919 0 1.693.074 1.75.167.058.093.857.166 1.826.166 1.377 0 1.741.05 1.818.25.077.201.445.25 1.851.25 1.059 0 1.755.066 1.755.167 0 .1.656.167 1.634.167 1.051 0 1.705.071 1.834.2.118.119.867.228 1.825.268.893.036 1.695.133 1.782.216.087.082.927.149 1.865.149.959 0 1.753.073 1.81.167.057.092.812.166 1.689.166 1.187 0 1.648.063 1.835.25.187.187.646.25 1.812.25.861 0 1.608.075 1.664.167.058.094.859.167 1.83.167 1.233 0 1.746.059 1.795.208.048.144.606.226 1.806.264.955.031 1.807.124 1.894.208.087.084.925.153 1.861.153 1.129 0 1.725.064 1.767.19.039.119.705.222 1.768.273.937.045 1.744.147 1.793.226.049.079.872.144 1.83.144 1.049 0 1.74.067 1.74.167 0 .099.656.169 1.625.172 1.164.004 1.716.075 1.948.25.233.176.778.245 1.949.245.903 0 1.67.074 1.728.166.056.092.801.167 1.657.167 1.055 0 1.708.08 2.032.249.316.165.967.249 1.926.25.797.001 1.495.076 1.551.168.058.093.835.166 1.76.166.994 0 1.657.067 1.657.167s.688.167 1.73.167c1.334 0 1.777.057 1.937.25.158.191.592.25 1.844.25.911 0 1.682.074 1.739.166.058.094.858.167 1.829.167 1.233 0 1.746.06 1.796.208.048.145.615.226 1.847.266.978.031 1.778.125 1.778.208 0 .083.772.151 1.717.151 1.116 0 1.787.071 1.917.201.118.118.867.228 1.825.267.893.037 1.696.134 1.783.216.087.082.889.15 1.781.15.903 0 1.67.074 1.727.166.057.092.809.167 1.682.167 1.098 0 1.692.074 1.949.241.28.184 1.3.27 4.244.359l3.875.118v-.766c0-.421.075-.812.167-.869.095-.058.166-.907.166-1.976 0-1.222.069-1.942.198-2.071.121-.121.225-.96.268-2.159.038-1.078.137-2.032.219-2.119.082-.087.149-1.076.149-2.198 0-1.18.07-2.084.166-2.143.096-.06.167-.95.167-2.105 0-1.558.056-2.058.25-2.252.193-.193.25-.683.25-2.145 0-1.084.071-1.939.167-1.998.095-.059.166-.912.166-1.991 0-1.351.071-2.024.249-2.365.178-.34.25-1.014.25-2.343.001-1.062.073-1.909.168-1.968.096-.059.167-.943.167-2.083 0-1.09.068-2.023.151-2.074.083-.051.202-.468.265-.927.063-.458.183-.833.266-.833.083 0 .151-.15.151-.333 0-.183.075-.333.167-.333.091 0 .166-.141.166-.313 0-.172.113-.407.25-.521.184-.152.25-.558.25-1.533v-1.327l1-1c.55-.55 1-1.071 1-1.159 0-.087.213-.366.472-.62.259-.253.648-.813.863-1.244.215-.431.453-.783.528-.783.076 0 .137-.146.137-.324 0-.178.075-.37.167-.426.092-.057.167-.251.167-.432s.112-.372.25-.425c.137-.052.25-.275.25-.494 0-.22.075-.399.166-.399.092 0 .167-.156.167-.346 0-.189.112-.457.25-.595.137-.137.25-.432.25-.655 0-.222.075-.404.167-.404.091 0 .166-.257.166-.57 0-.313.083-.597.183-.63.101-.034.224-.417.272-.851.049-.435.155-.831.234-.88.08-.049.145-.493.145-.986s.075-.943.166-1c.106-.065.167-1.998.167-5.25s-.061-5.185-.167-5.25c-.091-.057-.166-.544-.166-1.083 0-.54-.075-1.027-.167-1.084-.092-.056-.167-.342-.168-.635a2.6 2.6 0 00-.25-1.009 2.671 2.671 0 01-.249-1.041c0-.311-.075-.565-.166-.565-.092 0-.167-.219-.167-.488 0-.268-.113-.6-.25-.738-.138-.137-.25-.48-.25-.762 0-.281-.075-.512-.167-.512-.091 0-.166-.178-.166-.396 0-.218-.113-.49-.25-.604-.138-.114-.25-.385-.25-.603 0-.218-.075-.397-.167-.397-.092 0-.167-.187-.167-.416 0-.229-.067-.417-.148-.417-.082 0-.196-.187-.253-.417-.058-.229-.179-.416-.269-.416-.089 0-.163-.146-.163-.324 0-.178-.075-.37-.167-.426-.091-.057-.166-.249-.166-.427s-.113-.323-.25-.323c-.156 0-.25-.158-.25-.417 0-.229-.075-.417-.167-.417-.092 0-.167-.094-.167-.21 0-.115-.187-.412-.416-.659-.229-.247-.417-.575-.417-.729 0-.154-.187-.454-.417-.666-.229-.213-.416-.502-.416-.644 0-.142-.075-.258-.167-.258-.092 0-.167-.113-.167-.25 0-.138-.104-.25-.231-.25s-.348-.248-.492-.55c-.143-.303-.621-.94-1.06-1.416l-1.876-2.033c-.591-.642-1.21-1.168-1.375-1.168-.164 0-.299-.078-.299-.173 0-.188-1.238-1.494-1.416-1.494-.059 0-.212-.093-.34-.208-.552-.495-.74-.625-.904-.625a.17.17 0 01-.173-.167c0-.091-.095-.166-.21-.166-.116 0-.413-.188-.66-.417-.247-.229-.602-.417-.79-.417h-.34v-29.24c0-19.313-.057-29.275-.167-29.343-.092-.057-.167-.476-.167-.932 0-.583-.074-.857-.25-.924-.154-.06-.25-.313-.25-.662 0-.311-.075-.565-.166-.565-.092 0-.167-.114-.167-.254 0-.283-.804-1.632-1.025-1.719-.078-.03-.142-.151-.142-.269 0-.307-2.021-2.356-2.462-2.496-.204-.065-.371-.188-.371-.274 0-.085-.104-.155-.232-.155s-.276-.112-.328-.25c-.053-.137-.249-.25-.435-.25s-.338-.075-.338-.167c0-.091-.126-.166-.279-.166-.153 0-.423-.132-.601-.292-.31-.281-69.07-.533-70.204-.258m67.25 3.726c2.574.577 4.933 2.729 5.761 5.255.316.965.323 1.945.323 48.485v47.5l-.834-.02c-.458-.011-1.546-.101-2.416-.199-.871-.099-2.36-.255-3.308-.346-.948-.091-1.923-.208-2.167-.26-.243-.053-1.192-.174-2.109-.27a768.715 768.715 0 01-11.833-1.323c-.733-.088-2.421-.276-3.75-.418-1.329-.141-2.679-.299-3-.351a46.14 46.14 0 00-2.083-.231 155.93 155.93 0 01-3.75-.415c-1.238-.153-2.85-.339-3.584-.414-4.077-.415-5.084-.53-5.905-.676a11.18 11.18 0 00-1.574-.16 11.63 11.63 0 01-1.594-.16c-.51-.088-2.089-.281-3.51-.427-1.421-.147-2.771-.301-3-.343-.229-.042-1.129-.147-2-.233-.871-.086-2.596-.275-3.833-.42a405.012 405.012 0 00-3.667-.414 116.46 116.46 0 01-2.083-.239c-.367-.049-1.755-.206-3.084-.348a132.786 132.786 0 01-3-.347 56.18 56.18 0 00-2.083-.233c-.825-.08-2.513-.269-3.75-.419a174.415 174.415 0 00-3.75-.416 38.653 38.653 0 01-2-.228c-.275-.048-1.663-.208-3.083-.356a175.02 175.02 0 01-3.667-.415c-1.938-.263-5.739-.674-6.2-.671a2.502 2.502 0 01-.875-.191l-.425-.194V22.505l.673-.445.673-.446 1.618.196c.891.108 2.444.273 3.453.366 1.008.093 2.62.244 3.583.335.962.091 2.575.233 3.583.315 1.009.081 2.134.194 2.5.25 1.016.155 4.517.478 9.209.851l1.541.122V14.18c0-6.484.06-9.979.173-10.191.198-.371 63.191-.513 64.827-.146M61.902 4.25c-.058.229-.172.417-.253.417-.082 0-.149.169-.149.377 0 .207-.187.517-.417.69-.229.172-.416.452-.416.623 0 .17-.075.31-.167.31a.17.17 0 00-.167.173c0 .164-.13.352-.625.904-.114.128-.208.332-.208.454s-.187.424-.417.671c-.229.248-.416.566-.416.707 0 .142-.075.257-.167.257-.092 0-.167.105-.167.233 0 .127-.112.275-.25.328a.416.416 0 00-.25.358c0 .144-.187.465-.416.712-.229.247-.417.544-.417.659 0 .116-.061.21-.136.21-.074 0-.238.263-.364.584-.126.32-.327.583-.448.583-.12 0-.219.153-.219.341 0 .187-.187.528-.416.757-.229.23-.417.526-.417.66 0 .133-.075.242-.167.242-.091 0-.166.106-.166.236s-.057.261-.125.292c-.219.097-1.042 1.455-1.042 1.718 0 .14-.113.254-.25.254-.139 0-.25.148-.25.333 0 .184-.075.334-.167.334-.091 0-.166.104-.166.232s-.113.275-.25.328c-.138.053-.25.248-.25.434 0 .187-.067.339-.148.339-.081 0-.272.263-.424.583-.153.321-.349.584-.436.584-.088 0-.159.112-.159.25 0 .137-.075.25-.167.25-.091 0-.166.15-.166.333 0 .183-.072.333-.159.333-.088 0-.29.282-.45.625-.159.344-.388.685-.507.759a.493.493 0 00-.218.375c0 .133-.075.241-.166.241-.092 0-.167.113-.167.25 0 .138-.075.25-.167.25-.091 0-.166.188-.166.417 0 .229-.086.417-.19.417-.256 0-.632.514-.638.875-.003.16-.104.291-.225.291-.12 0-.321.263-.447.584-.126.321-.29.583-.365.583-.074 0-.135.101-.135.224s-.188.442-.417.708c-.229.267-.416.616-.416.776-.001.161-.113.292-.251.292a.251.251 0 00-.25.25c0 .137-.075.25-.166.25-.092 0-.167.15-.167.333 0 .184-.075.334-.167.334-.092 0-.297.3-.456.666-.159.367-.346.667-.416.667s-.128.095-.128.21c0 .116-.187.412-.416.659-.229.248-.417.603-.417.79 0 .188-.085.341-.19.341-.225 0-.63.498-.638.783-.003.11-.193.402-.422.649-.229.248-.417.552-.417.676s-.075.225-.166.225c-.092 0-.167.153-.167.339 0 .186-.112.382-.25.434-.138.053-.25.201-.25.328 0 .128-.075.233-.167.233-.091 0-.166.116-.166.258 0 .142-.188.431-.417.644-.229.212-.417.512-.417.666 0 .154-.187.468-.416.697-.23.229-.417.526-.417.659s-.075.242-.167.242c-.091 0-.166.14-.166.31 0 .171-.188.451-.417.623-.229.173-.417.483-.417.69 0 .224-.101.377-.25.377a.251.251 0 00-.25.25c0 .138-.075.25-.166.25-.092 0-.167.15-.167.334 0 .183-.075.333-.167.333-.091 0-.166.112-.166.25 0 .137-.072.25-.159.25-.088 0-.282.259-.432.576-.15.316-.379.663-.508.77-.129.107-.235.298-.235.424 0 .127-.075.23-.166.23-.092 0-.167.08-.167.178 0 .098-.187.423-.417.724-.229.3-.416.636-.416.746 0 .11-.188.402-.417.649-.229.247-.417.544-.417.66 0 .115-.075.21-.166.21-.092 0-.167.112-.167.25 0 .137-.063.25-.139.25-.077 0-.358.448-.625.995-.267.548-.58.998-.694 1-.115.003-.209.155-.209.338 0 .183-.075.333-.166.333-.092 0-.167.105-.167.233 0 .127-.113.275-.25.328-.138.052-.25.248-.25.434s-.063.339-.14.339c-.078 0-.282.262-.455.583-.173.321-.358.583-.412.583-.054 0-.199.26-.324.577-.124.317-.325.614-.447.661-.122.047-.222.203-.222.348 0 .144-.187.464-.417.712-.229.247-.416.543-.416.659 0 .115-.075.21-.167.21-.092 0-.167.112-.167.25 0 .137-.075.25-.166.25-.092 0-.167.107-.167.238s-.098.337-.219.458c-.12.122-.326.464-.457.762s-.333.542-.448.542c-.115 0-.209.131-.21.292 0 .16-.187.509-.416.776-.229.266-.417.55-.417.632 0 .081-.15.308-.333.505-.183.197-.333.494-.333.66 0 .166-.099.302-.219.302-.121 0-.322.262-.448.583-.126.321-.286.583-.357.583-.07 0-.258.282-.418.625-.16.344-.338.663-.396.709-.057.045-.246.327-.419.625s-.374.541-.446.541c-.072 0-.131.188-.131.417 0 .229-.085.417-.19.417-.256 0-.631.514-.638.875-.003.16-.081.291-.174.291-.094 0-.295.263-.448.584-.153.321-.339.583-.414.583-.075 0-.136.188-.136.417 0 .259-.094.416-.25.416a.251.251 0 00-.25.25c0 .138-.075.25-.166.25-.092 0-.167.116-.167.258 0 .142-.188.432-.417.644-.229.213-.416.505-.416.651 0 .145-.188.466-.417.713-.229.247-.417.551-.417.675s-.075.226-.166.226c-.092 0-.167.095-.167.21 0 .116-.187.412-.417.659-.229.248-.416.603-.416.79 0 .192-.11.341-.25.341a.25.25 0 00-.25.25c0 .137-.075.25-.167.25-.092 0-.167.15-.167.333 0 .184-.075.334-.166.334-.092 0-.167.08-.167.178 0 .098-.094.283-.208.411-.52.579-.625.747-.625.992a.416.416 0 01-.25.358c-.138.053-.25.201-.25.328 0 .128-.075.233-.167.233-.092 0-.167.108-.167.241s-.187.444-.416.691c-.23.247-.417.554-.417.683 0 .128-.187.435-.417.682-.229.247-.416.544-.416.659 0 .116-.075.21-.167.21-.092 0-.167.081-.167.179 0 .098-.093.283-.208.411-.52.58-.625.747-.625.995 0 .145-.187.438-.417.651-.229.212-.416.509-.416.658 0 .15-.075.273-.167.273-.092 0-.167.104-.167.232s-.112.276-.25.328c-.137.053-.25.249-.25.435s-.075.338-.166.338c-.092 0-.167.081-.167.179 0 .098-.094.283-.208.411-.515.574-.625.745-.625.969 0 .132-.187.416-.414.632-.228.216-.415.524-.417.684-.001.161-.066.292-.143.292-.077 0-.282.263-.455.583-.172.321-.372.584-.443.584-.07 0-.128.112-.128.25 0 .137-.063.25-.139.25-.077 0-.358.448-.625.995-.268.548-.58.998-.695 1-.114.003-.208.136-.208.296 0 .161-.188.51-.417.776-.229.267-.416.585-.416.709 0 .123-.067.224-.148.224-.081 0-.272.262-.424.583-.153.321-.349.583-.436.583-.088 0-.159.14-.159.311 0 .171-.206.517-.458.77l-.459.46.035 5.501c.03 4.686.073 5.542.292 5.784.202.223.257.719.257 2.312 0 1.242.064 2.029.166 2.029.102 0 .167.774.167 1.99 0 1.095.063 2.03.141 2.077.078.048.19.889.25 1.868.06.979.193 1.882.296 2.006.156.188 5.168.226 30.167.226h29.979l.003 15.541c.001 8.548.047 15.711.102 15.917l.101.375h36.128v-31.833H113.5v-28.5H98.167V3.833H62.006l-.104.417M349 4.083c0 .138-.075.25-.167.25-.091 0-.166.15-.166.334 0 .185-.111.333-.25.333a.25.25 0 00-.25.25c0 .138-.075.25-.167.25-.092 0-.167.188-.167.417 0 .229-.085.416-.19.416-.256 0-.631.515-.638.875-.003.161-.063.292-.134.292-.071 0-.27.263-.443.583-.172.321-.377.584-.454.584-.077 0-.141.187-.141.416 0 .23-.085.417-.19.417-.224 0-.63.498-.638.783-.003.11-.192.402-.422.649-.229.248-.416.552-.416.676s-.058.225-.127.225c-.128 0-.429.494-.636 1.042-.06.16-.176.292-.257.292-.081 0-.147.116-.147.258 0 .142-.187.431-.417.644-.229.212-.416.516-.416.676 0 .16-.188.438-.417.618-.229.18-.417.472-.417.649 0 .177-.075.321-.166.321-.092 0-.167.081-.167.179 0 .098-.094.283-.208.411-.52.579-.625.747-.625.992a.417.417 0 01-.25.358c-.138.053-.25.2-.25.328s-.075.232-.167.232c-.092 0-.167.15-.167.334 0 .183-.075.333-.166.333-.092 0-.167.104-.167.232s-.113.276-.25.328a.416.416 0 00-.25.359c0 .144-.187.464-.417.712-.229.247-.416.543-.416.659 0 .115-.075.21-.167.21-.092 0-.167.139-.167.31 0 .17-.187.451-.416.623-.229.172-.417.455-.417.629s-.187.49-.417.703c-.229.212-.416.502-.416.644 0 .142-.075.258-.167.258-.092 0-.167.112-.167.25 0 .137-.056.251-.125.252-.068.002-.387.45-.708.998-.321.547-.64.996-.708.997-.069.002-.125.145-.125.319 0 .173-.187.492-.414.708-.228.216-.415.524-.417.684-.001.16-.066.292-.143.292-.077 0-.282.262-.455.583-.172.321-.358.583-.411.583-.054 0-.201.263-.327.584-.126.321-.286.583-.357.583-.07 0-.258.281-.418.625-.16.344-.388.685-.508.758a.497.497 0 00-.217.375c0 .133-.075.242-.167.242-.091 0-.166.112-.166.25 0 .137-.07.25-.156.25-.085 0-.207.163-.27.362a2.233 2.233 0 01-.428.698c-.172.185-.313.472-.313.638 0 .166-.113.302-.25.302-.138 0-.25.142-.25.316 0 .174-.186.492-.414.708-.227.216-.415.524-.416.684-.002.161-.07.292-.151.292-.081 0-.272.262-.424.583-.153.321-.349.584-.436.584-.088 0-.159.112-.159.25 0 .137-.075.25-.167.25-.091 0-.166.142-.166.315 0 .174-.113.359-.25.412-.138.052-.25.248-.25.434s-.075.339-.167.339c-.092 0-.167.104-.167.232s-.112.275-.25.328c-.137.053-.25.232-.25.398s-.15.41-.333.542c-.183.132-.333.411-.333.62 0 .226-.101.38-.25.38a.25.25 0 00-.25.25c0 .137-.075.25-.167.25-.092 0-.167.15-.167.333 0 .183-.076.333-.169.333-.093 0-.295.263-.448.584-.153.321-.331.583-.395.583-.065 0-.165.188-.223.417-.057.229-.178.416-.268.416-.09 0-.163.113-.163.25 0 .138-.075.25-.167.25-.092 0-.167.109-.167.242s-.187.443-.416.691c-.229.247-.417.588-.417.758 0 .17-.099.309-.219.309s-.322.263-.448.584c-.126.32-.29.583-.364.583-.075 0-.136.095-.136.21 0 .116-.187.412-.416.659-.229.248-.417.603-.417.79 0 .192-.109.341-.25.341a.25.25 0 00-.25.25c0 .137-.075.25-.167.25-.091 0-.166.142-.166.316 0 .173-.101.353-.223.4-.123.048-.428.506-.679 1.018-.251.513-.526.933-.611.933-.085 0-.154.112-.154.25 0 .137-.075.25-.167.25-.091 0-.166.187-.166.416 0 .23-.086.417-.19.417-.231 0-.631.501-.638.799-.003.119-.193.418-.422.665-.229.247-.417.544-.417.659 0 .116-.075.21-.167.21-.091 0-.166.08-.166.178 0 .098-.188.424-.417.724-.229.301-.417.615-.417.699 0 .084-.187.355-.416.602-.229.247-.417.565-.417.707 0 .141-.075.257-.167.257-.091 0-.166.104-.166.232s-.113.276-.25.328c-.138.053-.25.249-.25.435s-.064.338-.141.338c-.077 0-.282.263-.454.584-.173.32-.372.583-.443.583-.071 0-.129.137-.129.304 0 .168-.187.481-.417.696-.229.215-.416.528-.416.696 0 .167-.075.304-.167.304-.092 0-.167.104-.167.232s-.112.276-.25.328a.412.412 0 00-.25.351c0 .141-.075.256-.166.256-.092 0-.167.112-.167.25 0 .137-.074.25-.163.25-.09 0-.211.187-.269.416-.057.23-.157.417-.222.417-.064 0-.22.263-.346.583-.126.321-.327.584-.448.584-.12 0-.219.169-.219.377 0 .207-.187.517-.416.69-.229.172-.417.452-.417.623 0 .17-.075.31-.167.31-.091 0-.166.08-.166.178 0 .098-.094.283-.209.411-.383.428-.54.657-.791 1.161-.137.275-.344.56-.458.633-.115.073-.209.28-.209.458 0 .179-.075.325-.167.325-.091 0-.166.113-.166.25 0 .138-.072.25-.159.25-.088 0-.284.263-.436.584-.152.32-.343.583-.424.583-.082 0-.148.152-.148.339 0 .186-.113.381-.25.434-.138.053-.25.2-.25.328s-.075.232-.167.232c-.091 0-.166.142-.166.316 0 .173-.113.359-.25.411-.138.053-.25.192-.251.31 0 .117-.187.431-.416.698-.229.266-.417.585-.417.708s-.075.224-.166.224c-.092 0-.167.112-.167.25 0 .137-.075.25-.167.25-.091 0-.166.109-.166.241 0 .133-.188.444-.417.691-.229.248-.417.589-.417.759 0 .17-.112.309-.25.309-.139 0-.25.148-.25.333 0 .184-.075.334-.166.334-.092 0-.167.112-.167.25 0 .137-.07.25-.155.25-.086 0-.209.168-.274.375a1.69 1.69 0 01-.428.644c-.17.148-.31.43-.31.625 0 .205-.106.356-.25.356a.25.25 0 00-.25.25c0 .137-.075.25-.166.25-.092 0-.167.15-.167.333 0 .183-.069.333-.152.333-.185 0-1.015 1.449-1.015 1.771 0 .126-.112.229-.25.229a.251.251 0 00-.25.25c0 .138-.075.25-.166.25-.092 0-.167.109-.167.242s-.187.443-.417.691c-.229.247-.416.588-.416.758 0 .17-.077.309-.17.309-.093 0-.294.263-.447.584-.153.321-.34.583-.414.583-.075 0-.136.109-.136.241 0 .133-.187.444-.417.691-.229.248-.416.589-.416.759 0 .17-.113.309-.25.309a.25.25 0 00-.25.25c0 .138-.075.25-.167.25-.092 0-.167.15-.167.333 0 .184-.075.334-.166.334-.092 0-.167.112-.167.25 0 .137-.074.25-.163.25-.09 0-.211.187-.269.416-.057.23-.171.417-.253.417-.081 0-.148.115-.148.255a.41.41 0 01-.25.351c-.138.053-.25.201-.25.328 0 .128-.075.233-.167.233-.092 0-.167.187-.167.416 0 .23-.085.417-.19.417-.573 0-1.015 4.876-.492 5.425.083.087.177 1.036.209 2.109.038 1.263.132 2.024.266 2.159.141.14.207.809.207 2.08 0 1.07.072 1.918.167 1.977.096.059.167.936.167 2.061 0 1.464.061 2.04.244 2.282.182.241.246.825.25 2.282.003 1.107.074 1.958.162 1.958.086 0 .18.282.209.625l.051.625 30.209.042 30.208.043v31.833l18.125-.042 18.125-.042.043-15.875.042-15.875H400v-28.5h-14.666l-.042-46.125-.042-46.125-18.125-.043C351.082 3.837 349 3.861 349 4.083M175.784 33.799c-.829.849-.798 1.237.174 2.157C178.331 38.203 179 38.89 179 39.08c0 .115-.863 1.022-1.917 2.014-2.202 2.074-2.317 2.353-1.327 3.222.92.808.646.963 4.149-2.358 1.25-1.185 1.203-1.187 2.56.112 3.015 2.884 3.05 2.909 3.577 2.538 1.631-1.146 1.537-1.356-2.084-4.647-.91-.827-.84-.99 1.293-3.037 2.144-2.058 2.196-2.183 1.269-3.11-.876-.876-.679-.963-3.201 1.405-2.503 2.351-1.989 2.304-4.026.364-2.924-2.785-2.662-2.652-3.509-1.784m40.397.141c-.375.426-.681.831-.681.901 0 .122 2.046 2.163 3.375 3.367.883.8.851.869-1.398 3.009l-2.022 1.925.314.537c.929 1.586 1.232 1.514 3.816-.909 2.247-2.107 1.978-2.088 3.866-.266 1.772 1.71 2.517 2.329 2.802 2.329.381 0 1.414-1.1 1.414-1.506 0-.364-.146-.522-2.64-2.866-1.411-1.326-1.438-1.494-.402-2.449 3.464-3.193 3.479-3.22 2.382-4.235-.901-.834-.555-1.016-3.609 1.892-1.784 1.698-1.657 1.683-3.059.369-3.594-3.367-3.211-3.174-4.158-2.098M349 73.333v22.834h-15.333c-10.577 0-15.334-.055-15.334-.175 0-.096.188-.348.417-.561.229-.212.417-.509.417-.658 0-.15.075-.273.166-.273.092 0 .167-.112.167-.25s.094-.25.209-.25c.115 0 .316-.241.447-.535.13-.295.411-.697.624-.895.213-.197.387-.481.387-.631 0-.15.075-.272.166-.272.092 0 .167-.113.167-.25a.25.25 0 01.25-.25c.139 0 .25-.148.25-.334 0-.183.075-.333.167-.333.091 0 .166-.112.166-.25s.073-.25.163-.25c.089 0 .284-.235.433-.523.148-.287.45-.69.67-.894.221-.204.401-.494.401-.644 0-.15.075-.272.167-.272.091 0 .166-.105.166-.233 0-.127.113-.275.25-.328a.408.408 0 00.25-.351c0-.14.075-.255.167-.255a.163.163 0 00.167-.158c0-.087.187-.36.416-.608.23-.247.417-.551.417-.675s.075-.226.167-.226c.091 0 .166-.104.166-.232s.113-.275.25-.328a.41.41 0 00.25-.351c0-.14.075-.255.167-.255.092 0 .167-.105.167-.233 0-.127.112-.275.25-.328.137-.052.25-.192.25-.311 0-.118.261-.514.58-.88.319-.366.581-.759.583-.873.002-.115.078-.209.17-.209.092 0 .167-.104.167-.232s.112-.275.25-.328c.137-.053.25-.232.25-.398s.156-.412.347-.547c.191-.134.462-.463.602-.73a5.11 5.11 0 01.652-.915c.219-.236.399-.516.399-.622 0-.106.186-.369.413-.585.228-.216.416-.486.417-.601.002-.114.265-.486.586-.826.321-.34.584-.707.584-.816 0-.109.186-.375.413-.591.228-.215.416-.505.417-.644.002-.139.191-.393.42-.565.229-.172.417-.396.417-.498 0-.102.227-.448.504-.768.277-.321.544-.738.593-.927.049-.188.272-.48.496-.648.223-.168.406-.411.406-.54 0-.128.188-.421.417-.65.229-.23.417-.488.417-.574 0-.147.104-.29.875-1.201.16-.19.291-.412.291-.493 0-.082.188-.337.417-.566.229-.229.417-.519.417-.645s.056-.254.125-.284c.156-.07 1.041-1.247 1.041-1.385 0-.056.188-.304.417-.551.229-.247.417-.51.417-.584 0-.073.187-.336.416-.583.23-.247.417-.544.417-.659 0-.116.075-.21.167-.21a.171.171 0 00.166-.174c0-.096.188-.376.417-.624.229-.247.417-.509.417-.583 0-.074.187-.336.416-.583.23-.247.417-.544.417-.66 0-.115.075-.21.167-.21.091 0 .166-.112.166-.25 0-.137.061-.25.135-.25.147 0 .699-1.161.699-1.472 0-.107.075-.194.166-.194.092 0 .167-.188.167-.417 0-.229.061-.417.135-.417.149 0 .698-1.163.698-1.478 0-.109.113-.242.25-.295.138-.052.25-.233.25-.401s.075-.352.167-.409c.092-.057.167-.239.167-.406a.76.76 0 01.25-.511.775.775 0 00.25-.52c0-.172.075-.313.166-.313.111 0 .167 7.722.167 22.833m-287.167.334v22.5H31.32l.34-.365c.187-.201.34-.501.34-.667 0-.166.085-.302.19-.302.234 0 .631-.503.638-.809.003-.124.193-.374.422-.554.229-.18.417-.435.417-.565 0-.131.075-.238.166-.238.092 0 .167-.15.167-.334 0-.183.085-.333.19-.333.256 0 .631-.515.638-.875.003-.16.109-.292.236-.292s.349-.243.494-.541c.144-.298.49-.805.768-1.125.279-.321.507-.715.507-.875 0-.161.086-.292.19-.292.231 0 .631-.501.638-.8.003-.119.18-.381.394-.583a3.28 3.28 0 00.624-.909c.13-.298.33-.541.445-.541.115 0 .209-.113.209-.25 0-.138.075-.25.167-.25.092 0 .167-.15.167-.334 0-.185.111-.333.25-.333.137 0 .25-.113.25-.25 0-.138.075-.25.166-.25.092 0 .167-.116.167-.258 0-.142.175-.423.388-.625a3.28 3.28 0 00.624-.909c.13-.298.33-.541.445-.541.115 0 .21-.113.21-.25 0-.138.075-.25.166-.25.092 0 .167-.116.167-.258 0-.142.188-.432.417-.644.229-.213.416-.475.416-.584 0-.108.188-.371.417-.583.229-.212.417-.471.417-.575 0-.105.075-.19.166-.19.092 0 .167-.15.167-.333 0-.185.111-.333.25-.333.137 0 .25-.113.25-.25 0-.138.075-.25.167-.25.091 0 .166-.116.166-.258 0-.142.188-.432.417-.644.229-.213.419-.49.422-.617.007-.285.395-.815.597-.815.082 0 .256-.241.387-.535.13-.295.411-.697.624-.894.213-.197.387-.448.387-.556 0-.109.187-.371.416-.583.23-.213.417-.49.417-.617s.263-.526.583-.887c.321-.36.584-.72.584-.799 0-.08.187-.318.416-.531.23-.212.417-.507.417-.655 0-.149.262-.54.583-.871.321-.33.584-.665.584-.744 0-.079.187-.346.416-.593.23-.248.417-.589.417-.759 0-.17.104-.309.231-.309s.347-.244.489-.542c.141-.298.487-.799.769-1.113.281-.314.512-.652.514-.75.001-.098.189-.355.417-.571.227-.216.413-.505.413-.643 0-.137.188-.397.417-.577.229-.181.417-.422.417-.536 0-.114.262-.502.583-.863.321-.36.583-.757.583-.881s.188-.374.417-.554c.229-.18.417-.472.417-.649 0-.176.075-.321.166-.321.092 0 .167-.179.167-.399 0-.219.112-.442.25-.495.137-.052.25-.248.25-.434s.075-.339.167-.339c.091 0 .166-.187.166-.416 0-.229.074-.417.164-.417.09 0 .21-.187.268-.417.057-.229.171-.416.253-.416.082 0 .149-.085.149-.188 0-.205 1.008-2.312 1.106-2.312.033 0 .06 10.125.06 22.5M198.75 60.03c-2.319.29-8.194 1.86-10.5 2.806l-.833.342c-.184.075-1.136.515-2.116.979-.981.464-1.856.843-1.945.843-.089 0-.187.056-.217.125-.031.069-.468.344-.972.611-2.392 1.268-6.17 3.802-6.271 4.205-.339 1.35.252 2.773 1.009 2.428.557-.254.539-.316.838 2.807.642 6.706 2.545 10.551 6.015 12.157.637.295 1.289.603 1.448.685 1.616.83 5.266-.191 7.075-1.978 1.826-1.804 2.293-2.779 2.889-6.04.446-2.439 1.154-11.047 1.159-14.093.005-3.005-.067-2.904 2.274-3.178 5.016-.588 10.775.243 15.397 2.222 1.359.581 4.148 1.985 4.962 2.497.483.303.913.552.956.552.042 0 .96.621 2.038 1.38 1.764 1.242 2.539 1.836 3.111 2.385.982.943 1.516.564 1.516-1.075 0-1.063-.25-1.69-.673-1.69-.063 0-.537-.359-1.054-.797a36.739 36.739 0 00-1.606-1.286 11.797 11.797 0 01-.878-.694c-.116-.112-.51-.373-.875-.578-.365-.205-.664-.434-.664-.509 0-.075-.078-.136-.174-.136-.096 0-.565-.246-1.042-.547-5.704-3.595-13.79-5.309-20.867-4.423m-5.35 4.061c.278.277.281-.009-.075 7.242-.16 3.26-.369 5.458-.682 7.167-.303 1.661-.659 3.245-.803 3.583-.078.184-.268.671-.422 1.084-.545 1.463-1.229 2.063-2.835 2.488-3.052.808-5.783-1.276-7.086-5.405a20.976 20.976 0 00-.339-1c-.129-.33-.475-2.144-.815-4.269-.255-1.595-.231-4.784.039-5.053.24-.241 2.898-1.928 3.036-1.928.049 0 .393-.192.764-.427.372-.234.839-.403 1.039-.375l.362.052.044 6.764.043 6.765.38.203c.215.115.809.181 1.369.152 1.478-.076 1.409.328 1.414-8.217.003-4.034.061-7.409.128-7.501.19-.259 1.503-.808 3.122-1.306 1.056-.325 1.013-.324 1.317-.019M253 74.936c0 .127.112.231.25.231.137 0 .25.075.25.166 0 .092.11.167.244.167.135 0 .46.206.723.458.264.252.767.684 1.118.959.863.674 1.713 1.555 2.046 2.119.151.255.371.464.488.464.118 0 .214.08.214.179 0 .213.418.654.62.654.078 0 .154.148.168.329.013.181.178.494.366.696.189.202.386.504.439.671.053.168.166.304.252.304.085 0 .155.113.155.25 0 .138.075.25.167.25.092 0 .167.153.167.339 0 .186.112.382.25.434.137.053.25.238.25.412 0 .173.075.315.166.315.092 0 .167.188.167.417 0 .229.067.417.149.417.081 0 .195.187.253.416.057.23.178.417.268.417.09 0 .163.188.163.417 0 .229.075.416.167.416.092 0 .167.182.167.405 0 .223.112.517.25.655.137.137.25.438.25.669 0 .23.075.465.166.521.092.057.167.278.167.491 0 .213.112.603.249.865.137.263.249.646.25.853.001.206.076.375.168.375.091 0 .166.37.166.823 0 .453.075.87.167.927.092.056.167.534.167 1.061 0 .585.095 1.084.244 1.282.364.48.369 8.151.007 8.846-.137.263-.25.829-.25 1.259-.001.43-.076.828-.168.885-.092.057-.167.394-.167.75s-.075.693-.166.75c-.092.057-.167.23-.168.385-.001.155-.113.496-.25.759s-.249.656-.249.875c0 .219-.075.398-.167.398-.091 0-.166.179-.166.399 0 .219-.113.442-.25.494-.138.053-.25.249-.25.435s-.075.338-.167.338c-.101 0-.167-.719-.167-1.823 0-1.036.072-1.868.167-1.927.092-.056.167-.623.167-1.26v-1.156h-.574c-.315 0-.62-.075-.676-.167-.058-.094-.857-.167-1.826-.167-1.377 0-1.741-.05-1.818-.25-.076-.199-.434-.25-1.758-.25-.928 0-1.707-.073-1.765-.166-.057-.092-.549-.167-1.093-.167h-.99V74.546l.416.08c.23.044.417.183.417.31M145.584 107.94c-.183.183-.251.626-.251 1.645 0 .768-.075 1.442-.166 1.498-.092.057-.167.69-.167 1.408 0 .833-.09 1.477-.249 1.782-.137.262-.249.908-.25 1.435-.001.847-.04.959-.334.959-.184 0-.334.075-.334.166 0 .092-.187.167-.416.167-.26 0-.417.094-.417.25 0 .181-.185.25-.667.25-.481 0-.666-.069-.666-.25 0-.138-.075-.25-.167-.25-.092 0-.167-.095-.167-.21 0-.116-.187-.412-.416-.659-.229-.248-.417-.566-.417-.707 0-.142-.075-.257-.167-.257-.091 0-.166-.113-.166-.25a.25.25 0 00-.25-.25c-.156 0-.25-.158-.25-.417 0-.229-.075-.417-.167-.417-.092 0-.167-.187-.167-.416 0-.26-.094-.417-.25-.417-.166 0-.25-.167-.25-.5 0-.275-.075-.5-.166-.5-.092 0-.167-.183-.167-.407 0-.224-.075-.453-.167-.51-.091-.056-.166-.28-.166-.498 0-.217-.113-.507-.25-.645-.138-.137-.25-.475-.25-.752 0-.276-.075-.548-.167-.605-.092-.056-.167-.427-.167-.822 0-.437-.098-.802-.25-.928-.174-.144-.25-.527-.25-1.26 0-.579-.075-1.1-.166-1.156-.105-.065-.167-1.749-.167-4.5 0-2.752.062-4.436.167-4.5.091-.057.166-.626.166-1.265 0-.88.061-1.186.25-1.258.175-.068.25-.341.25-.912 0-.448.075-.815.167-.815.092 0 .167-.291.167-.647 0-.371.106-.734.25-.853.137-.114.25-.419.25-.678 0-.258.075-.516.166-.572.092-.057.167-.282.167-.5 0-.219.075-.444.167-.5.091-.057.166-.324.166-.594 0-.324.085-.49.25-.49.156 0 .25-.157.25-.416 0-.229.075-.417.167-.417.092 0 .167-.114.167-.253 0-.14.187-.551.416-.914.23-.363.417-.774.417-.913s.058-.253.129-.253c.071 0 .27-.263.443-.584.172-.321.377-.583.454-.583.077 0 .141-.139.141-.31 0-.17.187-.451.416-.623.23-.172.417-.373.417-.447 0-.074.188-.337.417-.584.229-.247.416-.544.416-.659 0-.116.081-.21.179-.21.194 0 .655-.411.655-.584 0-.165.456-.583.637-.583.088 0 .204-.113.256-.25a.41.41 0 01.351-.25c.141 0 .274-.094.296-.208.023-.115.061 6.678.085 15.094.038 13.443.013 15.333-.208 15.554m22.19 4.974c.838.139 1.756.253 2.039.253.284 0 .835.07 1.226.155 1.049.23 4.141.68 4.663.679.64-.001.77.385.623 1.857-.124 1.232-.363 1.975-.635 1.975-.121 0-1.793-.258-4.273-.659a41.412 41.412 0 00-2.028-.266l-1.028-.104-.112.973a14.428 14.428 0 01-.258 1.545c-.18.698.031 1.011.681 1.011.819 0 4.803.642 5.155.83.386.207.396.409.114 2.17-.233 1.458-.306 1.496-2.24 1.168a62.323 62.323 0 00-2.284-.334c-.642-.08-1.327-.194-1.523-.254-.485-.148-.561.026-.826 1.893-.323 2.283-.367 2.131.64 2.254.482.059 1.625.224 2.542.367.917.144 2.133.314 2.703.379 1.438.163 1.483.232 1.229 1.895-.116.756-.286 1.515-.378 1.686-.184.345-.06.35-3.221-.131-2.276-.347-3.46-.516-5.166-.742a60.792 60.792 0 01-2.5-.39l-1.167-.214.024-.83c.024-.853.175-2.033.649-5.08.15-.963.336-2.237.414-2.833.078-.596.261-1.871.407-2.834.398-2.631.562-3.781.747-5.249.201-1.588.352-1.749 1.461-1.559.439.076 1.484.251 2.322.389m94.438.064a.85.85 0 00-.257.355c-.075.196-.098.186-.109-.048-.015-.351.373-.836.466-.583.034.094-.011.217-.1.276m-81.535 1.783c5.667.777 5.721.789 7.441 1.603 3.893 1.843 4.333 7.182.744 9.038-.627.324-.657.472-.154.745 1.159.628 1.786 2.512 1.487 4.471-.267 1.756-.246 2.799.067 3.405.552 1.068.328 1.117-3.011.659-1.889-.259-2.338-1.418-1.751-4.516.366-1.927-.574-3.166-2.4-3.166-.318 0-.769-.073-1.003-.161-.562-.214-.731.108-.937 1.789-.667 5.426-.455 5.132-3.365 4.687-1.881-.288-2.026-.373-1.887-1.113.112-.594.196-1.193.576-4.119.096-.733.291-2.083.435-3 .267-1.706.417-2.763.742-5.25.102-.779.222-1.539.267-1.689.045-.149.151-.879.236-1.621.13-1.139.375-2.023.561-2.023.025 0 .904.118 1.952.261m16.656 2.402c.596.08 1.721.227 2.5.326.779.1 1.634.256 1.9.346.266.091.633.165.816.165 1.238 0 3.826 1.914 4.508 3.333.475.991.513 3.43.067 4.361-.319.665-1.852 2.139-2.225 2.139-.401 0-.257.3.518 1.075.412.412.75.887.75 1.054 0 .168.082.387.183.488.124.124.148.716.075 1.825-.174 2.631-.158 3.43.086 4.192.247.773.047 1.143-.508.938-.135-.05-.848-.164-1.583-.254-3.08-.375-3.127-.466-2.647-5.025.183-1.732-.408-2.448-2.287-2.771-1.973-.339-1.765-.562-2.15 2.312-.093.687-.266 1.887-.386 2.666l-.218 1.417-1.158-.034c-3.456-.1-3.538-.157-3.249-2.264.115-.845.24-1.798.278-2.119a71.14 71.14 0 01.23-1.666c.77-5.169.951-6.403 1.257-8.584.265-1.885.533-3.43.689-3.978.076-.264.193-.294.78-.199.38.062 1.178.177 1.774.257m-14.64 1.821c-.101.062-.267.747-.369 1.523-.101.775-.223 1.68-.27 2.011l-.084.6 1.415.115c2.177.177 2.763-.091 3.123-1.428.184-.684-.173-1.843-.689-2.233-.524-.397-2.756-.817-3.126-.588m37.153 1.251c4.005 1.216 6.241 4.984 5.491 9.255-.089.51-.281 1.639-.427 2.51-.909 5.448-5.32 8.341-10.357 6.792-.384-.118-.753-.269-.82-.336-.067-.068-.227-.123-.356-.123-.348 0-1.706-.974-2.422-1.738-1.942-2.072-2.336-4.697-1.462-9.762.578-3.354 2.178-5.344 5.34-6.64.632-.259 4.118-.23 5.013.042m-20.923 1.087c-.056.092-.205.889-.553 2.973-.192 1.148-.054 1.252 1.787 1.34 1.426.068 1.475.058 2.012-.422 1.06-.947.767-2.807-.549-3.487-.493-.255-2.594-.569-2.697-.404m33.077.845c.504.08 1.742.273 2.75.429 1.008.155 1.905.348 1.992.427.087.079.282.144.433.144.989 0 3.066 1.716 3.737 3.088 1.117 2.284.069 5.627-2.014 6.419-.54.205-.502.397.185.921.321.244.584.542.584.661s.072.241.16.272c.446.154.684 2.054.453 3.615-.155 1.046-.179 1.776-.075 2.317.383 1.998.486 1.931-2.367 1.551-2.407-.32-2.72-.836-2.31-3.803.413-2.983-.018-3.65-2.597-4.026-1.53-.224-1.378-.433-1.747 2.401-.589 4.515-.488 4.335-2.281 4.077-.726-.105-1.62-.23-1.986-.279-.995-.132-1.054-.461-.582-3.214.086-.505.275-1.817.419-2.917.144-1.1.329-2.375.41-2.833.082-.459.233-1.471.336-2.25.363-2.763.687-4.926.843-5.628.086-.391.157-.884.157-1.097 0-.68.636-.73 3.5-.275m-15.799 1.767c-.301.155-.694.476-.873.715-.178.239-.387.511-.463.604-.833 1.017-1.582 8.414-.852 8.414.085 0 .154.099.154.221 0 .648 1.514 1.445 2.747 1.445 1.881 0 2.843-1.16 3.321-4.005.146-.868.34-1.995.432-2.505.65-3.617-1.772-6.269-4.466-4.889m16.331 3.419c-.502 3.259-.561 3.149 1.665 3.143 3.778-.01 3.356-3.919-.461-4.277l-1.015-.095-.189 1.229" fill="#2c8b4b"/><path id="path2" d="M177.057 5.417c.001.733.03 1.012.065.62a8.344 8.344 0 00-.001-1.333c-.036-.341-.064-.021-.064.713M150.082 58.25c0 19.342.019 27.279.043 17.638.024-9.64.024-25.465 0-35.166-.024-9.701-.043-1.814-.043 17.528m26.335-34.083l-.5.127.448.02c.247.01.495-.056.552-.147.056-.092.079-.158.051-.147-.028.011-.276.077-.551.147m7.407 10.291l-.574.625.625-.574c.582-.535.702-.676.574-.676-.027 0-.309.282-.625.625m40.334.167l-.575.625.625-.574c.582-.535.702-.676.575-.676-.028 0-.309.281-.625.625m-38.167 1.833l-.574.625.625-.574c.581-.535.701-.676.574-.676-.028 0-.309.282-.625.625m32.249 3.75l-.49.542.542-.49c.505-.456.618-.593.489-.593-.029 0-.272.243-.541.541m6.427-.323c0 .029.243.273.541.542l.542.49-.49-.542c-.456-.505-.593-.618-.593-.49m-49.261 2.49l-.489.542.541-.49c.505-.456.619-.594.49-.594-.029 0-.273.244-.542.542m47.094-.49c0 .029.244.273.542.542l.541.49-.489-.542c-.456-.505-.594-.618-.594-.49m-20.039 17.736c.3.037.75.036 1-.002.251-.038.006-.068-.544-.067-.55.001-.755.032-.456.069m-1.169 3.168a9.561 9.561 0 001.416 0c.39-.035.071-.064-.708-.064-.779 0-1.098.029-.708.064m-4.747 2.378c0 .412.033.581.073.375a2.418 2.418 0 000-.75c-.04-.207-.073-.038-.073.375m-3.327 2.916c.001.55.032.755.069.456.038-.3.037-.75-.001-1-.038-.251-.069-.006-.068.544m3.157 1c.002.367.036.497.076.29.04-.207.039-.507-.003-.667-.042-.159-.074.011-.073.377m-7.208 48.136c0 .029.243.272.541.541l.542.49-.49-.542c-.456-.505-.593-.618-.593-.489m27.458 2.902c.298.037.785.037 1.083 0 .298-.037.054-.068-.541-.068-.596 0-.84.031-.542.068m-26.586 9.379c0 .321.034.452.076.292a1.37 1.37 0 000-.584c-.042-.16-.076-.029-.076.292m23.34 2.167c0 .412.032.581.072.375.04-.207.04-.544 0-.75-.04-.207-.072-.038-.072.375m-7.329 3.166c0 .504.031.711.069.459a3.608 3.608 0 000-.917c-.038-.252-.069-.046-.069.458m16.274 2.125l-.574.625.625-.574c.582-.535.702-.676.574-.676-.027 0-.309.282-.625.625m13.224 2.792c.001.458.033.626.072.373a2.975 2.975 0 00-.003-.834c-.039-.205-.071.003-.069.461" fill="#8cc49c"/><path id="path3" d="M177.006 3.989c-.113.212-.173 3.707-.173 10.19v9.868l-1.375-.107c-3.467-.272-4.147-.276-2.125-.014 1.054.136 2.292.227 2.75.202l.834-.045.086-10.083c.048-5.546.104-10.102.125-10.125.021-.023 14.353-.042 31.849-.042 29.638 0 32.681.039 33.773.43.229.082.281.065.167-.054-.497-.517-2.095-.542-33.836-.542-31.371 0-31.905.005-32.075.322m66.42.589c.178.135.419.247.536.25.924.023 3.308 3.346 3.685 5.139.31 1.471.261 94.802-.05 94.921-.129.05-.673.059-1.208.021-.929-.067-.942-.062-.306.101.367.094.929.149 1.25.122l.584-.049.05-47.083c.038-35.638.002-47.306-.146-48-.439-2.049-1.592-3.778-3.298-4.943-.974-.664-1.846-1.046-1.097-.479m-92.801 17.499c-.406.283-.624.564-.623.804.003.364.006.364.209-.032.464-.902.946-1.072 2.464-.868.758.102 1.722.175 2.143.162.69-.021.659-.036-.318-.146-3.404-.386-3.198-.39-3.875.08m5.958.264c.459.071 1.171.126 1.584.122l.75-.008-.834-.129a11.48 11.48 0 00-1.583-.122l-.75.007.833.13m2.598.222c.038.035.744.106 1.569.157 1.067.066 1.307.051.833-.054-.658-.145-2.537-.225-2.402-.103m4.569.435c.642.08 1.804.184 2.583.23 1.248.074 1.298.067.417-.057a38.163 38.163 0 00-2.583-.23c-1.458-.081-1.491-.077-.417.057m5 .51c.458.071 1.096.127 1.417.124l.583-.005-.5-.127c-.275-.07-.913-.126-1.417-.125l-.916.003.833.13m6.764 10.308c-.835 1.054-.753 1.244 1.403 3.264 1.054.987 1.916 1.869 1.916 1.961 0 .091-.862.992-1.916 2.002-2.218 2.124-2.303 2.346-1.285 3.34.911.889 1.055.833 3.325-1.3 1.122-1.054 2.097-1.916 2.167-1.915.133.002.622.438 2.83 2.532 1.62 1.535 1.903 1.6 2.777.633.932-1.032.861-1.206-1.314-3.239-1.97-1.841-2.192-2.216-1.569-2.652.863-.605 3.485-3.329 3.485-3.621 0-.313-1.08-1.654-1.333-1.654-.07 0 .164.291.52.647.927.927.875 1.052-1.269 3.11-2.133 2.047-2.203 2.21-1.293 3.037 3.621 3.291 3.715 3.501 2.084 4.647-.527.371-.562.346-3.577-2.538-1.357-1.299-1.31-1.297-2.56-.112-3.503 3.321-3.229 3.166-4.149 2.358-.99-.869-.875-1.148 1.327-3.222 1.054-.992 1.917-1.899 1.917-2.014 0-.19-.669-.877-3.042-3.124-.972-.92-1.003-1.308-.174-2.157.339-.348.533-.632.43-.632-.102 0-.417.292-.7.649m1.319-.503c0 .103.057.187.125.188.117 0 .869.677 3.099 2.791 1.141 1.082.939 1.113 2.526-.388a86.019 86.019 0 012.124-1.946c.434-.376.755-.718.713-.761-.043-.042-.97.759-2.062 1.78-2.472 2.312-2.027 2.339-4.775-.285-1.462-1.395-1.75-1.622-1.75-1.379m39.269.474c-.331.341-.602.693-.602.783 0 .102.047.104.125.005.069-.087.384-.44.7-.783.744-.81.563-.814-.223-.005m2.094.256c.52.481 1.485 1.378 2.143 1.995 1.402 1.314 1.275 1.329 3.059-.369.652-.621 1.523-1.447 1.935-1.837.413-.389.629-.642.482-.562-.148.081-1.073.897-2.057 1.813-.983.917-1.875 1.717-1.982 1.777-.191.109-.883-.473-3.132-2.632-.609-.584-1.171-1.061-1.25-1.06-.079.001.282.395.802.875m8.304-.822c0 .068.262.353.583.635.707.62.765 1.204.167 1.674-.229.18-.417.398-.417.483 0 .086.225-.044.5-.289.705-.628.66-1.167-.166-1.974-.367-.358-.667-.596-.667-.529m-11 1.9c0 .083.862.958 1.917 1.944 1.054.987 1.916 1.887 1.916 2 0 .114-.862 1.014-1.916 2-1.055.987-1.917 1.848-1.917 1.914 0 .066.9-.736 2-1.783 2.225-2.118 2.258-2.189 1.375-2.988a110.282 110.282 0 01-2-1.903c-.756-.735-1.375-1.268-1.375-1.184m9.708 2.342c-1.67 1.562-1.672 1.597-.181 2.998 2.494 2.344 2.64 2.502 2.64 2.866 0 .406-1.033 1.506-1.414 1.506-.285 0-1.03-.619-2.802-2.329-1.888-1.822-1.619-1.841-3.866.266-2.565 2.405-2.861 2.485-3.759 1.013-.179-.293-.325-.417-.325-.275-.001.355 1.194 1.492 1.567 1.492.339 0 .84-.411 2.981-2.442 1.776-1.687 1.457-1.695 3.321.087 2.831 2.706 2.869 2.723 3.846 1.723.992-1.016.908-1.227-1.299-3.288-2.27-2.119-2.226-1.905-.688-3.371 1.096-1.046 1.559-1.552 1.406-1.538-.028.003-.671.584-1.427 1.292M198.5 59.931l-1.25.22 1.25-.116c1.628-.151 7.255-.151 8.75-.001l1.167.118-1.25-.232c-1.607-.299-6.953-.292-8.667.011m-4.471.899c-1.313.352-2.438.695-2.5.763-.062.068.075.072.304.01.23-.063 1.429-.376 2.667-.696 2.542-.658 2.716-.714 2.25-.715-.183-.001-1.408.286-2.721.638m14.888-.497c.183.079.521.144.75.144.379 0 .387-.013.083-.144a2.294 2.294 0 00-.75-.143c-.38 0-.387.013-.083.143m1.333.259c.199.078 1.826.519 2.417.655l.416.096-.416-.187c-.514-.23-2.111-.661-2.383-.643-.111.007-.126.043-.034.079m2.931.811c.038.038.556.252 1.152.477 1.43.538 4.193 1.886 5.306 2.587.489.309.923.526.965.484.085-.084-.572-.491-2.39-1.48-1.772-.963-5.435-2.469-5.033-2.068m-23.233.628c-.533.185-.932.374-.888.418.074.073 2.091-.57 2.259-.72.17-.152-.482-.008-1.371.302m-1.865.725c-.275.126-.387.23-.25.231.138 0 .438-.106.667-.237.527-.301.245-.297-.417.006m11.167-.105c-.458.055.779.1 2.75.101 1.982.002 3.174-.047 2.667-.108-1.106-.134-4.263-.13-5.417.007m-2.583.516c-.307.306-.332.536-.307 2.875l.026 2.541.118-2.552c.126-2.721.162-2.828 1.022-3.032l.557-.132-.541-.017c-.338-.01-.668.109-.875.317m9.75-.167c.275.07.687.129.916.13l.417.003-.417-.133a3.547 3.547 0 00-.916-.13l-.5.003.5.127m2.902.595c.863.223 1.601.373 1.642.333.04-.04-.254-.153-.653-.25a21.287 21.287 0 01-1.236-.345c-.282-.091-.695-.162-.917-.156-.223.006.301.194 1.164.418m-24.486.575c-.87.445-1.508.81-1.416.812.091.003.916-.364 1.833-.815.917-.451 1.554-.817 1.417-.812-.138.004-.963.371-1.834.815m7.524-.145c-.308.088-.528.193-.489.232.039.039.32-.001.625-.088.899-.258.892-.296.796 4.48-.088 4.319.044 3.269.263-2.108.075-1.825.047-2.251-.159-2.458-.281-.28-.268-.28-1.036-.058m-1.774.557a9.71 9.71 0 01-.815.326c-.174.055-.277.138-.23.185.047.047.564-.099 1.148-.325.585-.227.914-.412.731-.412-.184-.001-.559.101-.834.226m22.487.175c.542.225 1.022.374 1.065.33.044-.043-.063-.129-.236-.191a30.579 30.579 0 01-.878-.337c-.309-.124-.646-.222-.75-.219-.103.004.256.192.799.417m-30.907.78c-2.393 1.353-6.052 3.727-6.281 4.076-.522.797-.033 3.054.662 3.054.088 0-.008-.136-.214-.303-.4-.324-.634-1.628-.434-2.423.102-.407 3.957-2.988 6.271-4.199 1.102-.576 1.073-.557.982-.648-.04-.04-.483.159-.986.443m38.67-.413c0 .082.299.316.664.521.365.205.759.466.875.578.116.113.511.426.878.694.367.269 1.101.858 1.631 1.308.53.45.995.788 1.032.751.092-.092-2.51-2.211-3.925-3.196-.635-.442-1.155-.737-1.155-.656m-31.899.306c-.055.145-.102 3.539-.103 7.542-.003 8.484.066 8.086-1.412 8.162-.56.029-1.154-.037-1.369-.152l-.38-.203-.043-6.765-.044-6.764-.362-.052c-.2-.028-.667.141-1.039.375-.371.235-.715.427-.764.427-.138 0-2.796 1.687-3.036 1.928-.273.273-.292 3.396-.031 5.111.207 1.354.675 3.538.564 2.628l-.325-2.584c-.62-4.889-.63-4.862 2.549-6.735 2.619-1.544 2.361-2.169 2.361 5.71 0 7.821-.129 7.275 1.721 7.275 1.913 0 1.779.618 1.779-8.216 0-5.65.05-7.601.2-7.75.134-.134.14-.2.018-.2-.1 0-.228.118-.284.263m26.137.161c.451.224.852.375.891.336.087-.088-1.292-.764-1.535-.752-.097.005.192.192.644.416m1.11.474c.22.208 1.371.772 1.438.705.044-.044-.241-.235-.634-.425-.677-.327-.959-.425-.804-.28m1.652.836c0 .037.357.274.792.526 1.424.826 4.154 2.682 5.36 3.644.65.519 1.182.865 1.182.769 0-.095-.057-.173-.127-.173s-.336-.194-.591-.431c-.473-.439-4.39-3.236-4.531-3.236-.043 0-.489-.263-.99-.583-.875-.56-1.095-.663-1.095-.516m-21.721 4.074c-.074 1.132-.099 2.094-.056 2.136.111.111.319-2.912.249-3.611-.032-.321-.119.343-.193 1.475m30.06-1.864c-.003.107.088.226.203.264.332.111.279 2.376-.064 2.719-.226.226-.339.237-.667.069-.38-.195-.384-.191-.099.106.906.948 1.834-1.91.961-2.959-.181-.216-.331-.306-.334-.199m-49.152 3.21c-.157.097-.121.157.133.224.191.05.347.027.347-.051 0-.227-.248-.316-.48-.173m.509 1.846c-.006.504.089 1.666.211 2.583.287 2.161.301.912.017-1.583-.155-1.365-.221-1.653-.228-1m15.408.553c-.074.809-.097 1.508-.051 1.555.121.121.323-1.929.249-2.526-.034-.274-.123.163-.198.971m2.951-.303c.001.641.031.883.067.538a6.308 6.308 0 00-.001-1.167c-.037-.296-.067-.013-.066.629m-.269 1.833a8.75 8.75 0 00-.096 1.417c.016.637.042.575.169-.417.165-1.29.11-2.054-.073-1m-2.929.667c-.057.96-.537 3.44-.969 5-.059.215-.035.274.068.166.088-.091.287-.766.442-1.5l.457-2.166c.097-.459.143-1.096.104-1.417-.068-.553-.074-.557-.102-.083m-11.678 1.781c-.007.247.063.495.155.552.199.123.199-.204 0-.667-.128-.297-.145-.285-.155.115m-2.984.135c.008.688.271 1.399.277.75.003-.275-.06-.65-.138-.833-.131-.303-.143-.295-.139.083M195.13 80l-.379 2.083c-.088.484-.085.486.09.084.249-.576.689-2.953.627-3.391-.028-.198-.18.353-.338 1.224m-13.791-.312c-.006.268.262 1.004.78 2.145.739 1.63 2.599 3.65 3.372 3.663.132.002-.094-.208-.502-.467-1.403-.89-2.51-2.472-3.343-4.779-.165-.458-.303-.711-.307-.562m-2.994.601c-.046.828 2.295 4.905 3.401 5.926 1.082.998 1.045.746-.048-.328-1.13-1.11-1.639-1.979-3.157-5.387-.102-.229-.19-.324-.196-.211m12.701 3.206c-.449.929-.666 1.183-1.333 1.554-.854.475-.778.624.096.188.634-.316 1.228-1.066 1.615-2.036.442-1.112.218-.937-.378.294m2.978.362c-.118.188-.177.379-.132.424.044.044.168-.082.275-.281.252-.471.135-.588-.143-.143m-.701 1.079c-.318.594-1.721 1.832-2.737 2.415-.947.543-.902.651.065.157 1.057-.539 3.564-3.008 3.055-3.008-.082 0-.255.196-.383.436m-7.192.761c.367.145 1.829.137 2.369-.013.231-.064-.267-.113-1.119-.108-.844.004-1.406.058-1.25.121M183 87.084c0 .092 1.268.749 1.447.749.07 0-.021-.097-.202-.216-.429-.281-1.245-.631-1.245-.533m1.75.916c.057.092.216.167.353.167.138 0 .204-.075.147-.167-.057-.092-.216-.167-.353-.167-.138 0-.204.075-.147.167m1.609.368c.503.105 1.09.105 1.667 0 .844-.153.803-.162-.776-.162-1.501 0-1.589.016-.891.162m-36.347 5.23c-.015.447.616.741 1.538.717.68-.017.672-.023-.284-.208-.722-.14-1.018-.279-1.113-.524-.127-.326-.13-.326-.141.015m3.821.976c.779.127 1.792.226 2.25.22l.834-.01-.917-.12a50.98 50.98 0 00-2.25-.22l-1.333-.1 1.416.23M157.5 95c.229.073.792.132 1.25.129l.833-.004-.75-.134c-1.05-.186-1.926-.181-1.333.009m4.167.438c.962.125 2.35.311 3.083.413.733.103 1.521.156 1.75.12.229-.037-.483-.165-1.583-.285a69.96 69.96 0 01-2.906-.368c-.498-.083-1.173-.142-1.5-.13-.327.012.193.125 1.156.25m6.25.729c.275.07.837.126 1.25.126l.75-.001-.75-.134a8.33 8.33 0 00-1.25-.126l-.5.007.5.128m3 .347c.55.073 1.562.173 2.25.222 1.234.088 1.23.086-.334-.147-.87-.131-1.883-.23-2.25-.222-.544.013-.483.04.334.147m4.333.486c.275.07.838.127 1.25.126l.75-.001-.75-.134a8.318 8.318 0 00-1.25-.126l-.5.008.5.127m3.667.409c.825.126 1.875.225 2.333.22.977-.011-.215-.174-2.583-.354l-1.25-.094 1.5.228m3.583.424c.229.074.829.131 1.333.128l.917-.006-.833-.129c-1.178-.184-2-.179-1.417.007m3.083.343c.367.076.967.133 1.334.127l.666-.011-.75-.134a8.762 8.762 0 00-1.333-.126l-.583.006.666.138m3 .321c.55.078 1.6.181 2.334.228 1.217.08 1.246.075.333-.055-.55-.078-1.6-.181-2.333-.229-1.218-.079-1.247-.074-.334.056M193 99c.229.073.754.132 1.167.131l.75-.003-.667-.138c-.924-.191-1.855-.184-1.25.01m3.5.407c.779.127 1.792.226 2.25.221l.833-.01-.916-.12a52.557 52.557 0 00-2.25-.221l-1.334-.1 1.417.23m3.667.426c.229.074.791.132 1.25.13l.833-.005-.75-.133c-1.051-.187-1.926-.182-1.333.008m3.083.343c.367.076.929.134 1.25.128l.583-.01-.5-.127c-.275-.07-.837-.128-1.25-.128l-.75-.001.667.138m2.378.278c.3.037.75.036 1-.002s.005-.068-.545-.067c-.55.001-.755.032-.455.069m1.872.213c.229.073.792.131 1.25.129l.833-.004-.75-.134c-1.05-.187-1.926-.181-1.333.009m3.083.333c.275.07.838.127 1.25.128h.75l-.666-.138a6.946 6.946 0 00-1.25-.127l-.584.01.5.127m3 .348c.55.072 1.563.172 2.25.221 1.234.088 1.23.087-.333-.147-.871-.13-1.883-.23-2.25-.222-.544.013-.483.04.333.148m4.417.476c.408.14 2.123.237 1.986.113-.038-.034-.594-.106-1.236-.159-.737-.061-1.013-.044-.75.046m3.583.419c.825.125 1.875.224 2.334.219.977-.011-.215-.174-2.584-.353l-1.25-.095 1.5.229m3.667.424c.275.07.875.126 1.333.124l.834-.002-.834-.13a10.638 10.638 0 00-1.333-.125l-.5.005.5.128m3 .343c.367.075.967.132 1.333.126l.667-.011-.75-.134a8.774 8.774 0 00-1.333-.126l-.584.007.667.138m3 .32c.55.078 1.6.181 2.333.229 1.218.079 1.247.074.334-.056-.55-.078-1.6-.181-2.334-.228-1.217-.08-1.246-.075-.333.055m4.333.503c.275.07.838.127 1.25.126l.75-.001-.75-.133a8.189 8.189 0 00-1.25-.126l-.5.007.5.127m3.667.411c.733.127 1.708.226 2.167.219l.833-.012-.917-.118a57.348 57.348 0 00-2.166-.22l-1.25-.101 1.333.232m3.667.423c.183.078.708.14 1.166.135l.834-.007-.667-.138c-.931-.193-1.79-.186-1.333.01m-78.507 7.901c-.185.135-.289.532-.332 1.272l-.064 1.077.157-.99c.218-1.364.177-1.347 2.497-1.017 1.113.158 2.059.252 2.103.207.045-.044-.58-.169-1.387-.277-.807-.109-1.746-.258-2.087-.333-.412-.09-.709-.07-.887.061m5.34.765c.741.189 1.606.189 1.167 0-.184-.078-.634-.139-1-.135-.637.008-.645.014-.167.135m2.333.338c.459.068 1.246.168 1.75.221l.917.096-1.083-.236c-.596-.13-1.384-.229-1.75-.221-.652.016-.649.019.166.14m3.409.499c.316.074.672.268.792.431.258.354.286.175.043-.279-.126-.235-.338-.317-.791-.305l-.619.017.575.136m2.996.685c-.104.196-.217.815-.25 1.376l-.059 1.019.202-1.083c.276-1.479.289-1.492 1.413-1.382.526.052.919.057.873.011-.324-.323-1.998-.278-2.179.059m2.762.145c.275.07.762.127 1.083.127h.584l-.5-.127a5.313 5.313 0 00-1.084-.127h-.583l.5.127m-17.466.479a5.04 5.04 0 00-.099 1c.012.289.069.182.168-.312.082-.413.127-.863.099-1-.027-.138-.103.003-.168.312m20.893.022c.969.166 2.047.421 2.396.567.725.303.813.319.695.127-.174-.281-3.414-1.04-4.322-1.012-.291.009.263.152 1.231.318m-8.544.619c-.159 1.188-.399 1.604-.856 1.48-.198-.055-.773-.135-1.277-.18-.78-.068-.83-.058-.333.073.32.084.956.177 1.412.205l.83.052.22-.662c.121-.364.198-.927.171-1.25-.044-.522-.063-.49-.167.282m12.665.804c1.98 1.333 2.759 3.501 2.122 5.909-.098.373-.088.384.09.103 1.121-1.77-1.007-6.603-2.908-6.603-.099 0 .214.266.696.591m-20.567-.017a1.049 1.049 0 00-.014.542c.05.193.085.133.097-.167l.019-.469 1.209.085c.992.071 1.074.06.458-.06-1.127-.22-1.666-.199-1.769.069m26.515.272c-.06.19-.065.39-.011.445.054.054.098-.027.098-.18 0-.304.098-.332 1.084-.308.573.014.608-.004.25-.127-.775-.265-1.303-.202-1.421.17m-23.413-.021c.411.14 1.788.234 1.653.113-.038-.034-.519-.106-1.069-.159-.648-.062-.854-.046-.584.046m26.25.185c.367.076.817.137 1 .136l.334-.002-.334-.144c-.183-.078-.633-.14-1-.135l-.666.007.666.138m-34.084.004c-.001.038-.119.895-.261 1.903-.363 2.56-.463 3.85-.175 2.25.433-2.408.645-4.015.541-4.118-.057-.057-.105-.073-.105-.035m14.346 1.355c-.109.76-.277 1.87-.374 2.467-.098.598-.149 1.234-.114 1.415.035.181.238-.895.452-2.39.213-1.495.353-2.754.311-2.796-.043-.043-.166.544-.275 1.304m21.822-1.054c1.696.295 2.43.363 2.026.188-.214-.094-.927-.203-1.583-.244-.929-.059-1.027-.046-.443.056m-31.743.988c-.069.487-.085.925-.037.973.119.119.334-1.365.238-1.64-.042-.121-.132.18-.201.667m26.488.088c-.062.415-.079.854-.037.974s.132-.18.201-.667c.069-.487.085-.925.037-.974-.048-.048-.139.252-.201.667m8.838-.331c1.615.606 2.666 1.393 3.474 2.602.152.227.276.323.276.215 0-.205-.833-1.235-1.417-1.752-.473-.418-2.64-1.46-3.017-1.449-.174.004.134.177.684.384m-20.708.391c-.115.042-.197.314-.184.605.024.504.028.507.095.069.076-.506.107-.517 1.297-.463.458.021.796.004.75-.038-.129-.119-1.724-.26-1.958-.173m2.291.383c.138.089.363.161.5.161.223 0 .223-.018 0-.161a1.098 1.098 0 00-.5-.162c-.222 0-.222.018 0 .162m1.118.495c.11.146.314.525.452.843.179.413.252.481.257.239.004-.187-.2-.566-.452-.843-.252-.276-.368-.384-.257-.239m-18.118.5c0 .194.238.247 2.295.518.85.111 1.585.163 1.633.114.049-.048-.684-.177-1.628-.287-.944-.109-1.848-.269-2.008-.354-.186-.1-.292-.096-.292.009m47 .031c-1.518.623-2.654 1.393-3.5 2.373-.498.578-1.335 2.036-1.329 2.317.002.11.265-.284.584-.877 1.021-1.895 2.653-3.193 4.679-3.725.686-.179.832-.257.483-.258-.275 0-.687.076-.917.17m4.417.082c2.016.428 3.777 1.657 4.978 3.472.562.851.575.63.015-.258-1.179-1.868-3.865-3.516-5.66-3.474-.293.007-.017.115.667.26m-37.139.703c-.07.492-.091.931-.047.975.123.123.307-1.021.237-1.473-.038-.242-.111-.049-.19.498m11.906.625c-.124.836-.185 1.624-.135 1.75.051.127.098-.01.105-.303.007-.294.094-.909.192-1.369.099-.459.153-1.006.121-1.216-.031-.21-.159.302-.283 1.138m-21.684-.653c.23.04.702.146 1.049.236l.633.164-.085 1.033c-.072.879-.062.934.066.367.326-1.436-.093-1.954-1.532-1.894-.449.019-.473.036-.131.094m26.33.478c-.09.235-.156.628-.147.875.013.344.063.275.216-.299l.199-.746.743.029c.601.024.663.002.326-.112-.795-.27-1.165-.2-1.337.253m2.573.153c1.608.573 2.133 2.56.954 3.613-.291.26-.463.473-.382.473.53 0 1.192-1.224 1.192-2.204 0-.96-1.122-2.139-2.02-2.122-.304.005-.244.061.256.24m-14.774.357c-.062.287-.237.647-.39.8-.153.153-.24.316-.193.363.169.169.809-.944.753-1.31-.048-.316-.074-.294-.17.147m42.149.006c-.061.062-.104.305-.094.542l.016.431.116-.417c.085-.31.263-.443.691-.52l.577-.103-.598-.022c-.328-.012-.647.028-.708.089m1.639.14c.393.137 5.276.778 5.352.703.046-.046-.577-.173-1.385-.283a54.718 54.718 0 01-2.267-.352c-.75-.142-2.066-.195-1.7-.068m-22.862 1.499c.001.642.031.884.067.538a6.297 6.297 0 00-.001-1.166c-.037-.296-.067-.013-.066.628m28.459-.69c.197.17 1.004.271.907.114-.059-.096-.303-.174-.542-.174-.239 0-.403.027-.365.06m-37.568 1.006c-.066.54-.087 1.015-.046 1.056.111.111.31-1.364.233-1.727-.036-.171-.12.131-.187.671m-35.655-.399a3.661 3.661 0 00-.107.917l.013.5.161-.559c.089-.308.136-.721.107-.917-.051-.335-.062-.331-.174.059m14.537-.236c-.003.084-.118.903-.256 1.819a45.994 45.994 0 00-.326 2.667c-.055.755-.015.632.165-.5.131-.825.329-2.045.438-2.712.11-.666.151-1.26.092-1.319-.059-.06-.11-.039-.113.045m5.839.084c.98.166 2.2.179 2.441.024.105-.067-.57-.129-1.5-.137-1.288-.012-1.512.015-.941.113m45.287.152c-.064.229-.109.679-.1 1 .016.561.022.554.166-.167.168-.842.117-1.49-.066-.833m9.19-.077c.712.309.839.309.43-.001-.178-.135-.474-.244-.657-.244-.231.001-.161.077.227.245m-47.04.319c-.388.592-1.103 1.22-1.727 1.516-.692.328-.684.546.039 1.124.321.255.73.743.91 1.083.179.34.33.518.334.395.01-.329-.851-1.478-1.285-1.713-.503-.273-.473-.421.154-.745.583-.302 1.971-1.642 1.971-1.903 0-.263-.108-.196-.396.243m25.8-.016c-.542.247-1.632 1.441-1.46 1.598.056.051.141-.02.188-.157.428-1.245 3.128-1.989 4.147-1.143.126.105.271.148.323.097.426-.427-2.371-.772-3.198-.395m-48.866.081c-.117.074-.246.542-.286 1.039l-.074.904.153-.829c.084-.457.283-.925.443-1.042.315-.231.111-.293-.236-.072m6.282.193c-.077.463-.577.52-2.486.282-.709-.088-.803-.077-.417.049 1.797.585 3.231.375 3.042-.446-.053-.231-.085-.205-.139.115m19.968.146a5.309 5.309 0 00-.103 1.083c.016.445.041.411.169-.229.083-.413.129-.9.103-1.083-.033-.226-.087-.152-.169.229m44.712-.424c0 .03.344.302.764.603.42.302.982.851 1.25 1.22.267.369.486.578.486.465 0-.255-2.065-2.343-2.318-2.343-.1 0-.182.024-.182.055M168.25 124c.183.079.633.14 1 .136l.667-.008-.667-.138c-.367-.075-.817-.137-1-.135l-.333.002.333.143m51.429.25c0 .092.184.392.409.667.226.275.41.425.41.333 0-.092-.184-.392-.41-.667-.225-.275-.409-.425-.409-.333m5.073.5c.667 1.656.682 3.779.048 6.852-.097.469-.14.957-.096 1.084.044.127.165-.332.27-1.019.105-.688.266-1.667.358-2.177.324-1.786.041-4.345-.542-4.907-.118-.114-.13-.062-.038.167m-17.736.686c-.297.822-1.196 1.778-2.022 2.15-.792.357-.804.43-.166.967.272.229.685.696.917 1.038.256.378.422.513.422.345 0-.153-.338-.616-.75-1.028-.775-.775-.919-1.075-.518-1.075.648 0 2.588-2.289 2.405-2.838-.034-.102-.164.097-.288.441m-44.745.397c-.165 1.314-.281 2.779-.204 2.584.146-.373.473-3.047.399-3.265-.044-.13-.132.177-.195.681m35.923-.5c.045.138.301.264.569.28.306.019.363-.003.154-.059a1.855 1.855 0 01-.569-.28c-.185-.15-.218-.137-.154.059m11.574.125c-.166.546-.464 2.456-.527 3.375-.036.522.071.126.248-.916.171-1.009.364-2.04.429-2.292.128-.497-.006-.645-.15-.167m18.074 1.223c-.122.788-.179 1.538-.128 1.667.051.129.099-.005.106-.298.007-.294.094-.911.193-1.371.099-.461.15-.971.115-1.133-.036-.163-.165.348-.286 1.135m-13.482-.757c-.106.234-.188.553-.182.709.007.156.12-.01.251-.368.272-.743.224-.983-.069-.341m6.252-.007c.155.585.155 2.086 0 3.5-.095.864-.074.819.151-.334.273-1.39.232-2.853-.094-3.366-.155-.245-.166-.208-.057.2m-20.484-.13c.3.038.75.037 1-.001s.005-.069-.545-.068c-.55.001-.755.032-.455.069m-33.384.951c-.062.498-.081 1.001-.042 1.118.075.225 1.979.62 2.965.615.713-.004-1.475-.438-2.305-.458l-.555-.013.116-1.083c.14-1.306-.018-1.463-.179-.179m65.899-.626c-.101.122-.208.578-.238 1.013l-.054.792.18-.867c.173-.836.201-.868.783-.917l.603-.052-.545-.095c-.353-.062-.61-.018-.729.126m-39.463 1.305c-.113.825-.274 1.814-.359 2.198-.085.385-.146.947-.135 1.25.01.304.123-.086.25-.865.128-.779.317-1.912.42-2.517.104-.605.152-1.205.108-1.333-.044-.129-.172.442-.284 1.267m41.403-1.088c1.437.37 1.906.849 2.111 2.157l.12.764-.05-.88c-.07-1.248-1.063-2.228-2.214-2.186l-.467.017.5.128m6.345.254c.966 2.242-.042 4.708-2.53 6.188-.291.173-.258.237.435.858.413.369.786.637.83.594.043-.042-.213-.321-.57-.621-.617-.518-.702-.935-.19-.935 1.59 0 3.322-5.078 2.114-6.201-.196-.182-.21-.163-.089.117m-59.691.493c-.167.666-.002.812.197.175.101-.321.121-.584.044-.584-.076 0-.185.184-.241.409m.846-.243c.184.079.634.14 1 .136.637-.008.645-.014.167-.136-.741-.188-1.606-.188-1.167 0m2.215.418c1.098.477 1.486 1.418 1.202 2.915-.563 2.969-.098 4.334 1.51 4.432l.907.055-.917-.161c-1.538-.269-1.792-1.103-1.318-4.325.261-1.774-.492-3.188-1.682-3.16-.138.003-.003.113.298.244m29.636.552c-.074.396-.092.761-.042.811.138.138.311-.69.239-1.139-.047-.289-.098-.203-.197.328m-33.059 1.615c-.285 1.827-.236 2.481.063.832.133-.733.22-1.521.193-1.75-.026-.229-.141.184-.256.918m9.189.368c-.008 1.219.022 1.462.12.964.161-.823.165-1.901.008-2.297-.064-.164-.122.436-.128 1.333m42.042-.846c-.185 1.347-.148 1.561.269 1.555.332-.005.342-.024.087-.173-.243-.142-.272-.326-.185-1.162.122-1.168-.017-1.346-.171-.22m-61.273-.273c.634.203 1.315.203 1 0-.137-.089-.512-.156-.833-.148-.534.013-.548.025-.167.148m56.58.891c-.064.505-.082 1.018-.041 1.139s.128-.257.195-.84c.066-.582.084-1.095.04-1.139-.044-.043-.131.334-.194.84m-65.669-.168c-.17.907-.039 1.517.339 1.573.313.046.315.038.032-.138-.257-.158-.285-.322-.189-1.089.123-.985-.014-1.244-.182-.346m11.384-.399c1.061.172 1.137.31.893 1.632-.388 2.114-.255 1.919-1.236 1.809-.595-.067-.764-.049-.535.057 1.23.57 1.627.199 1.934-1.805.249-1.627.106-1.867-1.091-1.83l-.676.021.711.116m3.159.342a4.12 4.12 0 00-.1 1c.016.561.022.555.166-.166.168-.843.117-1.491-.066-.834m21.312-.192c-.048.077-.128.471-.179.875-.067.531-.049.642.066.401.086-.184.163-.54.169-.792.014-.535.163-.557 1.831-.27 1.879.323 2.47 1.039 2.287 2.771-.315 2.992-.32 3.466-.04 4.007.384.744.44.665.133-.188-.229-.636-.234-.951-.039-2.642.258-2.234.182-2.681-.571-3.392-.678-.639-3.385-1.209-3.657-.77m16.008 1.05c-.132 1.268-.12 2.468.03 2.841.062.156.124-.651.137-1.791.026-2.321-.01-2.55-.167-1.05m22.893-.711c0 .602-.863 1.02-2.149 1.04l-1.268.02.84.154c1.267.232 3.26-.733 2.691-1.302-.063-.063-.114-.023-.114.088m-27.443 1.937c.001.733.03 1.012.065.62a8.344 8.344 0 00-.001-1.333c-.036-.341-.064-.021-.064.713m-2.819.794c-.006 1.014.045 1.7.113 1.525.165-.42.185-3.194.024-3.293-.069-.042-.13.753-.137 1.768m13.96-.572c-.288 1.713-.919 2.861-1.837 3.348-.214.114-.348.249-.296.3.636.636 2.677-3.22 2.406-4.544-.037-.18-.16.224-.273.896m-56.448-.394c.642.129 1.429.229 1.75.222.699-.014-.456-.229-2-.372-.872-.081-.859-.074.25.15m33.375.588c-.288 2.12-.302 2.655-.037 1.417.138-.642.23-1.429.206-1.75-.037-.49-.064-.437-.169.333m30.051-.583c-.009.092-.165 1.179-.346 2.417-.181 1.237-.322 2.437-.314 2.666.008.23.195-.783.415-2.25.219-1.466.368-2.741.331-2.833-.046-.111-.075-.111-.086 0m-51.262.766c-.174 1.03.047 1.128 3.206 1.42 1.345.124 1.573-.073 1.527-1.322-.015-.405-.058-.323-.18.344-.185 1.018-.239 1.031-2.745.659-1.599-.236-1.632-.26-1.581-1.122.051-.861-.08-.849-.227.021m-9.331-.349c.184.078.634.139 1 .135.637-.008.645-.014.167-.135-.741-.189-1.606-.189-1.167 0m2.417.327c.321.085 1.108.192 1.75.237.915.065 1.005.054.417-.051-1.296-.233-2.846-.366-2.167-.186m20.879.506c0 .412.032.581.072.375.04-.206.04-.544 0-.75-.04-.206-.072-.038-.072.375m2.53.076c-.064.425-.075.814-.025.864.05.05.143-.257.207-.682.064-.426.075-.814.025-.864-.05-.05-.143.257-.207.682m16.764.702c-.023 1.382 3.029 5.062 4.19 5.054.121-.001-.162-.221-.629-.489-1.443-.827-2.602-2.285-3.254-4.093-.173-.478-.304-.679-.307-.472m15.346 0c-.01.107-.068.332-.127.5-.084.237-.061.263.099.115.114-.105.171-.33.127-.5-.043-.17-.088-.222-.099-.115m-34.512.587c-.004.155.068.328.16.385.606.374.13.614-1.042.526-.773-.058-1.028-.041-.708.047 1.568.432 2.331.116 1.852-.768-.17-.313-.258-.377-.262-.19m2.185.56c-.031.831.2 1.082.966 1.051l.592-.023-.667-.102c-.644-.098-.67-.126-.766-.851l-.1-.75-.025.675m39.138.088c-.101.373-.153.804-.117.958.036.153.121-.021.189-.388.205-1.103.186-1.085 1.05-1.003.634.06.695.046.298-.066-1.044-.295-1.223-.232-1.42.499m-16.524.276c.637.595 1.243.767 2.364.668.689-.06.672-.068-.22-.095-.943-.028-1.683-.289-2.376-.84-.189-.15-.084-.03.232.267m9.237-.171c-.113.243-.176.472-.138.509.1.1.459-.619.397-.797-.028-.084-.145.046-.259.288m10.374-.118c.056.092.179.167.271.167.286 0 .682.494.912 1.136.198.556.219.572.226.167.008-.463-.934-1.637-1.314-1.637-.109 0-.152.075-.095.167m-37.725.303a2.077 2.077 0 01-.198.708c-.12.225-.119.322.005.322.252 0 .371-.391.288-.944-.057-.385-.075-.401-.095-.086m43.231.269c.289.692.344 1.598.199 3.261l-.109 1.25.24-1.416c.133-.78.198-1.642.146-1.917-.174-.92-.45-1.75-.584-1.75-.072 0-.024.258.108.572m-16.5.692a13.67 13.67 0 01-.887 1.125l-.604.694.714-.666c.393-.367.823-.873.955-1.125.304-.579.194-.596-.178-.028m-29.09-.097c.138.089.55.154.917.144.642-.016.648-.022.167-.144-.779-.198-1.39-.198-1.084 0m11.847.281c-.007.201.062.412.153.469.092.056.167.248.167.426 0 .397-.207.404-2.403.073-.909-.137-1.683-.219-1.72-.182-.094.094.644.24 2.176.431.717.09 1.367.202 1.444.25.269.166.67-.121.662-.474-.011-.544-.461-1.475-.479-.993m24.695 1.47c-.285 1.827-.236 2.481.063.832.133-.733.22-1.521.193-1.75-.026-.229-.141.184-.256.918m4.624.925c-.343 2.797.037 3.441 2.103 3.571l1.148.072-1-.147c-2.181-.318-2.43-.721-2.079-3.37.119-.9.176-1.678.126-1.728-.05-.05-.184.671-.298 1.602m-9.211-1.03a5.302 5.302 0 00-.103 1.083c.016.444.04.411.169-.229.083-.413.129-.9.103-1.084-.033-.225-.088-.151-.169.23m-5.121.629c-.607.442-.566.456.208.068.252-.127.458-.293.458-.37 0-.186.005-.188-.666.302m-1.584.681c-.366.138-1.341.305-2.166.372l-1.5.121 1.173.026c1.152.024 3.006-.339 3.318-.651.212-.211-.004-.177-.825.132m-4.833.21c.183.079.521.141.75.139l.417-.005-.417-.134a3.204 3.204 0 00-.75-.138l-.333-.005.333.143m11.27.612c-.034.621.158.889.623.872l.44-.017-.416-.116c-.284-.079-.45-.272-.522-.608-.078-.364-.111-.398-.125-.131m4.441.668c-.09.416-.215.545-.579.6l-.465.07.438.025c.531.031.858-.322.779-.84-.051-.331-.075-.311-.173.145m9.635.387c.177 1.751.24 1.588-.596 1.544-.651-.034-.696-.017-.34.133 1.158.485 1.412.071 1.026-1.677l-.166-.75.076.75m-12.346 0c.183.079.596.141.917.138.53-.004.545-.017.166-.138-.604-.194-1.534-.194-1.083 0" fill="#73b384"/><path id="path4" d="M177.391 3.961c-.173.11 31.13.107 54.526-.004 4.95-.024-5.25-.06-22.667-.081-17.417-.021-31.753.018-31.859.085m64.026.155c2.464.559 4.552 2.179 5.439 4.217l.438 1c.101.23.189.315.195.191.088-1.78-3.609-5.267-5.761-5.434-.355-.027-.495-.016-.311.026m-64.418 11.293l-.082 8.826-.417.116c-.368.102-.375.118-.062.132.731.035.734-.009.688-9.169l-.044-8.731-.083 8.826m70.626 41.674c.022 26.034-.015 47.415-.084 47.514-.085.123-.522.137-1.374.045a76.043 76.043 0 00-2.417-.215l-1.167-.081 1 .161c2 .32 3.83.448 4.042.282.227-.178.297-92.784.071-94.289-.062-.413-.094 20.55-.071 46.583M150.808 22.22l-.558.377-.042 35.6c-.035 29.703-.005 35.615.182 35.686.123.048.667.126 1.209.175l.984.089-.916-.172c-.505-.095-1.011-.2-1.125-.235-.166-.05-.209-7.291-.209-35.478V22.846l.365-.34c.283-.263.589-.339 1.361-.339 1.154 0 1.183-.077.083-.221-.636-.084-.876-.034-1.334.274m3.609.107c.55.069 1.675.166 2.5.215 1.138.068 1.259.059.5-.04a44.022 44.022 0 00-2.5-.214c-1.119-.064-1.246-.053-.5.039m5.25.515c.412.073 1.125.128 1.583.122l.833-.011-.916-.127a13.925 13.925 0 00-1.584-.122l-.666.004.75.134m4.166.402c.963.129 2.163.228 2.667.221 1.117-.017-.25-.184-2.917-.358l-1.5-.097 1.75.234m4.417.424c.654.143 2.706.225 2.569.103-.038-.034-.782-.104-1.652-.155-1.101-.065-1.38-.049-.917.052m3.5.322c.458.076 1.621.18 2.583.229 1.392.072 1.511.063.584-.043-1.898-.219-4.154-.351-3.167-.186m3.726 9.653c-1.168 1.168-1.136 1.267 1.107 3.407 1.054 1.005 1.917 1.911 1.918 2.014 0 .102-.863 1.011-1.919 2.019-1.354 1.294-1.919 1.945-1.917 2.212.003.6 1.274 1.872 1.871 1.872.497 0 .506-.008 3.544-2.873 1.063-1.004.988-1.016 2.531.43 2.486 2.331 2.625 2.441 3.091 2.442.436.001 1.798-1.142 1.798-1.509 0-.082-.31.186-.688.597-1.039 1.127-1.21 1.072-3.562-1.156-1.458-1.381-2.068-1.859-2.25-1.763-.138.073-1.098.927-2.134 1.899-2.145 2.011-2.378 2.094-3.319 1.181-1.03-1.002-.915-1.308 1.259-3.357 1.023-.965 1.861-1.855 1.861-1.98 0-.124-.863-1.073-1.917-2.11-1.055-1.037-1.917-2.01-1.917-2.164 0-.364.769-1.269 1.41-1.66.279-.17.403-.31.275-.31s-.597.364-1.042.809m9.857-.685c-.137.053-.691.515-1.23 1.027a77.092 77.092 0 01-1.171 1.098c-1.044.913-1.889 1.75-1.765 1.75.085 0 .85-.659 1.702-1.464 2.956-2.796 3.099-2.83 4.344-1.04.171.245.284.312.279.166-.021-.636-1.59-1.753-2.159-1.537m31.945.09c.37.207 1.138.888 3.081 2.733 1.379 1.309 1.234 1.325 2.954-.331 2.878-2.77 2.917-2.789 3.855-1.802 1.098 1.154 1.086 1.189-1.14 3.352-2.315 2.249-2.301 1.987-.208 3.917 2.376 2.189 2.438 2.346 1.376 3.458-.828.867-1.181.818-2.412-.333-3.485-3.258-3.039-3.015-3.958-2.155-.41.383-1.327 1.24-2.036 1.905-1.614 1.511-2.25 1.537-3.12.129-.523-.846-.655-.638 2.02-3.2.686-.657 1.348-1.316 1.471-1.464.196-.236-.025-.508-1.805-2.221-2.281-2.195-2.299-2.242-1.301-3.283.397-.414.669-.753.604-.753-.064 0-.433.343-.819.762-.87.944-.822 1.332.299 2.387 2.307 2.172 2.861 2.735 2.862 2.909.001.106-.861 1.02-1.916 2.031-2.186 2.097-2.225 2.201-1.232 3.311 1.077 1.203 1.344 1.13 3.564-.983 2.404-2.288 2.061-2.281 4.373-.096 2.21 2.089 2.473 2.19 3.456 1.327.574-.504.873-1.139.776-1.648-.027-.138-.923-1.09-1.993-2.117l-1.944-1.868.666-.609c3.778-3.456 3.866-3.629 2.484-4.902-1.045-.963-1.162-.918-3.567 1.369-2.121 2.017-1.909 1.89-2.452 1.466-.256-.201-.973-.855-1.592-1.454-1.353-1.31-2.271-2.054-2.522-2.046-.102.003-.023.097.176.209m-39.234 1.059l2.007 1.888c.44.415.752.642.692.505-.116-.269-3.47-3.38-3.741-3.471-.09-.03.379.455 1.042 1.078m7.41 2.893c-1.079 1.054-1.96 1.984-1.958 2.067.002.082.906 1.02 2.007 2.083 1.102 1.063 2.002 1.868 2 1.788-.001-.079-.884-.99-1.961-2.024l-1.959-1.878 2-1.917c1.1-1.055 1.963-1.944 1.917-1.977-.046-.032-.966.804-2.046 1.858m12.879 22.689c-1.195.195-1.488.344-.416.211a66.094 66.094 0 012.5-.225l1.666-.123-1.416-.006c-.78-.004-1.829.06-2.334.143m7.167-.01a35.52 35.52 0 013.155.389c.773.143 1.435.231 1.47.195.195-.194-3.753-.765-5.105-.738-1.262.025-1.259.026.48.154m-9.667.496c-.179.122-.061.139.417.059.827-.138.96-.235.319-.231-.267.001-.598.079-.736.172m-1.75.413c-.887.293-.387.292.667-.001.46-.127.646-.228.417-.225-.229.003-.717.105-1.084.226m16.917.004c.412.13.862.232 1 .226.404-.016-.877-.459-1.333-.461-.286-.001-.181.073.333.235M192.667 61c-.223.144-.223.162 0 .162.137 0 .362-.073.5-.162.222-.144.222-.162 0-.162-.138 0-.363.073-.5.162m19.833 0c.137.089.362.162.5.162.222 0 .222-.018 0-.162a1.106 1.106 0 00-.5-.162c-.222 0-.222.018 0 .162m-21.721.536c-.533.181-.935.363-.892.406.042.043.629-.111 1.304-.341.674-.231 1.076-.414.892-.406-.183.007-.77.161-1.304.341m22.568-.301c.15.148 1.888.753 1.959.682.041-.042-.067-.126-.24-.188a27.843 27.843 0 01-.878-.337c-.541-.217-.985-.3-.841-.157m-25.18 1.246c-2.083.864-2.514 1.061-2.451 1.124.051.051 2.358-.843 3.701-1.435.84-.371-.277-.093-1.25.311m28.07-.057c.451.224.856.372.899.329.078-.078-1.398-.761-1.608-.744-.061.005.258.192.709.415m-16.945.532c.481.034 1.268.034 1.75 0 .481-.033.087-.061-.875-.061-.963 0-1.357.028-.875.061m4.708.051c.963.064 2.162.162 2.667.217.825.09.8.077-.25-.135-.642-.129-1.842-.227-2.667-.217l-1.5.018 1.75.117m13.593.071c.178.135.373.247.433.25.55.027 4.692 2.837 7.228 4.903l1.613 1.315-.061 1.215c-.034.669-.005 1.127.064 1.019.35-.551.138-2.311-.328-2.722-1.108-.976-3.754-2.986-5.209-3.958-1.979-1.321-4.904-2.902-3.74-2.022m-20.525.084c-.363.147-.609 2.349-.541 4.838.034 1.259.266-1.355.29-3.264l.016-1.347.792-.171c.618-.134.682-.175.292-.184-.275-.007-.657.051-.849.128m10.849.338c.183.079.521.143.75.143.379 0 .387-.012.083-.143a2.268 2.268 0 00-.75-.143c-.38 0-.387.012-.083.143m1.833.421c.367.133.779.236.917.23.351-.014-.843-.458-1.25-.464-.184-.003-.034.102.333.234m-26.5.805c-2.857 1.536-3.417 1.86-3.417 1.973 0 .065.544-.192 1.209-.57a151.77 151.77 0 012.541-1.405c.734-.395 1.259-.718 1.167-.717-.092.001-.767.324-1.5.719m8.167-.146c-.55.218-.888.402-.75.408.237.011 2.005-.607 2.152-.753.183-.18-.501-.012-1.402.345m1.667-.038c.05.206.005 2.325-.099 4.708-.311 7.074-.311 7.043-.077 4.833.301-2.84.488-9.916.262-9.916-.099 0-.136.165-.086.375m18.166-.217c.183.075 1.083.422 2 .77.917.349 2.529 1.07 3.583 1.603 1.054.533 1.767.85 1.584.705-.867-.687-6.653-3.255-7.267-3.225-.131.006-.087.071.1.147m-21.608.863c-.639.234-.637.216-.64 8.245-.002 8.561.148 7.9-1.795 7.9-1.838 0-1.707.541-1.71-7.053-.002-7.306.014-7.198-1.029-6.623-4.258 2.345-4.238 2.32-4.029 5.141l.144 1.952.047-2.296.046-2.296 1.12-.717c1.838-1.178 3.05-1.805 3.301-1.709.198.076.236 1.142.236 6.654 0 7.715-.164 7.114 1.946 7.114 2.052 0 1.888.708 1.888-8.126 0-7.946.009-8.041.752-8.041.125 0 .274-.075.331-.166.123-.2-.019-.195-.608.021m-10.725 2.066l-.5.419.625-.353c.343-.194.625-.383.625-.42 0-.168-.292-.03-.75.354m-1.826 1.097c-1.603 1.064-1.591 1.046-1.591 2.402 0 .947.07 1.291.331 1.623.366.466 1.502.726 1.502.345 0-.143-.151-.183-.458-.123-.763.149-1.09-.241-1.174-1.403-.11-1.515-.02-1.684 1.377-2.608.691-.456 1.255-.85 1.255-.875 0-.133-.349.046-1.242.639m43.076.25c1.298.855 2.709 1.849 3.333 2.348l1.184.959c.998.811 1.476.933 1.829.467.188-.248.186-.261-.013-.083-.426.38-.811.218-2.287-.963-1.521-1.217-5.077-3.663-5.322-3.661-.078 0 .496.42 1.276.933m-23.87 2.732c-.291 4.248-.295 4.49-.039 2.417.136-1.1.227-2.488.203-3.083-.039-.963-.058-.888-.164.666m-18.934 3.007c-.035 1.28.39 4.75.713 5.827.283.941 1.099 2.714 1.202 2.611.042-.043-.143-.516-.413-1.053-.717-1.428-1.213-4.09-1.422-7.642-.043-.715-.054-.679-.08.257m3.32 1.005c-.018.642.579 3.646.757 3.807.059.054.051-.165-.018-.485-.068-.321-.259-1.334-.423-2.25-.175-.973-.306-1.419-.316-1.072m15.084 1.876c-.071.626-.092 1.176-.045 1.223.116.116.327-1.66.243-2.047-.038-.173-.127.198-.198.824m-3.332-.138a60.35 60.35 0 01-.361 2.1c-.257 1.352-.302 2.29-.063 1.317.294-1.2.677-3.678.612-3.959-.037-.16-.122.084-.188.542m3.088 2.084c-.147 2.672-1.628 5.941-3.285 7.25-1.243.981-1.406 1.153-.761.803.796-.431 2.412-2.241 2.916-3.267.689-1.4 1.368-4.046 1.23-4.787l-.078-.416-.022.417m-14.014.343c-.047 1.414 2.126 4.723 3.643 5.549 2.526 1.375 6.416-.331 6.342-2.781-.008-.252-.48.572-.488.851-.016.562-.892 1.515-1.705 1.853-2.326.967-5.076-.004-6.211-2.192l-.473-.909c-.26-.496-.435-.905-.843-1.964-.141-.367-.261-.55-.265-.407m10.113 1.757c-.067.067-.12.278-.117.469.005.321.018.324.179.049.186-.32.138-.718-.062-.518m-12.215 2.025c.76 2.028 4.244 5.067 5.777 5.037.128-.003-.261-.215-.864-.473-2.088-.891-3.448-2.105-4.389-3.919-.469-.903-.751-1.25-.524-.645m10.426 4.631c-.504.217-.782.398-.618.403.302.007 1.618-.599 1.618-.746 0-.044-.018-.073-.041-.065-.023.008-.454.192-.959.408m-4.035.607c.388.154 2.572.161 2.811.009.106-.067-.548-.122-1.452-.122-.905 0-1.516.051-1.359.113m-32.756 5.756c.252.038.664.038.916 0s.046-.069-.458-.069-.71.031-.458.069m2.041.224c.367.075.929.133 1.25.128l.584-.01-.667-.138a7.034 7.034 0 00-1.25-.128l-.583.01.666.138m3 .331c.459.071 1.059.127 1.334.125l.5-.005-.5-.128c-.275-.07-.875-.126-1.334-.124l-.833.002.833.13m3 .321c5.62.682 6.391.756 6.233.598-.097-.097-4.747-.604-6.233-.68l-1.166-.06 1.166.142m7.417.85c3.886.482 7.142.771 4.75.422-2.316-.338-4.781-.606-5.333-.58-.275.013-.013.084.583.158m6.347.718c.038.034.67.105 1.403.156.979.069 1.156.055.667-.053-.665-.147-2.202-.223-2.07-.103m3.82.42c.504.071 1.516.175 2.25.23 1.098.082 1.172.074.416-.045a30.767 30.767 0 00-2.25-.229c-1.053-.067-1.141-.058-.416.044m4.5.525c.412.074.975.13 1.25.126l.5-.007-.5-.127c-.275-.07-.838-.127-1.25-.126l-.75.001.75.133m3.583.404c.917.13 1.967.229 2.333.221.846-.02-.669-.226-2.666-.364l-1.334-.092 1.667.235m3.667.431c.366.075.929.133 1.25.127l.583-.01-.5-.127c-.275-.07-.838-.127-1.25-.128h-.75l.667.138m3.75.401c.87.131 1.883.23 2.25.222.836-.019-.412-.198-2.5-.357l-1.334-.102 1.584.237m3.583.432c.367.076.967.133 1.333.127l.667-.012-.75-.133a8.658 8.658 0 00-1.333-.127l-.584.007.667.138m3.917.42c4.134.527 4.956.613 5.171.541.125-.042-.669-.172-1.764-.289a68.113 68.113 0 01-2.896-.364c-.498-.083-1.211-.142-1.584-.131-.372.011.11.12 1.073.243m6.5.746c.412.073 1.012.13 1.333.126l.583-.007-.666-.138a7.436 7.436 0 00-1.334-.126l-.666.011.75.134m2.014.22c.038.034.706.103 1.486.153 1.029.066 1.211.053.666-.05-.763-.143-2.279-.216-2.152-.103m3.902.441c.55.069 1.525.168 2.167.219l1.167.094-1.417-.229c-.779-.126-1.754-.224-2.167-.219-.691.01-.671.02.25.135m3.431.393c.038.035.669.105 1.403.156.817.057 1.14.04.833-.043-.502-.137-2.366-.231-2.236-.113m3.819.435c.505.063 1.517.162 2.25.219l1.334.105-1.417-.23c-.779-.126-1.792-.225-2.25-.22l-.833.01.916.116m4.5.511c.413.073.975.13 1.25.126l.5-.008-.5-.127c-.275-.07-.837-.127-1.25-.126l-.75.001.75.134m3.584.404c.916.129 1.966.228 2.333.22.845-.019-.669-.226-2.667-.364l-1.333-.092 1.667.236m3.666.43c.367.076.929.133 1.25.128l.584-.01-.5-.128c-.275-.07-.838-.127-1.25-.127l-.75-.001.666.138m3 .331c.459.072 1.059.128 1.334.125l.5-.005-.5-.127c-.275-.07-.875-.126-1.334-.125l-.833.003.833.129m2.292.279c.252.038.665.038.917 0s.046-.07-.459-.07c-.504 0-.71.032-.458.07m2.042.223c.366.076.966.133 1.333.127l.667-.011-.75-.134a8.786 8.786 0 00-1.334-.126l-.583.006.667.138m-75.903 8.724c-.106.127-.224.633-.262 1.124l-.071.893.201-.946c.26-1.223.135-1.169 2.03-.884.903.135 1.836.239 2.073.23.374-.014-.269-.127-3.174-.558-.406-.06-.669-.014-.797.141m4.819.591c.411.141 1.788.234 1.653.113-.038-.034-.519-.106-1.069-.158-.648-.063-.854-.047-.584.045m2.417.342c.734.187 1.666.187 1.083 0-.229-.073-.679-.132-1-.13l-.583.003.5.127m2.333.335c2.179.331 2.225.334 1.334.091-.459-.125-1.134-.225-1.5-.222-.639.004-.632.01.166.131m4.531.934c-.156.546-.323 2.152-.213 2.048.057-.055.16-.543.228-1.083l.124-.984.915.02a37.5 37.5 0 011.999.116c1.005.09 1.023.086.25-.055-2.075-.376-3.207-.397-3.303-.062m-14.669.876c-.071.492-.092.931-.047.975.122.123.306-1.021.236-1.473-.037-.242-.111-.049-.189.498m11.964.098c-.064.425-.075.814-.025.864.05.05.143-.257.207-.682.064-.426.075-.814.025-.864-.05-.05-.143.257-.207.682m7.258-.576c.229.073.679.132 1 .13l.583-.003-.5-.127c-.734-.187-1.666-.187-1.083 0m2.583.421c.458.127.946.226 1.083.221.401-.016-1.04-.45-1.5-.451-.241-.001-.065.096.417.23m1.417.309c0 .035.416.274.926.532 1.392.704 2.724 2.396 2.737 3.474.002.176.051.272.11.213.256-.256-.363-1.679-1.073-2.469-.81-.901-2.7-2.126-2.7-1.75m-18.951.312c-.217.286-.553 1.868-.533 2.512.015.497.439-1.398.471-2.101.007-.163.181-.365.388-.448.253-.102.287-.154.103-.161a.573.573 0 00-.429.198m1.201.125c.275.07.762.127 1.083.127l.583.001-.666-.138c-.898-.186-1.736-.178-1 .01m2.333.343c.367.075.854.133 1.083.127.662-.016-.431-.264-1.166-.265h-.584l.667.138m2.333.325c1.1.179 1.751.194 1.749.04 0-.069-.582-.136-1.291-.15-1.193-.024-1.228-.015-.458.11m20.808.089c-.054.141-.052.304.005.361.057.057.104-.017.104-.165 0-.2.2-.284.792-.331l.791-.062-.797-.03c-.584-.022-.823.038-.895.227m-31.267.743c-.272 2.019-.288 2.616-.034 1.333.136-.687.227-1.475.202-1.75-.031-.35-.081-.225-.168.417m33.071-.75c.089.089 3.378.566 4.638.673l.75.064-.75-.146c-2.194-.425-4.805-.758-4.638-.591m-18.835 2.721c-.215 1.496-.354 2.756-.31 2.8.044.044.168-.58.275-1.387.108-.807.273-1.843.368-2.301.095-.458.147-1.058.115-1.333-.032-.275-.234.724-.448 2.221m16.671-.555c-.117.825-.295 1.995-.395 2.6-.099.605-.144 1.205-.1 1.334.044.128.169-.442.277-1.267.108-.825.277-1.917.374-2.426.098-.509.151-1.109.118-1.333-.033-.224-.156.267-.274 1.092m7.802-1.266c.138.098.363.179.5.181 1.122.012 3.229 1.662 3.904 3.056.448.926.586.862.189-.089-.366-.876-1.699-2.121-2.831-2.646-1.083-.501-2.214-.823-1.762-.502m-20.065.447c-.056.145-.091.463-.079.708.018.371.039.348.125-.139l.104-.583 1.166.029c1.021.026 1.083.012.499-.115-1.061-.23-1.702-.195-1.815.1m3.156.383c1.876.852 1.638 4.298-.302 4.366-.204.007-.274.052-.155.1 1.008.404 2.014-1.181 1.896-2.988-.038-.582-1.215-1.793-1.738-1.788-.284.003-.211.078.299.31m-3.473 1.332c-.065.31-.109.76-.099 1 .012.289.069.182.168-.312.082-.413.127-.863.099-1-.028-.138-.103.003-.168.312m33.299-.146c-.304.131-.296.144.083.144.23 0 .567-.065.75-.144.304-.13.297-.143-.083-.143-.229 0-.567.065-.75.143m3.083 0c.612.196 1.373.196.917 0-.183-.078-.558-.141-.833-.138-.488.005-.49.008-.084.138m-49.083.42c.642.121 1.429.219 1.75.216.347-.003.076-.094-.667-.224-.687-.121-1.475-.218-1.75-.216-.275.001.025.102.667.224m44.295.25c-1.741.998-3.358 3.2-3.617 4.924-.072.478-.056.566.058.323.087-.183.163-.463.169-.62.052-1.278 2.19-3.873 3.845-4.669.504-.243.804-.445.667-.449-.138-.005-.642.216-1.122.491m6.599-.246c.309.133.646.24.75.237.33-.01-.628-.482-.977-.482-.23.001-.16.076.227.245m-29.105.41c0 .32.034.452.076.291.042-.16.042-.423 0-.583-.042-.16-.076-.029-.076.292m7.467-.011c-.095.177-.167.571-.16.875.015.624.078.511.235-.426l.108-.645 1.031.093c.655.059.879.043.613-.046-.796-.268-1.641-.199-1.827.149m-35.415.646c-.069.487-.086.926-.037.974.119.119.334-1.365.238-1.641-.042-.12-.133.18-.201.667m8.992-.646c.184.084.615.159.959.166l.625.011.03.959.031.958.062-.899c.075-1.083.038-1.124-1.123-1.25-.622-.068-.81-.05-.584.055m49.084-.097c0 .044.281.254.625.466 1.265.78 2.139 1.853 2.792 3.425.221.532.405.871.409.755.016-.487-.995-2.348-1.696-3.122-.642-.709-2.13-1.774-2.13-1.524m-19.79.346c2.753.983 2.013 4.479-.948 4.473-.723-.002-.893.034-.596.127 2.446.756 4.328-1.888 2.822-3.966-.315-.434-1.112-.873-1.572-.864-.197.004-.078.097.294.23m-10.612.992c-.137.728-.821 1.904-1.189 2.045-.133.052-.24.179-.236.284.004.105.304-.137.666-.538.621-.687 1.094-1.807.947-2.242-.036-.108-.12.095-.188.451m38.134-.269c-.199.133-.667 2.826-.516 2.977.051.051.14-.271.2-.715.256-1.919.324-2.122.754-2.242.334-.093.349-.117.08-.129-.184-.008-.416.041-.518.109m1.184.134c.092.038 1.442.249 3 .469 3.09.437 4.592.863 5.676 1.608 3.072 2.114 3.029 6.529-.08 8.005-.99.47-1.045.689-.296 1.18.303.199.772.668 1.042 1.043l.492.683v3c0 1.65.064 3.131.142 3.292.123.25.053.294-.5.313l-.642.022.583.113c.751.145.932-.017.686-.611-.131-.315-.18-1.413-.149-3.301l.046-2.828-.456-.702c-.251-.386-.682-.869-.958-1.073-.617-.456-.639-.738-.067-.881.667-.168 2.125-1.73 2.362-2.53.863-2.922-.614-5.501-3.84-6.703-1.09-.406-7.957-1.478-7.041-1.099m-48.397.426c-.027.614.243.774 1.482.873l1.082.087-1.165-.201c-1.098-.189-1.172-.229-1.272-.699-.103-.481-.108-.483-.127-.06m25.511.745c-.052 1.741-.735 3.073-1.916 3.741-.35.198-.599.397-.554.442.046.046.419-.148.83-.431 1.243-.856 1.852-2.205 1.736-3.852l-.065-.916-.031 1.016m-9.166.631c-.238 1.543-.13 1.784.781 1.741l.605-.028-.611-.064c-.751-.08-.842-.292-.624-1.472.095-.51.145-1.054.111-1.209-.033-.155-.151.309-.262 1.032m-35.251-.147c-.273 2.037-.284 2.713-.021 1.333.14-.733.232-1.558.205-1.833-.034-.341-.092-.181-.184.5m53.91-.563c-.74.218-.6.332.19.154a3.32 3.32 0 011.245.006c.788.183 1.029.183.708 0-.432-.247-1.56-.331-2.143-.16m-43.236.459c-.114.53-.151.556-.662.452-.586-.118-2.705-.296-2.292-.191 2.274.574 3.267.438 3.135-.428-.052-.341-.077-.318-.181.167m3.902-.295c-.012.147-.177 1.296-.366 2.553-.189 1.256-.318 2.411-.286 2.565.031.154.15-.394.265-1.219.114-.825.288-1.917.385-2.426.098-.509.143-1.109.101-1.333-.042-.225-.086-.287-.099-.14m-10.261.244c-.164.164-.253.522-.239.958.013.412.05.527.088.28.153-.971.252-1.189.603-1.33.268-.108.293-.152.09-.159-.154-.006-.398.107-.542.251m1.655.081c.367.076.817.137 1 .136l.333-.002-.333-.144c-.183-.078-.633-.14-1-.135l-.667.007.667.138m46.556.292c-.484.489-1.139 1.516-1.137 1.782.001.091.192-.171.424-.584.232-.412.662-.954.956-1.204.294-.249.459-.451.368-.448-.092.002-.367.207-.611.454m4.34-.021c.309.243.74.824.957 1.289.426.917.549.836.157-.103-.252-.604-1.2-1.635-1.5-1.631-.097.001.076.201.386.445m-25.889.688c-.068.487-.085.926-.037.974.119.119.335-1.365.238-1.641-.041-.12-.132.18-.201.667m-5.382.333c-.699.333-.686.723.038 1.219 1.233.844 1.479 1.669 1.377 4.627-.079 2.284-.071 2.409.066 1.019.344-3.48-.031-5.042-1.397-5.822-.614-.351-.577-.624.124-.917.321-.134.584-.285.584-.336 0-.131-.175-.084-.792.21m39.485 3.003c-.215 1.496-.354 2.756-.31 2.8.044.044.168-.58.275-1.387.108-.807.273-1.843.368-2.301.095-.458.147-1.058.115-1.333-.032-.275-.234.724-.448 2.221M166.621 126c-.064.229-.109.679-.1 1 .015.561.021.554.165-.167.168-.842.117-1.49-.065-.833m65.907-.188c-.207.132-.431 1.344-.605 3.271-.041.459.039.121.178-.75.428-2.685.254-2.508 2.232-2.275l.917.108-1-.239c-1.19-.284-1.429-.3-1.722-.115m-39.063 1.021c-.294 2.326-.303 2.627-.043 1.417.137-.642.229-1.429.204-1.75-.038-.484-.065-.428-.161.333m20.397.18c-.108.465-.189 1.084-.18 1.375.008.291.122-.064.252-.788.27-1.491.223-1.866-.072-.587m11.178.737c0 1.579.008 1.62.162.776a4.446 4.446 0 000-1.667c-.146-.698-.163-.61-.162.891m10.758-1.227c1.235.791 1.423 2.667.378 3.769-.196.206-.289.375-.208.375.631 0 1.292-1.812 1.018-2.794-.194-.7-1.103-1.709-1.533-1.704-.112.002.044.161.345.354m-54.534.029c-.201.148-.27.368-.22.706l.073.492.025-.524c.033-.705.278-.761 1.952-.45 2.432.451 2.918 1.144 2.601 3.706-.295 2.379-.181 3.685.322 3.685.071 0 .022-.207-.109-.459-.293-.562-.302-1.162-.045-3.237.299-2.416-.211-3.291-2.196-3.771-1.353-.327-2.095-.372-2.403-.148m39.789.781c0 .596.031.84.068.542a5.297 5.297 0 000-1.083c-.037-.298-.068-.055-.068.541m-58.796.136c-.068.487-.085.925-.037.974.119.118.335-1.365.238-1.641-.041-.12-.132.18-.201.667m47.367.031c-.272 2.02-.288 2.617-.034 1.333.136-.687.227-1.475.202-1.75-.031-.35-.081-.225-.168.417m-5.576.448c-.069.179.003.345.198.458.404.235 1.287 1.106 1.536 1.517.119.196.202.238.208.104.006-.122-.414-.636-.931-1.141-.729-.712-.889-.953-.709-1.067.174-.11.179-.148.02-.15-.118-.001-.262.124-.322.279m-37.436.229c.076.075.55.178 1.055.23 1.092.113.935.003-.305-.212-.488-.085-.826-.093-.75-.018m14.145.625c-.068.487-.085.926-.037.974.119.119.335-1.365.238-1.641-.041-.12-.132.18-.201.667m-11.799-.184c.207.039.544.039.75 0 .207-.04.038-.073-.375-.073-.412 0-.581.033-.375.073m1.542.207c.411.14 1.788.234 1.653.113-.038-.035-.52-.106-1.07-.159-.647-.062-.853-.046-.583.046m50.257.644c-.068.487-.085.925-.037.974.119.118.335-1.365.238-1.641-.041-.12-.132.18-.201.667m-58.803.156c-.095.837.074 1.221.525 1.189.229-.016.225-.031-.021-.096-.32-.083-.335-.144-.294-1.176.038-.954-.099-.9-.21.083m35.442-.591c-.149.241-.542 2.819-.643 4.216l-.072 1 .145-.833c.08-.459.258-1.613.397-2.566.147-1.013.343-1.79.472-1.872.152-.096.159-.141.023-.143-.109-.002-.254.088-.322.198m.937-.094c3.563.52 4.039 1.194 3.495 4.952-.335 2.317-.067 2.641 2.491 3.011 2.147.31 2.262.271 1.932-.655-.195-.548-.238-.59-.244-.24-.004.234.075.507.174.607.345.344-.129.372-1.946.113-2.389-.341-2.293-.193-2.153-3.335.16-3.61-.659-4.649-3.575-4.537-.416.016-.467.041-.174.084m-25.25.285l.832.194-.032.665c-.028.56-.01.6.109.249.315-.927-.115-1.361-1.309-1.317-.276.01-.131.086.4.209m3.341.744c-.069.487-.085.925-.037.974.119.118.334-1.365.238-1.641-.042-.12-.132.18-.201.667m36.988-.078c-.062.415-.079.853-.037.974.042.12.132-.18.201-.667.069-.487.085-.926.037-.974-.048-.048-.139.252-.201.667m-20.489.699c-.064.516-.08.976-.034 1.021.046.046.136-.339.201-.855.064-.516.079-.975.034-1.021-.046-.046-.136.339-.201.855m31.744.577c-.119.828-.182 1.54-.14 1.582.042.042.176-.599.298-1.424.123-.825.186-1.537.14-1.582-.045-.046-.18.595-.298 1.424m-44.154-.795c-.03 1.036-.422 2.795-.623 2.795-.258 0-2.669-.325-3.173-.428-.303-.061-.376-.21-.428-.865l-.062-.791-.03.862c-.034.98-.252.86 2.239 1.237.744.112 1.467.16 1.606.107.272-.105.75-2.7.577-3.137-.051-.129-.099-.03-.106.22m28.725 1.309c.09 3.119 2.222 6.027 4.929 6.722.229.058-.049-.115-.618-.385-2.539-1.205-3.945-3.348-4.222-6.435l-.135-1.5.046 1.598m22.637-1.348c.037.138.249.264.471.281.319.024.334.011.071-.061-.184-.05-.396-.177-.471-.281-.091-.125-.115-.104-.071.061m-25.802 1.838l-.01 1.912.159-1.21c.094-.724.098-1.492.01-1.912-.121-.568-.151-.339-.159 1.21m27.177-1.326c.431.17 2.207.193 2.307.03.042-.069-.535-.133-1.282-.143-.815-.011-1.225.034-1.025.113m-70.125.106c.206.04.544.04.75 0 .206-.04.037-.072-.375-.072-.413 0-.581.032-.375.072m10.529.466c-.067.634-.103.671-.737.768l-.667.101.705.024c.764.025.99-.291.838-1.168-.048-.276-.089-.195-.139.275m46.718.476c-.479 2.564-2.046 4.008-3.999 3.685-.464-.077-.559-.058-.373.074 1.67 1.179 4.991-2.04 4.64-4.498-.033-.227-.147.087-.268.739m-55.705-.726c.229.073.679.132 1 .13l.583-.003-.5-.127c-.734-.187-1.666-.187-1.083 0m3 .415c2.401.409 4.115.63 4.332.557.12-.04-.524-.168-1.432-.284a52.091 52.091 0 01-2.45-.366c-.44-.086-1.003-.147-1.25-.138-.248.01.112.114.8.231m59.689-.064c-.012.147-.177 1.296-.366 2.553s-.314 2.374-.277 2.482c.036.108.156-.441.266-1.22.111-.779.28-1.833.377-2.342.097-.509.141-1.109.099-1.333-.042-.225-.086-.287-.099-.14m-34.664.713c-.014.264-.115.967-.225 1.562-.223 1.211-.028 1.559.857 1.523.346-.014.309-.048-.199-.183-.699-.186-.729-.297-.446-1.616.098-.458.147-1.043.108-1.3l-.07-.467-.025.481m20.66.436c-.007.229.059.529.148.666.206.319.206-.024 0-.666l-.133-.417-.015.417m10.739 1.202c-1.085 3.356-4.468 5.379-8.033 4.804-.688-.111-1.287-.166-1.331-.123-.106.107 1.907.451 2.62.448 3.036-.014 6.018-2.242 6.98-5.218.114-.349.171-.671.128-.714-.044-.044-.207.318-.364.803m-34.168.173c.082.45.069.458-.795.477l-.878.02.9.149c1.071.178 1.122.145.878-.56-.153-.444-.173-.46-.105-.086m23.744-.229c0 .312 1.46 1.687 1.787 1.683.181-.002.076-.112-.267-.281-.31-.153-.779-.575-1.042-.938s-.478-.572-.478-.464m17.496.281c-.09.235-.154.704-.143 1.042.018.575.028.562.156-.2.194-1.16.275-1.204 1.754-.955 1.485.249 1.844.153.463-.124-1.552-.312-2.042-.259-2.23.237m-44.496.239c.229.074.641.134.916.134.486 0 .489-.004.084-.134a3.642 3.642 0 00-.917-.133c-.486 0-.488.004-.083.133m48.515.496l.696.662-.118 2.546c-.158 3.428.154 3.871 2.667 3.778.269-.01-.11-.125-.844-.256-1.826-.326-1.799-.271-1.66-3.322.126-2.759.021-3.241-.825-3.796-.685-.448-.656-.316.084.388m-38.753.08l-.111.592-1.201-.075c-1.071-.068-1.11-.06-.367.068 1.585.273 1.722.242 1.846-.418.061-.326.073-.629.027-.675-.045-.046-.133.183-.194.508m34.316 1.815c-.062.415-.079.854-.037.974s.133-.18.201-.667c.069-.487.086-.925.037-.974-.048-.048-.139.252-.201.667m-4.309 1.166c-.07.444-.089.846-.043.892.122.122.317-1.022.238-1.39-.037-.17-.124.054-.195.498m4.077.578c-.031 1.299-.357 2.07-.828 1.963-.239-.055-.847-.136-1.352-.181-.741-.066-.662-.033.415.173 1.224.234 1.348.232 1.532-.02.228-.311.467-1.934.334-2.266-.048-.121-.094.028-.101.331m-4.324.893c-.043.528.174.806.62.793l.441-.014-.448-.164c-.254-.093-.479-.322-.519-.528-.044-.226-.08-.259-.094-.087" fill="#94c4a4"/></g></svg>