<svg width="30" height="34" fill="none" xmlns="http://www.w3.org/2000/svg"><path fill-rule="evenodd" clip-rule="evenodd" d="M17.233.015c-.04.009-.074.03-.074.047s-.02.03-.044.03c-.025 0-.072.03-.105.067-.033.036-.08.066-.104.066a.044.044 0 00-.044.043c0 .024-.026.073-.058.11-.082.093-.14.201-.14.26 0 .027-.014.05-.031.05-.043 0-.066.808-.088 3.149-.015 1.47-.01 2.042.016 2.042.021 0 .036.067.036.165 0 .09.015.165.033.165.018 0 .033.03.033.066 0 .037.015.066.033.066.018 0 .033.024.033.052 0 .058.34.411.395.411.02 0 .035.015.035.033 0 .019.037.033.083.033.045 0 .082.015.082.034 0 .044.717.044.744 0 .012-.019.05-.034.085-.034s.064-.014.064-.033c0-.018.022-.033.05-.033.027 0 .067-.03.09-.066.023-.036.067-.066.1-.066.031 0 .058-.02.058-.045 0-.024.044-.09.099-.148.054-.057.099-.133.099-.168 0-.036.015-.074.033-.085.018-.011.033-.071.033-.132 0-.062.015-.121.033-.133.022-.013.033-.887.033-2.512 0-1.626-.011-2.5-.033-2.513-.018-.011-.033-.087-.033-.167 0-.081-.015-.147-.033-.147-.018 0-.033-.03-.033-.066 0-.037-.012-.066-.027-.066s-.049-.041-.075-.091c-.057-.11-.18-.24-.227-.24a.034.034 0 01-.035-.033c0-.018-.02-.033-.047-.033a.068.068 0 01-.06-.04c-.014-.042-.848-.073-1.009-.038zM10.58 2.308c0 .018-.045.033-.1.033-.054 0-.099.011-.099.025 0 .014-.044.044-.098.068-.12.053-.331.26-.331.324 0 .025-.015.046-.033.046-.019 0-.033.03-.033.066 0 .036-.015.066-.034.066-.018 0-.033.045-.033.1 0 .054-.014.098-.033.098-.02 0-.033.116-.033.282 0 .165.014.28.033.28.019 0 .033.045.033.1 0 .054.015.099.033.099.019 0 .034.03.034.066 0 .036.014.066.033.066.018 0 .033.022.033.05 0 .027.015.05.033.05.018 0 .033.016.033.036 0 .057 3.494 3.534 3.552 3.534.028 0 .051.015.051.033 0 .018.03.033.067.033.036 0 .066.015.066.033 0 .018.03.033.066.033.036 0 .066.015.066.033 0 .02.138.033.347.033.21 0 .347-.013.347-.033 0-.018.045-.033.1-.033.054 0 .099-.015.099-.033 0-.018.022-.033.049-.033.109 0 .48-.43.48-.557 0-.037.014-.076.033-.088.018-.011.033-.165.033-.349 0-.197-.013-.328-.033-.328-.018 0-.033-.02-.033-.043 0-.061-.078-.221-.108-.222-.013 0-.025-.022-.025-.05 0-.054-3.46-3.53-3.62-3.636-.161-.106-.252-.149-.316-.149-.033 0-.07-.015-.08-.033-.012-.018-.147-.033-.3-.033-.164 0-.28.014-.28.033zm13.638 0c-.011.018-.05.033-.085.033-.077 0-.191.06-.266.14-.03.032-.07.058-.091.058-.049 0-3.51 3.462-3.51 3.51 0 .02-.025.061-.057.09-.08.075-.14.19-.14.266 0 .036-.015.074-.034.085-.018.011-.032.145-.032.298 0 .152.014.286.032.297.019.012.034.057.034.102 0 .044.015.08.033.08.018 0 .033.03.033.066 0 .037.015.066.033.066.018 0 .033.016.033.035 0 .039.216.263.255.264a.36.36 0 01.108.065.318.318 0 00.157.066c.041 0 .075.015.075.033 0 .02.138.033.347.033.21 0 .347-.013.347-.033 0-.018.034-.033.075-.033.04 0 .111-.03.157-.066a.345.345 0 01.11-.065c.055-.002 3.593-3.564 3.593-3.617 0-.03.01-.054.024-.054.03 0 .108-.16.108-.221 0-.024.015-.043.033-.043.02 0 .033-.138.033-.347 0-.21-.013-.348-.033-.348-.018 0-.033-.019-.033-.043 0-.06-.078-.22-.108-.22-.013-.001-.024-.025-.024-.055 0-.064-.21-.261-.338-.318-.05-.023-.092-.052-.092-.066 0-.014-.045-.025-.1-.025-.054 0-.099-.015-.099-.033 0-.02-.115-.033-.279-.033-.153 0-.288.015-.3.033zM.843 6.573c-.011.018-.046.033-.078.033-.072 0-.235.074-.236.107 0 .014-.02.025-.043.025-.055 0-.288.212-.288.262 0 .021-.03.07-.066.11a.258.258 0 00-.066.147c0 .042-.015.076-.033.076-.02 0-.033.137-.033.345 0 .195.014.355.033.366.018.011.033.057.033.101 0 .045.015.081.033.081.018 0 .033.023.033.05 0 .11.432.479.56.479.035 0 .074.015.085.033.013.021.693.033 1.932.033h1.912l.022.108c.013.059.03.163.04.231.01.069.032.133.048.143.017.01.03.068.03.13 0 .061.015.12.033.132.018.011.033.07.033.132s.015.121.033.133c.018.01.033.063.033.115 0 .053.013.104.03.114.016.01.039.074.05.142.051.302.061.34.09.34.015 0 .029.059.029.132 0 .072.014.132.033.132.018 0 .033.06.033.132 0 .073.015.132.033.132.018 0 .033.06.033.133 0 .072.015.132.033.132.018 0 .033.052.033.116 0 .063.015.115.033.115.018 0 .033.06.033.133 0 .072.015.132.033.132.018 0 .033.05.033.114 0 .062.015.122.033.134.018.011.033.064.033.117 0 .054.015.098.033.098.019 0 .033.06.033.132 0 .073.015.132.033.132.019 0 .034.06.034.132 0 .073.014.133.033.133.018 0 .033.052.033.115 0 .064.015.116.033.116.018 0 .033.06.033.132 0 .073.015.133.033.133.018 0 .033.05.033.113s.015.123.033.135c.018.01.033.064.033.117 0 .054.013.097.03.097.016 0 .037.064.046.14.016.132.084.45.155.72.066.252.105.418.122.52.01.06.031.108.047.108.017 0 .03.051.03.114s.015.123.033.134c.018.011.033.072.033.134 0 .063.015.114.033.114.018 0 .033.06.033.132 0 .073.015.133.033.133.018 0 .033.06.033.132 0 .073.015.132.033.132.018 0 .033.051.033.114 0 .062.015.123.033.134.019.011.033.063.033.116 0 .052.015.104.034.116.018.01.033.071.033.134 0 .062.014.113.033.113.018 0 .033.053.033.116 0 .064.015.116.033.116.018 0 .033.06.033.132 0 .073.015.132.033.132.018 0 .033.06.033.133 0 .072.015.132.033.132.018 0 .033.06.033.132 0 .073.015.132.033.132.018 0 .033.052.033.116s.015.116.033.116c.018 0 .033.052.033.115 0 .064.015.116.033.116.019 0 .033.052.033.116s.015.116.033.116c.019 0 .034.06.034.132 0 .073.014.132.033.132.018 0 .033.06.033.132 0 .073.015.133.033.133.018 0 .033.048.034.107 0 .06.016.167.035.24.075.287.102.401.119.504.01.06.03.107.047.107.016 0 .03.06.03.133 0 .073.014.132.032.132.018 0 .033.06.033.132 0 .073.015.133.033.133.019 0 .033.05.033.113s.015.123.034.134c.018.012.033.072.033.135 0 .062.014.113.033.113.018 0 .033.052.033.114 0 .063.015.123.033.134.018.012.033.064.033.116 0 .053.015.105.033.116.018.011.033.072.033.134 0 .063.015.114.033.114.018 0 .033.06.033.132 0 .073.015.132.033.132.018 0 .033.051.033.114s.015.123.033.134c.018.011.033.072.033.134 0 .063.015.114.033.114.019 0 .033.06.033.132 0 .073.015.133.034.133.018 0 .033.05.033.113s.014.123.033.135c.018.01.033.064.033.117 0 .054.015.098.033.098.018 0 .033.06.033.132 0 .072.015.132.033.132.018 0 .033.051.033.114 0 .062.015.123.033.134.018.011.033.072.033.134 0 .063.015.114.033.114.018 0 .033.06.033.132 0 .073.015.133.033.133.018 0 .033.051.033.115 0 .317.335.976.496.976.02 0 .068.03.107.066.04.036.09.066.114.066.024 0 .044.015.044.033 0 .022 2.755.033 8.2.033 5.443 0 8.198-.011 8.198-.033 0-.018.03-.033.067-.033.036 0 .066-.013.066-.028 0-.015.04-.048.09-.074.256-.132.486-.53.524-.902.013-.12.036-.22.052-.22.015 0 .028-.06.028-.132 0-.072.015-.132.033-.132.018 0 .033-.052.033-.116 0-.063.015-.115.033-.115.018 0 .033-.052.033-.114 0-.063.015-.123.033-.134.018-.012.033-.064.033-.116 0-.053.015-.105.034-.116.018-.011.032-.072.032-.134 0-.063.015-.114.034-.114.018 0 .033-.06.033-.132 0-.073.014-.132.033-.132.018 0 .033-.06.033-.133 0-.072.015-.132.033-.132.018 0 .033-.052.033-.115 0-.064.015-.116.033-.116.018 0 .033-.06.033-.133 0-.072.015-.132.033-.132.018 0 .033-.043.033-.097 0-.053.015-.106.033-.118.018-.01.033-.071.033-.134 0-.063.015-.114.033-.114.018 0 .033-.06.033-.132 0-.073.015-.132.033-.132.019 0 .034-.06.034-.132 0-.073.014-.133.033-.133.018 0 .033-.052.033-.115 0-.064.014-.116.033-.116.018 0 .033-.06.033-.132 0-.073.015-.133.033-.133.018 0 .033-.05.033-.113s.013-.122.03-.132c.015-.01.037-.067.046-.126.03-.179.06-.303.09-.372a2.08 2.08 0 00.088-.364.417.417 0 01.044-.132 1 1 0 00.05-.257c.013-.123.037-.232.053-.242.015-.01.029-.062.029-.115 0-.053.015-.097.033-.097.018 0 .033-.06.033-.132 0-.073.015-.133.033-.133.018 0 .033-.052.033-.115 0-.064.015-.116.033-.116.018 0 .033-.06.033-.132 0-.073.015-.133.033-.133.018 0 .033-.06.033-.132 0-.073.015-.132.033-.132.018 0 .033-.06.033-.132 0-.073.015-.133.033-.133.018 0 .033-.043.033-.097 0-.053.015-.106.034-.117.018-.012.033-.072.033-.135 0-.062.014-.114.033-.114.018 0 .033-.05.033-.113s.015-.123.033-.134c.018-.012.033-.072.033-.135 0-.062.015-.113.033-.113.018 0 .033-.06.033-.133 0-.072.015-.132.033-.132.018 0 .033-.06.033-.132 0-.073.015-.132.033-.132.018 0 .033-.052.033-.114 0-.063.015-.123.033-.134.018-.012.033-.064.033-.116 0-.052.015-.104.033-.116.019-.011.033-.063.033-.115 0-.053.015-.105.034-.116.018-.011.033-.071.033-.133 0-.061.014-.12.033-.132.018-.011.033-.07.033-.132 0-.061.015-.121.033-.132.018-.011.033-.072.033-.134 0-.063.015-.114.033-.114.018 0 .033-.051.033-.114s.014-.122.03-.133c.017-.01.041-.115.054-.233.012-.118.036-.214.052-.214s.03-.06.03-.133c0-.072.014-.132.032-.132.018 0 .033-.06.033-.132 0-.073.015-.132.033-.132.019 0 .034-.052.034-.114 0-.063.014-.123.033-.134.018-.012.033-.072.033-.135 0-.062.014-.113.033-.113.018 0 .033-.052.033-.114 0-.063.015-.123.033-.134.018-.012.033-.064.033-.116 0-.053.015-.104.033-.116.044-.027.044-.744 0-.744-.018 0-.033-.041-.033-.092a.18.18 0 00-.066-.14c-.037-.025-.066-.066-.066-.09 0-.063-.2-.253-.324-.308-.058-.026-.106-.058-.106-.072 0-.014-.037-.025-.083-.025-.045 0-.082-.015-.082-.033 0-.022-3.626-.033-10.812-.033-10.789 0-10.811 0-10.811-.066 0-.037-.013-.066-.03-.066-.015 0-.039-.1-.052-.224a.997.997 0 00-.05-.256.415.415 0 01-.044-.132 5.291 5.291 0 00-.056-.248 3.861 3.861 0 01-.055-.257c-.01-.059-.031-.115-.047-.125-.016-.01-.03-.062-.03-.114 0-.052-.015-.104-.033-.116-.018-.01-.033-.071-.033-.134 0-.062-.015-.114-.033-.114-.018 0-.033-.06-.033-.132 0-.073-.015-.132-.033-.132-.018 0-.033-.06-.033-.132 0-.073-.015-.133-.033-.133-.018 0-.033-.05-.033-.113s-.015-.123-.033-.135c-.018-.01-.033-.071-.033-.134 0-.062-.015-.114-.033-.114-.019 0-.033-.05-.033-.113s-.015-.123-.034-.135c-.018-.01-.033-.064-.033-.117 0-.054-.014-.097-.033-.097-.018 0-.033-.045-.033-.1 0-.054-.015-.099-.033-.099-.018 0-.033-.03-.033-.066 0-.036-.015-.066-.033-.066-.018 0-.033-.023-.033-.05 0-.066-.28-.347-.346-.347-.028 0-.05-.01-.05-.025-.001-.04-.17-.107-.27-.107-.05 0-.1-.015-.11-.033-.014-.022-.855-.033-2.414-.033-1.56 0-2.4.011-2.414.033zm26.466 6.544c0 .017-.015.04-.033.052-.018.011-.033.071-.033.134 0 .063-.015.114-.033.114-.018 0-.033.05-.033.114 0 .062-.015.122-.033.134-.018.01-.033.071-.033.134 0 .063-.015.114-.033.114-.018 0-.033.06-.033.132 0 .073-.015.132-.033.132-.019 0-.034.06-.034.132 0 .073-.014.133-.033.133-.018 0-.033.05-.033.113s-.014.123-.033.135c-.018.01-.033.063-.033.115 0 .053-.013.104-.03.114-.015.01-.036.066-.046.126-.01.059-.041.212-.07.339-.03.127-.063.295-.074.373-.01.077-.033.149-.049.159-.015.01-.028.069-.028.131 0 .063-.015.114-.033.114-.018 0-.033.052-.033.116 0 .063-.015.115-.034.115-.018 0-.033.052-.033.116s-.014.116-.033.116c-.018 0-.033.06-.033.132 0 .073-.015.132-.033.132-.018 0-.033.06-.033.132 0 .073-.015.133-.033.133-.018 0-.033.052-.033.115 0 .064-.015.116-.033.116-.018 0-.033.06-.033.132 0 .073-.015.133-.033.133-.018 0-.033.05-.033.113s-.015.123-.033.135c-.018.01-.033.063-.033.115 0 .053-.015.105-.033.116-.018.011-.033.072-.033.134 0 .063-.015.114-.034.114-.018 0-.033.06-.033.132 0 .073-.014.133-.033.133-.018 0-.033.05-.033.113s-.015.123-.033.134c-.018.012-.033.072-.033.135 0 .062-.015.113-.033.113-.018 0-.033.06-.033.133 0 .072-.013.132-.03.132-.027 0-.037.037-.088.34-.012.067-.035.132-.05.142-.017.01-.03.068-.03.13 0 .061-.014.12-.03.13-.016.01-.037.066-.047.125-.01.06-.034.175-.055.257-.02.082-.052.23-.07.33-.018.1-.047.208-.064.24a.398.398 0 00-.032.157c0 .055-.015.1-.033.1-.018 0-.033.05-.033.113s-.015.123-.033.134c-.018.012-.033.072-.033.135 0 .062-.015.113-.033.113-.018 0-.033.06-.033.133 0 .072-.015.132-.033.132-.018 0-.033.06-.033.132 0 .073-.015.133-.033.133-.019 0-.033.05-.033.113s-.015.123-.034.135c-.018.01-.033.064-.033.117 0 .054-.014.097-.033.097-.018 0-.033.052-.033.114 0 .063-.015.123-.033.134-.018.012-.033.072-.033.135 0 .062-.015.113-.033.113-.018 0-.033.045-.033.1v.099h-13.82v-.1c0-.054-.015-.099-.033-.099-.018 0-.033-.06-.033-.132 0-.073-.015-.132-.033-.132-.018 0-.033-.052-.033-.116s-.015-.116-.033-.116c-.018 0-.033-.06-.033-.132 0-.073-.015-.132-.033-.132-.018 0-.033-.06-.033-.132 0-.073-.015-.133-.033-.133-.019 0-.033-.052-.033-.115 0-.064-.015-.116-.034-.116-.018 0-.033-.052-.033-.116 0-.063-.014-.116-.033-.116-.018 0-.033-.059-.033-.132 0-.073-.015-.132-.033-.132-.018 0-.033-.052-.033-.116 0-.063-.015-.115-.033-.115-.018 0-.033-.06-.033-.133 0-.072-.013-.132-.028-.132-.016 0-.038-.09-.05-.2a1.036 1.036 0 00-.054-.262.368.368 0 01-.033-.145c0-.046-.015-.093-.033-.104-.018-.011-.033-.07-.033-.132 0-.061-.015-.121-.033-.132-.019-.011-.033-.072-.033-.134 0-.063-.015-.114-.034-.114-.018 0-.033-.06-.033-.133 0-.072-.014-.132-.033-.132-.018 0-.033-.05-.033-.113s-.015-.123-.033-.135c-.018-.01-.033-.063-.033-.115 0-.053-.015-.105-.033-.116-.018-.011-.033-.072-.033-.134 0-.063-.015-.114-.033-.114-.018 0-.033-.052-.033-.116 0-.063-.015-.116-.033-.116-.018 0-.033-.059-.033-.132 0-.072-.015-.132-.033-.132-.018 0-.033-.06-.033-.132 0-.073-.015-.133-.033-.133-.019 0-.033-.059-.033-.132 0-.072-.015-.132-.034-.132-.018 0-.033-.051-.033-.114 0-.062-.014-.123-.033-.134-.018-.011-.033-.063-.033-.116 0-.052-.015-.104-.033-.115-.018-.012-.033-.065-.033-.118 0-.054-.015-.097-.033-.097-.018 0-.033-.06-.033-.133 0-.072-.015-.132-.033-.132-.018 0-.033-.06-.033-.132 0-.073-.015-.132-.033-.132-.018 0-.033-.06-.033-.133 0-.072-.015-.132-.033-.132-.018 0-.033-.05-.033-.114 0-.062-.015-.123-.033-.134-.019-.011-.033-.071-.033-.134 0-.063-.014-.114-.03-.114-.018 0-.042-.097-.054-.215-.013-.118-.037-.223-.053-.233-.016-.01-.029-.069-.029-.13 0-.062-.015-.121-.033-.133-.018-.01-.033-.07-.033-.132 0-.061-.015-.12-.033-.132-.018-.011-.033-.063-.033-.116 0-.052-.015-.104-.033-.116-.018-.01-.033-.07-.033-.132 0-.061-.015-.12-.033-.132-.018-.011-.033-.063-.033-.116 0-.052-.015-.104-.033-.115-.019-.012-.033-.072-.033-.135 0-.062-.015-.113-.033-.113-.019 0-.034-.06-.034-.133 0-.072-.014-.132-.033-.132-.018 0-.033-.051-.033-.114 0-.062-.015-.123-.033-.134-.018-.011-.033-.072-.033-.134 0-.063-.015-.114-.033-.114a.033.033 0 01-.033-.033c0-.022 3.23-.033 9.621-.033 5.99 0 9.621.012 9.621.031zm-13.357 1.721c0 .019-.02.033-.043.033-.06 0-.22.078-.221.108 0 .014-.02.025-.044.025-.046 0-.22.168-.22.213 0 .015-.027.05-.06.08a.662.662 0 00-.14.36c0 .039-.014.08-.032.09-.018.012-.033.094-.033.182 0 .09.014.171.033.182.018.011.033.153.033.314 0 .162.015.303.033.314.018.012.033.153.033.314 0 .162.015.303.033.315.018.01.033.152.033.314 0 .161.015.303.033.314.018.011.033.153.033.316 0 .175.014.295.033.295.02 0 .033.133.033.331s.013.33.033.33c.02 0 .033.127.033.315 0 .187.014.314.033.314.02 0 .034.12.034.295 0 .163.014.305.033.317.018.01.033.13.033.266 0 .142.014.246.033.246.018 0 .033.03.033.066 0 .132.43.628.543.628.028 0 .052.015.052.033 0 .018.052.033.116.033.063 0 .115.015.115.033 0 .02.1.034.232.034s.231-.015.231-.034c0-.018.052-.033.116-.033.063 0 .116-.014.116-.033 0-.018.027-.033.062-.033.054 0 .136-.071.402-.348.036-.037.065-.085.065-.108 0-.022.014-.04.033-.04.018 0 .033-.044.033-.099 0-.054.015-.099.033-.099.02 0 .033-.154.033-.397 0-.242-.013-.396-.033-.396-.02 0-.033-.127-.033-.315 0-.187-.014-.314-.033-.314-.02 0-.033-.126-.033-.314 0-.187-.014-.314-.034-.314-.02 0-.032-.121-.032-.297 0-.177-.014-.298-.034-.298-.019 0-.034-.12-.036-.29-.003-.28-.03-.63-.096-1.247a225.883 225.883 0 01-.118-1.116c-.011-.105-.034-.19-.05-.19-.017 0-.03-.03-.03-.066 0-.037-.015-.067-.033-.067-.018 0-.033-.022-.033-.05 0-.027-.082-.132-.181-.231-.1-.1-.204-.181-.232-.181-.028 0-.05-.015-.05-.034 0-.018-.03-.033-.066-.033-.037 0-.066-.014-.066-.033 0-.02-.15-.033-.38-.033-.232 0-.38.013-.38.033zm6.712 0c0 .019-.03.033-.066.033-.037 0-.067.015-.067.034 0 .018-.022.033-.05.033-.065 0-.412.347-.412.412 0 .028-.015.05-.034.05-.018 0-.032.03-.032.065s-.015.073-.034.084c-.018.011-.033.1-.033.199 0 .098-.014.187-.033.198-.018.011-.033.138-.033.28 0 .144-.013.297-.03.34-.017.044-.041.335-.054.647-.013.313-.037.568-.053.568-.015 0-.028.134-.028.297 0 .177-.014.298-.033.298-.02 0-.033.127-.033.314 0 .188-.014.314-.033.314-.02 0-.033.132-.033.33 0 .2-.014.331-.033.331-.02 0-.034.122-.034.298s-.013.297-.032.297c-.02 0-.034.15-.034.38 0 .232.013.381.034.381.018 0 .032.03.032.066 0 .085.057.183.182.316.055.057.122.136.148.175.027.04.068.071.091.071.023 0 .042.015.042.033 0 .018.03.033.064.033.036 0 .074.015.085.033.011.018.064.033.118.033.053 0 .097.015.097.033 0 .02.099.034.23.034.126 0 .238-.015.25-.034.01-.018.064-.033.117-.033.054 0 .097-.014.097-.033 0-.018.027-.033.06-.033.032 0 .08-.03.106-.066.026-.036.074-.066.106-.066s.059-.021.059-.047.045-.089.1-.14c.054-.052.098-.112.098-.135 0-.023.015-.042.033-.042.019 0 .034-.044.034-.099 0-.054.014-.099.032-.099.02 0 .034-.1.034-.232s.014-.23.033-.23c.02 0 .033-.133.033-.332 0-.198.013-.33.033-.33.02 0 .033-.115.033-.28 0-.153.015-.288.033-.299.018-.011.033-.16.033-.332 0-.186.013-.312.033-.312.02 0 .033-.127.033-.314 0-.188.013-.315.033-.315.02 0 .033-.12.033-.295 0-.163.015-.305.033-.316.018-.012.033-.153.033-.314 0-.162.015-.303.033-.314.019-.012.034-.16.034-.333 0-.186.013-.312.032-.312.02 0 .034-.094.034-.215s-.015-.215-.034-.215c-.018 0-.033-.06-.033-.132 0-.073-.014-.132-.033-.132-.018 0-.033-.027-.033-.06 0-.032-.03-.08-.066-.106-.036-.026-.066-.067-.066-.091 0-.053-.148-.206-.198-.206-.02 0-.068-.03-.107-.066a.258.258 0 00-.147-.067c-.043 0-.077-.014-.077-.033 0-.02-.149-.033-.38-.033-.232 0-.38.013-.38.033zM11.62 26.41c-.011.018-.086.033-.167.033-.08 0-.147.015-.147.033 0 .018-.06.033-.132.033-.073 0-.132.015-.132.033 0 .018-.03.033-.066.033-.037 0-.067.015-.067.033 0 .019-.034.034-.076.034a.258.258 0 00-.147.066c-.04.036-.094.066-.122.066-.028 0-.051.015-.051.033 0 .018-.02.033-.045.033a.534.534 0 00-.296.169c-.021.034-.057.062-.08.062-.048 0-.604.551-.604.6 0 .02-.045.077-.1.128-.054.05-.099.116-.099.145 0 .03-.014.053-.033.053-.018 0-.033.03-.033.066 0 .037-.015.066-.033.066-.018 0-.033.029-.033.064 0 .034-.011.068-.025.074-.04.018-.173.293-.173.36 0 .033-.015.07-.033.08-.018.012-.033.072-.033.133 0 .062-.013.12-.029.13-.071.044-.11.897-.059 1.275.044.323.156.687.275.893a.91.91 0 01.066.14c.01.032.032.058.048.058s.03.03.03.066c0 .037.014.066.032.066.019 0 .033.03.033.067 0 .036.013.066.028.066.015 0 .048.04.074.09.026.05.103.146.171.213a.75.75 0 01.124.14c0 .032.112.152.141.152.015 0 .064.033.108.074.204.188.246.223.264.223.01 0 .05.03.09.067.039.036.09.066.114.066.024 0 .044.015.044.033 0 .018.03.033.066.033.036 0 .066.015.066.033 0 .018.03.033.066.033.036 0 .066.015.066.033 0 .018.03.033.066.033.037 0 .066.011.066.025 0 .03.237.107.328.107.035 0 .07.019.077.042.01.031.224.041.918.041.693 0 .907-.01.917-.041.008-.023.057-.042.11-.042s.097-.015.097-.033c0-.018.044-.033.1-.033.054 0 .098-.015.098-.033 0-.018.03-.033.066-.033.037 0 .066-.015.066-.033 0-.018.03-.033.067-.033.036 0 .066-.013.066-.03 0-.015.026-.037.058-.047a.981.981 0 00.31-.196c.029-.032.063-.058.075-.058.05 0 .648-.574.648-.621 0-.017.044-.077.099-.134.054-.057.1-.126.1-.154 0-.027.014-.05.032-.05.018 0 .033-.03.033-.066 0-.036.015-.066.033-.066.019 0 .033-.03.033-.066 0-.036.015-.066.034-.066.018 0 .033-.03.033-.066 0-.037.014-.066.033-.066.018 0 .033-.03.033-.066 0-.037.014-.067.033-.067.018 0 .033-.036.033-.08 0-.045.015-.09.033-.101.018-.011.033-.071.033-.133 0-.061.013-.12.029-.129.075-.046.103-.878.043-1.26-.068-.428-.08-.48-.109-.497-.016-.01-.03-.055-.03-.1 0-.044-.014-.08-.032-.08-.018 0-.033-.027-.033-.06 0-.073-.074-.237-.108-.237-.013 0-.025-.03-.025-.067 0-.036-.014-.066-.033-.066-.018 0-.033-.02-.033-.043 0-.024-.03-.075-.066-.114-.036-.04-.066-.088-.066-.11 0-.02-.045-.078-.1-.13-.054-.05-.098-.107-.098-.125 0-.041-.415-.47-.456-.47-.016 0-.058-.031-.093-.07-.083-.092-.296-.227-.36-.227-.027 0-.05-.015-.05-.033 0-.018-.03-.033-.066-.033-.037 0-.066-.015-.066-.033 0-.018-.03-.033-.067-.033-.036 0-.066-.015-.066-.034 0-.018-.03-.032-.066-.032-.036 0-.066-.015-.066-.034 0-.018-.036-.033-.08-.033-.045 0-.09-.014-.102-.033-.01-.018-.064-.033-.117-.033-.054 0-.098-.015-.098-.033 0-.018-.066-.033-.146-.033-.081 0-.157-.015-.168-.033-.012-.02-.23-.033-.545-.033-.315 0-.534.013-.546.033zm11.043 0c-.011.018-.087.033-.167.033-.081 0-.147.015-.147.033 0 .018-.045.033-.1.033-.054 0-.099.015-.099.033 0 .018-.044.033-.099.033-.054 0-.099.015-.099.033 0 .019-.03.034-.066.034-.036 0-.066.014-.066.032 0 .019-.03.034-.066.034-.037 0-.066.015-.066.033 0 .018-.03.033-.067.033-.036 0-.066.015-.066.033 0 .018-.022.033-.05.033-.07 0-.287.143-.345.228-.027.038-.066.07-.087.07-.047 0-.41.345-.41.39 0 .017-.06.093-.133.168-.072.074-.132.158-.132.185 0 .028-.015.05-.033.05-.018 0-.033.03-.033.066 0 .036-.014.066-.03.066-.018 0-.041.03-.053.066a.349.349 0 01-.06.109.459.459 0 00-.121.253c0 .035-.015.073-.034.085-.018.01-.032.055-.032.099 0 .043-.015.088-.034.099-.018.011-.033.07-.033.132s-.012.12-.028.13c-.025.015-.075.477-.077.713-.003.23.095.916.138.976.013.018.044.103.069.19.025.086.057.157.07.157.015 0 .027.03.027.066 0 .036.015.066.033.066.018 0 .033.03.033.066 0 .037.015.066.033.066.018 0 .033.03.033.066 0 .037.015.066.033.066.018 0 .033.02.033.045 0 .025.045.092.1.149.054.057.098.117.098.135 0 .053.598.63.653.63.015 0 .049.03.075.066.026.037.074.067.106.067.033 0 .06.014.06.033 0 .018.021.033.049.033.027 0 .05.015.05.033 0 .018.022.033.049.033.027 0 .05.015.05.033 0 .018.03.033.066.033.036 0 .066.015.066.033 0 .018.03.033.066.033.036 0 .066.015.066.033 0 .018.045.033.1.033.054 0 .098.015.098.033 0 .018.044.033.097.033.053 0 .102.019.11.042.01.031.222.041.91.041.673 0 .907-.01.938-.041.023-.023.082-.042.132-.042s.1-.015.111-.033c.011-.018.05-.033.085-.033s.064-.015.064-.033c0-.018.03-.033.066-.033.036 0 .066-.015.066-.033 0-.018.03-.033.066-.033.037 0 .066-.015.066-.033 0-.018.03-.033.067-.033.036 0 .066-.011.066-.025 0-.014.041-.044.092-.066.051-.023.146-.09.212-.149.065-.059.152-.13.193-.157.137-.092.263-.204.263-.234 0-.017.075-.106.165-.199.091-.093.166-.19.166-.215 0-.025.015-.046.033-.046.018 0 .033-.029.033-.064 0-.034.011-.068.025-.074.03-.014.138-.19.163-.267.01-.032.031-.058.047-.058s.03-.03.03-.067c0-.036.014-.096.032-.132l.067-.131a.376.376 0 00.033-.142c0-.043.013-.091.03-.108.068-.073.13-1.135.073-1.252a.86.86 0 01-.05-.218c-.03-.265-.06-.397-.09-.397-.016 0-.03-.036-.03-.08 0-.045-.014-.09-.033-.102-.018-.01-.033-.046-.033-.078s-.03-.09-.066-.129c-.036-.039-.066-.094-.066-.122 0-.028-.015-.05-.033-.05-.018 0-.033-.03-.033-.067 0-.036-.015-.066-.033-.066-.018 0-.033-.023-.033-.05 0-.027-.045-.096-.1-.154a.445.445 0 01-.099-.132c0-.038-.518-.554-.641-.64-.203-.14-.27-.176-.326-.179-.031-.001-.057-.017-.057-.035 0-.018-.02-.033-.044-.033-.024 0-.075-.03-.114-.066a.247.247 0 00-.137-.066c-.036 0-.074-.015-.086-.034-.01-.018-.049-.033-.084-.033-.036 0-.064-.014-.064-.033 0-.018-.06-.033-.133-.033-.072 0-.132-.015-.132-.033 0-.018-.067-.033-.149-.033-.082 0-.149-.015-.149-.033 0-.02-.203-.033-.543-.033-.327 0-.552.013-.564.033zm-10.266 2.248c0 .018.045.033.1.033.054 0 .099.015.099.033 0 .019.023.033.053.033.028 0 .094.045.145.1a.424.424 0 00.12.1c.068 0 .31.48.31.614 0 .06.015.117.033.129.022.013.022.04 0 .082a.341.341 0 00-.033.136.752.752 0 01-.124.354c-.023.024-.042.056-.042.07a.523.523 0 01-.098.139.552.552 0 00-.1.136c0 .014-.03.025-.066.025-.036 0-.066.015-.066.033 0 .018-.03.033-.066.033-.037 0-.066.015-.066.033 0 .018-.03.033-.066.033-.037 0-.067.015-.067.033 0 .02-.12.033-.297.033-.176 0-.298-.013-.298-.033 0-.018-.041-.033-.092-.033a.18.18 0 01-.14-.066c-.025-.036-.06-.066-.076-.066-.05 0-.32-.291-.32-.346 0-.028-.015-.05-.033-.05-.018 0-.033-.03-.033-.067 0-.036-.015-.066-.033-.066-.018 0-.033-.051-.033-.114 0-.062-.015-.123-.033-.134-.018-.011-.033-.08-.033-.15 0-.072.015-.131.033-.131.018 0 .033-.052.033-.116 0-.063.015-.115.033-.115.018 0 .033-.03.033-.067 0-.036.012-.066.027-.066s.049-.04.075-.09c.053-.103.179-.24.22-.24.015 0 .049-.03.075-.066.026-.037.074-.067.106-.067s.059-.014.059-.033c0-.018.045-.033.1-.033.054 0 .098-.015.098-.033 0-.019.1-.033.232-.033s.231.014.231.033zm11.043 0c0 .018.044.033.1.033.054 0 .098.015.098.033 0 .019.027.033.06.033.031 0 .08.03.106.067.026.036.063.066.081.065.046 0 .25.237.25.29 0 .023.01.041.024.042.033 0 .107.163.107.235 0 .032.015.067.034.078.018.012.033.1.033.199 0 .098-.015.187-.034.198-.018.011-.033.046-.033.078 0 .072-.074.236-.107.236-.014 0-.025.022-.025.05 0 .027-.052.104-.116.172a.604.604 0 00-.115.149c0 .014-.02.026-.044.026-.023 0-.075.03-.114.066a.267.267 0 01-.155.066c-.046 0-.084.015-.084.033 0 .02-.121.033-.298.033-.176 0-.297-.013-.297-.033 0-.018-.03-.033-.066-.033-.037 0-.066-.015-.066-.033 0-.018-.023-.033-.05-.033-.05 0-.12-.05-.276-.2a.906.906 0 01-.203-.296 80.924 80.924 0 00-.067-.132c-.174-.346.226-1.323.543-1.323.029 0 .053-.014.053-.033 0-.018.044-.033.099-.033.054 0 .099-.015.099-.033 0-.019.1-.033.231-.033.133 0 .232.014.232.033z" fill="#2F8E4A"/></svg>