<svg width="110" height="110" fill="none" xmlns="http://www.w3.org/2000/svg"><path fill-rule="evenodd" clip-rule="evenodd" d="M6.748 26.111h56.667c6.667-3.333 26.667 0 26.667 10v13.58c3.333 0 11.012 1.42 14.345 4.753 2.655 7.63 1.943 14.939-1.012 25H6.748V26.112z" fill="#388E3C"/><path d="M80 90c7.364 0 13.333-5.97 13.333-13.333 0-7.364-5.97-13.334-13.333-13.334-7.364 0-13.333 5.97-13.333 13.334S72.637 90 80 90z" fill="#388E3C" stroke="#F4FCF5" stroke-width=".336"/><path d="M80 83.333A6.667 6.667 0 1080 70a6.667 6.667 0 000 13.333z" fill="#fff" stroke="#F4FCF5" stroke-width=".336"/><path fill-rule="evenodd" clip-rule="evenodd" d="M68.16 29.906c6.767-.355 16.87 2.552 16.87 7.657v12.005H68.16V29.906z" fill="#fff"/><path d="M63.843 20.37H6.748v36.146h57.096V20.37z" fill="#388E3C" stroke="#fff"/><path d="M30 90c7.364 0 13.333-5.97 13.333-13.333 0-7.364-5.97-13.334-13.333-13.334-7.364 0-13.333 5.97-13.333 13.334S22.637 90 30 90z" fill="#388E3C" stroke="#fff" stroke-width=".336"/><path d="M30 83.333A6.667 6.667 0 1030 70a6.667 6.667 0 000 13.333z" fill="#fff" stroke="#fff" stroke-width=".336"/><path d="M21.531 40.19h-5.449L15.066 46h-2.86l2.47-14.219h9.004l-.42 2.373h-6.133l-.645 3.672h5.47l-.42 2.364zm7.49.605h-2.324L25.79 46h-2.861l2.47-14.219 4.707.01c1.576 0 2.787.371 3.633 1.113.853.742 1.23 1.774 1.133 3.096-.137 1.953-1.178 3.31-3.125 4.072l2.002 5.772V46h-3.047l-1.68-5.205zm-1.914-2.373l2.13.02c.755-.014 1.376-.215 1.865-.606.494-.397.79-.934.888-1.611.091-.632-.01-1.127-.302-1.485-.293-.358-.759-.55-1.397-.576l-2.441-.01-.743 4.268zm17.686 1.416h-5.45l-.663 3.809h6.406L44.676 46h-9.268l2.47-14.219h9.249l-.42 2.373H40.33l-.596 3.389h5.47l-.411 2.295zm11.016 0h-5.45l-.664 3.809h6.407L55.692 46h-9.268l2.47-14.219h9.249l-.42 2.373h-6.377l-.596 3.389h5.469l-.41 2.295z" fill="#fff"/></svg>