<svg width="110" height="110" fill="none" xmlns="http://www.w3.org/2000/svg"><path d="M109.982 48.653a3.24 3.24 0 00-1.265-2.244l-8.714-6.6 3.171-10.46a3.243 3.243 0 00-2.364-4.095l-10.645-2.486-1.359-10.846a3.238 3.238 0 00-3.824-2.779l-10.735 2.06-5.654-9.356a3.24 3.24 0 00-4.624-.983l-8.97 6.248L46.03.864a3.24 3.24 0 00-4.624.983l-5.653 9.356-10.735-2.059a3.24 3.24 0 00-3.824 2.779l-1.359 10.846L9.19 25.254a3.24 3.24 0 00-2.364 4.094l3.17 10.461-8.713 6.6A3.238 3.238 0 00.79 51.11l7.15 8.268-5.275 9.573a3.24 3.24 0 001.461 4.496l9.895 4.644-.926 10.892a3.237 3.237 0 003.163 3.513l10.93.218 3.583 10.326a3.238 3.238 0 004.319 1.923l10.073-4.246 7.474 7.976a3.24 3.24 0 004.728 0l7.474-7.976 10.073 4.246a3.238 3.238 0 004.319-1.923l3.584-10.326 10.928-.218a3.239 3.239 0 003.163-3.513L95.98 78.09l9.895-4.644a3.24 3.24 0 001.461-4.496l-5.276-9.573 7.151-8.268a3.236 3.236 0 00.771-2.457zM55 85.997c-17.092 0-30.997-13.905-30.997-30.997S37.907 24.003 55 24.003 85.997 37.908 85.997 55 72.092 85.997 55 85.997z" fill="#388E3C"/><path d="M55 30.481c-13.52 0-24.519 11-24.519 24.519 0 13.52 11 24.518 24.519 24.518 13.52 0 24.518-10.999 24.518-24.518 0-13.52-10.998-24.52-24.518-24.52zm12.7 19.87L53.82 64.23a3.23 3.23 0 01-2.29.949 3.229 3.229 0 01-2.29-.95L42.3 57.29a3.24 3.24 0 014.581-4.58l4.65 4.648L63.117 45.77a3.24 3.24 0 014.582 4.581z" fill="#388E3C"/></svg>