<svg width="110" height="110" fill="none" xmlns="http://www.w3.org/2000/svg"><g clip-path="url(#clip0)"><path d="M23 53.5C23 70.897 37.327 85 55 85c17.673 0 32-14.103 32-31.5S72.673 22 55 22c-17.673 0-32 14.103-32 31.5z" fill="#388E3C" stroke="#fff" stroke-width=".112"/><path fill-rule="evenodd" clip-rule="evenodd" d="M35 62.5c14.194 3.548 28.387 3.548 39.032 0C63.387 73.145 45.645 73.145 35 62.5z" fill="#fff"/><path fill-rule="evenodd" clip-rule="evenodd" d="M18.5 42.5c-3.548 10.645-3.048 18.403.5 25.5C4.806 68 0 56.774 3.548 46.13c3.549-7.098 5.259-5.63 8.952-7.098C23.145 0 85.161 0 95.806 39.032c17.742 7.097 17.742 28.387 0 31.936C88.71 85.16 81.146 87.903 70.5 95c0 0-2.87 4.145-7 4.5-3.548 0-7-.5-7-6.5 0-3.5 3.5-5 7-4.5l3.92.21C78.063 85.16 88.71 79.194 92.257 65c2.189-6.548 2.417-11.644 0-18.87C78 3.5 26.5 13.5 18.5 42.5z" fill="#388E3C"/></g><defs><clipPath id="clip0"><path fill="#fff" d="M0 0h110v110H0z"/></clipPath></defs></svg>