<svg width="54" height="52" fill="none" xmlns="http://www.w3.org/2000/svg"><g clip-path="url(#clip0)"><path fill-rule="evenodd" clip-rule="evenodd" d="M24.191 19.913h-6.146c-1.08 0-1.96.88-1.96 1.96 0 1.082.88 1.962 1.96 1.962h6.146c1.082 0 1.962-.88 1.962-1.962 0-1.08-.88-1.96-1.962-1.96zm0-6.172h-6.146c-1.08 0-1.96.88-1.96 1.96 0 1.083.88 1.962 1.96 1.962h6.146c1.082 0 1.962-.88 1.962-1.961s-.88-1.96-1.962-1.96m0 12.264h-6.146c-1.08 0-1.96.88-1.96 1.96 0 1.082.88 1.962 1.96 1.962h6.146c1.082 0 1.962-.88 1.962-1.962 0-1.08-.88-1.96-1.962-1.96z" fill="#388E3C"/><path fill-rule="evenodd" clip-rule="evenodd" d="M28.989 40.485H13.11c.44-.919.671-1.929.67-2.969V11.465h28.936v16.673a9.706 9.706 0 013.937 4.529V9.504c0-1.082-.88-1.961-1.962-1.961H11.816c-1.082 0-1.963.88-1.963 1.961l.001 27.977a2.975 2.975 0 01-2.864 2.865c-1.611.035-3.012-1.23-3.067-2.83V19.33c0-1.082-.88-1.962-1.96-1.962C.88 17.368 0 18.248 0 19.33v18.187a6.906 6.906 0 006.891 6.89h25.425a9.694 9.694 0 01-3.327-3.922" fill="#313131"/><path clip-rule="evenodd" d="M45.39 36.346a7.732 7.732 0 11-15.464 0 7.732 7.732 0 0115.464 0z" stroke="#388E3C" stroke-width="4.114" stroke-linecap="round" stroke-linejoin="round"/><path d="M42.108 42.662l4.545 6.56" stroke="#388E3C" stroke-width="4.114" stroke-linecap="round" stroke-linejoin="round"/><path d="M47.478 2.559L44.2 5.831l-3.35-3.337c-.704-.55-1.52-.778-2.345-.665-.708.097-1.44.45-2.204 1.268a3.113 3.113 0 00.352 3.973l3.156 3.157-3.376 3.395c-.502.68-.714 1.445-.671 2.171a3.03 3.03 0 00.891 1.981c.562.562 1.291.87 2.066.889.725.018 1.5-.217 2.204-.77l3.277-3.278 3.352 3.34c.704.55 1.52.778 2.345.665.708-.097 1.44-.45 2.204-1.268.416-.599.61-1.325.545-2.052a3.094 3.094 0 00-.897-1.921l-3.157-3.156 3.377-3.395c.502-.68.714-1.445.672-2.171a3.03 3.03 0 00-.892-1.981 3.1 3.1 0 00-1.969-.903c-.711-.052-1.453.116-2.302.785v.001z" fill="#388E3C" stroke="#fff" stroke-width="2.057"/></g><defs><clipPath id="clip0"><path fill="#fff" d="M0 0h54v52H0z"/></clipPath></defs></svg>